<?xml version="1.0" encoding="UTF-8" standalone="no"?>
<svg width="31px" height="80px" viewBox="0 0 31 80" version="1.1" xmlns="http://www.w3.org/2000/svg" xmlns:xlink="http://www.w3.org/1999/xlink">
    <!-- Generator: Sketch 3.8.3 (29802) - http://www.bohemiancoding.com/sketch -->
    <title>Group 7 Copy 2</title>
    <desc>Created with Sketch.</desc>
    <defs></defs>
    <g id="Page-1" stroke="none" stroke-width="1" fill="none" fill-rule="evenodd">
        <g id="Artboard-2" transform="translate(-422.000000, -682.000000)">
            <g id="Group-7-Copy-2" transform="translate(422.000000, 682.000000)">
                <path d="M15.5,36.8253968 L16.2209302,79.6396404" id="Line" stroke="#3B4859" stroke-width="0.72" stroke-linecap="square" opacity="0.367887127"></path>
                <g id="Group-6">
                    <path d="M15.5,34.829932 C24.0604136,34.829932 31,24.2170501 31,15.600907 C31,6.98476399 24.0604136,0 15.5,0 C6.93958638,0 0,6.98476399 0,15.600907 C0,24.2170501 6.93958638,34.829932 15.5,34.829932 Z" id="Oval-1" fill="#559CEC"></path>
                    <ellipse id="Oval-2" fill="#FFFFFF" transform="translate(8.910178, 9.761402) rotate(-330.000000) translate(-8.910178, -9.761402) " cx="8.91017763" cy="9.76140206" rx="3.60465116" ry="4.89795918"></ellipse>
                    <ellipse id="Oval-2-Copy" fill="#FFFFFF" transform="translate(5.546088, 17.697832) rotate(-357.000000) translate(-5.546088, -17.697832) " cx="5.54608796" cy="17.697832" rx="1.47982609" ry="2.01077093"></ellipse>
                    <rect id="Rectangle-17" fill="#559CEC" x="14.4186047" y="34.4671202" width="2.1627907" height="1.81405896" rx="0.72"></rect>
                    <path d="M15.5,35.9183673 C16.0972382,35.9183673 16.7808145,36.3588896 17.0279845,36.9048948 L17.1202495,37.1087107 C17.3668939,37.6535547 17.0764189,38.0952381 16.4807636,38.0952381 L14.5192364,38.0952381 C13.9194137,38.0952381 13.6325805,37.6547158 13.8797505,37.1087107 L13.9720155,36.9048948 C14.2186599,36.3600507 14.898598,35.9183673 15.5,35.9183673 L15.5,35.9183673 Z" id="Rectangle-17-Copy" fill="#559CEC"></path>
                </g>
            </g>
        </g>
    </g>
</svg>