<?xml version="1.0" encoding="UTF-8" standalone="no"?>
<svg width="72px" height="28px" viewBox="0 0 72 28" version="1.1" xmlns="http://www.w3.org/2000/svg" xmlns:xlink="http://www.w3.org/1999/xlink">
    <!-- Generator: Sketch 3.8.3 (29802) - http://www.bohemiancoding.com/sketch -->
    <title>Page 1</title>
    <desc>Created with Sketch.</desc>
    <defs>
        <polygon id="path-1" points="35.9086547 27.6716329 0 27.6716329 0 -3.83561644e-05 35.9086547 -3.83561644e-05 71.8173095 -3.83561644e-05 71.8173095 27.6716329 35.9086547 27.6716329"></polygon>
    </defs>
    <g id="Page-1" stroke="none" stroke-width="1" fill="none" fill-rule="evenodd">
        <g id="Artboard-2" transform="translate(-306.000000, -285.000000)">
            <g id="Page-1" transform="translate(306.000000, 285.000000)">
                <mask id="mask-2" fill="white">
                    <use xlink:href="#path-1"></use>
                </mask>
                <g id="Clip-2"></g>
                <path d="M71.8173095,27.6716329 C70.8994989,24.4543178 67.9702358,22.1004 64.4960463,22.1004 C64.1625726,22.1004 63.8347832,22.1245644 63.5126779,22.1663726 C61.6994147,17.9771123 57.5692674,15.0490027 52.7611832,15.0490027 C50.6758358,15.0490027 48.7193305,15.6020986 47.0224042,16.5675233 C46.9000042,7.39694795 39.52152,-3.83561644e-05 30.4324674,-3.83561644e-05 C21.2672463,-3.83561644e-05 13.8372253,7.52045479 13.8372253,16.7976603 C13.8372253,17.0281808 13.8451832,17.2571671 13.8542779,17.4857699 C13.1373095,17.3473041 12.3979832,17.2717425 11.6412253,17.2717425 C5.65499368,17.2717425 0.719204211,21.8096603 -3.78947368e-05,27.6716329 L71.8173095,27.6716329 Z" id="Fill-1" fill="#FFFFFF" mask="url(#mask-2)"></path>
            </g>
        </g>
    </g>
</svg>