<?xml version="1.0" encoding="UTF-8" standalone="no"?>
<svg width="112px" height="43px" viewBox="0 0 112 43" version="1.1" xmlns="http://www.w3.org/2000/svg" xmlns:xlink="http://www.w3.org/1999/xlink">
    <!-- Generator: Sketch 3.8.3 (29802) - http://www.bohemiancoding.com/sketch -->
    <title>Page 1</title>
    <desc>Created with Sketch.</desc>
    <defs></defs>
    <g id="Page-1" stroke="none" stroke-width="1" fill="none" fill-rule="evenodd">
        <g id="Artboard-2" transform="translate(0.000000, -235.000000)" fill="#FFFFFF">
            <path d="M0,278 C1.3553592,273.405986 5.57651428,270.0525 10.5811243,270.0525 C11.7338968,270.0525 12.8449866,270.231587 13.8897426,270.561342 C13.7570752,269.641998 13.6867076,268.702805 13.6867076,267.746471 C13.6867076,256.920494 22.4064541,248.144321 33.1628249,248.144321 C33.6576386,248.144321 34.1466257,248.16868 34.6324753,248.20522 C38.8944167,240.338466 47.1847868,235.000135 56.7144321,235.000135 C69.0327827,235.000135 79.2741708,243.920661 81.4268792,255.691694 C82.0857344,255.607338 82.7562428,255.559071 83.4379562,255.559071 C92.1599437,255.559071 99.2307594,262.675191 99.2307594,271.454071 C104.480087,271.454071 109.128378,274.033468 112,278 L0,278 Z" id="Page-1"></path>
        </g>
    </g>
</svg>