<?xml version="1.0" encoding="UTF-8" standalone="no"?>
<svg width="39px" height="100px" viewBox="0 0 39 100" version="1.1" xmlns="http://www.w3.org/2000/svg" xmlns:xlink="http://www.w3.org/1999/xlink">
    <!-- Generator: Sketch 3.8.3 (29802) - http://www.bohemiancoding.com/sketch -->
    <title>Group 7</title>
    <desc>Created with Sketch.</desc>
    <defs></defs>
    <g id="Page-1" stroke="none" stroke-width="1" fill="none" fill-rule="evenodd">
        <g id="Artboard-2" transform="translate(-191.000000, -196.000000)">
            <g id="Group-7" transform="translate(191.000000, 196.000000)">
                <path d="M19.5,46.031746 L20.4069767,99.5495505" id="Line" stroke="#3B4859" stroke-width="0.9" stroke-linecap="square" opacity="0.367887127"></path>
                <g id="Group-6">
                    <path d="M19.5,43.537415 C30.2695526,43.537415 39,30.2713126 39,19.5011338 C39,8.73095499 30.2695526,0 19.5,0 C8.73044738,0 0,8.73095499 0,19.5011338 C0,30.2713126 8.73044738,43.537415 19.5,43.537415 Z" id="Oval-1" fill="#FC673E"></path>
                    <ellipse id="Oval-2" fill="#FFFFFF" transform="translate(11.209578, 12.201753) rotate(-330.000000) translate(-11.209578, -12.201753) " cx="11.2095783" cy="12.2017526" rx="4.53488372" ry="6.12244898"></ellipse>
                    <ellipse id="Oval-2-Copy" fill="#FFFFFF" transform="translate(6.977336, 22.122290) rotate(-357.000000) translate(-6.977336, -22.122290) " cx="6.97733646" cy="22.1222901" rx="1.86171669" ry="2.51346366"></ellipse>
                    <rect id="Rectangle-17" fill="#FB673F" x="18.1395349" y="43.0839002" width="2.72093023" height="2.2675737" rx="0.9"></rect>
                    <path d="M19.5,44.8979592 C20.2513641,44.8979592 21.1113473,45.448612 21.4223031,46.1311185 L21.5383784,46.3858883 C21.8486729,47.0669434 21.4832367,47.6190476 20.7338639,47.6190476 L18.2661361,47.6190476 C17.5115205,47.6190476 17.1506658,47.0683948 17.4616216,46.3858883 L17.5776969,46.1311185 C17.8879915,45.4500634 18.7433975,44.8979592 19.5,44.8979592 L19.5,44.8979592 Z" id="Rectangle-17-Copy" fill="#FB673F"></path>
                </g>
            </g>
        </g>
    </g>
</svg>