<?xml version="1.0" encoding="UTF-8" standalone="no"?>
<svg width="31px" height="41px" viewBox="0 0 31 41" version="1.1" xmlns="http://www.w3.org/2000/svg" xmlns:xlink="http://www.w3.org/1999/xlink">
    <!-- Generator: Sketch 3.8.3 (29802) - http://www.bohemiancoding.com/sketch -->
    <title>Page 1</title>
    <desc>Created with Sketch.</desc>
    <defs>
        <polygon id="path-1" points="26.9631754 0.0885025823 0.221742537 0.0885025823 0.221742537 28.8923514 26.9631754 28.8923514 26.9631754 0.0885025823"></polygon>
    </defs>
    <g id="Page-1" stroke="none" stroke-width="1" fill="none" fill-rule="evenodd">
        <g id="Artboard-2" transform="translate(-433.000000, -394.000000)">
            <g id="Page-1" transform="translate(433.000000, 394.000000)">
                <path id="Stroke-1" stroke="#351F5B" stroke-width="0.9" stroke-linecap="round"></path>
                <path d="M6.45054478,22.5932305 L11.4066119,33.0929976" id="Stroke-2" stroke="#351F5B" stroke-width="0.9" stroke-linecap="round"></path>
                <path d="M24.2649493,22.5932305 L19.3088821,33.0929976" id="Stroke-3" stroke="#351F5B" stroke-width="0.9" stroke-linecap="round"></path>
                <path id="Stroke-4" stroke="#351F5B" stroke-width="0.9" stroke-linecap="round"></path>
                <g id="Group-23" transform="translate(0.000000, 0.135555)">
                    <path d="M7.30836567,6.28937439 C7.30836567,8.24404915 5.67230597,9.8283574 3.65429851,9.8283574 C1.6360597,9.8283574 0,8.24404915 0,6.28937439 C0,4.33469964 1.6360597,2.75039139 3.65429851,2.75039139 C5.67230597,2.75039139 7.30836567,4.33469964 7.30836567,6.28937439" id="Fill-5" fill="#351F5B"></path>
                    <path d="M30.8864104,6.28937439 C30.8864104,8.24404915 29.2503507,9.8283574 27.2323433,9.8283574 C25.2141045,9.8283574 23.5780448,8.24404915 23.5780448,6.28937439 C23.5780448,4.33469964 25.2141045,2.75039139 27.2323433,2.75039139 C29.2503507,2.75039139 30.8864104,4.33469964 30.8864104,6.28937439" id="Fill-7" fill="#351F5B"></path>
                    <path d="M20.6935642,35.1794852 L20.6944896,35.1792611 C20.0485791,34.4936462 20.0485791,34.4936462 19.7427433,34.1687633 L19.7422806,34.1689873 C19.5819597,33.999152 19.3323403,33.9196117 19.0871164,33.983468 C18.8418925,34.0475484 18.6674597,34.2379969 18.6167955,34.4627263 L18.6165642,34.4627263 C18.5205567,34.8924679 18.5205567,34.8924679 18.3179,35.7994514 L18.318594,35.7992273 C18.2730194,36.0019991 18.2746388,36.2179902 18.334094,36.4321888 C18.5332806,37.1473793 19.2932433,37.5710714 20.031691,37.3781582 C20.7701388,37.185469 21.2073776,36.4494412 21.0084224,35.7342507 C20.9489672,35.5200521 20.8381537,35.3327403 20.6935642,35.1794852" id="Fill-9" fill="#351F5B"></path>
                    <path d="M10.1928463,35.1794852 L10.1919209,35.1792611 C10.8378313,34.4936462 10.8378313,34.4936462 11.1436672,34.1687633 L11.1441299,34.1689873 C11.3044507,33.999152 11.5540701,33.9196117 11.799294,33.983468 C12.0445179,34.0475484 12.2189507,34.2379969 12.2696149,34.4627263 L12.2698463,34.4627263 C12.3658537,34.8924679 12.3658537,34.8924679 12.5685104,35.7994514 L12.5678164,35.7992273 C12.613391,36.0019991 12.6117716,36.2179902 12.5523164,36.4321888 C12.3531299,37.1473793 11.5931672,37.5710714 10.8547194,37.3781582 C10.1162716,37.185469 9.67903284,36.4494412 9.87798806,35.7342507 C9.93744328,35.5200521 10.0482567,35.3327403 10.1928463,35.1794852" id="Fill-11" fill="#351F5B"></path>
                    <polygon id="Fill-13" fill="#FCC000" points="19.1368321 40.3302907 11.7495784 40.3302907 10.802459 32.9574654 20.0839515 32.9574654"></polygon>
                    <path d="M16.6564388,35.959473 L16.6573642,35.959473 C16.2238269,35.1459214 16.2238269,35.1459214 16.0186254,34.760319 L16.0181627,34.760319 C15.9103567,34.5588916 15.6935881,34.4208724 15.4432746,34.4208724 C15.1927299,34.4208724 14.9759612,34.5588916 14.8683866,34.760319 L14.8679239,34.760319 C14.662491,35.1459214 14.662491,35.1459214 14.2291851,35.959473 L14.2298791,35.959473 C14.1327149,36.1414074 14.0769612,36.347316 14.0769612,36.5662198 C14.0769612,37.2968702 14.6886328,37.8892774 15.4432746,37.8892774 C16.1976851,37.8892774 16.8093567,37.2968702 16.8093567,36.5662198 C16.8093567,36.347316 16.753603,36.1414074 16.6564388,35.959473" id="Fill-15" fill="#351F5B"></path>
                    <g id="Group-19" transform="translate(1.850746, 0.000000)">
                        <mask id="mask-2" fill="white">
                            <use xlink:href="#path-1"></use>
                        </mask>
                        <g id="Clip-18"></g>
                        <path d="M10.2581082,28.8923514 L16.9268097,28.8923514 C17.0790336,27.0317806 18.1864739,25.3695005 19.8768993,24.470135 C24.0931306,22.2914031 26.9631754,17.9897294 26.9631754,13.038066 C26.9631754,5.88616111 20.9769366,0.0884577708 13.592459,0.0884577708 C6.20798134,0.0884577708 0.221742537,5.88616111 0.221742537,13.038066 C0.221742537,17.9897294 3.09178731,22.2914031 7.30801866,24.470135 C8.99844403,25.3695005 10.1058843,27.0317806 10.2581082,28.8923514" id="Fill-17" fill="#E88064" mask="url(#mask-2)"></path>
                    </g>
                    <g id="Group-22" transform="translate(6.940299, 0.000000)">
                        <path d="M6.48986291,28.8923514 L10.515858,28.8923514 C10.6078384,27.0317806 11.2765469,25.3695005 12.2970542,24.470135 C14.8423754,22.2914031 16.5752026,17.9897294 16.5752026,13.038066 C16.5752026,5.88616111 12.9610051,0.0884577708 8.50286045,0.0884577708 C4.04471581,0.0884577708 0.430518284,5.88616111 0.430518284,13.038066 C0.430518284,17.9897294 2.16334547,22.2914031 4.70893099,24.470135 C5.72943828,25.3695005 6.39788245,27.0317806 6.48986291,28.8923514" id="Fill-20" fill="#8B63EA"></path>
                        <ellipse id="Oval-3" fill="#E88064" cx="8.32835821" cy="14.7065217" rx="2.7761194" ry="14.2608696"></ellipse>
                    </g>
                </g>
            </g>
        </g>
    </g>
</svg>