<?xml version="1.0" encoding="UTF-8" standalone="no"?>
<svg width="60px" height="82px" viewBox="0 0 60 82" version="1.1" xmlns="http://www.w3.org/2000/svg" xmlns:xlink="http://www.w3.org/1999/xlink">
    <!-- Generator: Sketch 3.8.3 (29802) - http://www.bohemiancoding.com/sketch -->
    <title>Page 1</title>
    <desc>Created with Sketch.</desc>
    <defs>
        <polygon id="path-1" points="52.186791 0.179163764 0.429179104 0.179163764 0.429179104 58.4893942 52.186791 58.4893942 52.186791 0.179163764"></polygon>
        <polygon id="path-3" points="27.4456567 0.179163764 0.0955074627 0.179163764 0.0955074627 58.4893942 27.4456567 58.4893942"></polygon>
    </defs>
    <g id="Page-1" stroke="none" stroke-width="1" fill="none" fill-rule="evenodd">
        <g id="Artboard-2" transform="translate(-965.000000, -305.000000)">
            <g id="Page-1" transform="translate(965.000000, 305.000000)">
                <path d="M24.9445522,58.4076592 L25.6869403,66.9930054" id="Stroke-1" stroke="#351F5B" stroke-width="1.8" stroke-linecap="round"></path>
                <path d="M12.4849254,45.7375154 L22.0773134,66.9931415" id="Stroke-2" stroke="#351F5B" stroke-width="1.8" stroke-linecap="round"></path>
                <path d="M46.9644179,45.7375154 L37.3720299,66.9931415" id="Stroke-3" stroke="#351F5B" stroke-width="1.8" stroke-linecap="round"></path>
                <path d="M34.627791,58.4076592 L33.885403,66.9930054" id="Stroke-4" stroke="#351F5B" stroke-width="1.8" stroke-linecap="round"></path>
                <g id="Group-23" transform="translate(0.000000, 0.274415)">
                    <path d="M14.1452239,12.7321482 C14.1452239,16.6891727 10.9786567,19.8964308 7.07283582,19.8964308 C3.16656716,19.8964308 0,16.6891727 0,12.7321482 C0,8.77512366 3.16656716,5.56786549 7.07283582,5.56786549 C10.9786567,5.56786549 14.1452239,8.77512366 14.1452239,12.7321482" id="Fill-5" fill="#351F5B"></path>
                    <path d="M59.7801493,12.7321482 C59.7801493,16.6891727 56.6135821,19.8964308 52.7077612,19.8964308 C48.8014925,19.8964308 45.6349254,16.6891727 45.6349254,12.7321482 C45.6349254,8.77512366 48.8014925,5.56786549 52.7077612,5.56786549 C56.6135821,5.56786549 59.7801493,8.77512366 59.7801493,12.7321482" id="Fill-7" fill="#351F5B"></path>
                    <path d="M40.0520597,71.2170066 L40.0538507,71.216553 C38.8037015,69.8286008 38.8037015,69.8286008 38.2117612,69.170911 L38.2108657,69.1713646 C37.9005672,68.8275516 37.4174328,68.666531 36.942806,68.7958011 C36.4681791,68.9255247 36.1305672,69.311067 36.0325075,69.7660069 L36.0320597,69.7660069 C35.8462388,70.6359717 35.8462388,70.6359717 35.454,72.4720601 L35.4553433,72.4716065 C35.3671343,72.8820956 35.3702687,73.3193459 35.4853433,73.7529676 C35.8708657,75.2007923 37.3417612,76.0585104 38.7710149,75.6679788 C40.2002687,75.2779007 41.0465373,73.7878932 40.6614627,72.3400686 C40.5463881,71.9064469 40.3319104,71.5272547 40.0520597,71.2170066" id="Fill-9" fill="#351F5B"></path>
                    <path d="M19.7280896,71.2170066 L19.7262985,71.216553 C20.9764478,69.8286008 20.9764478,69.8286008 21.5683881,69.170911 L21.5692836,69.1713646 C21.8795821,68.8275516 22.3627164,68.666531 22.8373433,68.7958011 C23.3119701,68.9255247 23.6495821,69.311067 23.7476418,69.7660069 L23.7480896,69.7660069 C23.9339104,70.6359717 23.9339104,70.6359717 24.3261493,72.4720601 L24.324806,72.4716065 C24.4130149,72.8820956 24.4098806,73.3193459 24.294806,73.7529676 C23.9092836,75.2007923 22.4383881,76.0585104 21.0091343,75.6679788 C19.5798806,75.2779007 18.7336119,73.7878932 19.1186866,72.3400686 C19.2337612,71.9064469 19.4482388,71.5272547 19.7280896,71.2170066" id="Fill-11" fill="#351F5B"></path>
                    <polygon id="Fill-13" fill="#FCC000" points="37.0390299 81.6442469 22.7411194 81.6442469 20.9079851 66.7187714 38.8721642 66.7187714"></polygon>
                    <path d="M32.2382687,72.7960063 L32.2400597,72.7960063 C31.4009552,71.1490604 31.4009552,71.1490604 31.003791,70.3684507 L31.0028955,70.3684507 C30.7942388,69.9606831 30.3746866,69.6812783 29.890209,69.6812783 C29.4052836,69.6812783 28.9857313,69.9606831 28.7775224,70.3684507 L28.7766269,70.3684507 C28.3790149,71.1490604 28.3790149,71.1490604 27.5403582,72.7960063 L27.5417015,72.7960063 C27.3536418,73.1643126 27.2457313,73.5811518 27.2457313,74.0242987 C27.2457313,75.5034203 28.4296119,76.7026835 29.890209,76.7026835 C31.3503582,76.7026835 32.5342388,75.5034203 32.5342388,74.0242987 C32.5342388,73.5811518 32.4263284,73.1643126 32.2382687,72.7960063" id="Fill-15" fill="#351F5B"></path>
                    <g id="Group-19" transform="translate(3.582090, 0.000000)">
                        <mask id="mask-2" fill="white">
                            <use xlink:href="#path-1"></use>
                        </mask>
                        <g id="Clip-18"></g>
                        <path d="M19.854403,58.4893942 L32.7615672,58.4893942 C33.056194,54.722873 35.1996269,51.3577692 38.4714179,49.5371025 C46.6318657,45.1264989 52.186791,36.4182328 52.186791,26.3941336 C52.186791,11.9158871 40.6005224,0.179073048 26.3079851,0.179073048 C12.0154478,0.179073048 0.429179104,11.9158871 0.429179104,26.3941336 C0.429179104,36.4182328 5.98410448,45.1264989 14.1445522,49.5371025 C17.4163433,51.3577692 19.5597761,54.722873 19.854403,58.4893942" id="Fill-17" fill="#FFFFFF" mask="url(#mask-2)"></path>
                    </g>
                    <g id="Group-22" transform="translate(16.119403, 0.000000)">
                        <mask id="mask-4" fill="white">
                            <use xlink:href="#path-3"></use>
                        </mask>
                        <g id="Clip-21"></g>
                        <path d="M10.3604328,58.4893942 L17.1807313,58.4893942 C17.3365522,54.722873 18.4693881,51.3577692 20.198194,49.5371025 C24.5101343,45.1264989 27.4456567,36.4182328 27.4456567,26.3941336 C27.4456567,11.9158871 21.3229701,0.179073048 13.7705821,0.179073048 C6.21819403,0.179073048 0.0955074627,11.9158871 0.0955074627,26.3941336 C0.0955074627,36.4182328 3.03102985,45.1264989 7.34341791,49.5371025 C9.07222388,51.3577692 10.2046119,54.722873 10.3604328,58.4893942" id="Fill-20" fill="#E6FBFF" mask="url(#mask-4)"></path>
                    </g>
                </g>
            </g>
        </g>
    </g>
</svg>