<?xml version="1.0" encoding="UTF-8" standalone="no"?>
<svg width="91px" height="39px" viewBox="0 0 91 39" version="1.1" xmlns="http://www.w3.org/2000/svg" xmlns:xlink="http://www.w3.org/1999/xlink">
    <!-- Generator: Sketch 3.8.3 (29802) - http://www.bohemiancoding.com/sketch -->
    <title>Page 1</title>
    <desc>Created with Sketch.</desc>
    <defs>
        <polygon id="path-1" points="90.9075809 0.192587629 0.267354783 0.192587629 0.267354783 16.5230134 90.9075809 16.5230134"></polygon>
    </defs>
    <g id="Page-1" stroke="none" stroke-width="1" fill="none" fill-rule="evenodd">
        <g id="Artboard-2" transform="translate(-1103.000000, -258.000000)">
            <g id="Page-1" transform="translate(1101.000000, 258.000000)">
                <path id="Stroke-1" stroke="#52348C" stroke-width="1.6128" stroke-linecap="round"></path>
                <path d="M55.8905335,38.807533 L38.43969,38.807533 C36.4539378,38.807533 34.5935335,37.8425845 33.4569117,36.2230794 L30.0502813,31.3689866 L57.1395639,31.3689866 L57.1395639,37.5655639 C57.1395639,38.2514814 56.5803509,38.807533 55.8905335,38.807533" id="Fill-3" fill="#3B2572"></path>
                <path d="M85.3915487,31.8266134 L87.3122009,31.8266134 L87.3122009,1.63860309 L85.3915487,1.63860309 C80.8503183,1.63860309 77.1687313,5.29937629 77.1687313,9.81493299 L77.1687313,23.6502835 C77.1687313,28.1658402 80.8503183,31.8266134 85.3915487,31.8266134" id="Fill-5" fill="#52348C"></path>
                <g id="Group-9" transform="translate(2.021739, 0.209595)">
                    <mask id="mask-2" fill="white">
                        <use xlink:href="#path-1"></use>
                    </mask>
                    <g id="Clip-8"></g>
                    <path d="M38.8409243,0.19246701 C13.5744417,0.19246701 0.267354783,7.50396186 0.267354783,16.5230134 L90.9075809,16.5230134 C90.9075809,7.50396186 65.9734722,0.19246701 38.8409243,0.19246701" id="Fill-7" fill="#E88064" mask="url(#mask-2)"></path>
                </g>
                <path d="M40.8626635,33.0630742 C68.3324374,33.0630742 92.92932,25.7515794 92.92932,16.7325278 L2.28909391,16.7325278 C2.28909391,25.7515794 17.8075591,33.0630742 40.8626635,33.0630742" id="Fill-10" fill="#52348C"></path>
                <path d="M40.8626635,7.71544639 C22.0431026,7.71544639 2.28909391,11.7525495 2.28909391,16.7324876 L92.92932,16.7324876 C92.92932,11.7525495 59.6822243,7.71544639 40.8626635,7.71544639" id="Fill-12" fill="#B065E5"></path>
                <path d="M40.8626635,25.7496897 C59.6822243,25.7496897 92.92932,21.7125866 92.92932,16.7326485 L2.28909391,16.7326485 C2.28909391,21.7125866 22.0431026,25.7496897 40.8626635,25.7496897" id="Fill-14" fill="#8B63EB"></path>
                <path d="M82.0327122,14.7960371 C77.7575426,14.7960371 76.54086,15.6628825 76.54086,16.7327691 L89.773547,16.7327691 C89.773547,15.6628825 86.3078817,14.7960371 82.0327122,14.7960371" id="Fill-16" fill="#52348C"></path>
                <path d="M82.0327122,18.6691392 C86.3078817,18.6691392 89.773547,17.8022938 89.773547,16.7324072 L76.54086,16.7324072 C76.54086,17.8022938 77.7575426,18.6691392 82.0327122,18.6691392" id="Fill-18" fill="#52348C"></path>
            </g>
        </g>
    </g>
</svg>