<?xml version="1.0" encoding="UTF-8" standalone="no"?>
<svg width="46px" height="21px" viewBox="0 0 46 21" version="1.1" xmlns="http://www.w3.org/2000/svg" xmlns:xlink="http://www.w3.org/1999/xlink" xmlns:sketch="http://www.bohemiancoding.com/sketch/ns">
    <!-- Generator: Sketch 3.4 (15575) - http://www.bohemiancoding.com/sketch -->
    <title>Imported Layers</title>
    <desc>Created with Sketch.</desc>
    <defs></defs>
    <g id="JOB-POPUP" stroke="none" stroke-width="1" fill="none" fill-rule="evenodd" sketch:type="MSPage">
        <path d="M3.64981967,10.9179295 L6.50381967,10.9989295 C6.47581967,10.5239295 6.45181967,10.3289295 6.46181967,9.99392948 C6.57881967,5.84192948 10.0428197,2.56092948 14.1968197,2.67792948 C16.4368197,2.74192948 18.4158197,3.77992948 19.7498197,5.37392948 C21.4108197,2.10792948 25.2158197,-0.119070521 29.5838197,0.0049294794 C35.3628197,0.168929479 39.9318197,4.39492948 39.7888197,9.42692948 C39.7648197,10.2929295 39.5958197,10.9879295 39.3088197,11.9299295 L42.5108197,12.0209295 C44.4608197,12.0759295 45.9918197,13.9209295 45.9288197,16.1509295 C45.8648197,18.3799295 44.2328197,20.1369295 42.2818197,20.0809295 L3.42081967,18.9769295 C1.46981967,18.9219295 -0.0601803302,17.0769295 0.00181966983,14.8469295 C0.0658196698,12.6169295 1.69881967,10.8629295 3.64981967,10.9179295" id="Imported-Layers" fill="#FFFFFF" sketch:type="MSShapeGroup"></path>
    </g>
</svg>
