<?xml version="1.0" encoding="UTF-8" standalone="no"?>
<svg width="76px" height="39px" viewBox="0 0 76 39" version="1.1" xmlns="http://www.w3.org/2000/svg" xmlns:xlink="http://www.w3.org/1999/xlink" xmlns:sketch="http://www.bohemiancoding.com/sketch/ns">
    <!-- Generator: Sketch 3.4 (15575) - http://www.bohemiancoding.com/sketch -->
    <title>Imported Layers</title>
    <desc>Created with Sketch.</desc>
    <defs></defs>
    <g id="JOB-POPUP" stroke="none" stroke-width="1" fill="none" fill-rule="evenodd" sketch:type="MSPage">
        <path d="M69.5261384,22.9910571 L64.8442516,22.9910571 C64.9130818,21.8767714 64.9618365,21.3207429 64.9618365,20.6805857 C64.9618365,12.7407429 59.4386918,6.08845714 52.6254591,6.08845714 C48.9511698,6.08845714 45.6607044,7.86574286 43.4007799,10.8381 C40.8306415,4.50951429 34.6980629,0 27.5339874,0 C18.0569308,0 10.373761,8.19557143 10.373761,17.8140857 C10.373761,19.4721429 10.6161006,21.3196286 11.0438994,22.9910571 L5.79368553,22.9910571 C2.59355975,22.9910571 0,26.5278 0,30.7910571 C0,35.0520857 2.59355975,38.5910571 5.79368553,38.5910571 L69.5261384,38.5910571 C72.7262642,38.5910571 75.3207799,35.0520857 75.3207799,30.7910571 C75.3207799,26.5278 72.7262642,22.9910571 69.5261384,22.9910571" id="Imported-Layers" fill="#FFFFFF" sketch:type="MSShapeGroup"></path>
    </g>
</svg>
