<?xml version="1.0" encoding="UTF-8" standalone="no"?>
<svg width="460px" height="207px" viewBox="0 0 460 207" version="1.1" xmlns="http://www.w3.org/2000/svg" xmlns:xlink="http://www.w3.org/1999/xlink" xmlns:sketch="http://www.bohemiancoding.com/sketch/ns">
    <!-- Generator: Sketch 3.4 (15575) - http://www.bohemiancoding.com/sketch -->
    <title>scene</title>
    <desc>Created with Sketch.</desc>
    <defs></defs>
    <g id="JOB-POPUP" stroke="none" stroke-width="1" fill="none" fill-rule="evenodd" sketch:type="MSPage">
        <g id="scene" sketch:type="MSLayerGroup">
            <rect id="Rectangle-5" fill="#C9EFF9" sketch:type="MSShapeGroup" x="0" y="0" width="460" height="161"></rect>
            <rect id="Rectangle-4" fill="#27AE60" sketch:type="MSShapeGroup" x="0" y="137" width="460" height="60"></rect>
            <rect id="Rectangle-4-Copy" fill="#1C9951" sketch:type="MSShapeGroup" x="0" y="147" width="460" height="60"></rect>
            <path d="M10,38.8025965 C10,22.8943158 23.003087,10 39.0444174,10 C55.0852348,10 68.0883217,22.8943158 68.0883217,38.8025965 C68.0883217,54.7093509 55.0852348,67.6046842 39.0444174,67.6046842 C23.003087,67.6046842 10,54.7093509 10,38.8025965" id="Imported-Layers" fill="#FFAB03" sketch:type="MSShapeGroup"></path>
            <g id="Imported-Layers" transform="translate(405.000000, 89.000000)" sketch:type="MSShapeGroup">
                <path d="M22.3928571,54.1058118 C22.3928571,55.9010824 20.99975,57.3565412 19.21375,57.3565412 C17.1922857,57.3565412 15.6071429,55.7079765 15.6071429,53.6752471 L15.6071429,21.8352941 L22.3928571,21.8352941 L22.3928571,54.1058118" id="Fill-1" fill="#774D1F"></path>
                <path d="M37.2915714,42.4218824 C37.7401071,43.2140941 37.7346786,44.1878118 37.2773214,44.9745647 C36.8192857,45.762 35.9778571,46.2437412 35.0712857,46.2382824 L18.9837143,46.1448 L2.89546429,46.052 C1.98821429,46.0465412 1.15289286,45.5552471 0.704357143,44.7630353 C0.255821429,43.9708235 0.26125,42.9977882 0.718607143,42.2096706 L19.1872857,10.4666118 L37.2915714,42.4218824" id="Fill-2" fill="#124C41"></path>
                <path d="M35.0862143,46.4095529 L35.0712857,46.4095529 L2.89478571,46.2232706 C1.92985714,46.2171294 1.03346429,45.6903529 0.556428571,44.8476471 C0.0787142857,44.0042588 0.0848214286,42.9609412 0.572035714,42.1236941 L19.1893214,10.1240706 L37.4401786,42.3372706 C37.9172143,43.1799765 37.9111071,44.2232941 37.4238929,45.0605412 C36.9400714,45.8923294 36.0443571,46.4095529 35.0862143,46.4095529 L35.0862143,46.4095529 Z M19.18525,10.8084706 L0.865857143,42.2963294 C0.439714286,43.0291765 0.434964286,43.9414824 0.852285714,44.6784235 C1.26960714,45.4153647 2.05267857,45.8752706 2.89546429,45.8800471 L35.0862143,46.0670118 C35.92425,46.0670118 36.7073214,45.6152941 37.13075,44.8879059 C37.5562143,44.1557412 37.5616429,43.2434353 37.1436429,42.5071765 L19.18525,10.8084706 L19.18525,10.8084706 Z" id="Fill-3" fill="#124C41"></path>
                <path d="M32.4608214,25.3883059 C32.9093571,26.1805176 32.9039286,27.1535529 32.4458929,27.9409882 C31.9885357,28.7284235 31.1471071,29.2101647 30.2398571,29.2047059 L18.9843929,29.1392 L7.72689286,29.0736941 C6.82032143,29.0689176 5.98432143,28.5776235 5.53578571,27.7854118 C5.08657143,26.9932 5.092,26.0194824 5.55071429,25.2320471 L19.1391071,1.87578824 L32.4608214,25.3883059" id="Fill-4" fill="#278266"></path>
                <path d="M30.2547857,30.0173882 L30.2357857,30.0173882 L7.72282143,29.8870588 C6.52989286,29.8802353 5.42314286,29.2292706 4.83346429,28.188 C4.24378571,27.1467294 4.25057143,25.8570824 4.85246429,24.8219529 L19.1492857,0.249741176 L33.1631429,24.9857176 C33.7528214,26.0276706 33.7453571,27.3173176 33.1441429,28.3517647 C32.5456429,29.3793882 31.4382143,30.0173882 30.2547857,30.0173882 L30.2547857,30.0173882 Z M19.1296071,3.50251765 L6.24760714,25.6428235 C5.93614286,26.1777882 5.93342857,26.8444471 6.23810714,27.3828235 C6.54346429,27.9212 7.1155,28.2582824 7.73164286,28.2616941 L30.2547857,28.3920235 C30.8668571,28.3920235 31.4388929,28.0624471 31.7483214,27.5308941 C32.0591071,26.9959294 32.0631786,26.3299529 31.7578214,25.7908941 L19.1296071,3.50251765 L19.1296071,3.50251765 Z" id="Fill-5" fill="#278266"></path>
                <path d="M28.0745357,13.8831529 C28.52375,14.6760471 28.5183214,15.6490824 28.0609643,16.4358353 C27.6029286,17.2232706 26.7615,17.7043294 25.8549286,17.6988706 L18.9837143,17.6599765 L12.1125,17.6197176 C11.2059286,17.6149412 10.3699286,17.1229647 9.92139286,16.3314353 C9.47217857,15.5378588 9.47760714,14.5655059 9.93632143,13.7787529 L16.8753929,1.85054118 C17.3334286,1.06310588 18.1741786,0.581364706 19.0814286,0.586141176 C19.988,0.5916 20.8233214,1.08357647 21.2725357,1.87578824 L28.0745357,13.8831529" id="Fill-6" fill="#36B280"></path>
                <path d="M24.5744643,15.1339059 C24.2786071,15.1339059 23.9908929,14.9783294 23.8334643,14.7012941 L18.9083929,6.00811765 C18.6756429,5.59734118 18.8181429,5.07465882 19.2266429,4.84061176 C19.6344643,4.60588235 20.1549286,4.74985882 20.3876786,5.15995294 L25.31275,13.8544941 C25.5455,14.2645882 25.403,14.7872706 24.9945,15.0213176 C24.8621786,15.0970588 24.7176429,15.1339059 24.5744643,15.1339059" id="Fill-7" fill="#B4DAC9"></path>
            </g>
        </g>
    </g>
</svg>
