<?xml version="1.0" encoding="UTF-8" standalone="no"?>
<svg width="455px" height="176px" viewBox="0 0 455 176" version="1.1" xmlns="http://www.w3.org/2000/svg" xmlns:xlink="http://www.w3.org/1999/xlink">
    <!-- Generator: Sketch 39 (31667) - http://www.bohemiancoding.com/sketch -->
    <title>Group 10</title>
    <desc>Created with Sketch.</desc>
    <defs>
        <path d="M135.909308,51.7055029 L142.293923,51.7055029 C155.063154,51.7055029 165.429753,41.225784 165.429753,28.3180529 C165.429753,15.4110012 155.063154,4.93128233 142.293923,4.93128233 C129.524692,4.93128233 119.157421,15.4110012 119.157421,28.3180529 L119.157421,34.7719184 C119.094247,44.1014906 126.616668,51.7055029 135.909308,51.7055029" id="path-1"></path>
        <filter x="-50%" y="-50%" width="200%" height="200%" filterUnits="objectBoundingBox" id="filter-2">
            <feOffset dx="0" dy="12" in="SourceAlpha" result="shadowOffsetOuter1"></feOffset>
            <feComposite in="shadowOffsetOuter1" in2="SourceAlpha" operator="out" result="shadowOffsetOuter1"></feComposite>
            <feColorMatrix values="0 0 0 0 0   0 0 0 0 0   0 0 0 0 0  0 0 0 0.100000001 0" type="matrix" in="shadowOffsetOuter1"></feColorMatrix>
        </filter>
        <filter x="-50%" y="-50%" width="200%" height="200%" filterUnits="objectBoundingBox" id="filter-3">
            <feOffset dx="0" dy="9" in="SourceAlpha" result="shadowOffsetInner1"></feOffset>
            <feComposite in="shadowOffsetInner1" in2="SourceAlpha" operator="arithmetic" k2="-1" k3="1" result="shadowInnerInner1"></feComposite>
            <feColorMatrix values="0 0 0 0 0.623836242   0 0 0 0 0.696860009   0 0 0 0 0.816299957  0 0 0 0.5 0" type="matrix" in="shadowInnerInner1"></feColorMatrix>
        </filter>
        <mask id="mask-4" maskContentUnits="userSpaceOnUse" maskUnits="objectBoundingBox" x="0" y="0" width="46.272727" height="46.7742205" fill="white">
            <use xlink:href="#path-1"></use>
        </mask>
        <path d="M29.5207814,51.7055029 L23.136166,51.7055029 C10.3669352,51.7055029 0.000336032389,41.225784 0.000336032389,28.3180529 C0.000336032389,15.4110012 10.3669352,4.93128233 23.136166,4.93128233 C35.9053968,4.93128233 46.272668,15.4110012 46.272668,28.3180529 L46.272668,34.7719184 C46.3358421,44.1014906 38.8134211,51.7055029 29.5207814,51.7055029" id="path-5"></path>
        <filter x="-50%" y="-50%" width="200%" height="200%" filterUnits="objectBoundingBox" id="filter-6">
            <feOffset dx="0" dy="12" in="SourceAlpha" result="shadowOffsetOuter1"></feOffset>
            <feComposite in="shadowOffsetOuter1" in2="SourceAlpha" operator="out" result="shadowOffsetOuter1"></feComposite>
            <feColorMatrix values="0 0 0 0 0   0 0 0 0 0   0 0 0 0 0  0 0 0 0.100000001 0" type="matrix" in="shadowOffsetOuter1"></feColorMatrix>
        </filter>
        <filter x="-50%" y="-50%" width="200%" height="200%" filterUnits="objectBoundingBox" id="filter-7">
            <feOffset dx="0" dy="9" in="SourceAlpha" result="shadowOffsetInner1"></feOffset>
            <feComposite in="shadowOffsetInner1" in2="SourceAlpha" operator="arithmetic" k2="-1" k3="1" result="shadowInnerInner1"></feComposite>
            <feColorMatrix values="0 0 0 0 0.623836242   0 0 0 0 0.696860009   0 0 0 0 0.816299957  0 0 0 0.5 0" type="matrix" in="shadowInnerInner1"></feColorMatrix>
        </filter>
        <mask id="mask-8" maskContentUnits="userSpaceOnUse" maskUnits="objectBoundingBox" x="0" y="0" width="46.272727" height="46.7742205" fill="white">
            <use xlink:href="#path-5"></use>
        </mask>
        <path d="M117.450981,127.106693 L117.450981,127.106693 C96.4005684,136.755562 71.9374105,136.94714 50.7606494,127.617568 L48.9272567,126.787397 C27.5609733,117.457824 13.9066332,97.2015183 13.9066332,75.0287538 L13.9066332,69.5973165 C13.9066332,33.7498299 44.7550785,4.61164615 82.7469004,4.61164615 C120.73805,4.61164615 151.586496,33.6859706 151.586496,69.5973165 L151.586496,75.6680262 C151.586496,97.5853535 138.3112,117.585543 117.450981,127.106693" id="path-9"></path>
        <filter x="-50%" y="-50%" width="200%" height="200%" filterUnits="objectBoundingBox" id="filter-10">
            <feOffset dx="0" dy="12" in="SourceAlpha" result="shadowOffsetOuter1"></feOffset>
            <feColorMatrix values="0 0 0 0 0   0 0 0 0 0   0 0 0 0 0  0 0 0 0.100000001 0" type="matrix" in="shadowOffsetOuter1"></feColorMatrix>
        </filter>
        <filter x="-50%" y="-50%" width="200%" height="200%" filterUnits="objectBoundingBox" id="filter-11">
            <feOffset dx="0" dy="-9" in="SourceAlpha" result="shadowOffsetInner1"></feOffset>
            <feComposite in="shadowOffsetInner1" in2="SourceAlpha" operator="arithmetic" k2="-1" k3="1" result="shadowInnerInner1"></feComposite>
            <feColorMatrix values="0 0 0 0 0.89145031   0 0 0 0 0.89264568   0 0 0 0 0.895833333  0 0 0 1 0" type="matrix" in="shadowInnerInner1"></feColorMatrix>
        </filter>
        <polygon id="path-12" points="28.3718445 17.9312727 56.7436351 17.9312727 56.7436351 0 28.3718445 3.87568765e-15 5.4028436e-05 0 5.4028436e-05 17.9312727"></polygon>
        <polygon id="path-14" points="15.4784796 12.9245246 30.9569024 12.9245246 30.9569024 7.5362319e-05 15.4784796 7.5362319e-05 5.67073171e-05 7.5362319e-05 5.67073171e-05 12.9245246 15.4784796 12.9245246"></polygon>
    </defs>
    <g id="Page-1" stroke="none" stroke-width="1" fill="none" fill-rule="evenodd">
        <g id="PH-Popup" transform="translate(-502.000000, -153.000000)">
            <g id="Group-10" transform="translate(502.000000, 153.000000)">
                <g id="Page-1" transform="translate(135.000000, 29.000000)">
                    <g id="Fill-1">
                        <use fill="black" fill-opacity="1" filter="url(#filter-2)" xlink:href="#path-1"></use>
                        <use fill="#000000" fill-rule="evenodd" xlink:href="#path-1"></use>
                        <use fill="black" fill-opacity="1" filter="url(#filter-3)" xlink:href="#path-1"></use>
                        <use stroke="#000000" mask="url(#mask-4)" stroke-width="13.2383167" xlink:href="#path-1"></use>
                    </g>
                    <g id="Fill-3">
                        <use fill="black" fill-opacity="1" filter="url(#filter-6)" xlink:href="#path-5"></use>
                        <use fill="#000000" fill-rule="evenodd" xlink:href="#path-5"></use>
                        <use fill="black" fill-opacity="1" filter="url(#filter-7)" xlink:href="#path-5"></use>
                        <use stroke="#000000" mask="url(#mask-8)" stroke-width="13.2383167" xlink:href="#path-5"></use>
                    </g>
                    <g id="Fill-5">
                        <use fill="black" fill-opacity="1" filter="url(#filter-10)" xlink:href="#path-9"></use>
                        <use fill="#FFFFFF" fill-rule="evenodd" xlink:href="#path-9"></use>
                        <use fill="black" fill-opacity="1" filter="url(#filter-11)" xlink:href="#path-9"></use>
                    </g>
                    <ellipse id="Oval-184" fill="#DBDEE4" cx="32.5397727" cy="87.7879662" rx="10.8465909" ry="7.56150835"></ellipse>
                    <ellipse id="Oval-184-Copy" fill="#DBDEE4" cx="133.460227" cy="87.7879662" rx="10.8465909" ry="7.56150835"></ellipse>
                    <path d="M52.3899225,123.918934 L50.5942085,123.105593 C30.655722,114.399066 17.9480263,95.5979416 17.9480263,75.0287538 L17.9480263,69.5973165 C17.9480263,36.0296846 46.943009,8.65327001 82.7469004,8.65327001 C118.574155,8.65327001 147.545102,35.9886171 147.545102,69.5973165 L147.545102,75.6680262 C147.545102,95.9775255 135.215498,114.555839 115.772992,123.429907 C95.763009,132.601869 72.5057296,132.781095 52.3899225,123.918934 Z M155.627889,75.6680262 L155.627889,69.5973165 C155.627889,31.4158474 122.936415,0.570022289 82.7469004,0.570022289 C42.5796153,0.570022289 9.8652401,31.4582041 9.8652401,69.5973165 L9.8652401,75.0287538 C9.8652401,98.8597096 24.5185946,120.53945 47.3101128,130.49135 L49.0936976,131.299371 C71.3622684,141.110178 97.0313411,140.912365 119.134877,130.780777 C141.409849,120.613902 155.627889,99.1900861 155.627889,75.6680262 Z" id="Stroke-7" fill="#000000"></path>
                    <path d="M34.1472753,48.7412085 C40.8934615,37.7906971 53.6929352,34.3545232 62.7369109,41.065864 C71.7802146,47.7772048 73.6425061,62.0952753 66.8969919,73.0457867 C60.1508057,83.9956187 47.3506599,87.4324719 38.3073563,80.7211311 C29.2640526,74.009111 27.4010891,59.6917199 34.1472753,48.7412085" id="Fill-9" fill="#000000"></path>
                    <path d="M91.9202486,92.2909419 L85.8044591,96.1632612 C83.9226777,97.3181635 81.570451,97.3181635 79.7558761,96.1632612 L73.6400866,92.2909419 C71.9599247,91.2039751 70.9518275,89.3697186 70.9518275,87.3995912 C70.9518275,84.2066261 73.5056737,81.6250799 76.6643781,81.6250799 L88.8959571,81.6250799 C92.0546615,81.6250799 94.6085077,84.2066261 94.6085077,87.3995912 C94.6085077,89.3697186 93.6004105,91.2719105 91.9202486,92.2909419" id="Fill-13" fill="#000000"></path>
                    <ellipse id="Oval-183" fill="#505968" cx="83" cy="85.4249948" rx="5.65909091" ry="1.41778281"></ellipse>
                    <path d="M68.103946,98.9575481 C66.795803,97.6352164 64.6634432,97.6237748 63.3411871,98.9319925 C62.018931,100.24021 62.00749,102.372692 63.315633,103.695023 C74.0426198,114.538359 91.4506434,114.538359 102.17763,103.695023 C103.485773,102.372692 103.474332,100.24021 102.152076,98.9319925 C100.82982,97.6237748 98.6974602,97.6352164 97.3893172,98.9575481 C89.2984902,107.136131 76.194773,107.136131 68.103946,98.9575481 Z" id="Stroke-15" fill="#010202"></path>
                    <path d="M85.4744297,94.3968722 C85.4744297,92.9087874 84.2681675,91.7024563 82.7801676,91.7024563 C81.2921678,91.7024563 80.0859055,92.9087874 80.0859055,94.3968722 L80.0859055,108.459505 C80.0859055,109.94759 81.2921678,111.153921 82.7801676,111.153921 C84.2681675,111.153921 85.4744297,109.94759 85.4744297,108.459505 L85.4744297,94.3968722 Z" id="Stroke-17" fill="#010202"></path>
                    <path d="M47.6002648,51.0654832 C49.9948316,47.1788975 54.5379895,45.9587772 57.7477709,48.3412726 C60.9575522,50.7230887 61.6181919,55.8053379 59.2242972,59.6919237 C56.8297304,63.5785094 52.2865725,64.7979503 49.0767911,62.4161343 C45.8670097,60.0343182 45.205698,54.952069 47.6002648,51.0654832" id="Fill-19" fill="#FFFFFF"></path>
                    <path d="M131.41306,48.7412085 C124.666874,37.7906971 111.8674,34.3545232 102.823424,41.065864 C93.7801206,47.7772048 91.9178291,62.0952753 98.6633433,73.0457867 C105.40953,83.9956187 118.209675,87.4324719 127.252979,80.7211311 C136.296283,74.009111 138.159246,59.6917199 131.41306,48.7412085" id="Fill-21" fill="#000000"></path>
                    <path d="M117.960138,51.0654832 C115.565571,47.1788975 111.022413,45.9587772 107.812632,48.3412726 C104.60285,50.7230887 103.942211,55.8053379 106.336105,59.6919237 C108.730672,63.5785094 113.27383,64.7979503 116.483611,62.4161343 C119.693393,60.0343182 120.354704,54.952069 117.960138,51.0654832" id="Fill-23" fill="#FFFFFF"></path>
                </g>
                <g id="Group-7" transform="translate(312.000000, 0.000000)">
                    <path d="M43.5,101.5 L43.5,147" id="Line" stroke="#3B4859" stroke-linecap="square"></path>
                    <g id="Group-6">
                        <path d="M43,96 C66.7482442,96 86,66.7482442 86,43 C86,19.2517558 66.7482442,0 43,0 C19.2517558,0 0,19.2517558 0,43 C0,66.7482442 19.2517558,96 43,96 Z" id="Oval-1" fill="#DC4C3B"></path>
                        <ellipse id="Oval-2" fill="#FFFFFF" transform="translate(24.718557, 26.904864) rotate(-330.000000) translate(-24.718557, -26.904864) " cx="24.7185573" cy="26.9048644" rx="10" ry="13.5"></ellipse>
                        <ellipse id="Oval-2-Copy" fill="#FFFFFF" transform="translate(15.385921, 48.779650) rotate(-357.000000) translate(-15.385921, -48.779650) " cx="15.3859214" cy="48.7796496" rx="4.10532399" ry="5.54218738"></ellipse>
                        <rect id="Rectangle-17" fill="#DC4C3B" x="40" y="95" width="6" height="5" rx="2"></rect>
                        <path d="M43,99 C44.6568542,99 46.5532273,100.21419 47.2469045,101.73663 L47.4869059,102.26337 C48.1755522,103.774769 47.3958851,105 45.7358069,105 L40.2641931,105 C38.6084415,105 37.8194169,103.78581 38.5130941,102.26337 L38.7530955,101.73663 C39.4417418,100.225231 41.3465171,99 43,99 L43,99 Z" id="Rectangle-17-Copy" fill="#DC4C3B"></path>
                    </g>
                </g>
                <g id="Page-1-Copy-7" transform="translate(426.500000, 92.000000) scale(-1, 1) translate(-426.500000, -92.000000) translate(398.000000, 83.000000)">
                    <mask id="mask-13" fill="white">
                        <use xlink:href="#path-12"></use>
                    </mask>
                    <g id="Clip-2"></g>
                    <path d="M21.2013526,0 C27.4046275,0 32.9860351,2.65036364 36.9130919,6.88663636 C38.6071536,6.18927273 40.4592483,5.80227273 42.4029213,5.80227273 C49.5781678,5.80227273 55.5291299,11.0394545 56.7436891,17.9312727 L42.4029213,17.9312727 L28.0618834,17.9312727 L5.4028436e-05,17.9312727 C1.79541896,7.74272727 10.5934095,0 21.2013526,0" id="Fill-1" fill="#FFFFFF" mask="url(#mask-13)"></path>
                </g>
                <path d="M0,101.723396 C1.3553592,97.1589192 5.57651428,93.8269945 10.5811243,93.8269945 C11.7338968,93.8269945 12.8449866,94.0049302 13.8897426,94.332565 C13.7570752,93.4191318 13.6867076,92.4859777 13.6867076,91.535792 C13.6867076,80.7794212 22.4064541,72.0596747 33.1628249,72.0596747 C33.6576386,72.0596747 34.1466257,72.0838776 34.6324753,72.1201818 C38.8944167,64.3040082 47.1847868,59 56.7144321,59 C69.0327827,59 79.2741708,67.8631707 81.4268792,79.5585222 C82.0857344,79.4747087 82.7562428,79.4267512 83.4379562,79.4267512 C92.1599437,79.4267512 99.2307594,86.4971187 99.2307594,95.2195544 C104.480087,95.2195544 109.128378,97.7823665 112,101.723396 L0,101.723396 Z" id="Page-1-Copy-4" fill="#FFFFFF"></path>
                <g id="Page-1" transform="translate(96.000000, 8.000000)">
                    <mask id="mask-15" fill="white">
                        <use xlink:href="#path-14"></use>
                    </mask>
                    <g id="Clip-2"></g>
                    <path d="M30.9569591,12.9245246 C29.646264,5.58065507 23.2230262,7.5362319e-05 15.4785079,7.5362319e-05 C7.73398963,7.5362319e-05 1.31075183,5.58065507 5.67073171e-05,12.9245246 L30.9569591,12.9245246 Z" id="Fill-1" fill="#FFFFFF" mask="url(#mask-15)"></path>
                </g>
            </g>
        </g>
    </g>
</svg>