<?xml version="1.0" standalone="no"?>
<!DOCTYPE svg PUBLIC "-//W3C//DTD SVG 1.1//EN" "http://www.w3.org/Graphics/SVG/1.1/DTD/svg11.dtd" >
<svg xmlns="http://www.w3.org/2000/svg">
<metadata>
Created by FontPrep 20130207 at Mon Apr 18 19:21:25 2016
 By Ahmet Sulek
Copyright (c) 2011 by Admix Designs. All rights reserved.
</metadata>
<defs>
<font id="ddfca59a8153a991c05973edd484544b" horiz-adv-x='1024' >
  <font-face 
    font-family="Varela"
    font-weight="400"
    font-stretch="normal"
    units-per-em="2048"
    panose-1="2 0 0 0 0 0 0 0 0 0"
    ascent="1638"
    descent="-410"
    x-height="1044"
    cap-height="1430"
    bbox="-575 -584 2329 2079"
    underline-thickness="102"
    underline-position="-102"
    unicode-range="U+0020-FB06"
  />
<missing-glyph horiz-adv-x="1052" 
d="M586 715l323 -518v1036zM526 618l-321 -516h641zM205 1327l321 -514l320 514h-641zM465 715l-322 518v-1036zM41 1430h971v-1430h-971v1430z" />
    <glyph glyph-name="f_f" unicode="ff" horiz-adv-x="1585" 
d="M1233 1157v-113h319v-159h-319v-885h-186v885h-621v-885h-186v885h-191v159h191v119q0 178 91 265.5t206.5 87.5t207.5 -52v-153h-14q-76 27 -148.5 26.5t-114.5 -39t-42 -141.5v-113h621v119q0 178 91 265.5t206.5 87.5t207.5 -52v-153h-14q-76 27 -148.5 26.5
t-114.5 -39t-42 -141.5z" />
    <glyph glyph-name="fi" unicode="fi" horiz-adv-x="1312" 
d="M1151 1466v-200h-201v200h201zM956 0v885h-530v-885h-186v885h-191v159h191v119q0 178 91 265.5t206.5 87.5t207.5 -52v-153h-14q-76 27 -148.5 26.5t-114.5 -39t-42 -141.5v-113h717v-1044h-187z" />
    <glyph glyph-name="fl" unicode="fl" horiz-adv-x="1318" 
d="M1141 1495v-1495h-187v1495h187zM426 1157v-113h319v-159h-319v-885h-186v885h-191v159h191v119q0 178 91 265.5t206.5 87.5t207.5 -52v-153h-14q-76 27 -148.5 26.5t-114.5 -39t-42 -141.5z" />
    <glyph glyph-name="f_f_i" unicode="ffi" horiz-adv-x="2119" 
d="M1958 1466v-200h-201v200h201zM426 1157v-113h621v119q0 178 91 265.5t206.5 87.5t207.5 -52v-153h-14q-76 27 -148.5 26.5t-114.5 -39t-42 -141.5v-113h717v-1044h-187v885h-530v-885h-186v885h-621v-885h-186v885h-191v159h191v119q0 178 91 265.5t206.5 87.5
t207.5 -52v-153h-14q-76 27 -148.5 26.5t-114.5 -39t-42 -141.5z" />
    <glyph glyph-name="f_f_l" unicode="ffl" horiz-adv-x="2125" 
d="M1233 1157v-113h319v-159h-319v-885h-186v885h-621v-885h-186v885h-191v159h191v119q0 178 91 265.5t206.5 87.5t207.5 -52v-153h-14q-76 27 -148.5 26.5t-114.5 -39t-42 -141.5v-113h621v119q0 178 91 265.5t206.5 87.5t207.5 -52v-153h-14q-76 27 -148.5 26.5
t-114.5 -39t-42 -141.5zM1948 1516v-1516h-187v1516h187z" />
    <glyph glyph-name="f_j" unicode="fj" horiz-adv-x="1312" 
d="M950 1466h201v-200h-201v200zM956 -207v1092h-530v-885h-186v885h-191v159h191v119q0 178 91 265.5t206.5 87.5t207.5 -52v-153h-14q-76 27 -148.5 26.5t-114.5 -39t-42 -141.5v-113h717v-1255q0 -127 -64.5 -204t-204.5 -77q-88 0 -153 27v154h16q49 -16 103.5 -16.5
t85 22t30.5 98.5z" />
    <glyph glyph-name=".notdef" horiz-adv-x="1052" 
d="M586 715l323 -518v1036zM526 618l-321 -516h641zM205 1327l321 -514l320 514h-641zM465 715l-322 518v-1036zM41 1430h971v-1430h-971v1430z" />
    <glyph glyph-name=".null" horiz-adv-x="0" 
 />
    <glyph glyph-name="nonmarkingreturn" horiz-adv-x="681" 
 />
    <glyph glyph-name="space" unicode=" " horiz-adv-x="532" 
 />
    <glyph glyph-name="exclam" unicode="!" horiz-adv-x="575" 
d="M182 1430h211v-300l-41 -735h-131l-39 735v300zM172 0v229h229v-229h-229z" />
    <glyph glyph-name="quotedbl" unicode="&#x22;" horiz-adv-x="841" 
d="M498 1516h231l-61 -500h-107zM113 1516h231l-63 -500h-107z" />
    <glyph glyph-name="numbersign" unicode="#" horiz-adv-x="1253" 
d="M731 516l49 311h-260l-49 -311h260zM1157 971v-144h-231l-49 -311h208v-143h-231l-59 -373h-146l60 373h-260l-60 -373h-145l59 373h-209v143h232l49 311h-209v144h231l60 370h145l-59 -370h260l59 370h146l-60 -370h209z" />
    <glyph glyph-name="dollar" unicode="$" horiz-adv-x="1253" 
d="M981 391q0 82 -75 126t-222 83v-444q297 20 297 235zM295 1046.5q0 -96.5 75.5 -145.5t221.5 -86v461q-133 -12 -215 -72.5t-82 -157zM1165 379q0 -166 -131 -276.5t-350 -122.5v-195h-92v195q-254 10 -465 110v182h10q199 -111 455 -118v469q-283 72 -381 165
q-41 39 -70.5 101.5t-29.5 140.5q0 170 127 288t354 130v197h92v-195q205 -8 377 -74v-174h-14q-178 72 -363 78v-487q111 -27 177.5 -49.5t146.5 -67.5q157 -92 157 -297z" />
    <glyph glyph-name="percent" unicode="%" horiz-adv-x="1667" 
d="M1249 96q88 0 137.5 65.5t49.5 168t-49.5 168t-137.5 65.5t-137 -65.5t-49 -168t49 -168t137 -65.5zM1249.5 696q157.5 0 243.5 -103.5t86 -263t-86 -263t-243.5 -103.5t-243.5 103.5t-86 263t86 263t243.5 103.5zM418 864q88 0 137 65.5t49 168t-49 168t-137 65.5
t-137.5 -65.5t-49.5 -168t49.5 -168t137.5 -65.5zM417.5 1464q157.5 0 244 -103.5t86.5 -263t-86.5 -263t-244 -103.5t-243.5 103.5t-86 263t86 263t243.5 103.5zM1206 1436h160l-903 -1444h-160z" />
    <glyph glyph-name="ampersand" unicode="&#x26;" horiz-adv-x="1499" 
d="M631 137q176 0 311 111v8l-448 420h-11q-162 -109 -161 -281q0 -113 89 -185.5t220 -72.5zM1454 0h-240l-143 135h-8q-182 -156 -425 -155.5t-368 125t-125 280.5t72 253t158 153v6q-61 74 -92 139t-31 156q0 150 104.5 254t264 104t303.5 -100v-176h-4
q-125 117 -277 116q-102 0 -160.5 -56t-58.5 -137t40 -138.5t165 -174.5l424 -399h6q47 72 78 147h184q-57 -158 -135 -262v-10l268 -254v-6z" />
    <glyph glyph-name="quotesingle" unicode="'" horiz-adv-x="487" 
d="M150 1516h229v-230q0 -238 -229 -334v133q113 61 112 201h-112v230z" />
    <glyph glyph-name="parenleft" unicode="(" horiz-adv-x="638" 
d="M590 1556v-6q-299 -397 -299 -920.5t299 -920.5v-6h-193q-293 403 -293 926.5t293 926.5h193z" />
    <glyph glyph-name="parenright" unicode=")" horiz-adv-x="638" 
d="M51 1556h193q293 -403 293 -926.5t-293 -926.5h-193v6q299 397 299 920.5t-299 920.5v6z" />
    <glyph glyph-name="asterisk" unicode="*" horiz-adv-x="854" 
d="M668 893l-213 168l41 -268h-138l39 268l-211 -168l-69 119l252 100l-252 98l69 121l211 -170l-39 269h138l-41 -269l213 170l69 -121l-252 -98l252 -100z" />
    <glyph glyph-name="plus" unicode="+" horiz-adv-x="1150" 
d="M92 629v157h404v406h159v-406h404v-157h-404v-406h-159v406h-404z" />
    <glyph glyph-name="comma" unicode="," horiz-adv-x="532" 
d="M152 229h229v-229q0 -238 -229 -334v133q113 61 112 201h-112v229z" />
    <glyph glyph-name="hyphen" unicode="-" horiz-adv-x="835" 
d="M684 492h-532v165h532v-165z" />
    <glyph glyph-name="period" unicode="." horiz-adv-x="532" 
d="M152 0v229h229v-229h-229z" />
    <glyph glyph-name="slash" unicode="/" horiz-adv-x="907" 
d="M659 1538h177l-586 -1712h-176z" />
    <glyph glyph-name="zero" unicode="0" horiz-adv-x="1286" 
d="M643 152q178 0 273.5 149.5t95.5 412.5t-95.5 412.5t-273.5 149.5t-273.5 -149.5t-95.5 -412.5t95.5 -412.5t273.5 -149.5zM642 1450q269 0 412.5 -198.5t143.5 -536.5t-143.5 -536.5t-412.5 -198.5t-411.5 198.5t-142.5 536.5t142.5 536.5t411.5 198.5z" />
    <glyph glyph-name="one" unicode="1" horiz-adv-x="1286" 
d="M793 174h280v-174h-786v174h319v1036h-8l-297 -147v199l320 168h172v-1256z" />
    <glyph glyph-name="two" unicode="2" horiz-adv-x="1286" 
d="M1133 1034q0 -100 -52.5 -193t-179.5 -201t-329 -231q-203 -122 -250 -227v-8h790v-174h-979v106q0 100 60.5 193.5t151.5 161t197.5 139.5t197.5 131.5t151.5 135t60.5 153.5q0 254 -323 254q-248 0 -434 -123h-11v182q219 117 478 117q201 0 336 -116t135 -300z" />
    <glyph glyph-name="three" unicode="3" horiz-adv-x="1286" 
d="M1133 375q0 -188 -148.5 -291.5t-389.5 -103.5t-445 92v182h10q180 -96 426 -96t327 116q33 47 33 111q0 258 -452 258h-107v172h82q205 0 315.5 62.5t110.5 185.5q0 98 -82 155.5t-242 57.5q-229 0 -399 -113h-8v172q205 115 432 115t356 -96.5t129 -272.5
q0 -250 -243 -340v-2q295 -74 295 -364z" />
    <glyph glyph-name="four" unicode="4" horiz-adv-x="1286" 
d="M795 526v688h-4l-529 -684v-4h533zM981 526h229v-166h-229v-360h-186v360h-736v177l699 893h223v-904z" />
    <glyph glyph-name="five" unicode="5" horiz-adv-x="1286" 
d="M712 905q206 0 331.5 -128t125.5 -334.5t-141 -334.5t-411.5 -128t-464.5 133v198h8q186 -147 424 -147q195 0 297 65.5t102 208t-85 216t-232 73.5q-223 0 -365 -119l-162 72l117 750h827v-175h-671l-62 -430h6q150 80 356 80z" />
    <glyph glyph-name="six" unicode="6" horiz-adv-x="1286" 
d="M684 154q141 0 229 86t88 217t-77.5 215t-227.5 84q-266 0 -387 -226q56 -376 375 -376zM719 926q211 0 340 -131t129 -340t-138.5 -342t-367.5 -133q-561 0 -561 733q0 268 127 487q66 113 186.5 181.5t304 68.5t361.5 -100v-189h-10q-168 109 -361 109
q-125 0 -213 -53.5t-131 -141.5q-78 -160 -86 -327h4q140 178 416 178z" />
    <glyph glyph-name="seven" unicode="7" horiz-adv-x="1286" 
d="M133 1430h1020v-166l-614 -1264h-213l620 1243v8h-813v179z" />
    <glyph glyph-name="eight" unicode="8" horiz-adv-x="1286" 
d="M350 1070q0 -91 71 -158.5t222.5 -67.5t222 67.5t70.5 158.5t-75 153.5t-218 62.5t-218 -62.5t-75 -153.5zM643 143q184 0 272.5 83t88.5 173q0 131 -104.5 204t-256 73t-256 -73t-104.5 -204q0 -90 88 -173t272 -83zM1122 1089.5q0 -131.5 -66.5 -210t-170.5 -113.5v-2
q305 -102 305 -385q0 -147 -121 -268q-59 -59 -170 -95t-256 -36t-256 35.5t-170 95.5q-121 121 -121 268q0 283 305 385v2q-104 35 -170.5 113.5t-66.5 210t117.5 246t361.5 114.5t361.5 -114.5t117.5 -246z" />
    <glyph glyph-name="nine" unicode="9" horiz-adv-x="1286" 
d="M602 1276q-141 0 -229 -86t-88 -217t77.5 -215t227.5 -84q266 0 387 225q-56 377 -375 377zM567 504q-211 0 -340 131t-129 340t138.5 342t367.5 133q561 0 561 -733q0 -268 -127 -488q-66 -113 -186.5 -181t-303.5 -68t-362 100v188h11q168 -109 360 -108q125 0 213 53
t131 141q78 160 86 328h-4q-140 -178 -416 -178z" />
    <glyph glyph-name="colon" unicode=":" horiz-adv-x="532" 
d="M152 0v229h229v-229h-229zM152 815v229h229v-229h-229z" />
    <glyph glyph-name="semicolon" unicode=";" horiz-adv-x="532" 
d="M152 229h229v-229q0 -238 -229 -334v133q113 61 112 201h-112v229zM152 815v229h229v-229h-229z" />
    <glyph glyph-name="less" unicode="&#x3c;" horiz-adv-x="1187" 
d="M1049 1126v-180l-752 -338v-4l752 -338v-180l-965 438v164z" />
    <glyph glyph-name="equal" unicode="=" horiz-adv-x="1458" 
d="M1298 369h-1138v159h1138v-159zM1298 827h-1138v160h1138v-160z" />
    <glyph glyph-name="greater" unicode="&#x3e;" horiz-adv-x="1187" 
d="M139 946v180l965 -438v-164l-965 -438v180l752 338v4z" />
    <glyph glyph-name="question" unicode="?" horiz-adv-x="1017" 
d="M477.5 1450q196.5 0 322.5 -104.5t126 -282.5q0 -94 -40 -167t-96.5 -120t-113.5 -92q-135 -113 -135 -264v-25h-181v33q0 109 39 194t95.5 137t111.5 95q135 102 135 199q0 223 -292 223q-170 0 -355 -121h-8v186q195 109 391.5 109zM336 0v229h229v-229h-229z" />
    <glyph glyph-name="at" unicode="@" horiz-adv-x="1839" 
d="M948.5 905q-139.5 0 -239 -88t-99.5 -244q0 -119 65.5 -179t170.5 -60q250 0 299 287l33 190q-90 94 -229.5 94zM1749 712q0 -298 -160 -438q-90 -80 -206.5 -79.5t-174 45.5t-69.5 106q-127 -154 -338 -153q-164 0 -256 100t-92 260q0 227 145 362.5t340 135.5
q154 0 262 -105l17 88h153l-84 -479q-14 -115 -14 -151.5t25.5 -74.5t76.5 -38q127 0 195.5 110.5t68.5 299t-101 328.5t-250.5 205.5t-317.5 65.5q-309 0 -535.5 -226t-226.5 -537q0 -152 68.5 -286t211 -224t332.5 -90q252 0 496 126l-21 -122q-213 -111 -475 -111
q-317 0 -518 209t-201 498q0 231 118 431.5t319 320.5t432 120q324 -2 552 -200.5t228 -496.5z" />
    <glyph glyph-name="A" unicode="A" horiz-adv-x="1427" 
d="M440 537h547v10l-270 653h-4l-273 -653v-10zM1214 0l-153 367h-694l-154 -367h-203l606 1430h195l606 -1430h-203z" />
    <glyph glyph-name="B" unicode="B" horiz-adv-x="1419" 
d="M385 811h340q182 0 256 61.5t74 165t-79 160.5t-216 57h-375v-444zM385 174h383q199 0 282 61.5t83 174.5q0 233 -363 233h-385v-469zM1313 401q0 -401 -527 -401h-587v1430h575q219 0 339 -100.5t120 -270.5q0 -225 -197 -314v-6q277 -88 277 -338z" />
    <glyph glyph-name="C" unicode="C" horiz-adv-x="1429" 
d="M842 1272q-254 0 -397.5 -155.5t-143.5 -401.5t143.5 -401.5t397.5 -155.5t465 139h10v-184q-221 -133 -486 -133q-313 0 -514.5 199.5t-201.5 535.5t201.5 535.5t514.5 199.5q264 0 486 -133v-184h-10q-211 139 -465 139z" />
    <glyph glyph-name="D" unicode="D" horiz-adv-x="1536" 
d="M680 174q254 0 407.5 149.5t153.5 391t-153.5 391t-407.5 149.5h-295v-1081h295zM702 1430q176 0 318.5 -62.5t228.5 -167.5q176 -211 176 -485q1 -219 -119 -409t-341 -265q-121 -41 -263 -41h-503v1430h503z" />
    <glyph glyph-name="E" unicode="E" horiz-adv-x="1306" 
d="M1190 1255h-805v-452h731v-174h-731v-455h805v-174h-991v1430h991v-175z" />
    <glyph glyph-name="F" unicode="F" horiz-adv-x="1249" 
d="M199 1430h966v-175h-780v-452h709v-174h-709v-629h-186v1430z" />
    <glyph glyph-name="G" unicode="G" horiz-adv-x="1523" 
d="M840 784h538v-647q-264 -158 -547 -157q-322 0 -520 204.5t-198 530t204.5 530.5t492.5 205t546 -158v-192h-8q-252 170 -497 170t-398.5 -147.5t-153.5 -400.5t149.5 -409.5t407.5 -156.5q193 0 358 90v370h-374v168z" />
    <glyph glyph-name="H" unicode="H" horiz-adv-x="1546" 
d="M1161 1430h187v-1430h-187v627h-776v-627h-186v1430h186v-629h776v629z" />
    <glyph glyph-name="I" unicode="I" horiz-adv-x="583" 
d="M385 1430v-1430h-186v1430h186z" />
    <glyph glyph-name="J" unicode="J" horiz-adv-x="954" 
d="M578 1430h186v-959q0 -268 -120 -379.5t-289 -111.5t-306 83v185h8q125 -92 254 -92t198 63.5t69 239.5v971z" />
    <glyph glyph-name="K" unicode="K" horiz-adv-x="1372" 
d="M385 0h-186v1430h186v-732h6l690 732h244l-584 -603l637 -827h-227l-528 696h-11l-227 -235v-461z" />
    <glyph glyph-name="L" unicode="L" horiz-adv-x="1179" 
d="M1139 186v-186h-940v1430h186v-1244h754z" />
    <glyph glyph-name="M" unicode="M" horiz-adv-x="1978" 
d="M1780 1430v-1430h-187v1233h-4l-504 -1233h-192l-506 1233h-2v-1233h-186v1430h290l498 -1223h4l498 1223h291z" />
    <glyph glyph-name="N" unicode="N" horiz-adv-x="1644" 
d="M1260 1430h186v-1430h-229l-828 1178h-4v-1178h-186v1430h229l825 -1176h7v1176z" />
    <glyph glyph-name="O" unicode="O" horiz-adv-x="1660" 
d="M830.5 154q246.5 0 390 158.5t143.5 402t-143.5 402.5t-390 159t-389 -159t-142.5 -402.5t142.5 -402t389 -158.5zM831.5 1450q323.5 0 518 -205t200.5 -530q-6 -326 -200.5 -530.5t-518 -204.5t-518 204.5t-200.5 530.5q6 326 200.5 530.5t518 204.5z" />
    <glyph glyph-name="P" unicode="P" horiz-adv-x="1370" 
d="M739 696q209 0 294 80t85 199t-85 198.5t-294 79.5h-354v-557h354zM758 1430q147 0 257.5 -40t171 -108t89.5 -144.5t29 -162.5t-29 -163t-89.5 -144.5t-171 -107.5t-257.5 -40h-373v-520h-186v1430h559z" />
    <glyph glyph-name="Q" unicode="Q" horiz-adv-x="1662" 
d="M830.5 154q246.5 0 390 158.5t143.5 402t-143.5 402.5t-390 159t-389 -159t-142.5 -402.5t142.5 -402t389 -158.5zM1409 -287h-229l-226 275q-51 -8 -123 -8q-324 0 -518 204.5t-200 530.5q6 326 200.5 530.5t518 204.5t518 -205t200.5 -530q-4 -240 -115.5 -419
t-304.5 -259v-6l279 -312v-6z" />
    <glyph glyph-name="R" unicode="R" horiz-adv-x="1458" 
d="M756 733q176 0 279.5 69.5t103.5 194.5t-89 190.5t-305 65.5h-360v-520h371zM1303 176v-49q0 -66 34 -119v-8h-192q-29 47 -29 111v32q0 188 -39 258q-18 37 -49 78q-63 78 -219 78h-424v-557h-186v1430h569q279 0 418 -115t139 -301q0 -125 -67.5 -224.5t-196.5 -144.5
v-4q242 -64 242 -465z" />
    <glyph glyph-name="S" unicode="S" horiz-adv-x="1261" 
d="M303 1044q0 -82 64.5 -135t161 -74.5t210 -53t209.5 -68.5t161 -122t65 -212q0 -176 -144.5 -287.5t-402.5 -111.5t-492 110v182h10q213 -119 486 -118q358 0 358 237q0 117 -174 172q-76 25 -168 47.5t-185 53t-170 72.5t-125 117t-48 177q0 178 140 299t379 121
t431 -74v-174h-14q-193 78 -370 78t-279.5 -62.5t-102.5 -173.5z" />
    <glyph glyph-name="T" unicode="T" horiz-adv-x="1251" 
d="M1212 1430v-175h-493v-1255h-187v1255h-493v175h1173z" />
    <glyph glyph-name="U" unicode="U" horiz-adv-x="1552" 
d="M1178 1430h186v-893q0 -139 -52 -249t-139.5 -175.5t-188.5 -99t-207.5 -33.5t-208 33.5t-188.5 99t-139.5 175t-52.5 249.5v893h187v-900q0 -180 118.5 -280t282.5 -100t283 100t119 280v900z" />
    <glyph glyph-name="V" unicode="V" horiz-adv-x="1421" 
d="M1210 1430h201l-590 -1430h-221l-590 1430h203l494 -1240h8z" />
    <glyph glyph-name="W" unicode="W" horiz-adv-x="2062" 
d="M1843 1430h195l-467 -1430h-187l-348 1110h-10l-348 -1110h-186l-467 1430h194l361 -1180h6l364 1180h162l365 -1180h6z" />
    <glyph glyph-name="X" unicode="X" horiz-adv-x="1370" 
d="M791 717l552 -717h-231l-428 573h-10l-422 -573h-221l549 715l-549 715h233l420 -570h10l418 570h225z" />
    <glyph glyph-name="Y" unicode="Y" horiz-adv-x="1320" 
d="M754 0h-187v604l-581 826h227l442 -654h11l442 654h227l-581 -826v-604z" />
    <glyph glyph-name="Z" unicode="Z" horiz-adv-x="1306" 
d="M1202 1430v-168l-872 -1082v-6h872v-174h-1106v164l873 1079v8h-856v179h1089z" />
    <glyph glyph-name="bracketleft" unicode="[" horiz-adv-x="659" 
d="M590 1352h-250v-1477h250v-145h-412v1769h412v-147z" />
    <glyph glyph-name="backslash" unicode="\" horiz-adv-x="907" 
d="M72 1538h176l586 -1712h-177z" />
    <glyph glyph-name="bracketright" unicode="]" horiz-adv-x="659" 
d="M319 1352h-249v147h411v-1769h-411v145h249v1477z" />
    <glyph glyph-name="asciicircum" unicode="^" horiz-adv-x="1073" 
d="M774 872l-237 379h-5l-235 -379h-164l301 558h205l301 -558h-166z" />
    <glyph glyph-name="underscore" unicode="_" horiz-adv-x="1357" 
d="M1241 -301h-1124v135h1124v-135z" />
    <glyph glyph-name="grave" unicode="`" horiz-adv-x="503" 
d="M72 1456h202l156 -272h-127z" />
    <glyph glyph-name="a" unicode="a" horiz-adv-x="1136" 
d="M797 469h-224q-309 0 -309 -163t217 -163q90 0 174.5 44t141.5 110v172zM562 1065q204 0 312.5 -119t108.5 -284v-662h-164l-22 131h-6q-147 -152 -379 -151q-139 0 -236.5 83.5t-97.5 229t119.5 235.5t351.5 90h248v17q0 135 -66.5 194.5t-230.5 59.5t-307 -70h-13v168
q178 78 382 78z" />
    <glyph glyph-name="b" unicode="b" horiz-adv-x="1292" 
d="M672 154q152 0 244 96t92 272t-92.5 272.5t-243.5 96.5q-184 0 -324 -154v-430q140 -153 324 -153zM698.5 1065q198.5 0 347 -147.5t148.5 -395.5t-148.5 -395t-347 -147t-344.5 151h-6l-22 -131h-164v1495h186v-582h6q146 152 344.5 152z" />
    <glyph glyph-name="c" unicode="c" horiz-adv-x="1097" 
d="M281 522q0 -166 100 -267t277.5 -101t328.5 102h8v-176q-170 -100 -354 -100q-227 0 -387 147t-160 395t160 395.5t387 147.5q184 0 354 -100v-177h-8q-152 102 -329 102.5t-277 -101t-100 -267.5z" />
    <glyph glyph-name="d" unicode="d" horiz-adv-x="1292" 
d="M621 154q184 0 323 153v430q-139 154 -323 154q-152 0 -244 -96.5t-92 -272.5t92 -272t244 -96zM594 1065q199 0 344 -152h6v582h186v-1495h-163l-23 131h-6q-145 -152 -344 -151.5t-347.5 147.5t-148.5 395t148.5 395.5t347.5 147.5z" />
    <glyph glyph-name="e" unicode="e" horiz-adv-x="1167" 
d="M589.5 907q-112.5 0 -202.5 -76t-98 -223h604q-8 147 -99.5 223t-204 76zM1018 256v-180q-172 -96 -404.5 -96t-373 142t-140.5 385t125 400.5t364.5 157.5t364.5 -158t125 -385v-65h-790q34 -303 298.5 -303t420.5 102h10z" />
    <glyph glyph-name="f" unicode="f" horiz-adv-x="778" 
d="M426 1157v-113h319v-159h-319v-885h-186v885h-191v159h191v119q0 178 91 265.5t206.5 87.5t207.5 -52v-153h-14q-76 27 -148.5 26.5t-114.5 -39t-42 -141.5z" />
    <glyph glyph-name="g" unicode="g" horiz-adv-x="1292" 
d="M638 895q-159 0 -256 -93t-97 -269.5t97 -269.5t256 -93t306 152v421q-147 152 -306 152zM1130 1044v-999q0 -258 -124.5 -397.5t-361 -139.5t-431.5 105v184h10q174 -113 408 -112q313 0 313 333v134h-6q-141 -152 -338 -152t-349.5 140.5t-152.5 392t152.5 392
t349.5 140.5t338 -152h6l23 131h163z" />
    <glyph glyph-name="h" unicode="h" horiz-adv-x="1247" 
d="M729 1065q170 0 268.5 -114.5t98.5 -286.5v-664h-187v643q0 250 -225 250q-178 0 -336 -197v-696h-186v1495h186v-612h6q166 182 375 182z" />
    <glyph glyph-name="i" unicode="i" horiz-adv-x="526" 
d="M365 1466v-200h-201v200h201zM170 0v1044h186v-1044h-186z" />
    <glyph glyph-name="j" unicode="j" horiz-adv-x="526" 
d="M170 -207v1251h186v-1255q0 -127 -64.5 -204t-203.5 -77q-88 0 -154 27v154h17q49 -16 103.5 -16.5t85 22t30.5 98.5zM164 1466h201v-200h-201v200z" />
    <glyph glyph-name="k" unicode="k" horiz-adv-x="1118" 
d="M348 0h-186v1495h186v-915h6l453 464h250l-424 -419l471 -625h-230l-368 494h-6l-152 -152v-342z" />
    <glyph glyph-name="l" unicode="l" horiz-adv-x="542" 
d="M365 1495v-1495h-187v1495h187z" />
    <glyph glyph-name="m" unicode="m" horiz-adv-x="1882" 
d="M1386 1065q168 0 255.5 -119t87.5 -274v-672h-187v635q0 133 -48 195.5t-161 62.5q-176 0 -295 -197v-696h-186v635q0 133 -47 195.5t-162 62.5q-176 0 -295 -197v-696h-186v1044h164l22 -131v-30h4q131 182 344 182q115 0 196 -59.5t116 -147.5h6q124 207 372 207z" />
    <glyph glyph-name="n" unicode="n" horiz-adv-x="1247" 
d="M729 1065q170 0 268.5 -114.5t98.5 -286.5v-664h-187v643q0 250 -225 250q-178 0 -336 -197v-696h-186v1044h164l22 -131v-30h4q166 182 377 182z" />
    <glyph glyph-name="o" unicode="o" horiz-adv-x="1245" 
d="M622.5 150q135.5 0 237 93t101.5 280.5t-101.5 279.5t-237 92t-236.5 -92t-101 -279.5t101 -280.5t236.5 -93zM621.5 1065q236.5 0 381 -149.5t144.5 -393t-144.5 -393t-381 -149.5t-380 149.5t-143.5 393t143.5 393t380 149.5z" />
    <glyph glyph-name="p" unicode="p" horiz-adv-x="1292" 
d="M672 891q-184 0 -324 -154v-430q139 -154 324 -153q152 0 244 96t92 272t-92 272.5t-244 96.5zM698.5 -20q-198.5 0 -344.5 151h-6v-602h-186v1515h164l22 -131h6q145 152 344 152t347.5 -147.5t148.5 -395.5t-148.5 -395t-347 -147z" />
    <glyph glyph-name="q" unicode="q" horiz-adv-x="1292" 
d="M621 891q-152 0 -244 -96.5t-92 -272.5t92 -272t244 -96q184 0 323 153v430q-139 154 -323 154zM594 -20q-199 0 -347.5 147t-148.5 395t148.5 395.5t347.5 147.5t344 -152h6l23 131h163v-1515h-186v602h-6q-145 -151 -344 -151z" />
    <glyph glyph-name="r" unicode="r" horiz-adv-x="792" 
d="M737 1065h17v-178h-17q-121 0 -225 -47t-164 -131v-709h-186v1044h164l22 -131v-30h4q147 182 385 182z" />
    <glyph glyph-name="s" unicode="s" horiz-adv-x="983" 
d="M285 754.5q0 -60.5 63.5 -93t154.5 -52t181 -48.5t153.5 -98.5t63.5 -190t-103.5 -206.5t-307 -86t-371.5 92v178h10q166 -98 365 -98q227 0 227 145q0 47 -63.5 76.5t-153.5 50t-180.5 49.5t-154 96.5t-63.5 171.5q0 143 103.5 233.5t282 90.5t331.5 -57v-170h-14
q-137 57 -268 57t-193.5 -40t-62.5 -100.5z" />
    <glyph glyph-name="t" unicode="t" horiz-adv-x="786" 
d="M713 885h-297v-619q0 -86 43 -104q108 -45 239 14h15v-151q-86 -45 -185 -45q-299 0 -299 270v635h-194v12l381 373v-226h297v-159z" />
    <glyph glyph-name="u" unicode="u" horiz-adv-x="1249" 
d="M520 -20q-170 0 -268 114.5t-98 286.5v663h186v-643q0 -250 225 -249q178 0 336 196v696h186v-1044h-163l-23 131v31h-4q-166 -182 -377 -182z" />
    <glyph glyph-name="v" unicode="v" horiz-adv-x="1085" 
d="M870 1044h203l-438 -1044h-184l-439 1044h203l324 -823h8z" />
    <glyph glyph-name="w" unicode="w" horiz-adv-x="1607" 
d="M1389 1044h196l-358 -1044h-183l-237 748h-6l-238 -748h-182l-358 1044h196l248 -819h6l254 819h154l254 -819h6z" />
    <glyph glyph-name="x" unicode="x" horiz-adv-x="1110" 
d="M1067 1044l-403 -516l403 -528h-233l-281 371h-10l-267 -371h-233l401 516l-401 528h233l277 -372h10l271 372h233z" />
    <glyph glyph-name="y" unicode="y" horiz-adv-x="1091" 
d="M1083 1044l-628 -1515h-189l176 455l-432 1060h201l328 -825h8l336 825h200z" />
    <glyph glyph-name="z" unicode="z" horiz-adv-x="1021" 
d="M918 1044v-174l-592 -690v-6h592v-174h-824v172l600 690v8h-581v174h805z" />
    <glyph glyph-name="braceleft" unicode="{" horiz-adv-x="704" 
d="M424 870q0 -174 -184 -241v-2q184 -68 184 -240v-455q0 -25 5 -40t34 -30.5t82 -15.5h92v-143h-86q-137 0 -212 53.5t-75 192.5v432q0 35 -5 56.5t-26 47.5q-43 51 -204 68v152q163 16 199 62t36 110v432q0 139 75 192t212 53h86v-143h-92q-53 0 -82 -15.5t-34 -30.5
t-5 -40v-455z" />
    <glyph glyph-name="bar" unicode="|" horiz-adv-x="518" 
d="M342 1507v-1898h-166v1898h166z" />
    <glyph glyph-name="braceright" unicode="}" horiz-adv-x="704" 
d="M281 870v455q0 25 -5.5 40t-34 30.5t-81.5 15.5h-92v143h86q137 0 211.5 -53t74.5 -192v-432q0 -63 31 -105q43 -51 205 -67v-152q-162 -16 -205 -68q-31 -42 -31 -104v-432q0 -139 -74.5 -192.5t-211.5 -53.5h-86v143h92q53 0 81.5 15.5t34 31t5.5 39.5v455
q0 172 184 240v2q-184 67 -184 241z" />
    <glyph glyph-name="asciitilde" unicode="~" horiz-adv-x="1306" 
d="M908.5 422q-99.5 0 -193.5 39t-175 78t-143 39q-121 0 -149 -138h-103q16 152 89 232t172.5 80t193.5 -39t176 -78t142 -39q120 0 149 139h102q-18 -154 -89.5 -233.5t-171 -79.5z" />
    <glyph glyph-name="uni00A0" unicode="&#xa0;" horiz-adv-x="532" 
 />
    <glyph glyph-name="exclamdown" unicode="&#xa1;" horiz-adv-x="530" 
d="M160 -385v299l39 735h131l41 -735v-299h-211zM150 1044h229v-229h-229v229z" />
    <glyph glyph-name="cent" unicode="&#xa2;" horiz-adv-x="1128" 
d="M276 522q0 -229 175 -323l235 690l-33 2q-176 0 -276.5 -101.5t-100.5 -267.5zM653 154q178 0 330 102h8v-176q-170 -100 -354 -100q-76 0 -135 14l-82 -236h-121l94 273q-137 63 -220 190t-83 301q0 248 160 395.5t387 147.5q41 0 106 -8l70 203h121l-78 -232
q61 -20 135 -63v-177h-8q-92 59 -182 82l-242 -708q39 -8 94 -8z" />
    <glyph glyph-name="sterling" unicode="&#xa3;" horiz-adv-x="1236" 
d="M931 160q91 0 191 67h8v-182q-123 -66 -223 -65.5t-217 46.5t-205 46q-141 0 -252 -92l-112 94q238 215 237 448q0 55 -12 107h-256v92h232l-31 94q-35 115 -35 213q0 197 136 309.5t339 112.5t359 -78v-184h-11q-145 82 -318 82t-246 -68t-73 -160t33 -196.5t39 -124.5
h399v-92h-378q8 -41 8 -94q0 -158 -86 -293l51 2q82 0 207 -42t216 -42z" />
    <glyph glyph-name="currency" unicode="&#xa4;" horiz-adv-x="1368" 
d="M684 397q133 0 226.5 93.5t93.5 225.5t-94.5 225t-225.5 93t-225 -93t-94 -225t93 -225.5t226 -93.5zM1169 714.5q0 -155.5 -92 -284.5l148 -149l-107 -107l-149 150q-127 -94 -285 -94.5t-285 94.5l-149 -150l-107 107l148 149q-92 129 -92 284.5t92 286.5l-148 148
l107 106l149 -147q129 92 285 92t285 -92l149 147l107 -106l-148 -148q92 -131 92 -286.5z" />
    <glyph glyph-name="yen" unicode="&#xa5;" horiz-adv-x="1347" 
d="M1118 748v-154h-352v-186h352v-154h-352v-254h-184v254h-355v154h355v186h-355v154h267l-418 682h227l371 -650l370 650h228l-418 -682h264z" />
    <glyph glyph-name="section" unicode="&#xa7;" horiz-adv-x="1083" 
d="M809 586q0 80 -76 123t-166 75.5t-127 49.5q-152 -37 -151 -181q0 -80 82 -127q55 -33 152 -69.5t132 -50.5q154 37 154 180zM362 1135q0 -89 168 -149t289 -126q70 -39 116 -106.5t46 -155.5q0 -195 -203 -260q133 -90 133 -233.5t-103 -229.5t-307 -86t-372 92v178h10
q166 -98 365 -98q231 0 231 143q0 55 -63.5 96.5t-154.5 73t-182 72.5t-154.5 116t-63.5 179q0 190 200 258q-131 96 -131 237.5t103.5 227.5t287 86t334.5 -66v-174h-14q-139 68 -303 68q-232 0 -232 -143z" />
    <glyph glyph-name="dieresis" unicode="&#xa8;" horiz-adv-x="819" 
d="M479 1184v196h197v-196h-197zM135 1184v196h197v-196h-197z" />
    <glyph glyph-name="copyright" unicode="&#xa9;" horiz-adv-x="1677" 
d="M852 422q170 0 233 158h138q-35 -131 -133.5 -207t-237.5 -76q-176 0 -285.5 114.5t-109.5 303t109.5 303.5t268 115t256 -75t132.5 -208h-138q-63 158 -233 158q-123 0 -190.5 -84t-67.5 -209t67.5 -209t190.5 -84zM839 86q259 0 444 184.5t185 444.5t-185 444t-444 184
t-443.5 -184t-184.5 -443t184.5 -444.5t443.5 -185.5zM840 1450q303 0 519 -215t216 -520t-216 -520t-519 -215t-519.5 215t-216.5 520t216.5 520t519.5 215z" />
    <glyph glyph-name="ordfeminine" unicode="&#xaa;" horiz-adv-x="993" 
d="M147 584h670v-115h-670v115zM512 1022q-199 0 -199 -97.5t138 -97.5q113 0 200 97v98h-139zM403 694q-98 0 -167.5 59.5t-69.5 162t83 160t247 57.5h155v4q0 92 -43 133t-142 41t-224 -54h-9v136q137 57 275.5 57t214.5 -84t76 -201v-456h-133l-15 82h-4
q-84 -97 -244 -97z" />
    <glyph glyph-name="guillemotleft" unicode="&#xab;" horiz-adv-x="1198" 
d="M700 522l396 -456h-213l-381 456l381 459h213zM670 981l-396 -459l396 -456h-213l-381 456l381 459h213z" />
    <glyph glyph-name="logicalnot" unicode="&#xac;" horiz-adv-x="1185" 
d="M160 637v147h856v-430h-154v283h-702z" />
    <glyph glyph-name="registered" unicode="&#xae;" horiz-adv-x="1677" 
d="M856 733q88 0 140.5 36t52.5 103q0 131 -197 132h-180v-271h184zM1174 393q0 -35 24 -78v-8h-137q-27 39 -27 80v16q0 115 -34 162t-115 47h-213v-305h-137v815h327q162 0 242 -67.5t80 -177.5q0 -139 -150 -197v-2q57 -20 98.5 -83t41.5 -173v-29zM839 86
q259 0 444 184.5t185 444.5t-185 444t-444 184t-443.5 -184t-184.5 -443t184.5 -444.5t443.5 -185.5zM840 1450q303 0 519 -215t216 -520t-216 -520t-519 -215t-519.5 215t-216.5 520t216.5 520t519.5 215z" />
    <glyph glyph-name="macron" unicode="&#xaf;" horiz-adv-x="638" 
d="M608 1327v-123h-581v123h581z" />
    <glyph glyph-name="degree" unicode="&#xb0;" horiz-adv-x="774" 
d="M387 995q72 0 123 51.5t51 123t-51 122.5t-123 51t-123 -51t-51 -122.5t51 -123t123 -51.5zM388 1450q116 0 198 -82t82 -197.5t-82 -198.5t-198 -83t-199 83t-83 198.5t83 197.5t199 82z" />
    <glyph glyph-name="plusminus" unicode="&#xb1;" horiz-adv-x="1241" 
d="M137 700v158h404v393h159v-393h404v-158h-404v-393h-159v393h-404zM137 0v158h967v-158h-967z" />
    <glyph glyph-name="twosuperior" unicode="&#xb2;" 
d="M662 1513.5q0 -90.5 -57.5 -164t-129.5 -118.5q-211 -135 -242 -180v-7h416v-120h-561v80q0 80 69.5 152.5t153.5 117.5q221 125 221 219q0 123 -156.5 123t-250.5 -80h-8v133q123 72 257 72t211 -68.5t77 -159z" />
    <glyph glyph-name="threesuperior" unicode="&#xb3;" 
d="M631 1524q0 -133 -123 -183v-4q152 -47 151 -196q0 -98 -72.5 -164t-223 -66t-265.5 58v127h11q104 -57 233 -58q188 0 188 107q0 127 -229 127h-74v123h60q217 0 217 118q0 102 -160 103q-129 0 -227 -68h-11v123q121 70 254.5 70t202 -60.5t68.5 -156.5z" />
    <glyph glyph-name="acute" unicode="&#xb4;" horiz-adv-x="491" 
d="M227 1456h203l-231 -272h-127z" />
    <glyph glyph-name="mu" unicode="&#xb5;" horiz-adv-x="1236" 
d="M172 -436v1480h186v-643q0 -250 226 -249q178 0 336 196v696h186v-1044h-164l-22 131v31h-5q-80 -88 -159.5 -135t-193 -47t-197.5 53h-7v-469h-186z" />
    <glyph glyph-name="paragraph" unicode="&#xb6;" horiz-adv-x="1499" 
d="M1399 1430v-162h-166v-1717h-162v1717h-229v-1717h-162v826h-74q-217 0 -371.5 153.5t-154.5 372.5t154.5 373t371.5 154h793z" />
    <glyph glyph-name="periodcentered" unicode="&#xb7;" horiz-adv-x="532" 
d="M152 469v229h229v-229h-229z" />
    <glyph glyph-name="cedilla" unicode="&#xb8;" horiz-adv-x="628" 
d="M389 -270q0 63 -60.5 63t-107.5 -24l-59 32l145 234h86l-94 -164q33 8 86 8t97 -40t44 -103q0 -188 -227 -189q-106 0 -201 64l33 72q76 -47 141 -48q117 0 117 95z" />
    <glyph glyph-name="onesuperior" unicode="&#xb9;" 
d="M475 1044h154v-120h-457v120h172v529h-8l-156 -76v135l185 97h110v-685z" />
    <glyph glyph-name="ordmasculine" unicode="&#xba;" horiz-adv-x="1052" 
d="M154 584h745v-115h-745v115zM526 825q86 0 151.5 62.5t65.5 186.5t-65.5 185.5t-151.5 61.5t-151.5 -61.5t-65.5 -185.5t65.5 -186.5t151.5 -62.5zM526 1450q166 0 265.5 -103.5t99.5 -273.5t-99.5 -274.5t-265.5 -104.5t-265 104.5t-99 274.5t99 273.5t265 103.5z" />
    <glyph glyph-name="guillemotright" unicode="&#xbb;" horiz-adv-x="1198" 
d="M102 66l396 456l-396 459h213l381 -459l-381 -456h-213zM924 522l-396 459h213l381 -459l-381 -456h-213z" />
    <glyph glyph-name="onequarter" unicode="&#xbc;" horiz-adv-x="1925" 
d="M1509 317v322h-4l-243 -317v-5h247zM1640 317h125v-120h-125v-197h-131v197h-397v114l385 494h143v-488zM1489 1454l-899 -1483h-164l899 1483h164zM489 756h154v-121h-457v121h172v528h-8l-155 -76v135l184 97h110v-684z" />
    <glyph glyph-name="onehalf" unicode="&#xbd;" horiz-adv-x="1925" 
d="M477 756h154v-121h-457v121h172v528h-8l-156 -76v135l185 97h110v-684zM1477 1454l-899 -1483h-164l899 1483h164zM1763 590q0 -90 -57 -164t-129 -119q-211 -135 -242 -180v-6h416v-121h-561v80q0 80 69.5 152.5t153.5 119.5q221 123 221 217q0 123 -156.5 123
t-250.5 -80h-8v133q123 72 257 72t210.5 -68.5t76.5 -158.5z" />
    <glyph glyph-name="threequarters" unicode="&#xbe;" horiz-adv-x="1925" 
d="M686 1235q0 -133 -123 -182v-4q152 -47 152 -197q0 -98 -73 -163.5t-223.5 -65.5t-264.5 57v127h10q104 -57 233 -57q188 0 189 106q0 127 -230 127h-73v123h59q217 0 217 119q0 102 -160 102q-129 0 -227 -67h-10v122q121 70 254 70t201.5 -60.5t68.5 -156.5zM1538 317
v322h-4l-244 -317v-5h248zM1669 317h125v-120h-125v-197h-131v197h-397v114l385 494h143v-488zM1518 1454l-900 -1483h-163l899 1483h164z" />
    <glyph glyph-name="questiondown" unicode="&#xbf;" horiz-adv-x="999" 
d="M530.5 -406q-196.5 0 -322.5 104.5t-126 283.5q0 94 40 166.5t96 119.5t114 92q135 113 135 265v24h180v-33q0 -109 -39 -193.5t-95 -137t-112 -95.5q-135 -102 -135 -198q0 -223 293 -223q170 0 354 120h9v-186q-195 -109 -391.5 -109zM672 1044v-229h-230v229h230z" />
    <glyph glyph-name="Agrave" unicode="&#xc0;" horiz-adv-x="1427" 
d="M440 537h547v10l-270 653h-4l-273 -653v-10zM1214 0l-153 367h-694l-154 -367h-203l606 1430h195l606 -1430h-203zM457 1808h202l156 -272h-127z" />
    <glyph glyph-name="Aacute" unicode="&#xc1;" horiz-adv-x="1427" 
d="M440 537h547v10l-270 653h-4l-273 -653v-10zM1214 0l-153 367h-694l-154 -367h-203l606 1430h195l606 -1430h-203zM768 1808h203l-232 -272h-127z" />
    <glyph glyph-name="Acircumflex" unicode="&#xc2;" horiz-adv-x="1427" 
d="M440 537h547v10l-270 653h-4l-273 -653v-10zM1214 0l-153 367h-694l-154 -367h-203l606 1430h195l606 -1430h-203zM799 1788l231 -252h-162l-153 150l-154 -150h-162l232 252h168z" />
    <glyph glyph-name="Atilde" unicode="&#xc3;" horiz-adv-x="1427" 
d="M440 537h547v10l-270 653h-4l-273 -653v-10zM1214 0l-153 367h-694l-154 -367h-203l606 1430h195l606 -1430h-203zM881.5 1526q-66.5 0 -168 49t-152.5 49q-68 0 -88 -88h-90q8 111 56 169t113.5 58t166 -48t155.5 -48q71 0 87 84h92q-8 -111 -56.5 -168t-115 -57z" />
    <glyph glyph-name="Adieresis" unicode="&#xc4;" horiz-adv-x="1427" 
d="M788 1536v197h197v-197h-197zM444 1536v197h197v-197h-197zM440 537h547v10l-270 653h-4l-273 -653v-10zM1214 0l-153 367h-694l-154 -367h-203l606 1430h195l606 -1430h-203z" />
    <glyph glyph-name="Aring" unicode="&#xc5;" horiz-adv-x="1427" 
d="M440 537h547v10l-270 653h-4l-273 -653v-10zM1214 0l-153 367h-694l-154 -367h-203l606 1430h195l606 -1430h-203zM715 1587q41 0 70.5 30t29.5 71t-29.5 70.5t-70.5 29.5t-71 -29.5t-30 -70.5t30 -71t71 -30zM715 1880q80 0 136 -56.5t56 -136t-56 -136t-136 -56.5
t-136.5 56.5t-56.5 136t56.5 136t136.5 56.5z" />
    <glyph glyph-name="AE" unicode="&#xc6;" horiz-adv-x="2129" 
d="M1022 537v718h-51l-465 -712v-6h516zM2013 1255h-805v-452h731v-174h-731v-455h805v-174h-991v367h-631l-237 -367h-222l942 1430h1139v-175z" />
    <glyph glyph-name="Ccedilla" unicode="&#xc7;" horiz-adv-x="1429" 
d="M810 -207q-60 0 -108 -24l-59 32l113 183q-283 25 -462 221t-179 521t201.5 524.5t514.5 199.5q264 0 486 -133v-184h-10q-211 139 -465 139t-397.5 -155.5t-143.5 -401.5t143.5 -401.5t397.5 -155.5t465 139h10v-184q-219 -131 -475 -133l-62 -109q33 8 86.5 8t97.5 -40
t44 -103q0 -188 -228 -189q-106 0 -200 64l32 72q76 -47 142 -48q117 0 116 95q0 63 -60 63z" />
    <glyph glyph-name="Egrave" unicode="&#xc8;" horiz-adv-x="1306" 
d="M446 1808h203l156 -272h-127zM1190 1255h-805v-452h731v-174h-731v-455h805v-174h-991v1430h991v-175z" />
    <glyph glyph-name="Eacute" unicode="&#xc9;" horiz-adv-x="1306" 
d="M748 1808h202l-231 -272h-127zM1190 1255h-805v-452h731v-174h-731v-455h805v-174h-991v1430h991v-175z" />
    <glyph glyph-name="Ecircumflex" unicode="&#xca;" horiz-adv-x="1306" 
d="M799 1788l231 -252h-162l-153 150l-154 -150h-162l232 252h168zM1190 1255h-805v-452h731v-174h-731v-455h805v-174h-991v1430h991v-175z" />
    <glyph glyph-name="Edieresis" unicode="&#xcb;" horiz-adv-x="1306" 
d="M766 1536v197h197v-197h-197zM422 1536v197h196v-197h-196zM1190 1255h-805v-452h731v-174h-731v-455h805v-174h-991v1430h991v-175z" />
    <glyph glyph-name="Igrave" unicode="&#xcc;" horiz-adv-x="583" 
d="M45 1808h203l155 -272h-127zM385 1430v-1430h-186v1430h186z" />
    <glyph glyph-name="Iacute" unicode="&#xcd;" horiz-adv-x="583" 
d="M336 1808h203l-232 -272h-127zM385 1430v-1430h-186v1430h186z" />
    <glyph glyph-name="Icircumflex" unicode="&#xce;" horiz-adv-x="583" 
d="M375 1788l231 -252h-162l-153 150l-154 -150h-162l232 252h168zM385 1430v-1430h-186v1430h186z" />
    <glyph glyph-name="Idieresis" unicode="&#xcf;" horiz-adv-x="583" 
d="M365 1536v197h196v-197h-196zM20 1536v197h197v-197h-197zM385 1430v-1430h-186v1430h186z" />
    <glyph glyph-name="Eth" unicode="&#xd0;" horiz-adv-x="1550" 
d="M694 174q254 0 407.5 149.5t153.5 391t-153.5 391t-407.5 149.5h-295v-473h299v-137h-299v-471h295zM45 645v137h168v648h504q176 0 318.5 -62.5t228.5 -167.5q176 -211 176 -485q0 -219 -120 -409t-341 -265q-121 -41 -262 -41h-504v645h-168z" />
    <glyph glyph-name="Ntilde" unicode="&#xd1;" horiz-adv-x="1644" 
d="M996.5 1526q-66.5 0 -168 49t-152.5 49q-68 0 -88 -88h-90q8 111 56 169t113.5 58t166 -48t155.5 -48q70 0 86 84h92q-8 -111 -56 -168t-114.5 -57zM1260 1430h186v-1430h-229l-828 1178h-4v-1178h-186v1430h229l825 -1176h7v1176z" />
    <glyph glyph-name="Ograve" unicode="&#xd2;" horiz-adv-x="1660" 
d="M590 1808h203l155 -272h-127zM830.5 154q246.5 0 390 158.5t143.5 402t-143.5 402.5t-390 159t-389 -159t-142.5 -402.5t142.5 -402t389 -158.5zM831.5 1450q323.5 0 518 -205t200.5 -530q-6 -326 -200.5 -530.5t-518 -204.5t-518 204.5t-200.5 530.5q6 326 200.5 530.5
t518 204.5z" />
    <glyph glyph-name="Oacute" unicode="&#xd3;" horiz-adv-x="1660" 
d="M870 1808h203l-231 -272h-127zM830.5 154q246.5 0 390 158.5t143.5 402t-143.5 402.5t-390 159t-389 -159t-142.5 -402.5t142.5 -402t389 -158.5zM831.5 1450q323.5 0 518 -205t200.5 -530q-6 -326 -200.5 -530.5t-518 -204.5t-518 204.5t-200.5 530.5q6 326 200.5 530.5
t518 204.5z" />
    <glyph glyph-name="Ocircumflex" unicode="&#xd4;" horiz-adv-x="1660" 
d="M915 1788l232 -252h-162l-154 150l-153 -150h-162l232 252h167zM830.5 154q246.5 0 390 158.5t143.5 402t-143.5 402.5t-390 159t-389 -159t-142.5 -402.5t142.5 -402t389 -158.5zM831.5 1450q323.5 0 518 -205t200.5 -530q-6 -326 -200.5 -530.5t-518 -204.5t-518 204.5
t-200.5 530.5q6 326 200.5 530.5t518 204.5z" />
    <glyph glyph-name="Otilde" unicode="&#xd5;" horiz-adv-x="1660" 
d="M996.5 1526q-66.5 0 -168 49t-152.5 49q-68 0 -88 -88h-90q8 111 56 169t113.5 58t166 -48t155.5 -48q70 0 86 84h92q-8 -111 -56 -168t-114.5 -57zM830.5 154q246.5 0 390 158.5t143.5 402t-143.5 402.5t-390 159t-389 -159t-142.5 -402.5t142.5 -402t389 -158.5z
M831.5 1450q323.5 0 518 -205t200.5 -530q-6 -326 -200.5 -530.5t-518 -204.5t-518 204.5t-200.5 530.5q6 326 200.5 530.5t518 204.5z" />
    <glyph glyph-name="Odieresis" unicode="&#xd6;" horiz-adv-x="1660" 
d="M905 1536v197h197v-197h-197zM561 1536v197h197v-197h-197zM830.5 154q246.5 0 390 158.5t143.5 402t-143.5 402.5t-390 159t-389 -159t-142.5 -402.5t142.5 -402t389 -158.5zM831.5 1450q323.5 0 518 -205t200.5 -530q-6 -326 -200.5 -530.5t-518 -204.5t-518 204.5
t-200.5 530.5q6 326 200.5 530.5t518 204.5z" />
    <glyph glyph-name="multiply" unicode="&#xd7;" horiz-adv-x="1153" 
d="M1036 881l-350 -351v-4l350 -350l-110 -108l-348 350h-5l-350 -348l-108 108l350 348v4l-348 351l108 108l348 -350h5l350 350z" />
    <glyph glyph-name="Oslash" unicode="&#xd8;" horiz-adv-x="1660" 
d="M831 154q246 0 389.5 158.5t143.5 416.5t-168 416l-645 -920q122 -71 280 -71zM299 701q0 -257 170 -414l645 919q-121 70 -283 70q-247 0 -389.5 -159t-142.5 -416zM831 -20q-213 0 -382 98l-99 -139l-84 59l99 139q-242 201 -252 578q6 326 200.5 530.5t517.5 204.5
q219 0 386 -98l98 141l84 -59l-99 -142q244 -205 250 -577q-6 -326 -200.5 -530.5t-518.5 -204.5z" />
    <glyph glyph-name="Ugrave" unicode="&#xd9;" horiz-adv-x="1552" 
d="M547 1808h203l155 -272h-127zM1178 1430h186v-893q0 -139 -52 -249t-139.5 -175.5t-188.5 -99t-207.5 -33.5t-208 33.5t-188.5 99t-139.5 175t-52.5 249.5v893h187v-900q0 -180 118.5 -280t282.5 -100t283 100t119 280v900z" />
    <glyph glyph-name="Uacute" unicode="&#xda;" horiz-adv-x="1552" 
d="M803 1808h203l-232 -272h-127zM1178 1430h186v-893q0 -139 -52 -249t-139.5 -175.5t-188.5 -99t-207.5 -33.5t-208 33.5t-188.5 99t-139.5 175t-52.5 249.5v893h187v-900q0 -180 118.5 -280t282.5 -100t283 100t119 280v900z" />
    <glyph glyph-name="Ucircumflex" unicode="&#xdb;" horiz-adv-x="1552" 
d="M860 1788l232 -252h-162l-154 150l-153 -150h-162l231 252h168zM1178 1430h186v-893q0 -139 -52 -249t-139.5 -175.5t-188.5 -99t-207.5 -33.5t-208 33.5t-188.5 99t-139.5 175t-52.5 249.5v893h187v-900q0 -180 118.5 -280t282.5 -100t283 100t119 280v900z" />
    <glyph glyph-name="Udieresis" unicode="&#xdc;" horiz-adv-x="1552" 
d="M850 1536v197h197v-197h-197zM506 1536v197h196v-197h-196zM1178 1430h186v-893q0 -139 -52 -249t-139.5 -175.5t-188.5 -99t-207.5 -33.5t-208 33.5t-188.5 99t-139.5 175t-52.5 249.5v893h187v-900q0 -180 118.5 -280t282.5 -100t283 100t119 280v900z" />
    <glyph glyph-name="Yacute" unicode="&#xdd;" horiz-adv-x="1320" 
d="M707 1808h202l-231 -272h-127zM754 0h-187v604l-581 826h227l442 -654h11l442 654h227l-581 -826v-604z" />
    <glyph glyph-name="Thorn" unicode="&#xde;" horiz-adv-x="1374" 
d="M739 467q209 0 294 80t85 198.5t-85 198.5t-294 80h-354v-557h354zM758 1200q147 0 257.5 -40t171 -107.5t89.5 -144.5t29 -163t-29 -162.5t-89.5 -144t-171 -107.5t-257.5 -40h-373v-291h-186v1430h186v-230h373z" />
    <glyph glyph-name="germandbls" unicode="&#xdf;" horiz-adv-x="1249" 
d="M1153 352q0 -176 -114.5 -274t-267.5 -98t-271 47v168h8q98 -49 202.5 -49.5t180.5 53t76 176.5t-103.5 190.5t-267.5 67.5h-43v143h16q143 0 230.5 72t87.5 183.5t-71 178t-191.5 66.5t-198.5 -68.5t-78 -234.5v-973h-186v995q0 215 127 335t319.5 120t328.5 -103.5
t136 -297.5q0 -256 -223 -328v-2q109 -25 206 -108t97 -259z" />
    <glyph glyph-name="agrave" unicode="&#xe0;" horiz-adv-x="1136" 
d="M317 1456h203l156 -272h-127zM797 469h-224q-309 0 -309 -163t217 -163q90 0 174.5 44t141.5 110v172zM562 1065q204 0 312.5 -119t108.5 -284v-662h-164l-22 131h-6q-147 -152 -379 -151q-139 0 -236.5 83.5t-97.5 229t119.5 235.5t351.5 90h248v17q0 135 -66.5 194.5
t-230.5 59.5t-307 -70h-13v168q178 78 382 78z" />
    <glyph glyph-name="aacute" unicode="&#xe1;" horiz-adv-x="1136" 
d="M588 1456h203l-232 -272h-127zM797 469h-224q-309 0 -309 -163t217 -163q90 0 174.5 44t141.5 110v172zM562 1065q204 0 312.5 -119t108.5 -284v-662h-164l-22 131h-6q-147 -152 -379 -151q-139 0 -236.5 83.5t-97.5 229t119.5 235.5t351.5 90h248v17q0 135 -66.5 194.5
t-230.5 59.5t-307 -70h-13v168q178 78 382 78z" />
    <glyph glyph-name="acircumflex" unicode="&#xe2;" horiz-adv-x="1136" 
d="M643 1436l231 -252h-161l-154 149l-153 -149h-162l231 252h168zM797 469h-224q-309 0 -309 -163t217 -163q90 0 174.5 44t141.5 110v172zM562 1065q204 0 312.5 -119t108.5 -284v-662h-164l-22 131h-6q-147 -152 -379 -151q-139 0 -236.5 83.5t-97.5 229t119.5 235.5
t351.5 90h248v17q0 135 -66.5 194.5t-230.5 59.5t-307 -70h-13v168q178 78 382 78z" />
    <glyph glyph-name="atilde" unicode="&#xe3;" horiz-adv-x="1136" 
d="M717.5 1174q-66.5 0 -167.5 49t-153 49q-68 0 -88 -88h-90q8 111 56.5 169t114 58t165.5 -48t156 -48q70 0 86 84h92q-8 -111 -56.5 -168t-115 -57zM797 469h-224q-309 0 -309 -163t217 -163q90 0 174.5 44t141.5 110v172zM562 1065q204 0 312.5 -119t108.5 -284v-662
h-164l-22 131h-6q-147 -152 -379 -151q-139 0 -236.5 83.5t-97.5 229t119.5 235.5t351.5 90h248v17q0 135 -66.5 194.5t-230.5 59.5t-307 -70h-13v168q178 78 382 78z" />
    <glyph glyph-name="adieresis" unicode="&#xe4;" horiz-adv-x="1136" 
d="M635 1184v196h196v-196h-196zM291 1184v196h196v-196h-196zM797 469h-224q-309 0 -309 -163t217 -163q90 0 174.5 44t141.5 110v172zM562 1065q204 0 312.5 -119t108.5 -284v-662h-164l-22 131h-6q-147 -152 -379 -151q-139 0 -236.5 83.5t-97.5 229t119.5 235.5
t351.5 90h248v17q0 135 -66.5 194.5t-230.5 59.5t-307 -70h-13v168q178 78 382 78z" />
    <glyph glyph-name="aring" unicode="&#xe5;" horiz-adv-x="1136" 
d="M551 1221q41 0 70.5 29.5t29.5 70.5t-29.5 70.5t-70.5 29.5t-70.5 -29.5t-29.5 -70.5t29.5 -70.5t70.5 -29.5zM551 1513q80 0 136 -56t56 -136t-56 -136.5t-136 -56.5t-136.5 56.5t-56.5 136.5t56.5 136t136.5 56zM797 469h-224q-309 0 -309 -163t217 -163q90 0 174.5 44
t141.5 110v172zM562 1065q204 0 312.5 -119t108.5 -284v-662h-164l-22 131h-6q-147 -152 -379 -151q-139 0 -236.5 83.5t-97.5 229t119.5 235.5t351.5 90h248v17q0 135 -66.5 194.5t-230.5 59.5t-307 -70h-13v168q178 78 382 78z" />
    <glyph glyph-name="ae" unicode="&#xe6;" horiz-adv-x="1851" 
d="M1273.5 907q-112.5 0 -204.5 -74t-100 -221h610q-8 147 -100.5 221t-205 74zM795 346v117h-224q-309 0 -309 -156q0 -70 66.5 -117t184.5 -47t200 45t82 158zM1763 522v-59h-794q35 -309 362 -309q207 0 365 104h6v-182q-172 -96 -387 -96q-279 0 -416 178
q-117 -178 -422 -178q-170 0 -285.5 83.5t-115.5 228t119.5 232.5t351.5 88h248v23q0 135 -66.5 194.5t-230.5 59.5t-312 -72h-8v170q178 78 375 78q246 0 350 -172q129 172 369.5 172t365.5 -158t125 -385z" />
    <glyph glyph-name="ccedilla" unicode="&#xe7;" horiz-adv-x="1099" 
d="M674 -270q0 63 -60.5 63t-107.5 -24l-60 32l115 185q-201 27 -333 170t-132 378.5t160 383t387 147.5q184 0 354 -100v-177h-8q-152 102 -329 102.5t-277 -101t-100 -267.5t100 -267t277.5 -101t328.5 102h8v-176q-166 -98 -352 -100l-61 -109q33 8 86 8t97 -40t44 -103
q0 -188 -227 -189q-106 0 -201 64l33 72q76 -47 141 -48q117 0 117 95z" />
    <glyph glyph-name="egrave" unicode="&#xe8;" horiz-adv-x="1167" 
d="M358 1456h203l156 -272h-127zM589.5 907q-112.5 0 -202.5 -76t-98 -223h604q-8 147 -99.5 223t-204 76zM1018 256v-180q-172 -96 -404.5 -96t-373 142t-140.5 385t125 400.5t364.5 157.5t364.5 -158t125 -385v-65h-790q34 -303 298.5 -303t420.5 102h10z" />
    <glyph glyph-name="eacute" unicode="&#xe9;" horiz-adv-x="1167" 
d="M616 1456h203l-231 -272h-127zM589.5 907q-112.5 0 -202.5 -76t-98 -223h604q-8 147 -99.5 223t-204 76zM1018 256v-180q-172 -96 -404.5 -96t-373 142t-140.5 385t125 400.5t364.5 157.5t364.5 -158t125 -385v-65h-790q34 -303 298.5 -303t420.5 102h10z" />
    <glyph glyph-name="ecircumflex" unicode="&#xea;" horiz-adv-x="1167" 
d="M672 1436l231 -252h-162l-153 149l-154 -149h-162l232 252h168zM589.5 907q-112.5 0 -202.5 -76t-98 -223h604q-8 147 -99.5 223t-204 76zM1018 256v-180q-172 -96 -404.5 -96t-373 142t-140.5 385t125 400.5t364.5 157.5t364.5 -158t125 -385v-65h-790
q34 -303 298.5 -303t420.5 102h10z" />
    <glyph glyph-name="edieresis" unicode="&#xeb;" horiz-adv-x="1167" 
d="M662 1184v196h196v-196h-196zM317 1184v196h197v-196h-197zM589.5 907q-112.5 0 -202.5 -76t-98 -223h604q-8 147 -99.5 223t-204 76zM1018 256v-180q-172 -96 -404.5 -96t-373 142t-140.5 385t125 400.5t364.5 157.5t364.5 -158t125 -385v-65h-790q34 -303 298.5 -303
t420.5 102h10z" />
    <glyph glyph-name="igrave" unicode="&#xec;" horiz-adv-x="526" 
d="M16 1456h203l156 -272h-127zM170 0v1044h186v-1044h-186z" />
    <glyph glyph-name="iacute" unicode="&#xed;" horiz-adv-x="526" 
d="M307 1456h203l-231 -272h-127zM170 0v1044h186v-1044h-186z" />
    <glyph glyph-name="icircumflex" unicode="&#xee;" horiz-adv-x="526" 
d="M346 1436l232 -252h-162l-154 149l-153 -149h-162l231 252h168zM170 0v1044h186v-1044h-186z" />
    <glyph glyph-name="idieresis" unicode="&#xef;" horiz-adv-x="526" 
d="M336 1184v196h196v-196h-196zM-8 1184v196h196v-196h-196zM170 0v1044h186v-1044h-186z" />
    <glyph glyph-name="eth" unicode="&#xf0;" horiz-adv-x="1226" 
d="M608 143q131 0 230.5 93.5t99.5 278.5t-99.5 276.5t-230.5 91.5t-229 -91.5t-98 -276.5t98 -278.5t229 -93.5zM1118 561q0 -256 -125 -418.5t-369.5 -162.5t-384 145t-139.5 372.5t129 382t351 154.5q121 0 223 -53h6q-80 119 -217 236l-211 -123l-51 88l174 102
q-106 74 -209 127q98 141 100 141q150 -86 264 -178l177 107l53 -88l-148 -88q377 -340 377 -744z" />
    <glyph glyph-name="ntilde" unicode="&#xf1;" horiz-adv-x="1247" 
d="M799.5 1174q-66.5 0 -168 49t-152.5 49q-68 0 -88 -88h-90q8 111 56.5 169t114 58t165.5 -48t156 -48q70 0 86 84h92q-8 -111 -56.5 -168t-115 -57zM729 1065q170 0 268.5 -114.5t98.5 -286.5v-664h-187v643q0 250 -225 250q-178 0 -336 -197v-696h-186v1044h164l22 -131
v-30h4q166 182 377 182z" />
    <glyph glyph-name="ograve" unicode="&#xf2;" horiz-adv-x="1245" 
d="M377 1456h203l155 -272h-127zM622.5 150q135.5 0 237 93t101.5 280.5t-101.5 279.5t-237 92t-236.5 -92t-101 -279.5t101 -280.5t236.5 -93zM621.5 1065q236.5 0 381 -149.5t144.5 -393t-144.5 -393t-381 -149.5t-380 149.5t-143.5 393t143.5 393t380 149.5z" />
    <glyph glyph-name="oacute" unicode="&#xf3;" horiz-adv-x="1245" 
d="M666 1456h202l-231 -272h-127zM622.5 150q135.5 0 237 93t101.5 280.5t-101.5 279.5t-237 92t-236.5 -92t-101 -279.5t101 -280.5t236.5 -93zM621.5 1065q236.5 0 381 -149.5t144.5 -393t-144.5 -393t-381 -149.5t-380 149.5t-143.5 393t143.5 393t380 149.5z" />
    <glyph glyph-name="ocircumflex" unicode="&#xf4;" horiz-adv-x="1245" 
d="M707 1436l231 -252h-162l-153 149l-154 -149h-162l232 252h168zM622.5 150q135.5 0 237 93t101.5 280.5t-101.5 279.5t-237 92t-236.5 -92t-101 -279.5t101 -280.5t236.5 -93zM621.5 1065q236.5 0 381 -149.5t144.5 -393t-144.5 -393t-381 -149.5t-380 149.5t-143.5 393
t143.5 393t380 149.5z" />
    <glyph glyph-name="otilde" unicode="&#xf5;" horiz-adv-x="1245" 
d="M789.5 1174q-66.5 0 -168 49t-152.5 49q-68 0 -88 -88h-90q8 111 55 169t114.5 58t168 -48t153.5 -48q70 0 86 84h93q-8 -111 -56.5 -168t-115 -57zM622.5 150q135.5 0 237 93t101.5 280.5t-101.5 279.5t-237 92t-236.5 -92t-101 -279.5t101 -280.5t236.5 -93z
M621.5 1065q236.5 0 381 -149.5t144.5 -393t-144.5 -393t-381 -149.5t-380 149.5t-143.5 393t143.5 393t380 149.5z" />
    <glyph glyph-name="odieresis" unicode="&#xf6;" horiz-adv-x="1245" 
d="M696 1184v196h197v-196h-197zM352 1184v196h197v-196h-197zM622.5 150q135.5 0 237 93t101.5 280.5t-101.5 279.5t-237 92t-236.5 -92t-101 -279.5t101 -280.5t236.5 -93zM621.5 1065q236.5 0 381 -149.5t144.5 -393t-144.5 -393t-381 -149.5t-380 149.5t-143.5 393
t143.5 393t380 149.5z" />
    <glyph glyph-name="divide" unicode="&#xf7;" horiz-adv-x="1458" 
d="M823 1151v-188h-188v188h188zM635 205v188h188v-188h-188zM160 762h1138v-166h-1138v166z" />
    <glyph glyph-name="oslash" unicode="&#xf8;" horiz-adv-x="1245" 
d="M623 150q135 0 236.5 93t101.5 270t-91 278l-417 -598q80 -43 170 -43zM285 533.5q0 -177.5 88 -275.5l418 596q-76 41 -168 41q-136 0 -237 -92t-101 -269.5zM1147 532.5q0 -253.5 -144.5 -403t-379.5 -149.5q-154 0 -273 67l-76 -108l-84 59l76 108q-168 150 -168 405
t143.5 404.5t381.5 149.5q156 0 270 -66l76 109l84 -59l-76 -109q170 -154 170 -407.5z" />
    <glyph glyph-name="ugrave" unicode="&#xf9;" horiz-adv-x="1249" 
d="M375 1456h203l155 -272h-127zM520 -20q-170 0 -268 114.5t-98 286.5v663h186v-643q0 -250 225 -249q178 0 336 196v696h186v-1044h-163l-23 131v31h-4q-166 -182 -377 -182z" />
    <glyph glyph-name="uacute" unicode="&#xfa;" horiz-adv-x="1249" 
d="M664 1456h202l-231 -272h-127zM520 -20q-170 0 -268 114.5t-98 286.5v663h186v-643q0 -250 225 -249q178 0 336 196v696h186v-1044h-163l-23 131v31h-4q-166 -182 -377 -182z" />
    <glyph glyph-name="ucircumflex" unicode="&#xfb;" horiz-adv-x="1249" 
d="M705 1436l231 -252h-162l-153 149l-154 -149h-162l232 252h168zM520 -20q-170 0 -268 114.5t-98 286.5v663h186v-643q0 -250 225 -249q178 0 336 196v696h186v-1044h-163l-23 131v31h-4q-166 -182 -377 -182z" />
    <glyph glyph-name="udieresis" unicode="&#xfc;" horiz-adv-x="1249" 
d="M694 1184v196h197v-196h-197zM350 1184v196h197v-196h-197zM520 -20q-170 0 -268 114.5t-98 286.5v663h186v-643q0 -250 225 -249q178 0 336 196v696h186v-1044h-163l-23 131v31h-4q-166 -182 -377 -182z" />
    <glyph glyph-name="yacute" unicode="&#xfd;" horiz-adv-x="1091" 
d="M588 1456h203l-232 -272h-127zM1083 1044l-628 -1515h-189l176 455l-432 1060h201l328 -825h8l336 825h200z" />
    <glyph glyph-name="thorn" unicode="&#xfe;" horiz-adv-x="1292" 
d="M672 154q152 0 244 96t92 272t-92.5 272.5t-243.5 96.5q-184 0 -324 -154v-430q140 -153 324 -153zM698.5 1065q198.5 0 347 -147.5t148.5 -395.5t-148.5 -395t-347 -147t-344.5 151h-6v-602h-186v1966h186v-582h6q146 152 344.5 152z" />
    <glyph glyph-name="ydieresis" unicode="&#xff;" horiz-adv-x="1091" 
d="M616 1184v196h197v-196h-197zM272 1184v196h197v-196h-197zM1083 1044l-628 -1515h-189l176 455l-432 1060h201l328 -825h8l336 825h200z" />
    <glyph glyph-name="Amacron" unicode="&#x100;" horiz-adv-x="1427" 
d="M440 537h547v10l-270 653h-4l-273 -653v-10zM1214 0l-153 367h-694l-154 -367h-203l606 1430h195l606 -1430h-203zM1006 1696v-123h-582v123h582z" />
    <glyph glyph-name="amacron" unicode="&#x101;" horiz-adv-x="1136" 
d="M838 1327v-123h-582v123h582zM797 469h-224q-309 0 -309 -163t217 -163q90 0 174.5 44t141.5 110v172zM562 1065q204 0 312.5 -119t108.5 -284v-662h-164l-22 131h-6q-147 -152 -379 -151q-139 0 -236.5 83.5t-97.5 229t119.5 235.5t351.5 90h248v17q0 135 -66.5 194.5
t-230.5 59.5t-307 -70h-13v168q178 78 382 78z" />
    <glyph glyph-name="Abreve" unicode="&#x102;" horiz-adv-x="1427" 
d="M440 537h547v10l-270 653h-4l-273 -653v-10zM1214 0l-153 367h-694l-154 -367h-203l606 1430h195l606 -1430h-203zM715 1532q-119 0 -200 64.5t-101 172.5h131q41 -119 170 -119t170 119h131q-20 -109 -101 -173t-200 -64z" />
    <glyph glyph-name="abreve" unicode="&#x103;" horiz-adv-x="1136" 
d="M551 1180q-119 0 -200 64.5t-101 172.5h131q41 -119 170 -119t170 119h131q-20 -109 -101 -173t-200 -64zM797 469h-224q-309 0 -309 -163t217 -163q90 0 174.5 44t141.5 110v172zM562 1065q204 0 312.5 -119t108.5 -284v-662h-164l-22 131h-6q-147 -152 -379 -151
q-139 0 -236.5 83.5t-97.5 229t119.5 235.5t351.5 90h248v17q0 135 -66.5 194.5t-230.5 59.5t-307 -70h-13v168q178 78 382 78z" />
    <glyph glyph-name="Aogonek" unicode="&#x104;" horiz-adv-x="1427" 
d="M440 537h547v10l-270 653h-4l-273 -653v-10zM1292 -301q59 0 123 37v-96q-82 -55 -173 -55.5t-147.5 46.5t-56.5 125q0 154 219 244h-43l-153 367h-694l-154 -367h-203l606 1430h195l606 -1430q-233 -86 -229 -205q0 -96 104 -96z" />
    <glyph glyph-name="aogonek" unicode="&#x105;" horiz-adv-x="1136" 
d="M797 469h-224q-309 0 -309 -163t217 -163q90 0 174.5 44t141.5 110v172zM858 -301q59 0 123 37v-96q-82 -55 -173 -55.5t-147.5 46.5t-56.5 125q0 154 219 244h-26v135q-147 -156 -385 -155q-139 0 -236.5 83.5t-97.5 229t119.5 235.5t351.5 90h248v17q0 135 -66.5 194.5
t-234.5 59.5t-316 -76v174q178 78 382 78t312.5 -119t108.5 -284v-662q-233 -86 -229 -205q0 -96 104 -96z" />
    <glyph glyph-name="Cacute" unicode="&#x106;" horiz-adv-x="1429" 
d="M852 1808h203l-232 -272h-127zM842 1272q-254 0 -397.5 -155.5t-143.5 -401.5t143.5 -401.5t397.5 -155.5t465 139h10v-184q-221 -133 -486 -133q-313 0 -514.5 199.5t-201.5 535.5t201.5 535.5t514.5 199.5q264 0 486 -133v-184h-10q-211 139 -465 139z" />
    <glyph glyph-name="cacute" unicode="&#x107;" horiz-adv-x="1097" 
d="M653 1456h203l-231 -272h-127zM281 522q0 -166 100 -267t277.5 -101t328.5 102h8v-176q-170 -100 -354 -100q-227 0 -387 147t-160 395t160 395.5t387 147.5q184 0 354 -100v-177h-8q-152 102 -329 102.5t-277 -101t-100 -267.5z" />
    <glyph glyph-name="Ccircumflex" unicode="&#x108;" horiz-adv-x="1429" 
d="M897 1788l231 -252h-161l-154 150l-154 -150h-161l231 252h168zM842 1272q-254 0 -397.5 -155.5t-143.5 -401.5t143.5 -401.5t397.5 -155.5t465 139h10v-184q-221 -133 -486 -133q-313 0 -514.5 199.5t-201.5 535.5t201.5 535.5t514.5 199.5q264 0 486 -133v-184h-10
q-211 139 -465 139z" />
    <glyph glyph-name="ccircumflex" unicode="&#x109;" horiz-adv-x="1097" 
d="M692 1436l232 -252h-162l-154 149l-153 -149h-162l231 252h168zM281 522q0 -166 100 -267t277.5 -101t328.5 102h8v-176q-170 -100 -354 -100q-227 0 -387 147t-160 395t160 395.5t387 147.5q184 0 354 -100v-177h-8q-152 102 -329 102.5t-277 -101t-100 -267.5z" />
    <glyph glyph-name="Cdotaccent" unicode="&#x10a;" horiz-adv-x="1429" 
d="M711 1536v197h196v-197h-196zM842 1272q-254 0 -397.5 -155.5t-143.5 -401.5t143.5 -401.5t397.5 -155.5t465 139h10v-184q-221 -133 -486 -133q-313 0 -514.5 199.5t-201.5 535.5t201.5 535.5t514.5 199.5q264 0 486 -133v-184h-10q-211 139 -465 139z" />
    <glyph glyph-name="cdotaccent" unicode="&#x10b;" horiz-adv-x="1097" 
d="M518 1184v196h197v-196h-197zM281 522q0 -166 100 -267t277.5 -101t328.5 102h8v-176q-170 -100 -354 -100q-227 0 -387 147t-160 395t160 395.5t387 147.5q184 0 354 -100v-177h-8q-152 102 -329 102.5t-277 -101t-100 -267.5z" />
    <glyph glyph-name="Ccaron" unicode="&#x10c;" horiz-adv-x="1429" 
d="M1130 1788l-231 -252h-168l-231 252h162l153 -150l154 150h161zM842 1272q-254 0 -397.5 -155.5t-143.5 -401.5t143.5 -401.5t397.5 -155.5t465 139h10v-184q-221 -133 -486 -133q-313 0 -514.5 199.5t-201.5 535.5t201.5 535.5t514.5 199.5q264 0 486 -133v-184h-10
q-211 139 -465 139z" />
    <glyph glyph-name="ccaron" unicode="&#x10d;" horiz-adv-x="1097" 
d="M918 1436l-232 -252h-168l-231 252h162l153 -150l154 150h162zM281 522q0 -166 100 -267t277.5 -101t328.5 102h8v-176q-170 -100 -354 -100q-227 0 -387 147t-160 395t160 395.5t387 147.5q184 0 354 -100v-177h-8q-152 102 -329 102.5t-277 -101t-100 -267.5z" />
    <glyph glyph-name="Dcaron" unicode="&#x10e;" horiz-adv-x="1536" 
d="M1079 1788l-231 -252h-168l-231 252h161l154 -150l154 150h161zM680 174q254 0 407.5 149.5t153.5 391t-153.5 391t-407.5 149.5h-295v-1081h295zM702 1430q176 0 318.5 -62.5t228.5 -167.5q176 -211 176 -485q1 -219 -119 -409t-341 -265q-121 -41 -263 -41h-503v1430
h503z" />
    <glyph glyph-name="dcaron" unicode="&#x10f;" horiz-adv-x="1329" 
d="M1251 1495h195v-192q0 -195 -195 -279v113q96 51 97 166h-97v192zM621 154q184 0 323 153v430q-139 154 -323 154q-152 0 -244 -96.5t-92 -272.5t92 -272t244 -96zM594 1065q199 0 344 -152h6v582h186v-1495h-163l-23 131h-6q-145 -152 -344 -151.5t-347.5 147.5
t-148.5 395t148.5 395.5t347.5 147.5z" />
    <glyph glyph-name="Dcroat" unicode="&#x110;" horiz-adv-x="1550" 
d="M694 174q254 0 407.5 149.5t153.5 391t-153.5 391t-407.5 149.5h-295v-473h299v-137h-299v-471h295zM45 645v137h168v648h504q176 0 318.5 -62.5t228.5 -167.5q176 -211 176 -485q0 -219 -120 -409t-341 -265q-121 -41 -262 -41h-504v645h-168z" />
    <glyph glyph-name="dcroat" unicode="&#x111;" horiz-adv-x="1292" 
d="M621 154q184 0 323 153v430q-139 154 -323 154q-152 0 -244 -96.5t-92 -272.5t92 -272t244 -96zM664 1202v137h280v156h186v-156h158v-137h-158v-1202h-163l-23 131h-6q-145 -152 -344 -151.5t-347.5 147.5t-148.5 395t148.5 395.5t347.5 147.5t344 -152h6v289h-280z" />
    <glyph glyph-name="Emacron" unicode="&#x112;" horiz-adv-x="1306" 
d="M1001 1696v-123h-581v123h581zM1190 1255h-805v-452h731v-174h-731v-455h805v-174h-991v1430h991v-175z" />
    <glyph glyph-name="emacron" unicode="&#x113;" horiz-adv-x="1167" 
d="M881 1327v-123h-582v123h582zM589.5 907q-112.5 0 -202.5 -76t-98 -223h604q-8 147 -99.5 223t-204 76zM1018 256v-180q-172 -96 -404.5 -96t-373 142t-140.5 385t125 400.5t364.5 157.5t364.5 -158t125 -385v-65h-790q34 -303 298.5 -303t420.5 102h10z" />
    <glyph glyph-name="Ebreve" unicode="&#x114;" horiz-adv-x="1306" 
d="M706.5 1532q-118.5 0 -199.5 64.5t-101 172.5h131q41 -119 170 -119t170 119h131q-20 -109 -101.5 -173t-200 -64zM1190 1255h-805v-452h731v-174h-731v-455h805v-174h-991v1430h991v-175z" />
    <glyph glyph-name="ebreve" unicode="&#x115;" horiz-adv-x="1167" 
d="M581.5 1180q-118.5 0 -199.5 64.5t-101 172.5h131q41 -119 170 -119t170 119h131q-20 -109 -101.5 -173t-200 -64zM589.5 907q-112.5 0 -202.5 -76t-98 -223h604q-8 147 -99.5 223t-204 76zM1018 256v-180q-172 -96 -404.5 -96t-373 142t-140.5 385t125 400.5
t364.5 157.5t364.5 -158t125 -385v-65h-790q34 -303 298.5 -303t420.5 102h10z" />
    <glyph glyph-name="Edotaccent" unicode="&#x116;" horiz-adv-x="1306" 
d="M612 1536v197h197v-197h-197zM1190 1255h-805v-452h731v-174h-731v-455h805v-174h-991v1430h991v-175z" />
    <glyph glyph-name="edotaccent" unicode="&#x117;" horiz-adv-x="1167" 
d="M487 1184v196h197v-196h-197zM589.5 907q-112.5 0 -202.5 -76t-98 -223h604q-8 147 -99.5 223t-204 76zM1018 256v-180q-172 -96 -404.5 -96t-373 142t-140.5 385t125 400.5t364.5 157.5t364.5 -158t125 -385v-65h-790q34 -303 298.5 -303t420.5 102h10z" />
    <glyph glyph-name="Eogonek" unicode="&#x118;" horiz-adv-x="1306" 
d="M1065 -301q57 0 123 37v-96q-82 -55 -173 -55.5t-147.5 46.5t-56.5 125q0 154 219 244h-831v1430h991v-175h-805v-452h731v-174h-731v-455h805v-174q-233 -86 -229 -205q0 -96 104 -96z" />
    <glyph glyph-name="eogonek" unicode="&#x119;" horiz-adv-x="1169" 
d="M589.5 907q-112.5 0 -204.5 -76t-100 -223h610q-8 147 -100.5 223t-205 76zM1079 522v-65h-794q16 -141 108 -222t275.5 -81t339.5 102h10v-180q-102 -41 -199.5 -122t-97.5 -159q0 -96 104 -96q59 0 123 37v-96q-82 -55 -173 -55.5t-147.5 46.5t-56.5 125q0 133 162 230
q-45 -6 -102 -6q-250 0 -390.5 142t-140.5 385t125 400.5t364.5 157.5t364.5 -158t125 -385z" />
    <glyph glyph-name="Ecaron" unicode="&#x11a;" horiz-adv-x="1306" 
d="M1010 1788l-232 -252h-168l-231 252h162l153 -150l154 150h162zM1190 1255h-805v-452h731v-174h-731v-455h805v-174h-991v1430h991v-175z" />
    <glyph glyph-name="ecaron" unicode="&#x11b;" horiz-adv-x="1167" 
d="M901 1436l-231 -252h-168l-232 252h162l154 -150l153 150h162zM589.5 907q-112.5 0 -202.5 -76t-98 -223h604q-8 147 -99.5 223t-204 76zM1018 256v-180q-172 -96 -404.5 -96t-373 142t-140.5 385t125 400.5t364.5 157.5t364.5 -158t125 -385v-65h-790
q34 -303 298.5 -303t420.5 102h10z" />
    <glyph glyph-name="Gcircumflex" unicode="&#x11c;" horiz-adv-x="1523" 
d="M901 1788l232 -252h-162l-154 150l-153 -150h-162l231 252h168zM840 784h538v-647q-264 -158 -547 -157q-322 0 -520 204.5t-198 530t204.5 530.5t492.5 205t546 -158v-192h-8q-252 170 -497 170t-398.5 -147.5t-153.5 -400.5t149.5 -409.5t407.5 -156.5q193 0 358 90
v370h-374v168z" />
    <glyph glyph-name="gcircumflex" unicode="&#x11d;" horiz-adv-x="1292" 
d="M733 1436l232 -252h-162l-154 149l-153 -149h-162l231 252h168zM638 895q-159 0 -256 -93t-97 -269.5t97 -269.5t256 -93t306 152v421q-147 152 -306 152zM1130 1044v-999q0 -258 -124.5 -397.5t-361 -139.5t-431.5 105v184h10q174 -113 408 -112q313 0 313 333v134h-6
q-141 -152 -338 -152t-349.5 140.5t-152.5 392t152.5 392t349.5 140.5t338 -152h6l23 131h163z" />
    <glyph glyph-name="Gbreve" unicode="&#x11e;" horiz-adv-x="1523" 
d="M811 1532q-119 0 -200 64.5t-101 172.5h131q41 -119 170 -119t170 119h131q-20 -109 -101 -173t-200 -64zM840 784h538v-647q-264 -158 -547 -157q-322 0 -520 204.5t-198 530t204.5 530.5t492.5 205t546 -158v-192h-8q-252 170 -497 170t-398.5 -147.5t-153.5 -400.5
t149.5 -409.5t407.5 -156.5q193 0 358 90v370h-374v168z" />
    <glyph glyph-name="gbreve" unicode="&#x11f;" horiz-adv-x="1292" 
d="M645 1180q-119 0 -199.5 64.5t-101.5 172.5h131q41 -119 170 -119t170 119h131q-20 -109 -101 -173t-200 -64zM638 895q-159 0 -256 -93t-97 -269.5t97 -269.5t256 -93t306 152v421q-147 152 -306 152zM1130 1044v-999q0 -258 -124.5 -397.5t-361 -139.5t-431.5 105v184
h10q174 -113 408 -112q313 0 313 333v134h-6q-141 -152 -338 -152t-349.5 140.5t-152.5 392t152.5 392t349.5 140.5t338 -152h6l23 131h163z" />
    <glyph glyph-name="Gdotaccent" unicode="&#x120;" horiz-adv-x="1523" 
d="M702 1536v197h197v-197h-197zM840 784h538v-647q-264 -158 -547 -157q-322 0 -520 204.5t-198 530t204.5 530.5t492.5 205t546 -158v-192h-8q-252 170 -497 170t-398.5 -147.5t-153.5 -400.5t149.5 -409.5t407.5 -156.5q193 0 358 90v370h-374v168z" />
    <glyph glyph-name="gdotaccent" unicode="&#x121;" horiz-adv-x="1292" 
d="M553 1184v196h197v-196h-197zM638 895q-159 0 -256 -93t-97 -269.5t97 -269.5t256 -93t306 152v421q-147 152 -306 152zM1130 1044v-999q0 -258 -124.5 -397.5t-361 -139.5t-431.5 105v184h10q174 -113 408 -112q313 0 313 333v134h-6q-141 -152 -338 -152t-349.5 140.5
t-152.5 392t152.5 392t349.5 140.5t338 -152h6l23 131h163z" />
    <glyph glyph-name="Gcommaaccent" unicode="&#x122;" horiz-adv-x="1523" 
d="M709 -109h194v-192q0 -195 -194 -279v113q96 51 96 166h-96v192zM840 784h538v-647q-264 -158 -547 -157q-322 0 -520 204.5t-198 530t204.5 530.5t492.5 205t546 -158v-192h-8q-252 170 -497 170t-398.5 -147.5t-153.5 -400.5t149.5 -409.5t407.5 -156.5q193 0 358 90
v370h-374v168z" />
    <glyph glyph-name="gcommaaccent" unicode="&#x123;" horiz-adv-x="1292" 
d="M638 895q-159 0 -256 -93t-97 -269.5t97 -269.5t256 -93t306 152v421q-147 152 -306 152zM1130 1044v-999q0 -258 -124.5 -397.5t-361 -139.5t-431.5 105v184h10q174 -113 408 -112q313 0 313 333v134h-6q-141 -152 -338 -152t-349.5 140.5t-152.5 392t152.5 392
t349.5 140.5t338 -152h6l23 131h163zM750 1184h-193v192q0 195 193 279v-113q-94 -51 -95 -166h95v-192z" />
    <glyph glyph-name="Hcircumflex" unicode="&#x124;" horiz-adv-x="1546" 
d="M846 1788l231 -252h-162l-153 150l-154 -150h-162l232 252h168zM1161 1430h187v-1430h-187v627h-776v-627h-186v1430h186v-629h776v629z" />
    <glyph glyph-name="hcircumflex" unicode="&#x125;" horiz-adv-x="1247" 
d="M338 1847l231 -252h-161l-154 150l-154 -150h-161l231 252h168zM729 1065q170 0 268.5 -114.5t98.5 -286.5v-664h-187v643q0 250 -225 250q-178 0 -336 -197v-696h-186v1495h186v-612h6q166 182 375 182z" />
    <glyph glyph-name="Hbar" unicode="&#x126;" horiz-adv-x="1562" 
d="M1169 801v241h-776v-241h776zM1507 1180v-138h-151v-1042h-187v627h-776v-627h-186v1042h-152v138h152v250h186v-250h776v250h187v-250h151z" />
    <glyph glyph-name="hbar" unicode="&#x127;" horiz-adv-x="1247" 
d="M2 1202v137h160v156h186v-156h281v-137h-281v-319h6q166 182 375 182q170 0 268.5 -114.5t98.5 -286.5v-664h-187v643q0 250 -225 250q-178 0 -336 -197v-696h-186v1202h-160z" />
    <glyph glyph-name="Itilde" unicode="&#x128;" horiz-adv-x="583" 
d="M455.5 1526q-66.5 0 -168 49t-152.5 49q-68 0 -88 -88h-90q8 111 55 169t114 58t167 -48t156 -48q70 0 86 84h92q-8 -111 -56.5 -168t-115 -57zM385 1430v-1430h-186v1430h186z" />
    <glyph glyph-name="itilde" unicode="&#x129;" horiz-adv-x="526" 
d="M427 1174q-67 0 -168 49t-153 49q-68 0 -88 -88h-90q8 111 56.5 169t114 58t167 -48t154.5 -48q70 0 86 84h92q-8 -111 -56 -168t-115 -57zM170 0v1044h186v-1044h-186z" />
    <glyph glyph-name="Imacron" unicode="&#x12a;" horiz-adv-x="583" 
d="M582 1696v-123h-582v123h582zM385 1430v-1430h-186v1430h186z" />
    <glyph glyph-name="imacron" unicode="&#x12b;" horiz-adv-x="526" 
d="M553 1327v-123h-582v123h582zM170 0v1044h186v-1044h-186z" />
    <glyph glyph-name="Ibreve" unicode="&#x12c;" horiz-adv-x="583" 
d="M291 1532q-119 0 -200 64.5t-101 172.5h131q41 -119 170 -119t170 119h131q-20 -109 -101 -173t-200 -64zM385 1430v-1430h-186v1430h186z" />
    <glyph glyph-name="ibreve" unicode="&#x12d;" horiz-adv-x="526" 
d="M262 1180q-119 0 -199.5 64.5t-101.5 172.5h131q41 -119 170 -119t170 119h131q-20 -109 -101 -173t-200 -64zM170 0v1044h186v-1044h-186z" />
    <glyph glyph-name="Iogonek" unicode="&#x12e;" horiz-adv-x="583" 
d="M260 -301q59 0 123 37v-96q-82 -55 -173 -55.5t-147.5 46.5t-56.5 125q0 154 219 244h-26v1430h186v-1430q-233 -86 -229 -205q0 -96 104 -96z" />
    <glyph glyph-name="iogonek" unicode="&#x12f;" horiz-adv-x="526" 
d="M365 1466v-200h-201v200h201zM231 -301q59 0 123 37v-96q-82 -55 -173 -55.5t-147.5 46.5t-56.5 125q0 154 220 244h-27v1044h186v-1044q-233 -86 -229 -205q0 -96 104 -96z" />
    <glyph glyph-name="Idotaccent" unicode="&#x130;" horiz-adv-x="583" 
d="M193 1536v197h196v-197h-196zM385 1430v-1430h-186v1430h186z" />
    <glyph glyph-name="dotlessi" unicode="&#x131;" horiz-adv-x="526" 
d="M170 0v1044h186v-1044h-186z" />
    <glyph glyph-name="IJ" unicode="&#x132;" horiz-adv-x="1515" 
d="M1139 1430h186v-959q0 -268 -120 -379.5t-288.5 -111.5t-306.5 83v185h8q125 -92 254 -92t198 63.5t69 239.5v971zM385 1430v-1430h-186v1430h186z" />
    <glyph glyph-name="ij" unicode="&#x133;" horiz-adv-x="1034" 
d="M678 -207v1251h186v-1255q0 -127 -64.5 -204t-203.5 -77q-88 0 -154 27v154h17q49 -16 103 -16.5t85 22t31 98.5zM672 1466h200v-200h-200v200zM365 1466v-200h-201v200h201zM170 0v1044h186v-1044h-186z" />
    <glyph glyph-name="Jcircumflex" unicode="&#x134;" horiz-adv-x="954" 
d="M754 1821l231 -252h-162l-153 149l-154 -149h-162l232 252h168zM578 1430h186v-959q0 -268 -120 -379.5t-289 -111.5t-306 83v185h8q125 -92 254 -92t198 63.5t69 239.5v971z" />
    <glyph glyph-name="jcircumflex" unicode="&#x135;" horiz-adv-x="526" 
d="M170 -207v1251h186v-1255q0 -127 -64.5 -204t-203.5 -77q-88 0 -154 27v154h17q49 -16 103.5 -16.5t85 22t30.5 98.5zM346 1436l232 -252h-162l-154 149l-153 -149h-162l231 252h168z" />
    <glyph glyph-name="Kcommaaccent" unicode="&#x136;" horiz-adv-x="1368" 
d="M639 -109h195v-192q0 -195 -195 -279v113q96 51 96 166h-96v192zM385 0h-186v1430h186v-732h6l690 732h244l-584 -603l637 -827h-227l-528 696h-11l-227 -235v-461z" />
    <glyph glyph-name="kcommaaccent" unicode="&#x137;" horiz-adv-x="1116" 
d="M496 -109h194v-192q0 -195 -194 -279v113q96 51 96 166h-96v192zM348 0h-186v1495h186v-915h6l453 464h250l-424 -419l471 -625h-230l-368 494h-6l-152 -152v-342z" />
    <glyph glyph-name="kgreenlandic" unicode="&#x138;" horiz-adv-x="1118" 
d="M348 0h-186v1044h186v-464h6l453 464h250l-424 -419l471 -625h-230l-368 494h-6l-152 -152v-342z" />
    <glyph glyph-name="Lacute" unicode="&#x139;" horiz-adv-x="1179" 
d="M369 1808h202l-231 -272h-127zM1139 186v-186h-940v1430h186v-1244h754z" />
    <glyph glyph-name="lacute" unicode="&#x13a;" horiz-adv-x="542" 
d="M326 1874h202l-231 -272h-127zM365 1495v-1495h-187v1495h187z" />
    <glyph glyph-name="Lcommaaccent" unicode="&#x13b;" horiz-adv-x="1177" 
d="M571 -109h195v-192q0 -195 -195 -279v113q96 51 97 166h-97v192zM1139 186v-186h-940v1430h186v-1244h754z" />
    <glyph glyph-name="lcommaaccent" unicode="&#x13c;" horiz-adv-x="542" 
d="M174 -109h195v-192q0 -195 -195 -279v113q96 51 96 166h-96v192zM365 1495v-1495h-187v1495h187z" />
    <glyph glyph-name="Lcaron" unicode="&#x13d;" horiz-adv-x="1179" 
d="M631 1430h194v-193q0 -195 -194 -279v113q96 51 96 166h-96v193zM1139 186v-186h-940v1430h186v-1244h754z" />
    <glyph glyph-name="lcaron" unicode="&#x13e;" horiz-adv-x="577" 
d="M514 1495h195v-192q0 -195 -195 -279v113q96 51 96 166h-96v192zM365 1495v-1495h-187v1495h187z" />
    <glyph glyph-name="Ldot" unicode="&#x13f;" horiz-adv-x="1179" 
d="M631 647v197h196v-197h-196zM1139 186v-186h-940v1430h186v-1244h754z" />
    <glyph glyph-name="ldot" unicode="&#x140;" horiz-adv-x="774" 
d="M532 647v197h197v-197h-197zM365 1495v-1495h-187v1495h187z" />
    <glyph glyph-name="Lslash" unicode="&#x141;" horiz-adv-x="1212" 
d="M418 186h731v-186h-918v526l-198 -112v157l198 113v746h187v-639l381 217v-158l-381 -217v-447z" />
    <glyph glyph-name="lslash" unicode="&#x142;" horiz-adv-x="626" 
d="M395 0h-186v578l-197 -111v158l197 112v758h186v-653l219 127v-160l-219 -125v-684z" />
    <glyph glyph-name="Nacute" unicode="&#x143;" horiz-adv-x="1644" 
d="M915 1808h203l-231 -272h-127zM1260 1430h186v-1430h-229l-828 1178h-4v-1178h-186v1430h229l825 -1176h7v1176z" />
    <glyph glyph-name="nacute" unicode="&#x144;" horiz-adv-x="1247" 
d="M678 1456h203l-232 -272h-127zM729 1065q170 0 268.5 -114.5t98.5 -286.5v-664h-187v643q0 250 -225 250q-178 0 -336 -197v-696h-186v1044h164l22 -131v-30h4q166 182 377 182z" />
    <glyph glyph-name="Ncommaaccent" unicode="&#x145;" horiz-adv-x="1644" 
d="M696 -109h195v-192q0 -195 -195 -279v113q96 51 97 166h-97v192zM1260 1430h186v-1430h-229l-828 1178h-4v-1178h-186v1430h229l825 -1176h7v1176z" />
    <glyph glyph-name="ncommaaccent" unicode="&#x146;" horiz-adv-x="1249" 
d="M532 -109h195v-192q0 -195 -195 -279v113q96 51 97 166h-97v192zM729 1065q170 0 268.5 -114.5t98.5 -286.5v-664h-187v643q0 250 -225 250q-178 0 -336 -197v-696h-186v1044h164l22 -131v-30h4q166 182 377 182z" />
    <glyph glyph-name="Ncaron" unicode="&#x147;" horiz-adv-x="1644" 
d="M1147 1788l-232 -252h-167l-232 252h162l153 -150l154 150h162zM1260 1430h186v-1430h-229l-828 1178h-4v-1178h-186v1430h229l825 -1176h7v1176z" />
    <glyph glyph-name="ncaron" unicode="&#x148;" horiz-adv-x="1247" 
d="M965 1436l-232 -252h-168l-231 252h162l153 -150l154 150h162zM729 1065q170 0 268.5 -114.5t98.5 -286.5v-664h-187v643q0 250 -225 250q-178 0 -336 -197v-696h-186v1044h164l22 -131v-30h4q166 182 377 182z" />
    <glyph glyph-name="napostrophe" unicode="&#x149;" horiz-adv-x="1247" 
d="M133 1604h195v-193q0 -195 -195 -278v112q96 51 96 166h-96v193zM729 1065q170 0 268.5 -114.5t98.5 -286.5v-664h-187v643q0 250 -225 250q-178 0 -336 -197v-696h-186v1044h164l22 -131v-30h4q166 182 377 182z" />
    <glyph glyph-name="Eng" unicode="&#x14a;" horiz-adv-x="1644" 
d="M1260 -207v207l-871 1178h-4v-1178h-186v1430h229l825 -1119h7v1119h186v-1641q0 -127 -64.5 -204t-203.5 -77q-88 0 -154 27v154h16q49 -16 103.5 -16.5t85.5 22t31 98.5z" />
    <glyph glyph-name="eng" unicode="&#x14b;" horiz-adv-x="1247" 
d="M909 -207v850q0 250 -225 250q-178 0 -336 -197v-696h-186v1044h164l22 -131v-30h4q166 182 377 182q170 0 268.5 -114.5t98.5 -286.5v-875q0 -127 -64.5 -204t-204.5 -77q-88 0 -153 27v154h16q49 -16 103.5 -16.5t85 22t30.5 98.5z" />
    <glyph glyph-name="Omacron" unicode="&#x14c;" horiz-adv-x="1660" 
d="M1122 1696v-123h-581v123h581zM830.5 154q246.5 0 390 158.5t143.5 402t-143.5 402.5t-390 159t-389 -159t-142.5 -402.5t142.5 -402t389 -158.5zM831.5 1450q323.5 0 518 -205t200.5 -530q-6 -326 -200.5 -530.5t-518 -204.5t-518 204.5t-200.5 530.5q6 326 200.5 530.5
t518 204.5z" />
    <glyph glyph-name="omacron" unicode="&#x14d;" horiz-adv-x="1245" 
d="M913 1327v-123h-581v123h581zM622.5 150q135.5 0 237 93t101.5 280.5t-101.5 279.5t-237 92t-236.5 -92t-101 -279.5t101 -280.5t236.5 -93zM621.5 1065q236.5 0 381 -149.5t144.5 -393t-144.5 -393t-381 -149.5t-380 149.5t-143.5 393t143.5 393t380 149.5z" />
    <glyph glyph-name="Obreve" unicode="&#x14e;" horiz-adv-x="1660" 
d="M831.5 1532q-118.5 0 -199.5 64.5t-102 172.5h132q41 -119 169.5 -119t169.5 119h132q-20 -109 -101.5 -173t-200 -64zM830.5 154q246.5 0 390 158.5t143.5 402t-143.5 402.5t-390 159t-389 -159t-142.5 -402.5t142.5 -402t389 -158.5zM831.5 1450q323.5 0 518 -205
t200.5 -530q-6 -326 -200.5 -530.5t-518 -204.5t-518 204.5t-200.5 530.5q6 326 200.5 530.5t518 204.5z" />
    <glyph glyph-name="obreve" unicode="&#x14f;" horiz-adv-x="1245" 
d="M622.5 1180q-118.5 0 -199.5 64.5t-101 172.5h131q41 -119 170 -119t170 119h131q-20 -109 -101.5 -173t-200 -64zM622.5 150q135.5 0 237 93t101.5 280.5t-101.5 279.5t-237 92t-236.5 -92t-101 -279.5t101 -280.5t236.5 -93zM621.5 1065q236.5 0 381 -149.5t144.5 -393
t-144.5 -393t-381 -149.5t-380 149.5t-143.5 393t143.5 393t380 149.5z" />
    <glyph glyph-name="Ohungarumlaut" unicode="&#x150;" horiz-adv-x="1660" 
d="M1059 1808h203l-234 -272h-125zM741 1808h203l-231 -272h-127zM830.5 154q246.5 0 390 158.5t143.5 402t-143.5 402.5t-390 159t-389 -159t-142.5 -402.5t142.5 -402t389 -158.5zM831.5 1450q323.5 0 518 -205t200.5 -530q-6 -326 -200.5 -530.5t-518 -204.5t-518 204.5
t-200.5 530.5q6 326 200.5 530.5t518 204.5z" />
    <glyph glyph-name="ohungarumlaut" unicode="&#x151;" horiz-adv-x="1245" 
d="M831 1456h203l-233 -272h-125zM514 1456h203l-232 -272h-127zM622.5 150q135.5 0 237 93t101.5 280.5t-101.5 279.5t-237 92t-236.5 -92t-101 -279.5t101 -280.5t236.5 -93zM621.5 1065q236.5 0 381 -149.5t144.5 -393t-144.5 -393t-381 -149.5t-380 149.5t-143.5 393
t143.5 393t380 149.5z" />
    <glyph glyph-name="OE" unicode="&#x152;" horiz-adv-x="2273" 
d="M831 1276q-248 0 -390 -159t-142 -402.5t142.5 -402t389.5 -158.5q199 -1 334 120v881q-135 121 -334 121zM2157 1255h-805v-452h731v-176h-731v-453h805v-174h-992v72q-147 -92 -334 -92q-324 0 -518 204.5t-200 530.5q6 326 200.5 530.5t517.5 204.5q186 0 334 -92v72
h992v-175z" />
    <glyph glyph-name="oe" unicode="&#x153;" horiz-adv-x="2021" 
d="M1443.5 907q-112.5 0 -204.5 -76t-100 -223h610q-8 147 -100.5 223t-205 76zM622.5 150q135.5 0 237 93t101.5 280.5t-101.5 279.5t-237 92t-236.5 -92t-101 -279.5t101 -280.5t236.5 -93zM1933 522v-65h-794q16 -141 108 -222t275.5 -81t339.5 102h10v-180
q-172 -96 -387 -96q-309 0 -436 215h-5q-133 -215 -421 -215q-238 0 -381.5 149.5t-143.5 393t143.5 393t381.5 149.5q289 0 421 -217h5q121 217 395 217q240 0 364.5 -158t124.5 -385z" />
    <glyph glyph-name="Racute" unicode="&#x154;" horiz-adv-x="1458" 
d="M784 1808h203l-231 -272h-127zM756 733q176 0 279.5 69.5t103.5 194.5t-89 190.5t-305 65.5h-360v-520h371zM1303 176v-49q0 -66 34 -119v-8h-192q-29 47 -29 111v32q0 188 -39 258q-18 37 -49 78q-63 78 -219 78h-424v-557h-186v1430h569q279 0 418 -115t139 -301
q0 -125 -67.5 -224.5t-196.5 -144.5v-4q242 -64 242 -465z" />
    <glyph glyph-name="racute" unicode="&#x155;" horiz-adv-x="792" 
d="M500 1456h202l-231 -272h-127zM737 1065h17v-178h-17q-121 0 -225 -47t-164 -131v-709h-186v1044h164l22 -131v-30h4q147 182 385 182z" />
    <glyph glyph-name="Rcommaaccent" unicode="&#x156;" horiz-adv-x="1458" 
d="M643 -109h195v-192q0 -195 -195 -279v113q96 51 96 166h-96v192zM756 733q176 0 279.5 69.5t103.5 194.5t-89 190.5t-305 65.5h-360v-520h371zM1303 176v-49q0 -66 34 -119v-8h-192q-29 47 -29 111v32q0 188 -39 258q-18 37 -49 78q-63 78 -219 78h-424v-557h-186v1430
h569q279 0 418 -115t139 -301q0 -125 -67.5 -224.5t-196.5 -144.5v-4q242 -64 242 -465z" />
    <glyph glyph-name="rcommaaccent" unicode="&#x157;" horiz-adv-x="794" 
d="M158 -109h194v-192q0 -195 -194 -279v113q96 51 96 166h-96v192zM737 1065h17v-178h-17q-121 0 -225 -47t-164 -131v-709h-186v1044h164l22 -131v-30h4q147 182 385 182z" />
    <glyph glyph-name="Rcaron" unicode="&#x158;" horiz-adv-x="1458" 
d="M1057 1788l-232 -252h-168l-231 252h162l153 -150l154 150h162zM756 733q176 0 279.5 69.5t103.5 194.5t-89 190.5t-305 65.5h-360v-520h371zM1303 176v-49q0 -66 34 -119v-8h-192q-29 47 -29 111v32q0 188 -39 258q-18 37 -49 78q-63 78 -219 78h-424v-557h-186v1430
h569q279 0 418 -115t139 -301q0 -125 -67.5 -224.5t-196.5 -144.5v-4q242 -64 242 -465z" />
    <glyph glyph-name="rcaron" unicode="&#x159;" horiz-adv-x="792" 
d="M774 1436l-231 -252h-168l-232 252h162l154 -150l153 150h162zM737 1065h17v-178h-17q-121 0 -225 -47t-164 -131v-709h-186v1044h164l22 -131v-30h4q147 182 385 182z" />
    <glyph glyph-name="Sacute" unicode="&#x15a;" horiz-adv-x="1261" 
d="M684 1808h203l-232 -272h-127zM303 1044q0 -82 64.5 -135t161 -74.5t210 -53t209.5 -68.5t161 -122t65 -212q0 -176 -144.5 -287.5t-402.5 -111.5t-492 110v182h10q213 -119 486 -118q358 0 358 237q0 117 -174 172q-76 25 -168 47.5t-185 53t-170 72.5t-125 117t-48 177
q0 178 140 299t379 121t431 -74v-174h-14q-193 78 -370 78t-279.5 -62.5t-102.5 -173.5z" />
    <glyph glyph-name="sacute" unicode="&#x15b;" horiz-adv-x="983" 
d="M528 1456h203l-231 -272h-127zM285 754.5q0 -60.5 63.5 -93t154.5 -52t181 -48.5t153.5 -98.5t63.5 -190t-103.5 -206.5t-307 -86t-371.5 92v178h10q166 -98 365 -98q227 0 227 145q0 47 -63.5 76.5t-153.5 50t-180.5 49.5t-154 96.5t-63.5 171.5q0 143 103.5 233.5
t282 90.5t331.5 -57v-170h-14q-137 57 -268 57t-193.5 -40t-62.5 -100.5z" />
    <glyph glyph-name="Scircumflex" unicode="&#x15c;" horiz-adv-x="1261" 
d="M725 1788l231 -252h-161l-154 150l-154 -150h-161l231 252h168zM303 1044q0 -82 64.5 -135t161 -74.5t210 -53t209.5 -68.5t161 -122t65 -212q0 -176 -144.5 -287.5t-402.5 -111.5t-492 110v182h10q213 -119 486 -118q358 0 358 237q0 117 -174 172q-76 25 -168 47.5
t-185 53t-170 72.5t-125 117t-48 177q0 178 140 299t379 121t431 -74v-174h-14q-193 78 -370 78t-279.5 -62.5t-102.5 -173.5z" />
    <glyph glyph-name="scircumflex" unicode="&#x15d;" horiz-adv-x="983" 
d="M580 1436l231 -252h-162l-153 149l-154 -149h-162l232 252h168zM285 754.5q0 -60.5 63.5 -93t154.5 -52t181 -48.5t153.5 -98.5t63.5 -190t-103.5 -206.5t-307 -86t-371.5 92v178h10q166 -98 365 -98q227 0 227 145q0 47 -63.5 76.5t-153.5 50t-180.5 49.5t-154 96.5
t-63.5 171.5q0 143 103.5 233.5t282 90.5t331.5 -57v-170h-14q-137 57 -268 57t-193.5 -40t-62.5 -100.5z" />
    <glyph glyph-name="Scedilla" unicode="&#x15e;" horiz-adv-x="1263" 
d="M709 -270q0 63 -60.5 63t-107.5 -24l-60 32l111 179q-258 10 -457 110v182h10q213 -119 486 -118q358 0 358 237q0 117 -174 172q-76 25 -168 47.5t-185 53t-170 72.5t-125 117t-48 177q0 178 140 299t379 121t431 -74v-174h-14q-193 78 -370 78t-279.5 -62.5
t-102.5 -173.5q0 -82 64.5 -135t161 -74.5t210 -53t209.5 -68.5t161 -122t65 -212q0 -168 -135.5 -279.5t-358.5 -119.5l-62 -109q33 8 86.5 8t97.5 -40t44 -103q0 -188 -228 -189q-106 0 -200 64l33 72q76 -47 141 -48q117 0 117 95z" />
    <glyph glyph-name="scedilla" unicode="&#x15f;" horiz-adv-x="987" 
d="M553 -270q0 63 -60.5 63t-107.5 -24l-59 32l112 181q-184 14 -317 90v178h10q166 -98 365 -98q227 0 227 145q0 47 -63.5 76.5t-153.5 50t-180 49.5t-153.5 96.5t-63.5 171.5q0 143 103 233.5t281.5 90.5t331.5 -57v-170h-14q-137 57 -268 57t-193.5 -40t-62.5 -100.5
t63.5 -93t153.5 -52t181 -48.5t154.5 -98.5t63.5 -188t-98 -204.5t-281 -90l-61 -109q33 8 86 8t97 -40t44 -103q0 -188 -227 -189q-106 0 -201 64l33 72q76 -47 141 -48q117 0 117 95z" />
    <glyph glyph-name="Scaron" unicode="&#x160;" horiz-adv-x="1261" 
d="M961 1788l-232 -252h-168l-231 252h162l153 -150l154 150h162zM303 1044q0 -82 64.5 -135t161 -74.5t210 -53t209.5 -68.5t161 -122t65 -212q0 -176 -144.5 -287.5t-402.5 -111.5t-492 110v182h10q213 -119 486 -118q358 0 358 237q0 117 -174 172q-76 25 -168 47.5
t-185 53t-170 72.5t-125 117t-48 177q0 178 140 299t379 121t431 -74v-174h-14q-193 78 -370 78t-279.5 -62.5t-102.5 -173.5z" />
    <glyph glyph-name="scaron" unicode="&#x161;" horiz-adv-x="983" 
d="M819 1436l-231 -252h-168l-232 252h162l154 -150l153 150h162zM285 754.5q0 -60.5 63.5 -93t154.5 -52t181 -48.5t153.5 -98.5t63.5 -190t-103.5 -206.5t-307 -86t-371.5 92v178h10q166 -98 365 -98q227 0 227 145q0 47 -63.5 76.5t-153.5 50t-180.5 49.5t-154 96.5
t-63.5 171.5q0 143 103.5 233.5t282 90.5t331.5 -57v-170h-14q-137 57 -268 57t-193.5 -40t-62.5 -100.5z" />
    <glyph glyph-name="Tcommaaccent" unicode="&#x162;" horiz-adv-x="1247" 
d="M526 -109h195v-192q0 -195 -195 -279v113q96 51 97 166h-97v192zM1210 1430v-175h-493v-1255h-187v1255h-493v175h1173z" />
    <glyph glyph-name="tcommaaccent" unicode="&#x163;" horiz-adv-x="784" 
d="M293 -109h194v-192q0 -195 -194 -279v113q96 51 96 166h-96v192zM711 885h-297v-619q0 -86 49 -106q37 -16 98.5 -16.5t134.5 32.5h15v-151q-86 -45 -185 -45q-299 0 -299 270v635h-194v12l381 373v-226h297v-159z" />
    <glyph glyph-name="Tcaron" unicode="&#x164;" horiz-adv-x="1251" 
d="M940 1788l-231 -252h-168l-232 252h162l154 -150l153 150h162zM1212 1430v-175h-493v-1255h-187v1255h-493v175h1173z" />
    <glyph glyph-name="tcaron" unicode="&#x165;" horiz-adv-x="786" 
d="M563 1599h195v-192q0 -195 -195 -279v113q96 51 96 166h-96v192zM713 885h-297v-619q0 -86 43 -104q108 -45 239 14h15v-151q-86 -45 -185 -45q-299 0 -299 270v635h-194v12l381 373v-226h297v-159z" />
    <glyph glyph-name="Tbar" unicode="&#x166;" horiz-adv-x="1255" 
d="M1214 1255h-493v-430h330v-137h-330v-688h-186v688h-328v137h328v430h-494v175h1173v-175z" />
    <glyph glyph-name="tbar" unicode="&#x167;" horiz-adv-x="792" 
d="M717 885h-297v-223h266v-138h-266v-258q0 -86 43 -104q108 -45 239 14h15v-151q-86 -45 -185 -45q-299 0 -299 270v274h-161v138h161v223h-194v12l381 373v-226h297v-159z" />
    <glyph glyph-name="Utilde" unicode="&#x168;" horiz-adv-x="1552" 
d="M947.5 1526q-66.5 0 -168 49t-152.5 49q-68 0 -88 -88h-90q8 111 56 169t113.5 58t166 -48t155.5 -48q70 0 86 84h92q-8 -111 -56 -168t-114.5 -57zM1178 1430h186v-893q0 -139 -52 -249t-139.5 -175.5t-188.5 -99t-207.5 -33.5t-208 33.5t-188.5 99t-139.5 175
t-52.5 249.5v893h187v-900q0 -180 118.5 -280t282.5 -100t283 100t119 280v900z" />
    <glyph glyph-name="utilde" unicode="&#x169;" horiz-adv-x="1249" 
d="M797.5 1174q-66.5 0 -168 49t-152.5 49q-68 0 -88 -88h-90q8 111 55 169t115 58t168 -48t154 -48q70 0 86 84h92q-8 -111 -56.5 -168t-115 -57zM520 -20q-170 0 -268 114.5t-98 286.5v663h186v-643q0 -250 225 -249q178 0 336 196v696h186v-1044h-163l-23 131v31h-4
q-166 -182 -377 -182z" />
    <glyph glyph-name="Umacron" unicode="&#x16a;" horiz-adv-x="1552" 
d="M1067 1696v-123h-582v123h582zM1178 1430h186v-893q0 -139 -52 -249t-139.5 -175.5t-188.5 -99t-207.5 -33.5t-208 33.5t-188.5 99t-139.5 175t-52.5 249.5v893h187v-900q0 -180 118.5 -280t282.5 -100t283 100t119 280v900z" />
    <glyph glyph-name="umacron" unicode="&#x16b;" horiz-adv-x="1249" 
d="M911 1327v-123h-581v123h581zM520 -20q-170 0 -268 114.5t-98 286.5v663h186v-643q0 -250 225 -249q178 0 336 196v696h186v-1044h-163l-23 131v31h-4q-166 -182 -377 -182z" />
    <glyph glyph-name="Ubreve" unicode="&#x16c;" horiz-adv-x="1552" 
d="M776 1532q-119 0 -199.5 64.5t-101.5 172.5h131q41 -119 170 -119t170 119h131q-20 -109 -101 -173t-200 -64zM1178 1430h186v-893q0 -139 -52 -249t-139.5 -175.5t-188.5 -99t-207.5 -33.5t-208 33.5t-188.5 99t-139.5 175t-52.5 249.5v893h187v-900q0 -180 118.5 -280
t282.5 -100t283 100t119 280v900z" />
    <glyph glyph-name="ubreve" unicode="&#x16d;" horiz-adv-x="1249" 
d="M620.5 1180q-118.5 0 -199.5 64.5t-102 172.5h132q41 -119 170 -119t170 119h131q-20 -109 -101.5 -173t-200 -64zM520 -20q-170 0 -268 114.5t-98 286.5v663h186v-643q0 -250 225 -249q178 0 336 196v696h186v-1044h-163l-23 131v31h-4q-166 -182 -377 -182z" />
    <glyph glyph-name="Uring" unicode="&#x16e;" horiz-adv-x="1552" 
d="M776 1587q41 0 71 30t30 71t-30 70.5t-71 29.5t-70.5 -29.5t-29.5 -70.5t29.5 -71t70.5 -30zM776 1880q80 0 136.5 -56.5t56.5 -136t-56.5 -136t-136.5 -56.5t-136 56.5t-56 136t56 136t136 56.5zM1178 1430h186v-893q0 -139 -52 -249t-139.5 -175.5t-188.5 -99
t-207.5 -33.5t-208 33.5t-188.5 99t-139.5 175t-52.5 249.5v893h187v-900q0 -180 118.5 -280t282.5 -100t283 100t119 280v900z" />
    <glyph glyph-name="uring" unicode="&#x16f;" horiz-adv-x="1249" 
d="M621 1221q41 0 70.5 29.5t29.5 70.5t-29.5 70.5t-70.5 29.5t-71 -29.5t-30 -70.5t30 -70.5t71 -29.5zM620.5 1513q79.5 0 136 -56t56.5 -136t-56.5 -136.5t-136 -56.5t-136 56.5t-56.5 136.5t56.5 136t136 56zM520 -20q-170 0 -268 114.5t-98 286.5v663h186v-643
q0 -250 225 -249q178 0 336 196v696h186v-1044h-163l-23 131v31h-4q-166 -182 -377 -182z" />
    <glyph glyph-name="Uhungarumlaut" unicode="&#x170;" horiz-adv-x="1552" 
d="M991 1808h203l-233 -272h-125zM674 1808h203l-232 -272h-127zM1178 1430h186v-893q0 -139 -52 -249t-139.5 -175.5t-188.5 -99t-207.5 -33.5t-208 33.5t-188.5 99t-139.5 175t-52.5 249.5v893h187v-900q0 -180 118.5 -280t282.5 -100t283 100t119 280v900z" />
    <glyph glyph-name="uhungarumlaut" unicode="&#x171;" horiz-adv-x="1249" 
d="M834 1456h202l-233 -272h-125zM516 1456h203l-232 -272h-127zM520 -20q-170 0 -268 114.5t-98 286.5v663h186v-643q0 -250 225 -249q178 0 336 196v696h186v-1044h-163l-23 131v31h-4q-166 -182 -377 -182z" />
    <glyph glyph-name="Uogonek" unicode="&#x172;" horiz-adv-x="1552" 
d="M1178 1430h186v-893q0 -170 -76 -292t-203 -190q-74 -35 -139 -110.5t-63 -147.5q0 -98 104 -98q59 0 123 37v-96q-82 -55 -173 -55.5t-147.5 46.5t-56.5 124t41 137.5t109 95.5q-47 -8 -130 -8t-184.5 33.5t-188.5 99t-139.5 175t-52.5 249.5v893h187v-900
q0 -180 118.5 -280t282.5 -100t283 100t119 280v900z" />
    <glyph glyph-name="uogonek" unicode="&#x173;" horiz-adv-x="1249" 
d="M963 -301q57 0 122 37v-96q-82 -55 -173 -55.5t-147 46.5t-56 125q0 154 219 244h-4l-23 131v31h-4q-164 -182 -377 -182q-170 0 -268 114.5t-98 286.5v663h186v-643q0 -250 225 -249q178 0 336 196v696h186v-1044q-233 -86 -229 -205q0 -96 105 -96z" />
    <glyph glyph-name="Wcircumflex" unicode="&#x174;" horiz-adv-x="2062" 
d="M1114 1788l232 -252h-162l-154 150l-153 -150h-162l231 252h168zM1843 1430h195l-467 -1430h-187l-348 1110h-10l-348 -1110h-186l-467 1430h194l361 -1180h6l364 1180h162l365 -1180h6z" />
    <glyph glyph-name="wcircumflex" unicode="&#x175;" horiz-adv-x="1607" 
d="M887 1436l231 -252h-162l-153 149l-154 -149h-162l232 252h168zM1389 1044h196l-358 -1044h-183l-237 748h-6l-238 -748h-182l-358 1044h196l248 -819h6l254 819h154l254 -819h6z" />
    <glyph glyph-name="Ycircumflex" unicode="&#x176;" horiz-adv-x="1320" 
d="M743 1788l232 -252h-162l-154 150l-153 -150h-162l231 252h168zM754 0h-187v604l-581 826h227l442 -654h11l442 654h227l-581 -826v-604z" />
    <glyph glyph-name="ycircumflex" unicode="&#x177;" horiz-adv-x="1091" 
d="M637 1436l231 -252h-161l-154 149l-154 -149h-161l231 252h168zM1083 1044l-628 -1515h-189l176 455l-432 1060h201l328 -825h8l336 825h200z" />
    <glyph glyph-name="Ydieresis" unicode="&#x178;" horiz-adv-x="1320" 
d="M735 1536v197h197v-197h-197zM391 1536v197h197v-197h-197zM754 0h-187v604l-581 826h227l442 -654h11l442 654h227l-581 -826v-604z" />
    <glyph glyph-name="Zacute" unicode="&#x179;" horiz-adv-x="1306" 
d="M684 1808h203l-232 -272h-127zM1202 1430v-168l-872 -1082v-6h872v-174h-1106v164l873 1079v8h-856v179h1089z" />
    <glyph glyph-name="zacute" unicode="&#x17a;" horiz-adv-x="1021" 
d="M549 1456h203l-232 -272h-127zM918 1044v-174l-592 -690v-6h592v-174h-824v172l600 690v8h-581v174h805z" />
    <glyph glyph-name="Zdotaccent" unicode="&#x17b;" horiz-adv-x="1306" 
d="M571 1536v197h197v-197h-197zM1202 1430v-168l-872 -1082v-6h872v-174h-1106v164l873 1079v8h-856v179h1089z" />
    <glyph glyph-name="zdotaccent" unicode="&#x17c;" horiz-adv-x="1021" 
d="M416 1184v196h196v-196h-196zM918 1044v-174l-592 -690v-6h592v-174h-824v172l600 690v8h-581v174h805z" />
    <glyph glyph-name="Zcaron" unicode="&#x17d;" horiz-adv-x="1306" 
d="M971 1788l-232 -252h-168l-231 252h162l153 -150l154 150h162zM1202 1430v-168l-872 -1082v-6h872v-174h-1106v164l873 1079v8h-856v179h1089z" />
    <glyph glyph-name="zcaron" unicode="&#x17e;" horiz-adv-x="1021" 
d="M827 1436l-231 -252h-168l-231 252h161l154 -150l154 150h161zM918 1044v-174l-592 -690v-6h592v-174h-824v172l600 690v8h-581v174h805z" />
    <glyph glyph-name="longs" unicode="&#x17f;" horiz-adv-x="587" 
d="M426 1157v-1157h-186v885h-191v159h191v119q0 178 91 265.5t206.5 87.5t207.5 -52v-153h-14q-76 27 -148.5 26.5t-114.5 -39t-42 -141.5z" />
    <glyph glyph-name="florin" unicode="&#x192;" horiz-adv-x="825" 
d="M723 1528q100 0 170 -43l-23 -154h-14q-63 27 -140 27t-124 -39t-62 -141l-43 -304h304l-19 -126h-301l-102 -723q-16 -121 -78 -201q-104 -143 -279 -143h-102l24 169h56q84 0 131 39t61 142l101 717h-222l17 126h223l43 310q16 121 76.5 201.5t131.5 111.5t171 31z" />
    <glyph glyph-name="Ohorn" unicode="&#x1a0;" horiz-adv-x="1798" 
d="M830.5 154q246.5 0 390 158.5t143.5 402t-143.5 402.5t-390 159t-389 -159t-142.5 -402.5t142.5 -402t389 -158.5zM1554 1440h222v-217q0 -172 -57.5 -267.5t-178.5 -128.5q6 -37 10 -112q-6 -326 -200.5 -530.5t-518 -204.5t-518 204.5t-200.5 530.5q6 326 200.5 530.5
t517.5 204.5q268 0 450.5 -144.5t242.5 -387.5q82 25 113.5 92t31.5 204h-115v226z" />
    <glyph glyph-name="ohorn" unicode="&#x1a1;" horiz-adv-x="1409" 
d="M622.5 150q135.5 0 237 93t101.5 280.5t-101.5 279.5t-237 92t-236.5 -92t-101 -279.5t101 -280.5t236.5 -93zM615.5 1065q230.5 0 372.5 -136t157 -362q80 12 109.5 68.5t29.5 189.5h-115v226h222v-217q0 -174 -59.5 -256t-186.5 -97q-12 -227 -154.5 -364t-374 -137
t-375 149.5t-143.5 393t143.5 393t374 149.5z" />
    <glyph glyph-name="Uhorn" unicode="&#x1af;" horiz-adv-x="1726" 
d="M1178 1430h186v-525q150 4 203 66.5t53 232.5h-115v226h221v-218q0 -209 -86 -300t-276 -97v-278q0 -139 -52 -249t-139.5 -175.5t-188.5 -99t-207.5 -33.5t-208 33.5t-188.5 99t-139.5 175t-52.5 249.5v893h187v-900q0 -180 118.5 -280t282.5 -100t283 100t119 280v900z
" />
    <glyph glyph-name="uhorn" unicode="&#x1b0;" horiz-adv-x="1439" 
d="M520 -20q-170 0 -268 114.5t-98 286.5v663h186v-643q0 -250 225 -249q178 0 336 196v696h186v-524q139 8 188.5 70.5t49.5 228.5h-115v225h222v-217q0 -205 -82 -295t-263 -100v-432h-163l-23 131v31h-4q-164 -182 -377 -182z" />
    <glyph glyph-name="AEacute" unicode="&#x1fc;" horiz-adv-x="2129" 
d="M1022 537v718h-51l-465 -712v-6h516zM2013 1255h-805v-452h731v-174h-731v-455h805v-174h-991v367h-631l-237 -367h-222l942 1430h1139v-175zM1124 1808h203l-231 -272h-127z" />
    <glyph glyph-name="aeacute" unicode="&#x1fd;" horiz-adv-x="1851" 
d="M952 1456h203l-231 -272h-127zM1273.5 907q-112.5 0 -204.5 -74t-100 -221h610q-8 147 -100.5 221t-205 74zM795 346v117h-224q-309 0 -309 -156q0 -70 66.5 -117t184.5 -47t200 45t82 158zM1763 522v-59h-794q35 -309 362 -309q207 0 365 104h6v-182q-172 -96 -387 -96
q-279 0 -416 178q-117 -178 -422 -178q-170 0 -285.5 83.5t-115.5 228t119.5 232.5t351.5 88h248v23q0 135 -66.5 194.5t-230.5 59.5t-312 -72h-8v170q178 78 375 78q246 0 350 -172q129 172 369.5 172t365.5 -158t125 -385z" />
    <glyph glyph-name="Oslashacute" unicode="&#x1fe;" horiz-adv-x="1660" 
d="M870 1808h203l-231 -272h-127zM831 154q246 0 389.5 158.5t143.5 416.5t-168 416l-645 -920q122 -71 280 -71zM299 701q0 -257 170 -414l645 919q-121 70 -283 70q-247 0 -389.5 -159t-142.5 -416zM831 -20q-213 0 -382 98l-99 -139l-84 59l99 139q-242 201 -252 578
q6 326 200.5 530.5t517.5 204.5q219 0 386 -98l98 141l84 -59l-99 -142q244 -205 250 -577q-6 -326 -200.5 -530.5t-518.5 -204.5z" />
    <glyph glyph-name="oslashacute" unicode="&#x1ff;" horiz-adv-x="1245" 
d="M666 1456h202l-231 -272h-127zM623 150q135 0 236.5 93t101.5 270t-91 278l-417 -598q80 -43 170 -43zM285 533.5q0 -177.5 88 -275.5l418 596q-76 41 -168 41q-136 0 -237 -92t-101 -269.5zM1147 532.5q0 -253.5 -144.5 -403t-379.5 -149.5q-154 0 -273 67l-76 -108
l-84 59l76 108q-168 150 -168 405t143.5 404.5t381.5 149.5q156 0 270 -66l76 109l84 -59l-76 -109q170 -154 170 -407.5z" />
    <glyph glyph-name="Scommaaccent" unicode="&#x218;" horiz-adv-x="1263" 
d="M547 -109h194v-192q0 -195 -194 -279v113q96 51 96 166h-96v192zM303 1044q0 -82 64.5 -135t161 -74.5t210 -53t209.5 -68.5t161 -122t65 -212q0 -176 -144.5 -287.5t-402.5 -111.5t-492 110v182h10q213 -119 486 -118q358 0 358 237q0 117 -174 172q-76 25 -168 47.5
t-185 53t-170 72.5t-125 117t-48 177q0 178 140 299t379 121t431 -74v-174h-14q-193 78 -370 78t-279.5 -62.5t-102.5 -173.5z" />
    <glyph glyph-name="scommaaccent" unicode="&#x219;" horiz-adv-x="983" 
d="M406 -109h194v-192q0 -195 -194 -279v113q96 51 96 166h-96v192zM285 754.5q0 -60.5 63.5 -93t154.5 -52t181 -48.5t153.5 -98.5t63.5 -190t-103.5 -206.5t-307 -86t-371.5 92v178h10q166 -98 365 -98q227 0 227 145q0 47 -63.5 76.5t-153.5 50t-180.5 49.5t-154 96.5
t-63.5 171.5q0 143 103.5 233.5t282 90.5t331.5 -57v-170h-14q-137 57 -268 57t-193.5 -40t-62.5 -100.5z" />
    <glyph glyph-name="uni021A" unicode="&#x21a;" horiz-adv-x="1247" 
d="M526 -109h195v-192q0 -195 -195 -279v113q96 51 97 166h-97v192zM1210 1430v-175h-493v-1255h-187v1255h-493v175h1173z" />
    <glyph glyph-name="uni021B" unicode="&#x21b;" horiz-adv-x="784" 
d="M293 -109h194v-192q0 -195 -194 -279v113q96 51 96 166h-96v192zM711 885h-297v-619q0 -86 49 -106q37 -16 98.5 -16.5t134.5 32.5h15v-151q-86 -45 -185 -45q-299 0 -299 270v635h-194v12l381 373v-226h297v-159z" />
    <glyph glyph-name="dotlessj" unicode="&#x237;" horiz-adv-x="526" 
d="M170 -207v1251h186v-1255q0 -127 -64.5 -204t-203.5 -77q-88 0 -154 27v154h17q49 -16 103.5 -16.5t85 22t30.5 98.5z" />
    <glyph glyph-name="circumflex" unicode="&#x2c6;" horiz-adv-x="837" 
d="M500 1436l231 -252h-162l-153 149l-154 -149h-162l232 252h168z" />
    <glyph glyph-name="caron" unicode="&#x2c7;" horiz-adv-x="800" 
d="M731 1436l-231 -252h-168l-232 252h162l154 -150l153 150h162z" />
    <glyph glyph-name="breve" unicode="&#x2d8;" horiz-adv-x="788" 
d="M393 1180q-119 0 -199.5 64.5t-101.5 172.5h131q41 -119 170 -119t170 119h131q-20 -109 -101 -173t-200 -64z" />
    <glyph glyph-name="dotaccent" unicode="&#x2d9;" horiz-adv-x="466" 
d="M135 1184v196h197v-196h-197z" />
    <glyph glyph-name="ring" unicode="&#x2da;" horiz-adv-x="552" 
d="M281 1221q41 0 70.5 29.5t29.5 70.5t-29.5 70.5t-70.5 29.5t-71 -29.5t-30 -70.5t30 -70.5t71 -29.5zM280.5 1513q79.5 0 136 -56t56.5 -136t-56.5 -136.5t-136 -56.5t-136 56.5t-56.5 136.5t56.5 136t136 56z" />
    <glyph glyph-name="ogonek" unicode="&#x2db;" horiz-adv-x="718" 
d="M395 -301q57 0 123 37v-96q-82 -55 -173 -55.5t-147.5 46.5t-56.5 125q0 154 219 244h160q-233 -86 -229 -205q0 -96 104 -96z" />
    <glyph glyph-name="tilde" unicode="&#x2dc;" horiz-adv-x="884" 
d="M607.5 1174q-66.5 0 -168 49t-152.5 49q-68 0 -88 -88h-90q8 111 56 169t113.5 58t166 -48t155.5 -48q70 0 86 84h92q-8 -111 -56 -168t-114.5 -57z" />
    <glyph glyph-name="hungarumlaut" unicode="&#x2dd;" horiz-adv-x="817" 
d="M545 1456h203l-234 -272h-125zM227 1456h203l-231 -272h-127z" />
    <glyph glyph-name="hookcmb" unicode="&#x309;" horiz-adv-x="0" 
d="M-416 1386q236 0 236 -161q0 -117 -154 -148v-37h-110v93q43 2 90 21.5t47 59.5q0 74 -139 74q-35 0 -54 -2v94q35 6 84 6z" />
    <glyph glyph-name="horncmb" unicode="&#x31b;" horiz-adv-x="0" 
d="M-399 1430h221v-218q0 -219 -95.5 -315t-301.5 -96v90q170 0 230 66.5t60 246.5h-114v226z" />
    <glyph glyph-name="dotbelowcmb" unicode="&#x323;" horiz-adv-x="0" 
d="M-326 -319v196h197v-196h-197z" />
    <glyph glyph-name="uni03A9" unicode="&#x3a9;" horiz-adv-x="1617" 
d="M1497 160v-160h-539v154q111 47 218 161q59 66 96 174.5t37 243.5q0 219 -136.5 375t-363.5 156t-363.5 -156t-136.5 -375q0 -135 37 -243.5t96 -174.5q106 -115 217 -161v-154h-538v160h274v2q-254 209 -254 594q0 170 78 326.5t234.5 262t355.5 105.5t355.5 -105.5
t234.5 -262t78 -326.5q0 -381 -254 -594v-2h274z" />
    <glyph glyph-name="pi" unicode="&#x3c0;" horiz-adv-x="1298" 
d="M299 1044h952v-161h-194v-883h-176v883h-361q-14 -498 -141 -883h-191q137 354 156 883h-45q-135 0 -242 -52v156q95 57 242 57z" />
    <glyph glyph-name="Adotbelow" unicode="&#x1ea0;" horiz-adv-x="1423" 
d="M438 537h547v10l-270 653h-4l-273 -653v-10zM1212 0l-153 367h-694l-154 -367h-203l606 1430h195l606 -1430h-203zM614 -319v196h197v-196h-197z" />
    <glyph glyph-name="adotbelow" unicode="&#x1ea1;" horiz-adv-x="1136" 
d="M453 -338v197h196v-197h-196zM797 469h-224q-309 0 -309 -163t217 -163q90 0 174.5 44t141.5 110v172zM562 1065q204 0 312.5 -119t108.5 -284v-662h-164l-22 131h-6q-147 -152 -379 -151q-139 0 -236.5 83.5t-97.5 229t119.5 235.5t351.5 90h248v17q0 135 -66.5 194.5
t-230.5 59.5t-307 -70h-13v168q178 78 382 78z" />
    <glyph glyph-name="Ahookabove" unicode="&#x1ea2;" horiz-adv-x="1427" 
d="M440 537h547v10l-270 653h-4l-273 -653v-10zM1214 0l-153 367h-694l-154 -367h-203l606 1430h195l606 -1430h-203zM682 1888q236 0 236 -162q0 -117 -154 -147v-37h-111v92q43 2 90.5 21.5t47.5 60.5q0 74 -140 74q-35 0 -53 -2v94q35 6 84 6z" />
    <glyph glyph-name="ahookabove" unicode="&#x1ea3;" horiz-adv-x="1136" 
d="M508 1530q236 0 235 -162q0 -117 -153 -147v-37h-111v92q43 2 90 21.5t47 60.5q0 74 -139 74q-35 0 -53 -2v94q35 6 84 6zM797 469h-224q-309 0 -309 -163t217 -163q90 0 174.5 44t141.5 110v172zM562 1065q204 0 312.5 -119t108.5 -284v-662h-164l-22 131h-6
q-147 -152 -379 -151q-139 0 -236.5 83.5t-97.5 229t119.5 235.5t351.5 90h248v17q0 135 -66.5 194.5t-230.5 59.5t-307 -70h-13v168q178 78 382 78z" />
    <glyph glyph-name="Acircumflexacute" unicode="&#x1ea4;" horiz-adv-x="1427" 
d="M440 537h547v10l-270 653h-4l-273 -653v-10zM1214 0l-153 367h-694l-154 -367h-203l606 1430h195l606 -1430h-203zM1081 1958h203l-231 -272h-127zM799 1755l231 -252h-162l-153 150l-154 -150h-162l232 252h168z" />
    <glyph glyph-name="acircumflexacute" unicode="&#x1ea5;" horiz-adv-x="1136" 
d="M926 1638h202l-231 -272h-127zM643 1436l231 -252h-161l-154 149l-153 -149h-162l231 252h168zM797 469h-224q-309 0 -309 -163t217 -163q90 0 174.5 44t141.5 110v172zM562 1065q204 0 312.5 -119t108.5 -284v-662h-164l-22 131h-6q-147 -152 -379 -151
q-139 0 -236.5 83.5t-97.5 229t119.5 235.5t351.5 90h248v17q0 135 -66.5 194.5t-230.5 59.5t-307 -70h-13v168q178 78 382 78z" />
    <glyph glyph-name="Acircumflexgrave" unicode="&#x1ea6;" horiz-adv-x="1427" 
d="M440 537h547v10l-270 653h-4l-273 -653v-10zM1214 0l-153 367h-694l-154 -367h-203l606 1430h195l606 -1430h-203zM145 1958h203l156 -272h-127zM799 1755l231 -252h-162l-153 150l-154 -150h-162l232 252h168z" />
    <glyph glyph-name="acircumflexgrave" unicode="&#x1ea7;" horiz-adv-x="1136" 
d="M-4 1638h203l155 -272h-127zM649 1436l232 -252h-162l-154 149l-153 -149h-162l231 252h168zM797 469h-224q-309 0 -309 -163t217 -163q90 0 174.5 44t141.5 110v172zM562 1065q204 0 312.5 -119t108.5 -284v-662h-164l-22 131h-6q-147 -152 -379 -151
q-139 0 -236.5 83.5t-97.5 229t119.5 235.5t351.5 90h248v17q0 135 -66.5 194.5t-230.5 59.5t-307 -70h-13v168q178 78 382 78z" />
    <glyph glyph-name="Acircumflexhookabove" unicode="&#x1ea8;" horiz-adv-x="1427" 
d="M440 537h547v10l-270 653h-4l-273 -653v-10zM1214 0l-153 367h-694l-154 -367h-203l606 1430h195l606 -1430h-203zM1032 1962q236 0 236 -162q0 -117 -154 -147v-37h-110v92q43 2 90 21.5t47 60.5q0 74 -140 74q-35 0 -53 -2v94q35 6 84 6zM799 1755l231 -252h-162
l-153 150l-154 -150h-162l232 252h168z" />
    <glyph glyph-name="acircumflexhookabove" unicode="&#x1ea9;" horiz-adv-x="1136" 
d="M877 1642q236 0 235 -161q0 -117 -154 -148v-37h-110v93q43 2 90 21.5t47 59.5q0 74 -139 74q-35 0 -53 -2v94q35 6 84 6zM643 1436l231 -252h-161l-154 149l-153 -149h-162l231 252h168zM797 469h-224q-309 0 -309 -163t217 -163q90 0 174.5 44t141.5 110v172zM562 1065
q204 0 312.5 -119t108.5 -284v-662h-164l-22 131h-6q-147 -152 -379 -151q-139 0 -236.5 83.5t-97.5 229t119.5 235.5t351.5 90h248v17q0 135 -66.5 194.5t-230.5 59.5t-307 -70h-13v168q178 78 382 78z" />
    <glyph glyph-name="Acircumflextilde" unicode="&#x1eaa;" horiz-adv-x="1427" 
d="M440 537h547v10l-270 653h-4l-273 -653v-10zM1214 0l-153 367h-694l-154 -367h-203l606 1430h195l606 -1430h-203zM881.5 1788q-66.5 0 -168 49t-152.5 49q-68 0 -88 -88h-90q8 111 56 169t113.5 58t166 -48t155.5 -48q71 0 87 84h92q-8 -111 -56.5 -168t-115 -57z
M799 1745l231 -252h-162l-153 149l-154 -149h-162l232 252h168z" />
    <glyph glyph-name="acircumflextilde" unicode="&#x1eab;" horiz-adv-x="1136" 
d="M728.5 1468q-66.5 0 -168 49.5t-152.5 49.5q-68 0 -89 -88h-90q8 111 55.5 169t115 58t168 -48t153.5 -48q70 0 86 84h92q-8 -111 -56 -168.5t-114.5 -57.5zM645 1425l232 -251h-162l-154 149l-153 -149h-162l231 251h168zM797 469h-224q-309 0 -309 -163t217 -163
q90 0 174.5 44t141.5 110v172zM562 1065q204 0 312.5 -119t108.5 -284v-662h-164l-22 131h-6q-147 -152 -379 -151q-139 0 -236.5 83.5t-97.5 229t119.5 235.5t351.5 90h248v17q0 135 -66.5 194.5t-230.5 59.5t-307 -70h-13v168q178 78 382 78z" />
    <glyph glyph-name="Acircumflexdotbelow" unicode="&#x1eac;" horiz-adv-x="1423" 
d="M438 537h547v10l-270 653h-4l-273 -653v-10zM1212 0l-153 367h-694l-154 -367h-203l606 1430h195l606 -1430h-203zM614 -319v196h197v-196h-197zM797 1784l231 -252h-162l-153 149l-154 -149h-162l232 252h168z" />
    <glyph glyph-name="acircumflexdotbelow" unicode="&#x1ead;" horiz-adv-x="1136" 
d="M453 -338v197h196v-197h-196zM643 1436l231 -252h-161l-154 149l-153 -149h-162l231 252h168zM797 469h-224q-309 0 -309 -163t217 -163q90 0 174.5 44t141.5 110v172zM562 1065q204 0 312.5 -119t108.5 -284v-662h-164l-22 131h-6q-147 -152 -379 -151
q-139 0 -236.5 83.5t-97.5 229t119.5 235.5t351.5 90h248v17q0 135 -66.5 194.5t-230.5 59.5t-307 -70h-13v168q178 78 382 78z" />
    <glyph glyph-name="Abreveacute" unicode="&#x1eae;" horiz-adv-x="1427" 
d="M440 537h547v10l-270 653h-4l-273 -653v-10zM1214 0l-153 367h-694l-154 -367h-203l606 1430h195l606 -1430h-203zM780 2017h203l-231 -272h-127zM715 1505q-119 0 -200 64.5t-101 173.5h131q41 -119 170 -119t170 119h131q-20 -109 -101 -173.5t-200 -64.5z" />
    <glyph glyph-name="abreveacute" unicode="&#x1eaf;" horiz-adv-x="1136" 
d="M616 1692h203l-231 -273h-127zM551 1180q-119 0 -200 64.5t-101 172.5h131q41 -119 170 -119t170 119h131q-20 -109 -101 -173t-200 -64zM797 469h-224q-309 0 -309 -163t217 -163q90 0 174.5 44t141.5 110v172zM562 1065q204 0 312.5 -119t108.5 -284v-662h-164l-22 131
h-6q-147 -152 -379 -151q-139 0 -236.5 83.5t-97.5 229t119.5 235.5t351.5 90h248v17q0 135 -66.5 194.5t-230.5 59.5t-307 -70h-13v168q178 78 382 78z" />
    <glyph glyph-name="Abrevegrave" unicode="&#x1eb0;" horiz-adv-x="1427" 
d="M440 537h547v10l-270 653h-4l-273 -653v-10zM1214 0l-153 367h-694l-154 -367h-203l606 1430h195l606 -1430h-203zM446 2017h203l156 -272h-127zM715 1505q-119 0 -200 64.5t-101 173.5h131q41 -119 170 -119t170 119h131q-20 -109 -101 -173.5t-200 -64.5z" />
    <glyph glyph-name="abrevegrave" unicode="&#x1eb1;" horiz-adv-x="1136" 
d="M283 1692h202l156 -273h-127zM551 1180q-119 0 -200 64.5t-101 172.5h131q41 -119 170 -119t170 119h131q-20 -109 -101 -173t-200 -64zM797 469h-224q-309 0 -309 -163t217 -163q90 0 174.5 44t141.5 110v172zM562 1065q204 0 312.5 -119t108.5 -284v-662h-164l-22 131
h-6q-147 -152 -379 -151q-139 0 -236.5 83.5t-97.5 229t119.5 235.5t351.5 90h248v17q0 135 -66.5 194.5t-230.5 59.5t-307 -70h-13v168q178 78 382 78z" />
    <glyph glyph-name="Abrevehookabove" unicode="&#x1eb2;" horiz-adv-x="1427" 
d="M440 537h547v10l-270 653h-4l-273 -653v-10zM1214 0l-153 367h-694l-154 -367h-203l606 1430h195l606 -1430h-203zM715 1505q-119 0 -200 64.5t-101 173.5h131q41 -119 170 -119t170 119h131q-20 -109 -101 -173.5t-200 -64.5zM676 2079q236 0 235 -162q0 -117 -153 -148
v-36h-111v92q43 2 90 21.5t47 60.5q0 74 -139 73q-35 0 -53 -2v95q35 6 84 6z" />
    <glyph glyph-name="abrevehookabove" unicode="&#x1eb3;" horiz-adv-x="1136" 
d="M551 1180q-119 0 -200 64.5t-101 172.5h131q41 -119 170 -119t170 119h131q-20 -109 -101 -173t-200 -64zM512 1753q236 0 236 -162q0 -117 -154 -147v-37h-111v92q43 2 90.5 21.5t47.5 60.5q0 74 -140 74q-35 0 -53 -2v94q35 6 84 6zM797 469h-224q-309 0 -309 -163
t217 -163q90 0 174.5 44t141.5 110v172zM562 1065q204 0 312.5 -119t108.5 -284v-662h-164l-22 131h-6q-147 -152 -379 -151q-139 0 -236.5 83.5t-97.5 229t119.5 235.5t351.5 90h248v17q0 135 -66.5 194.5t-230.5 59.5t-307 -70h-13v168q178 78 382 78z" />
    <glyph glyph-name="Abrevetilde" unicode="&#x1eb4;" horiz-adv-x="1427" 
d="M440 537h547v10l-270 653h-4l-273 -653v-10zM1214 0l-153 367h-694l-154 -367h-203l606 1430h195l606 -1430h-203zM881.5 1788q-66.5 0 -168 49t-152.5 49q-68 0 -88 -88h-90q8 111 56 169t113.5 58t166 -48t155.5 -48q71 0 87 84h92q-8 -111 -56.5 -168t-115 -57z
M715 1501q-119 0 -200 64.5t-101 173.5h131q41 -119 170 -119t170 119h131q-20 -109 -101 -173.5t-200 -64.5z" />
    <glyph glyph-name="abrevetilde" unicode="&#x1eb5;" horiz-adv-x="1136" 
d="M717.5 1466q-66.5 0 -167.5 49.5t-153 49.5q-68 0 -88 -88h-90q8 111 56.5 169t114 58t165.5 -48t156 -48q70 0 86 84h92q-8 -111 -56.5 -168.5t-115 -57.5zM551 1180q-119 0 -200 64.5t-101 172.5h131q41 -119 170 -119t170 119h131q-20 -109 -101 -173t-200 -64z
M797 469h-224q-309 0 -309 -163t217 -163q90 0 174.5 44t141.5 110v172zM562 1065q204 0 312.5 -119t108.5 -284v-662h-164l-22 131h-6q-147 -152 -379 -151q-139 0 -236.5 83.5t-97.5 229t119.5 235.5t351.5 90h248v17q0 135 -66.5 194.5t-230.5 59.5t-307 -70h-13v168
q178 78 382 78z" />
    <glyph glyph-name="Abrevedotbelow" unicode="&#x1eb6;" horiz-adv-x="1423" 
d="M438 537h547v10l-270 653h-4l-273 -653v-10zM1212 0l-153 367h-694l-154 -367h-203l606 1430h195l606 -1430h-203zM614 -319v196h197v-196h-197zM712.5 1522q-118.5 0 -199.5 64.5t-101 172.5h131q41 -119 170 -119t170 119h131q-20 -109 -101.5 -173t-200 -64z" />
    <glyph glyph-name="abrevedotbelow" unicode="&#x1eb7;" horiz-adv-x="1136" 
d="M453 -338v197h196v-197h-196zM555 1169q-119 0 -200 64.5t-101 173.5h131q41 -119 170 -119t170 119h131q-20 -109 -101 -173.5t-200 -64.5zM797 469h-224q-309 0 -309 -163t217 -163q90 0 174.5 44t141.5 110v172zM562 1065q204 0 312.5 -119t108.5 -284v-662h-164
l-22 131h-6q-147 -152 -379 -151q-139 0 -236.5 83.5t-97.5 229t119.5 235.5t351.5 90h248v17q0 135 -66.5 194.5t-230.5 59.5t-307 -70h-13v168q178 78 382 78z" />
    <glyph glyph-name="Edotbelow" unicode="&#x1eb8;" horiz-adv-x="1306" 
d="M604 -319v196h197v-196h-197zM1190 1255h-805v-452h731v-174h-731v-455h805v-174h-991v1430h991v-175z" />
    <glyph glyph-name="edotbelow" unicode="&#x1eb9;" horiz-adv-x="1167" 
d="M506 -338v197h196v-197h-196zM589.5 907q-112.5 0 -202.5 -76t-98 -223h604q-8 147 -99.5 223t-204 76zM1018 256v-180q-172 -96 -404.5 -96t-373 142t-140.5 385t125 400.5t364.5 157.5t364.5 -158t125 -385v-65h-790q34 -303 298.5 -303t420.5 102h10z" />
    <glyph glyph-name="Ehookabove" unicode="&#x1eba;" horiz-adv-x="1306" 
d="M672 1888q236 0 235 -162q0 -117 -153 -147v-37h-111v92q43 2 90 21.5t47 60.5q0 74 -139 74q-35 0 -53 -2v94q35 6 84 6zM1190 1255h-805v-452h731v-174h-731v-455h805v-174h-991v1430h991v-175z" />
    <glyph glyph-name="ehookabove" unicode="&#x1ebb;" horiz-adv-x="1167" 
d="M553 1530q236 0 235 -162q0 -117 -153 -147v-37h-111v92q43 2 90.5 21.5t47.5 60.5q0 74 -140 74q-35 0 -53 -2v94q35 6 84 6zM589.5 907q-112.5 0 -202.5 -76t-98 -223h604q-8 147 -99.5 223t-204 76zM1018 256v-180q-172 -96 -404.5 -96t-373 142t-140.5 385t125 400.5
t364.5 157.5t364.5 -158t125 -385v-65h-790q34 -303 298.5 -303t420.5 102h10z" />
    <glyph glyph-name="Etilde" unicode="&#x1ebc;" horiz-adv-x="1306" 
d="M881.5 1526q-66.5 0 -168 49t-152.5 49q-68 0 -88 -88h-90q8 111 56 169t113.5 58t166 -48t155.5 -48q71 0 87 84h92q-8 -111 -56.5 -168t-115 -57zM1190 1255h-805v-452h731v-174h-731v-455h805v-174h-991v1430h991v-175z" />
    <glyph glyph-name="etilde" unicode="&#x1ebd;" horiz-adv-x="1167" 
d="M756.5 1174q-66.5 0 -168 49t-152.5 49q-68 0 -88 -88h-90q8 111 55 169t114 58t168 -48t155 -48q70 0 86 84h92q-8 -111 -56.5 -168t-115 -57zM589.5 907q-112.5 0 -202.5 -76t-98 -223h604q-8 147 -99.5 223t-204 76zM1018 256v-180q-172 -96 -404.5 -96t-373 142
t-140.5 385t125 400.5t364.5 157.5t364.5 -158t125 -385v-65h-790q34 -303 298.5 -303t420.5 102h10z" />
    <glyph glyph-name="Ecircumflexacute" unicode="&#x1ebe;" horiz-adv-x="1306" 
d="M1063 1958h203l-232 -272h-127zM780 1755l232 -252h-162l-154 150l-153 -150h-162l231 252h168zM1190 1255h-805v-452h731v-174h-731v-455h805v-174h-991v1430h991v-175z" />
    <glyph glyph-name="ecircumflexacute" unicode="&#x1ebf;" horiz-adv-x="1167" 
d="M954 1638h203l-231 -272h-127zM672 1436l231 -252h-162l-153 149l-154 -149h-162l232 252h168zM589.5 907q-112.5 0 -202.5 -76t-98 -223h604q-8 147 -99.5 223t-204 76zM1018 256v-180q-172 -96 -404.5 -96t-373 142t-140.5 385t125 400.5t364.5 157.5t364.5 -158
t125 -385v-65h-790q34 -303 298.5 -303t420.5 102h10z" />
    <glyph glyph-name="Ecircumflexgrave" unicode="&#x1ec0;" horiz-adv-x="1306" 
d="M145 1958h203l156 -272h-127zM799 1755l231 -252h-162l-153 150l-154 -150h-162l232 252h168zM1190 1255h-805v-452h731v-174h-731v-455h805v-174h-991v1430h991v-175z" />
    <glyph glyph-name="ecircumflexgrave" unicode="&#x1ec1;" horiz-adv-x="1167" 
d="M18 1638h203l156 -272h-127zM672 1436l231 -252h-162l-153 149l-154 -149h-162l232 252h168zM589.5 907q-112.5 0 -202.5 -76t-98 -223h604q-8 147 -99.5 223t-204 76zM1018 256v-180q-172 -96 -404.5 -96t-373 142t-140.5 385t125 400.5t364.5 157.5t364.5 -158
t125 -385v-65h-790q34 -303 298.5 -303t420.5 102h10z" />
    <glyph glyph-name="Ecircumflexhookabove" unicode="&#x1ec2;" horiz-adv-x="1306" 
d="M1014 1962q236 0 235 -162q0 -117 -153 -147v-37h-111v92q43 2 90 21.5t47 60.5q0 74 -139 74q-35 0 -53 -2v94q35 6 84 6zM780 1755l232 -252h-162l-154 150l-153 -150h-162l231 252h168zM1190 1255h-805v-452h731v-174h-731v-455h805v-174h-991v1430h991v-175z" />
    <glyph glyph-name="ecircumflexhookabove" unicode="&#x1ec3;" horiz-adv-x="1167" 
d="M905 1642q236 0 236 -161q0 -117 -154 -148v-37h-110v93q43 2 90 21.5t47 59.5q0 74 -140 74q-35 0 -53 -2v94q35 6 84 6zM672 1436l231 -252h-162l-153 149l-154 -149h-162l232 252h168zM589.5 907q-112.5 0 -202.5 -76t-98 -223h604q-8 147 -99.5 223t-204 76z
M1018 256v-180q-172 -96 -404.5 -96t-373 142t-140.5 385t125 400.5t364.5 157.5t364.5 -158t125 -385v-65h-790q34 -303 298.5 -303t420.5 102h10z" />
    <glyph glyph-name="Ecircumflextilde" unicode="&#x1ec4;" horiz-adv-x="1306" 
d="M881.5 1788q-66.5 0 -168 49t-152.5 49q-68 0 -88 -88h-90q8 111 56 169t113.5 58t166 -48t155.5 -48q71 0 87 84h92q-8 -111 -56.5 -168t-115 -57zM799 1745l231 -252h-162l-153 149l-154 -149h-162l232 252h168zM1190 1255h-805v-452h731v-174h-731v-455h805v-174h-991
v1430h991v-175z" />
    <glyph glyph-name="ecircumflextilde" unicode="&#x1ec5;" horiz-adv-x="1167" 
d="M754.5 1468q-66.5 0 -168 49.5t-152.5 49.5q-68 0 -88 -88h-90q8 111 56 169t115 58t167 -48t154 -48q70 0 86 84h92q-8 -111 -56.5 -168.5t-115 -57.5zM672 1425l231 -251h-162l-153 149l-154 -149h-162l232 251h168zM589.5 907q-112.5 0 -202.5 -76t-98 -223h604
q-8 147 -99.5 223t-204 76zM1018 256v-180q-172 -96 -404.5 -96t-373 142t-140.5 385t125 400.5t364.5 157.5t364.5 -158t125 -385v-65h-790q34 -303 298.5 -303t420.5 102h10z" />
    <glyph glyph-name="Ecircumflexdotbelow" unicode="&#x1ec6;" horiz-adv-x="1306" 
d="M623 -319v196h196v-196h-196zM805 1784l231 -252h-162l-153 149l-154 -149h-161l231 252h168zM1190 1255h-805v-452h731v-174h-731v-455h805v-174h-991v1430h991v-175z" />
    <glyph glyph-name="ecircumflexdotbelow" unicode="&#x1ec7;" horiz-adv-x="1167" 
d="M506 -338v197h196v-197h-196zM672 1436l231 -252h-162l-153 149l-154 -149h-162l232 252h168zM589.5 907q-112.5 0 -202.5 -76t-98 -223h604q-8 147 -99.5 223t-204 76zM1018 256v-180q-172 -96 -404.5 -96t-373 142t-140.5 385t125 400.5t364.5 157.5t364.5 -158
t125 -385v-65h-790q34 -303 298.5 -303t420.5 102h10z" />
    <glyph glyph-name="Ihookabove" unicode="&#x1ec8;" horiz-adv-x="583" 
d="M252 1888q236 0 235 -162q0 -117 -153 -147v-37h-111v92q43 2 90 21.5t47 60.5q0 74 -139 74q-35 0 -53 -2v94q35 6 84 6zM385 1430v-1430h-186v1430h186z" />
    <glyph glyph-name="ihookabove" unicode="&#x1ec9;" horiz-adv-x="526" 
d="M170 0v1044h186v-1044h-186zM223 1530q236 0 236 -162q0 -117 -154 -147v-37h-110v92q43 2 90 21.5t47 60.5q0 74 -139 74q-35 0 -54 -2v94q35 6 84 6z" />
    <glyph glyph-name="Idotbelow" unicode="&#x1eca;" horiz-adv-x="583" 
d="M193 -319v196h196v-196h-196zM385 1430v-1430h-186v1430h186z" />
    <glyph glyph-name="idotbelow" unicode="&#x1ecb;" horiz-adv-x="526" 
d="M166 -319v196h196v-196h-196zM365 1466v-200h-201v200h201zM170 0v1044h186v-1044h-186z" />
    <glyph glyph-name="Odotbelow" unicode="&#x1ecc;" horiz-adv-x="1660" 
d="M733 -338v197h197v-197h-197zM830.5 154q246.5 0 390 158.5t143.5 402t-143.5 402.5t-390 159t-389 -159t-142.5 -402.5t142.5 -402t389 -158.5zM831.5 1450q323.5 0 518 -205t200.5 -530q-6 -326 -200.5 -530.5t-518 -204.5t-518 204.5t-200.5 530.5q6 326 200.5 530.5
t518 204.5z" />
    <glyph glyph-name="odotbelow" unicode="&#x1ecd;" horiz-adv-x="1245" 
d="M524 -338v197h197v-197h-197zM622.5 150q135.5 0 237 93t101.5 280.5t-101.5 279.5t-237 92t-236.5 -92t-101 -279.5t101 -280.5t236.5 -93zM621.5 1065q236.5 0 381 -149.5t144.5 -393t-144.5 -393t-381 -149.5t-380 149.5t-143.5 393t143.5 393t380 149.5z" />
    <glyph glyph-name="Ohookabove" unicode="&#x1ece;" horiz-adv-x="1660" 
d="M782 1888q236 0 236 -162q0 -117 -154 -147v-37h-110v92q43 2 90 21.5t47 60.5q0 74 -139 74q-35 0 -54 -2v94q35 6 84 6zM830.5 154q246.5 0 390 158.5t143.5 402t-143.5 402.5t-390 159t-389 -159t-142.5 -402.5t142.5 -402t389 -158.5zM831.5 1450q323.5 0 518 -205
t200.5 -530q-6 -326 -200.5 -530.5t-518 -204.5t-518 204.5t-200.5 530.5q6 326 200.5 530.5t518 204.5z" />
    <glyph glyph-name="ohookabove" unicode="&#x1ecf;" horiz-adv-x="1245" 
d="M590 1530q236 0 235 -162q0 -117 -153 -147v-37h-111v92q43 2 90 21.5t47 60.5q0 74 -139 74q-35 0 -53 -2v94q35 6 84 6zM622.5 150q135.5 0 237 93t101.5 280.5t-101.5 279.5t-237 92t-236.5 -92t-101 -279.5t101 -280.5t236.5 -93zM621.5 1065q236.5 0 381 -149.5
t144.5 -393t-144.5 -393t-381 -149.5t-380 149.5t-143.5 393t143.5 393t380 149.5z" />
    <glyph glyph-name="Ocircumflexacute" unicode="&#x1ed0;" horiz-adv-x="1660" 
d="M1198 1958h203l-232 -272h-127zM915 1755l232 -252h-162l-154 150l-153 -150h-162l232 252h167zM830.5 154q246.5 0 390 158.5t143.5 402t-143.5 402.5t-390 159t-389 -159t-142.5 -402.5t142.5 -402t389 -158.5zM831.5 1450q323.5 0 518 -205t200.5 -530
q-6 -326 -200.5 -530.5t-518 -204.5t-518 204.5t-200.5 530.5q6 326 200.5 530.5t518 204.5z" />
    <glyph glyph-name="ocircumflexacute" unicode="&#x1ed1;" horiz-adv-x="1245" 
d="M989 1638h203l-231 -272h-127zM707 1436l231 -252h-162l-153 149l-154 -149h-162l232 252h168zM622.5 150q135.5 0 237 93t101.5 280.5t-101.5 279.5t-237 92t-236.5 -92t-101 -279.5t101 -280.5t236.5 -93zM621.5 1065q236.5 0 381 -149.5t144.5 -393t-144.5 -393
t-381 -149.5t-380 149.5t-143.5 393t143.5 393t380 149.5z" />
    <glyph glyph-name="Ocircumflexgrave" unicode="&#x1ed2;" horiz-adv-x="1660" 
d="M262 1958h203l156 -272h-127zM915 1755l232 -252h-162l-154 150l-153 -150h-162l232 252h167zM830.5 154q246.5 0 390 158.5t143.5 402t-143.5 402.5t-390 159t-389 -159t-142.5 -402.5t142.5 -402t389 -158.5zM831.5 1450q323.5 0 518 -205t200.5 -530
q-6 -326 -200.5 -530.5t-518 -204.5t-518 204.5t-200.5 530.5q6 326 200.5 530.5t518 204.5z" />
    <glyph glyph-name="ocircumflexgrave" unicode="&#x1ed3;" horiz-adv-x="1245" 
d="M53 1638h203l156 -272h-127zM707 1436l231 -252h-162l-153 149l-154 -149h-162l232 252h168zM622.5 150q135.5 0 237 93t101.5 280.5t-101.5 279.5t-237 92t-236.5 -92t-101 -279.5t101 -280.5t236.5 -93zM621.5 1065q236.5 0 381 -149.5t144.5 -393t-144.5 -393
t-381 -149.5t-380 149.5t-143.5 393t143.5 393t380 149.5z" />
    <glyph glyph-name="Ocircumflexhookabove" unicode="&#x1ed4;" horiz-adv-x="1660" 
d="M1149 1962q236 0 235 -162q0 -117 -153 -147v-37h-111v92q43 2 90 21.5t47 60.5q0 74 -139 74q-35 0 -53 -2v94q35 6 84 6zM915 1755l232 -252h-162l-154 150l-153 -150h-162l232 252h167zM830.5 154q246.5 0 390 158.5t143.5 402t-143.5 402.5t-390 159t-389 -159
t-142.5 -402.5t142.5 -402t389 -158.5zM831.5 1450q323.5 0 518 -205t200.5 -530q-6 -326 -200.5 -530.5t-518 -204.5t-518 204.5t-200.5 530.5q6 326 200.5 530.5t518 204.5z" />
    <glyph glyph-name="ocircumflexhookabove" unicode="&#x1ed5;" horiz-adv-x="1245" 
d="M940 1642q236 0 236 -161q0 -117 -154 -148v-37h-111v93q43 2 90.5 21.5t47.5 59.5q0 74 -140 74q-35 0 -53 -2v94q35 6 84 6zM707 1436l231 -252h-162l-153 149l-154 -149h-162l232 252h168zM622.5 150q135.5 0 237 93t101.5 280.5t-101.5 279.5t-237 92t-236.5 -92
t-101 -279.5t101 -280.5t236.5 -93zM621.5 1065q236.5 0 381 -149.5t144.5 -393t-144.5 -393t-381 -149.5t-380 149.5t-143.5 393t143.5 393t380 149.5z" />
    <glyph glyph-name="Ocircumflextilde" unicode="&#x1ed6;" horiz-adv-x="1660" 
d="M998.5 1788q-66.5 0 -168 49t-152.5 49q-68 0 -88 -88h-90q8 111 55 169t114.5 58t168 -48t153.5 -48q70 0 86 84h92q-8 -111 -56 -168t-114.5 -57zM915 1745l232 -252h-162l-154 149l-153 -149h-162l232 252h167zM830.5 154q246.5 0 390 158.5t143.5 402t-143.5 402.5
t-390 159t-389 -159t-142.5 -402.5t142.5 -402t389 -158.5zM831.5 1450q323.5 0 518 -205t200.5 -530q-6 -326 -200.5 -530.5t-518 -204.5t-518 204.5t-200.5 530.5q6 326 200.5 530.5t518 204.5z" />
    <glyph glyph-name="ocircumflextilde" unicode="&#x1ed7;" horiz-adv-x="1245" 
d="M789.5 1468q-66.5 0 -168 49.5t-152.5 49.5q-68 0 -88 -88h-90q8 111 55 169t114.5 58t168 -48t153.5 -48q70 0 86 84h93q-8 -111 -56.5 -168.5t-115 -57.5zM707 1425l231 -251h-162l-153 149l-154 -149h-162l232 251h168zM622.5 150q135.5 0 237 93t101.5 280.5
t-101.5 279.5t-237 92t-236.5 -92t-101 -279.5t101 -280.5t236.5 -93zM621.5 1065q236.5 0 381 -149.5t144.5 -393t-144.5 -393t-381 -149.5t-380 149.5t-143.5 393t143.5 393t380 149.5z" />
    <glyph glyph-name="Ocircumflexdotbelow" unicode="&#x1ed8;" horiz-adv-x="1660" 
d="M733 -319v196h197v-196h-197zM915 1784l232 -252h-162l-154 149l-153 -149h-162l232 252h167zM830.5 154q246.5 0 390 158.5t143.5 402t-143.5 402.5t-390 159t-389 -159t-142.5 -402.5t142.5 -402t389 -158.5zM831.5 1450q323.5 0 518 -205t200.5 -530
q-6 -326 -200.5 -530.5t-518 -204.5t-518 204.5t-200.5 530.5q6 326 200.5 530.5t518 204.5z" />
    <glyph glyph-name="ocircumflexdotbelow" unicode="&#x1ed9;" horiz-adv-x="1245" 
d="M524 -338v197h197v-197h-197zM707 1436l231 -252h-162l-153 149l-154 -149h-162l232 252h168zM622.5 150q135.5 0 237 93t101.5 280.5t-101.5 279.5t-237 92t-236.5 -92t-101 -279.5t101 -280.5t236.5 -93zM621.5 1065q236.5 0 381 -149.5t144.5 -393t-144.5 -393
t-381 -149.5t-380 149.5t-143.5 393t143.5 393t380 149.5z" />
    <glyph glyph-name="Ohornacute" unicode="&#x1eda;" horiz-adv-x="1798" 
d="M870 1808h203l-231 -272h-127zM830.5 154q246.5 0 390 158.5t143.5 402t-143.5 402.5t-390 159t-389 -159t-142.5 -402.5t142.5 -402t389 -158.5zM1554 1440h222v-217q0 -172 -57.5 -267.5t-178.5 -128.5q6 -37 10 -112q-6 -326 -200.5 -530.5t-518 -204.5t-518 204.5
t-200.5 530.5q6 326 200.5 530.5t517.5 204.5q268 0 450.5 -144.5t242.5 -387.5q82 25 113.5 92t31.5 204h-115v226z" />
    <glyph glyph-name="ohornacute" unicode="&#x1edb;" horiz-adv-x="1409" 
d="M666 1456h202l-231 -272h-127zM622.5 150q135.5 0 237 93t101.5 280.5t-101.5 279.5t-237 92t-236.5 -92t-101 -279.5t101 -280.5t236.5 -93zM615.5 1065q230.5 0 372.5 -136t157 -362q80 12 109.5 68.5t29.5 189.5h-115v226h222v-217q0 -174 -59.5 -256t-186.5 -97
q-12 -227 -154.5 -364t-374 -137t-375 149.5t-143.5 393t143.5 393t374 149.5z" />
    <glyph glyph-name="Ohorngrave" unicode="&#x1edc;" horiz-adv-x="1798" 
d="M590 1808h203l155 -272h-127zM830.5 154q246.5 0 390 158.5t143.5 402t-143.5 402.5t-390 159t-389 -159t-142.5 -402.5t142.5 -402t389 -158.5zM1554 1440h222v-217q0 -172 -57.5 -267.5t-178.5 -128.5q6 -37 10 -112q-6 -326 -200.5 -530.5t-518 -204.5t-518 204.5
t-200.5 530.5q6 326 200.5 530.5t517.5 204.5q268 0 450.5 -144.5t242.5 -387.5q82 25 113.5 92t31.5 204h-115v226z" />
    <glyph glyph-name="ohorngrave" unicode="&#x1edd;" horiz-adv-x="1409" 
d="M377 1456h203l155 -272h-127zM622.5 150q135.5 0 237 93t101.5 280.5t-101.5 279.5t-237 92t-236.5 -92t-101 -279.5t101 -280.5t236.5 -93zM615.5 1065q230.5 0 372.5 -136t157 -362q80 12 109.5 68.5t29.5 189.5h-115v226h222v-217q0 -174 -59.5 -256t-186.5 -97
q-12 -227 -154.5 -364t-374 -137t-375 149.5t-143.5 393t143.5 393t374 149.5z" />
    <glyph glyph-name="Ohornhookabove" unicode="&#x1ede;" horiz-adv-x="1798" 
d="M782 1888q236 0 236 -162q0 -117 -154 -147v-37h-110v92q43 2 90 21.5t47 60.5q0 74 -139 74q-35 0 -54 -2v94q35 6 84 6zM830.5 154q246.5 0 390 158.5t143.5 402t-143.5 402.5t-390 159t-389 -159t-142.5 -402.5t142.5 -402t389 -158.5zM1554 1440h222v-217
q0 -172 -57.5 -267.5t-178.5 -128.5q6 -37 10 -112q-6 -326 -200.5 -530.5t-518 -204.5t-518 204.5t-200.5 530.5q6 326 200.5 530.5t517.5 204.5q268 0 450.5 -144.5t242.5 -387.5q82 25 113.5 92t31.5 204h-115v226z" />
    <glyph glyph-name="ohornhookabove" unicode="&#x1edf;" horiz-adv-x="1409" 
d="M590 1530q236 0 235 -162q0 -117 -153 -147v-37h-111v92q43 2 90 21.5t47 60.5q0 74 -139 74q-35 0 -53 -2v94q35 6 84 6zM622.5 150q135.5 0 237 93t101.5 280.5t-101.5 279.5t-237 92t-236.5 -92t-101 -279.5t101 -280.5t236.5 -93zM615.5 1065q230.5 0 372.5 -136
t157 -362q80 12 109.5 68.5t29.5 189.5h-115v226h222v-217q0 -174 -59.5 -256t-186.5 -97q-12 -227 -154.5 -364t-374 -137t-375 149.5t-143.5 393t143.5 393t374 149.5z" />
    <glyph glyph-name="Ohorntilde" unicode="&#x1ee0;" horiz-adv-x="1798" 
d="M994.5 1526q-66.5 0 -168 49t-152.5 49q-68 0 -88 -88h-90q8 111 55 169t114.5 58t168 -48t153.5 -48q70 0 86 84h92q-8 -111 -56 -168t-114.5 -57zM830.5 154q246.5 0 390 158.5t143.5 402t-143.5 402.5t-390 159t-389 -159t-142.5 -402.5t142.5 -402t389 -158.5z
M1554 1440h222v-217q0 -172 -57.5 -267.5t-178.5 -128.5q6 -37 10 -112q-6 -326 -200.5 -530.5t-518 -204.5t-518 204.5t-200.5 530.5q6 326 200.5 530.5t517.5 204.5q268 0 450.5 -144.5t242.5 -387.5q82 25 113.5 92t31.5 204h-115v226z" />
    <glyph glyph-name="ohorntilde" unicode="&#x1ee1;" horiz-adv-x="1409" 
d="M789.5 1174q-66.5 0 -168 49t-152.5 49q-68 0 -88 -88h-90q8 111 55 169t114.5 58t168 -48t153.5 -48q70 0 86 84h93q-8 -111 -56.5 -168t-115 -57zM622.5 150q135.5 0 237 93t101.5 280.5t-101.5 279.5t-237 92t-236.5 -92t-101 -279.5t101 -280.5t236.5 -93z
M615.5 1065q230.5 0 372.5 -136t157 -362q80 12 109.5 68.5t29.5 189.5h-115v226h222v-217q0 -174 -59.5 -256t-186.5 -97q-12 -227 -154.5 -364t-374 -137t-375 149.5t-143.5 393t143.5 393t374 149.5z" />
    <glyph glyph-name="Ohorndotbelow" unicode="&#x1ee2;" horiz-adv-x="1798" 
d="M733 -338v197h197v-197h-197zM830.5 154q246.5 0 390 158.5t143.5 402t-143.5 402.5t-390 159t-389 -159t-142.5 -402.5t142.5 -402t389 -158.5zM1554 1440h222v-217q0 -172 -57.5 -267.5t-178.5 -128.5q6 -37 10 -112q-6 -326 -200.5 -530.5t-518 -204.5t-518 204.5
t-200.5 530.5q6 326 200.5 530.5t517.5 204.5q268 0 450.5 -144.5t242.5 -387.5q82 25 113.5 92t31.5 204h-115v226z" />
    <glyph glyph-name="ohorndotbelow" unicode="&#x1ee3;" horiz-adv-x="1409" 
d="M524 -338v197h197v-197h-197zM622.5 150q135.5 0 237 93t101.5 280.5t-101.5 279.5t-237 92t-236.5 -92t-101 -279.5t101 -280.5t236.5 -93zM615.5 1065q230.5 0 372.5 -136t157 -362q80 12 109.5 68.5t29.5 189.5h-115v226h222v-217q0 -174 -59.5 -256t-186.5 -97
q-12 -227 -154.5 -364t-374 -137t-375 149.5t-143.5 393t143.5 393t374 149.5z" />
    <glyph glyph-name="Udotbelow" unicode="&#x1ee4;" horiz-adv-x="1552" 
d="M678 -338v197h196v-197h-196zM1178 1430h186v-893q0 -139 -52 -249t-139.5 -175.5t-188.5 -99t-207.5 -33.5t-208 33.5t-188.5 99t-139.5 175t-52.5 249.5v893h187v-900q0 -180 118.5 -280t282.5 -100t283 100t119 280v900z" />
    <glyph glyph-name="udotbelow" unicode="&#x1ee5;" horiz-adv-x="1249" 
d="M541 -338v197h196v-197h-196zM520 -20q-170 0 -268 114.5t-98 286.5v663h186v-643q0 -250 225 -249q178 0 336 196v696h186v-1044h-163l-23 131v31h-4q-166 -182 -377 -182z" />
    <glyph glyph-name="Uhookabove" unicode="&#x1ee6;" horiz-adv-x="1552" 
d="M721 1888q236 0 235 -162q0 -117 -153 -147v-37h-111v92q43 2 90 21.5t47 60.5q0 74 -139 74q-35 0 -53 -2v94q35 6 84 6zM1178 1430h186v-893q0 -139 -52 -249t-139.5 -175.5t-188.5 -99t-207.5 -33.5t-208 33.5t-188.5 99t-139.5 175t-52.5 249.5v893h187v-900
q0 -180 118.5 -280t282.5 -100t283 100t119 280v900z" />
    <glyph glyph-name="uhookabove" unicode="&#x1ee7;" horiz-adv-x="1249" 
d="M545 1530q236 0 235 -162q0 -117 -153 -147v-37h-111v92q43 2 90 21.5t47 60.5q0 74 -139 74q-35 0 -53 -2v94q35 6 84 6zM520 -20q-170 0 -268 114.5t-98 286.5v663h186v-643q0 -250 225 -249q178 0 336 196v696h186v-1044h-163l-23 131v31h-4q-166 -182 -377 -182z" />
    <glyph glyph-name="Uhornacute" unicode="&#x1ee8;" horiz-adv-x="1726" 
d="M803 1808h203l-232 -272h-127zM1178 1430h186v-525q150 4 203 66.5t53 232.5h-115v226h221v-218q0 -209 -86 -300t-276 -97v-278q0 -139 -52 -249t-139.5 -175.5t-188.5 -99t-207.5 -33.5t-208 33.5t-188.5 99t-139.5 175t-52.5 249.5v893h187v-900q0 -180 118.5 -280
t282.5 -100t283 100t119 280v900z" />
    <glyph glyph-name="uhornacute" unicode="&#x1ee9;" horiz-adv-x="1439" 
d="M664 1456h202l-231 -272h-127zM520 -20q-170 0 -268 114.5t-98 286.5v663h186v-643q0 -250 225 -249q178 0 336 196v696h186v-524q139 8 188.5 70.5t49.5 228.5h-115v225h222v-217q0 -205 -82 -295t-263 -100v-432h-163l-23 131v31h-4q-164 -182 -377 -182z" />
    <glyph glyph-name="Uhorngrave" unicode="&#x1eea;" horiz-adv-x="1726" 
d="M547 1808h203l155 -272h-127zM1178 1430h186v-525q150 4 203 66.5t53 232.5h-115v226h221v-218q0 -209 -86 -300t-276 -97v-278q0 -139 -52 -249t-139.5 -175.5t-188.5 -99t-207.5 -33.5t-208 33.5t-188.5 99t-139.5 175t-52.5 249.5v893h187v-900q0 -180 118.5 -280
t282.5 -100t283 100t119 280v900z" />
    <glyph glyph-name="uhorngrave" unicode="&#x1eeb;" horiz-adv-x="1439" 
d="M375 1456h203l155 -272h-127zM520 -20q-170 0 -268 114.5t-98 286.5v663h186v-643q0 -250 225 -249q178 0 336 196v696h186v-524q139 8 188.5 70.5t49.5 228.5h-115v225h222v-217q0 -205 -82 -295t-263 -100v-432h-163l-23 131v31h-4q-164 -182 -377 -182z" />
    <glyph glyph-name="Uhornhookabove" unicode="&#x1eec;" horiz-adv-x="1726" 
d="M721 1888q236 0 235 -162q0 -117 -153 -147v-37h-111v92q43 2 90 21.5t47 60.5q0 74 -139 74q-35 0 -53 -2v94q35 6 84 6zM1178 1430h186v-525q150 4 203 66.5t53 232.5h-115v226h221v-218q0 -209 -86 -300t-276 -97v-278q0 -139 -52 -249t-139.5 -175.5t-188.5 -99
t-207.5 -33.5t-208 33.5t-188.5 99t-139.5 175t-52.5 249.5v893h187v-900q0 -180 118.5 -280t282.5 -100t283 100t119 280v900z" />
    <glyph glyph-name="uhornhookabove" unicode="&#x1eed;" horiz-adv-x="1439" 
d="M545 1530q236 0 235 -162q0 -117 -153 -147v-37h-111v92q43 2 90 21.5t47 60.5q0 74 -139 74q-35 0 -53 -2v94q35 6 84 6zM520 -20q-170 0 -268 114.5t-98 286.5v663h186v-643q0 -250 225 -249q178 0 336 196v696h186v-524q139 8 188.5 70.5t49.5 228.5h-115v225h222
v-217q0 -205 -82 -295t-263 -100v-432h-163l-23 131v31h-4q-164 -182 -377 -182z" />
    <glyph glyph-name="Uhorntilde" unicode="&#x1eee;" horiz-adv-x="1726" 
d="M947.5 1526q-66.5 0 -168 49t-152.5 49q-68 0 -88 -88h-90q8 111 56 169t113.5 58t166 -48t155.5 -48q70 0 86 84h92q-8 -111 -56 -168t-114.5 -57zM1178 1430h186v-525q150 4 203 66.5t53 232.5h-115v226h221v-218q0 -209 -86 -300t-276 -97v-278q0 -139 -52 -249
t-139.5 -175.5t-188.5 -99t-207.5 -33.5t-208 33.5t-188.5 99t-139.5 175t-52.5 249.5v893h187v-900q0 -180 118.5 -280t282.5 -100t283 100t119 280v900z" />
    <glyph glyph-name="uhorntilde" unicode="&#x1eef;" horiz-adv-x="1439" 
d="M779.5 1174q-66.5 0 -168 49t-152.5 49q-68 0 -88 -88h-90q8 111 56 169t114.5 58t167 -48t153.5 -48q70 0 86 84h92q-8 -111 -56 -168t-114.5 -57zM520 -20q-170 0 -268 114.5t-98 286.5v663h186v-643q0 -250 225 -249q178 0 336 196v696h186v-524q139 8 188.5 70.5
t49.5 228.5h-115v225h222v-217q0 -205 -82 -295t-263 -100v-432h-163l-23 131v31h-4q-164 -182 -377 -182z" />
    <glyph glyph-name="Uhorndotbelow" unicode="&#x1ef0;" horiz-adv-x="1726" 
d="M678 -338v197h196v-197h-196zM1178 1430h186v-525q150 4 203 66.5t53 232.5h-115v226h221v-218q0 -209 -86 -300t-276 -97v-278q0 -139 -52 -249t-139.5 -175.5t-188.5 -99t-207.5 -33.5t-208 33.5t-188.5 99t-139.5 175t-52.5 249.5v893h187v-900q0 -180 118.5 -280
t282.5 -100t283 100t119 280v900z" />
    <glyph glyph-name="uhorndotbelow" unicode="&#x1ef1;" horiz-adv-x="1439" 
d="M541 -338v197h196v-197h-196zM520 -20q-170 0 -268 114.5t-98 286.5v663h186v-643q0 -250 225 -249q178 0 336 196v696h186v-524q139 8 188.5 70.5t49.5 228.5h-115v225h222v-217q0 -205 -82 -295t-263 -100v-432h-163l-23 131v31h-4q-164 -182 -377 -182z" />
    <glyph glyph-name="Ygrave" unicode="&#x1ef2;" horiz-adv-x="1320" 
d="M412 1808h202l156 -272h-127zM754 0h-187v604l-581 826h227l442 -654h11l442 654h227l-581 -826v-604z" />
    <glyph glyph-name="ygrave" unicode="&#x1ef3;" horiz-adv-x="1091" 
d="M303 1456h203l156 -272h-127zM1083 1044l-628 -1515h-189l176 455l-432 1060h201l328 -825h8l336 825h200z" />
    <glyph glyph-name="Ydotbelow" unicode="&#x1ef4;" horiz-adv-x="1316" 
d="M561 -319v196h197v-196h-197zM752 0h-187v604l-581 826h227l442 -654h11l442 654h227l-581 -826v-604z" />
    <glyph glyph-name="ydotbelow" unicode="&#x1ef5;" horiz-adv-x="1091" 
d="M772 -319v196h197v-196h-197zM1083 1044l-628 -1515h-189l176 455l-432 1060h201l328 -825h8l336 825h200z" />
    <glyph glyph-name="Yhookabove" unicode="&#x1ef6;" horiz-adv-x="1320" 
d="M621 1888q236 0 235 -162q0 -117 -154 -147v-37h-110v92q43 2 90 21.5t47 60.5q0 74 -139 74q-35 0 -53 -2v94q35 6 84 6zM754 0h-187v604l-581 826h227l442 -654h11l442 654h227l-581 -826v-604z" />
    <glyph glyph-name="yhookabove" unicode="&#x1ef7;" horiz-adv-x="1091" 
d="M475 1530q236 0 236 -162q0 -117 -154 -147v-37h-111v92q43 2 90.5 21.5t47.5 60.5q0 74 -140 74q-35 0 -53 -2v94q35 6 84 6zM1083 1044l-628 -1515h-189l176 455l-432 1060h201l328 -825h8l336 825h200z" />
    <glyph glyph-name="Ytilde" unicode="&#x1ef8;" horiz-adv-x="1320" 
d="M830.5 1526q-66.5 0 -168 49t-152.5 49q-68 0 -88 -88h-90q8 111 56 169t114.5 58t167 -48t153.5 -48q70 0 86 84h92q-8 -111 -56 -168t-114.5 -57zM754 0h-187v604l-581 826h227l442 -654h11l442 654h227l-581 -826v-604z" />
    <glyph glyph-name="ytilde" unicode="&#x1ef9;" horiz-adv-x="1091" 
d="M711.5 1174q-66.5 0 -168 49t-152.5 49q-68 0 -88 -88h-90q8 111 55 169t115 58t168 -48t154 -48q70 0 86 84h92q-8 -111 -56.5 -168t-115 -57zM1083 1044l-628 -1515h-189l176 455l-432 1060h201l328 -825h8l336 825h200z" />
    <glyph glyph-name="endash" unicode="&#x2013;" horiz-adv-x="1400" 
d="M1249 492h-1097v165h1097v-165z" />
    <glyph glyph-name="emdash" unicode="&#x2014;" horiz-adv-x="1824" 
d="M1673 492h-1521v165h1521v-165z" />
    <glyph glyph-name="quoteleft" unicode="&#x2018;" horiz-adv-x="522" 
d="M375 952h-230v230q0 238 230 334v-134q-113 -61 -113 -200h113v-230z" />
    <glyph glyph-name="quoteright" unicode="&#x2019;" horiz-adv-x="487" 
d="M150 1516h229v-230q0 -238 -229 -334v133q113 61 112 201h-112v230z" />
    <glyph glyph-name="quotesinglbase" unicode="&#x201a;" horiz-adv-x="532" 
d="M152 229h229v-229q0 -238 -229 -334v133q113 61 112 201h-112v229z" />
    <glyph glyph-name="quotedblleft" unicode="&#x201c;" horiz-adv-x="894" 
d="M375 952h-230v230q0 238 230 334v-134q-113 -61 -113 -200h113v-230zM748 952h-230v230q0 238 230 334v-134q-113 -61 -113 -200h113v-230z" />
    <glyph glyph-name="quotedblright" unicode="&#x201d;" horiz-adv-x="860" 
d="M522 1516h230v-230q0 -238 -230 -334v133q113 61 113 201h-113v230zM150 1516h229v-230q0 -238 -229 -334v133q113 61 112 201h-112v230z" />
    <glyph glyph-name="quotedblbase" unicode="&#x201e;" horiz-adv-x="905" 
d="M524 229h230v-229q0 -238 -230 -334v133q113 61 113 201h-113v229zM152 229h229v-229q0 -238 -229 -334v133q113 61 112 201h-112v229z" />
    <glyph glyph-name="dagger" unicode="&#x2020;" horiz-adv-x="1034" 
d="M895 997l68 -39v-55l-70 -37h-162l-174 27l27 -174l-27 -840l-14 -69h-51l-15 69l-26 840l26 174l-174 -27h-162l-69 37v55l67 39h164l174 -28l-26 174v166l41 69h51l41 -69v-166l-27 -174l174 28h164z" />
    <glyph glyph-name="daggerdbl" unicode="&#x2021;" horiz-adv-x="1087" 
d="M920 866h-162l-174 27l30 -299l-30 -299l174 27h162l69 -37v-56l-67 -39h-164l-174 29l26 -174v-166l-41 -69h-51l-41 69v166l27 174l-174 -29h-164l-68 39v56l70 37h162l174 -27l-33 299l33 299l-174 -27h-162l-70 37v55l68 39h164l174 -28l-27 174v166l41 69h51l41 -69
v-166l-26 -174l174 28h164l67 -39v-55z" />
    <glyph glyph-name="bullet" unicode="&#x2022;" horiz-adv-x="772" 
d="M387 1077q113 0 191.5 -79.5t78.5 -192.5t-78.5 -193t-191.5 -80t-192.5 80t-79.5 193t79.5 192.5t192.5 79.5z" />
    <glyph glyph-name="ellipsis" unicode="&#x2026;" horiz-adv-x="1982" 
d="M152 0v229h229v-229h-229zM1602 229h229v-229h-229v229zM877 0v229h229v-229h-229z" />
    <glyph glyph-name="perthousand" unicode="&#x2030;" horiz-adv-x="2224" 
d="M1130 1436h160l-903 -1444h-160zM1651 304q0 -95 47 -156.5t131 -61.5t130 61.5t46 156.5t-46 156.5t-130 61.5t-131 -61.5t-47 -156.5zM2142 305.5q0 -149.5 -82 -246t-231.5 -96.5t-231 95.5t-81.5 246t81.5 245.5t231 95t231.5 -95t82 -244.5zM930 304
q0 -95 46 -156.5t130 -61.5t131 61.5t47 156.5t-47 156.5t-131 61.5t-130 -61.5t-46 -156.5zM1419 304.5q0 -150.5 -82 -246t-231.5 -95.5t-231 96.5t-81.5 246t81.5 244.5t231 95t231.5 -95t82 -245.5zM233 1123.5q0 -95.5 47.5 -157t131.5 -61.5t130 61.5t46 157
t-46 155.5t-130 60t-131.5 -60t-47.5 -155.5zM723 1122.5q0 -149.5 -82 -246t-230.5 -96.5t-230.5 96.5t-82 246t82 245.5t230.5 96t230.5 -96t82 -245.5z" />
    <glyph glyph-name="guilsinglleft" unicode="&#x2039;" horiz-adv-x="772" 
d="M670 981l-396 -459l396 -456h-213l-381 456l381 459h213z" />
    <glyph glyph-name="guilsinglright" unicode="&#x203a;" horiz-adv-x="772" 
d="M498 522l-396 459h213l381 -459l-381 -456h-213z" />
    <glyph glyph-name="fraction" unicode="&#x2044;" horiz-adv-x="409" 
d="M735 1454l-899 -1483h-164l899 1483h164z" />
    <glyph glyph-name="zerosuperior" unicode="&#x2070;" 
d="M378 1028q85 0 135 76t50 221t-50 222t-135 77t-135 -77t-50 -222t50 -221t135 -76zM377.5 1741q150.5 0 234.5 -110.5t84 -304t-84 -304.5t-234.5 -111t-233.5 111t-83 304.5t83 304t233.5 110.5z" />
    <glyph glyph-name="foursuperior" unicode="&#x2074;" 
d="M444 1241v322h-4l-243 -318v-4h247zM575 1241h125v-121h-125v-196h-131v196h-397v115l385 494h143v-488z" />
    <glyph glyph-name="fivesuperior" unicode="&#x2075;" 
d="M406 1444q135 0 204.5 -77t69.5 -194.5t-84 -189.5t-237.5 -72t-262.5 82v142h6q115 -96 235 -96.5t166 35.5t46 107.5t-48 104.5t-108 33q-121 0 -196 -70l-105 47l64 433h471v-123h-361l-26 -195h6q66 33 160 33z" />
    <glyph glyph-name="sixsuperior" unicode="&#x2076;" 
d="M396.5 1036q74.5 0 117.5 43t43 102.5t-36 105.5t-115 46q-123 0 -193 -82q12 -125 60.5 -170t123 -45zM418 1456q125 0 198.5 -79t73.5 -195.5t-79 -193.5t-212 -77q-319 0 -319 414q0 182 90 299t248 117q121 0 221 -64v-131h-8q-94 66 -194.5 66t-159 -62.5
t-68.5 -165.5h4q80 72 205 72z" />
    <glyph glyph-name="sevensuperior" unicode="&#x2077;" 
d="M90 1729h582v-109l-338 -696h-152l334 669v9h-426v127z" />
    <glyph glyph-name="eightsuperior" unicode="&#x2078;" 
d="M378 1622q-71 0 -109 -30.5t-38 -76t35 -78t111 -32.5t111.5 32.5t35.5 78t-37.5 76t-108.5 30.5zM377 1028q94 0 139 42t45 97.5t-53 92t-130 36.5t-130 -36.5t-53 -92t44 -97.5t138 -42zM653 1522q0 -113 -102 -168v-4q139 -61 139 -207q0 -92 -76.5 -162t-236.5 -70
t-235.5 70t-75.5 162q0 150 137 209v4q-100 55 -101 166q0 84 68 151.5t208 67.5t207.5 -67.5t67.5 -151.5z" />
    <glyph glyph-name="ninesuperior" unicode="&#x2079;" 
d="M361.5 1616q-74.5 0 -117.5 -43t-43 -102.5t35.5 -105.5t115.5 -46q123 0 193 82q-13 125 -61 170t-122.5 45zM340 1196q-125 0 -198.5 79t-73.5 195.5t78.5 193.5t211.5 77q319 0 320 -414q0 -182 -90 -299t-248 -117q-121 0 -221 64v131h8q94 -66 194.5 -66t159 62.5
t68.5 165.5h-4q-80 -72 -205 -72z" />
    <glyph glyph-name="parenleftsuperior" unicode="&#x207d;" horiz-adv-x="501" 
d="M424 1849v-6q-174 -236 -174 -516t174 -516v-6h-137q-166 231 -166 522t166 522h137z" />
    <glyph glyph-name="parenrightsuperior" unicode="&#x207e;" horiz-adv-x="501" 
d="M76 1849h137q166 -231 166 -522t-166 -522h-137v6q174 236 174 516t-174 516v6z" />
    <glyph glyph-name="zeroinferior" unicode="&#x2080;" 
d="M378 -268q85 0 135 75.5t50 221t-50 222.5t-135 77t-135 -77t-50 -222.5t50 -221t135 -75.5zM377.5 444q150.5 0 234.5 -110.5t84 -304t-84 -304t-234.5 -110.5t-233.5 110.5t-83 304t83 304t233.5 110.5z" />
    <glyph glyph-name="oneinferior" unicode="&#x2081;" 
d="M475 -252h154v-121h-457v121h172v528h-8l-156 -75v135l185 96h110v-684z" />
    <glyph glyph-name="twoinferior" unicode="&#x2082;" 
d="M659 217q0 -90 -57 -163.5t-127 -119.5q-213 -135 -244 -180v-6h416v-121h-561v80q0 80 69.5 152.5t151.5 120.5q223 123 223 217q0 123 -156.5 122.5t-250.5 -79.5h-8v133q123 72 257 71.5t210.5 -69t76.5 -158.5z" />
    <glyph glyph-name="threeinferior" unicode="&#x2083;" 
d="M631 227q0 -133 -123 -182v-4q152 -47 151 -197q0 -98 -72.5 -163.5t-223 -65.5t-265.5 57v127h11q104 -57 233 -57q188 0 188 106q0 127 -229 127h-74v123h60q217 0 217 119q0 102 -160 102q-129 0 -227 -67h-11v123q121 70 254.5 69.5t202 -61t68.5 -156.5z" />
    <glyph glyph-name="fourinferior" unicode="&#x2084;" 
d="M444 -55v321h-4l-243 -317v-4h247zM575 -55h125v-121h-125v-197h-131v197h-397v115l385 493h143v-487z" />
    <glyph glyph-name="fiveinferior" unicode="&#x2085;" 
d="M406 147q135 0 204.5 -76.5t69.5 -194.5t-84 -189.5t-237.5 -71.5t-262.5 82v141h6q115 -96 235 -96t166 36t46 107.5t-48 104.5t-108 33q-121 0 -196 -70l-105 47l64 432h471v-123h-361l-26 -194h6q66 32 160 32z" />
    <glyph glyph-name="sixinferior" unicode="&#x2086;" 
d="M396.5 -260q74.5 0 117.5 43t43 102.5t-36 105.5t-115 46q-123 0 -193 -82q12 -125 60.5 -170t123 -45zM418 160q125 0 198.5 -79t73.5 -195.5t-79 -193.5t-212 -77q-319 0 -319 414q0 182 90 298.5t248 116.5q121 0 221 -63v-131h-8q-94 66 -194.5 65.5t-159 -63
t-68.5 -164.5h4q80 72 205 72z" />
    <glyph glyph-name="seveninferior" unicode="&#x2087;" 
d="M92 432h582v-108l-338 -697h-152l334 670v8h-426v127z" />
    <glyph glyph-name="eightinferior" unicode="&#x2088;" 
d="M380 326q-71 0 -109 -31t-38 -76t35 -77.5t111 -32.5t111.5 32.5t35.5 77.5t-37.5 76t-108.5 31zM379 -268q94 0 139 42t45 97t-53 92t-130 37t-130 -37t-53 -92t44 -97t138 -42zM655 225q0 -113 -102 -168v-4q139 -61 139 -207q0 -92 -76.5 -161.5t-236.5 -69.5
t-235.5 69.5t-75.5 161.5q0 150 137 209v4q-100 55 -101 166q0 84 68 151.5t208 67.5t207.5 -67.5t67.5 -151.5z" />
    <glyph glyph-name="nineinferior" unicode="&#x2089;" 
d="M361.5 319q-74.5 0 -117.5 -43t-43 -102t35.5 -105t115.5 -46q123 0 193 81q-13 125 -61 170t-122.5 45zM68 174q0 117 78.5 193.5t211.5 76.5q319 0 320 -413q0 -182 -90 -299t-248 -117q-121 0 -221 63v132h8q94 -66 194.5 -66t159 62.5t68.5 164.5h-4
q-80 -72 -205 -71.5t-198.5 79t-73.5 195.5z" />
    <glyph glyph-name="parenleftinferior" unicode="&#x208d;" horiz-adv-x="501" 
d="M424 553v-6q-174 -236 -174 -516.5t174 -515.5v-7h-137q-166 231 -166 522.5t166 522.5h137z" />
    <glyph glyph-name="parenrightinferior" unicode="&#x208e;" horiz-adv-x="501" 
d="M78 553h137q166 -231 166 -522t-166 -523h-137v7q174 236 174 516t-174 516v6z" />
    <glyph glyph-name="colonmonetary" unicode="&#x20a1;" horiz-adv-x="1417" 
d="M686 172l361 1071q-68 18 -144 25l-352 -1051q55 -29 135 -45zM276 715q0 -295 193 -447l338 1004q-254 -6 -392.5 -161t-138.5 -396zM825 158q244 0 457 139h10v-184q-221 -133 -485 -133q-31 0 -88 4l-66 -199h-98l72 215q-70 16 -135 43l-86 -258h-99l103 303
q-150 92 -235 254t-85 373q0 336 202 535.5t515 199.5q41 0 59 -2l68 197h96l-69 -207q82 -14 139 -33l82 240h96l-92 -273q55 -23 106 -55v-184h-8q-70 49 -151 79l-355 -1052q16 -2 47 -2z" />
    <glyph glyph-name="frenchfranc" unicode="&#x20a3;" horiz-adv-x="1306" 
d="M1217 1255h-760v-452h688v-174h-688v-228h405v-92h-405v-309h-187v309h-176v92h176v1029h947v-175z" />
    <glyph glyph-name="lira" unicode="&#x20a4;" horiz-adv-x="1236" 
d="M920 160q115 0 210 67h9v-182q-123 -66 -223.5 -65.5t-217 46.5t-204.5 46q-141 0 -252 -92l-113 94q221 199 238 420h-269v92h264q-6 37 -26 116h-238v93h207q-41 139 -41 233q0 197 136.5 309.5t339 112.5t358.5 -78v-184h-11q-141 82 -316 82t-247.5 -67.5t-72.5 -158
t49 -249.5h422v-93h-396q16 -61 23 -116h373v-92h-373q-10 -139 -84 -252l51 2q82 0 207 -42t197 -42z" />
    <glyph glyph-name="uni20A6" unicode="&#x20a6;" horiz-adv-x="1806" 
d="M1339 524h-194l190 -270h4v270zM465 1178v-273h197l-193 273h-4zM1339 616v197h-397l139 -197h258zM465 616h399l-139 197h-260v-197zM1704 813h-178v-197h178v-92h-178v-524h-230l-366 524h-465v-524h-186v524h-177v92h177v197h-177v92h177v525h229l369 -525h462v525
h187v-525h178v-92z" />
    <glyph glyph-name="peseta" unicode="&#x20a7;" horiz-adv-x="2222" 
d="M2095 885h-297v-619q0 -86 49 -106q37 -16 98.5 -16.5t135.5 32.5h14v-151q-86 -45 -184 -45q-299 0 -299 270v635h-195v12l381 373v-226h297v-159zM739 696q209 0 294 80t85 199t-85 198.5t-294 79.5h-354v-557h354zM758 1430q147 0 257.5 -40t171 -108t89.5 -144.5
t29 -162.5t-29 -163t-89.5 -144.5t-171 -107.5t-257.5 -40h-373v-520h-186v1430h559z" />
    <glyph glyph-name="rupee" unicode="&#x20a8;" horiz-adv-x="2408" 
d="M1698 754.5q0 -60.5 63.5 -93t154.5 -52t181 -48.5t153.5 -98.5t63.5 -190t-103.5 -206.5t-307 -86t-371.5 92v178h10q166 -98 365 -98q227 0 227 145q0 47 -63.5 76.5t-153.5 50t-180 49.5t-153.5 96.5t-63.5 171.5q0 143 103 233.5t281.5 90.5t331.5 -57v-170h-14
q-137 57 -268 57t-193.5 -40t-62.5 -100.5zM760 733q176 0 279.5 69.5t103.5 194.5t-89 190.5t-304 65.5h-361v-520h371zM1307 176v-49q0 -66 34 -119v-8h-192q-29 47 -29 111v32q0 188 -39 258q-18 37 -49 78q-63 78 -219 78h-424v-557h-186v1430h569q279 0 418 -115
t139 -301q0 -125 -67.5 -224.5t-196.5 -144.5v-4q242 -64 242 -465z" />
    <glyph glyph-name="uni20A9" unicode="&#x20a9;" horiz-adv-x="2211" 
d="M1171 905l-63 203h-4l-66 -203h133zM737 524h-157l77 -245h5zM1630 524h-157l77 -245h4zM948 616h316l-64 197h-190zM1659 616l63 197h-342l64 -197h215zM487 813l64 -197h217l61 197h-342zM2089 905v-92h-178l-64 -197h242v-92h-272l-170 -524h-187l-168 524h-374
l-164 -524h-187l-172 524h-272v92h242l-64 197h-178v92h147l-170 525h195l164 -525h399l168 525h162l164 -525h399l166 525h197l-172 -525h147z" />
    <glyph glyph-name="dong" unicode="&#x20ab;" horiz-adv-x="1093" 
d="M874 72h-718v125h718v-125zM533.5 946q-117.5 0 -182 -65.5t-64.5 -179t64.5 -179t183 -65.5t184.5 106v279q-68 104 -185.5 104zM977 1278v-107h-105v-837h-135l-18 92h-4q-90 -106 -231.5 -106.5t-247 104t-105.5 277.5t105.5 278.5t246 105.5t232.5 -106h4v192h-189
v107h189v113h153v-113h105z" />
    <glyph glyph-name="Euro" unicode="&#x20ac;" horiz-adv-x="1396" 
d="M958 -20q-238 0 -410.5 135t-242.5 354h-209v149h176q-8 61 -8 94t8 99h-176v147h209q70 221 243 356.5t410 135.5q184 0 338 -86l-47 -156q-127 66 -284.5 66t-281.5 -85t-183 -231h676l-43 -147h-676q-6 -45 -6 -96t6 -97h618l-43 -149h-532q59 -143 183 -228
t279.5 -85t286.5 63l47 -153q-154 -86 -338 -86z" />
    <glyph glyph-name="centigrade" unicode="&#x2103;" horiz-adv-x="2103" 
d="M1491 1272q-254 0 -397.5 -155.5t-143.5 -401.5t143.5 -401.5t397.5 -155.5t465 139h10v-184q-221 -133 -485 -133q-313 0 -515 199.5t-202 535.5t201.5 535.5t515.5 199.5q264 0 485 -133v-184h-10q-211 139 -465 139zM340 995q72 0 123 51.5t51 123t-51 122.5t-123 51
t-123 -51t-51 -122.5t51 -123t123 -51.5zM341 1450q116 0 198 -82t82 -197.5t-82 -198.5t-198 -83t-199 83t-83 198.5t83 197.5t199 82z" />
    <glyph glyph-name="fahrenheit" unicode="&#x2109;" horiz-adv-x="1900" 
d="M848 1430h967v-175h-781v-452h709v-174h-709v-629h-186v1430zM342 995q72 0 123 51.5t51 123t-51 122.5t-123 51t-123 -51t-51 -122.5t51 -123t123 -51.5zM343 1450q116 0 198 -82t82 -197.5t-82 -198.5t-198 -83t-199 83t-83 198.5t83 197.5t199 82z" />
    <glyph glyph-name="uni2113" unicode="&#x2113;" horiz-adv-x="1034" 
d="M436 1085v-499h4q281 264 281 571q0 53 -34 96t-93 43q-158 0 -158 -211zM598 -20q-158 0 -237.5 88t-88.5 245q-86 -49 -157 -80l-21 -8l-31 99q90 41 205 120v621q0 205 95.5 295t225.5 90t206.5 -86t76.5 -217q0 -418 -436 -729v-29q0 -186 80 -233q39 -23 98 -23
q152 0 254 115l99 -90q-143 -178 -369 -178z" />
    <glyph glyph-name="uni2116" unicode="&#x2116;" horiz-adv-x="2260" 
d="M1438 180h714v-141h-714v141zM1796 905q-72 0 -126 -52t-54 -159.5t54 -162t126 -54.5t126 54.5t54 162t-54 159.5t-126 52zM1796 338q-154 0 -248 97t-94 256t93 256t248 97t248 -96t93 -256t-93 -257t-247 -97zM201 1329h209l677 -1059h5v1059h178v-1329h-211
l-676 1069h-4v-1069h-178v1329z" />
    <glyph glyph-name="published" unicode="&#x2117;" horiz-adv-x="1677" 
d="M889 713q188 0 188 144t-188 144h-174v-288h174zM899 1122q164 0 239.5 -77.5t75.5 -187t-75.5 -187.5t-239.5 -78h-184v-285h-137v815h321zM839 86q259 0 444 184.5t185 444.5t-185 444t-444 184t-443.5 -184t-184.5 -443t184.5 -444.5t443.5 -185.5zM840 1450
q303 0 519 -215t216 -520t-216 -520t-519 -215t-519.5 215t-216.5 520t216.5 520t519.5 215z" />
    <glyph glyph-name="servicemark" unicode="&#x2120;" horiz-adv-x="1892" 
d="M1718 1430v-771h-131v586h-2l-246 -586h-116l-248 586h-2v-586h-131v771h178l258 -621h4l258 621h178zM279 1217.5q0 -46.5 46 -72t112.5 -39.5t133 -34.5t112.5 -71t46 -143.5t-85 -151.5t-215 -58.5t-269 64v127h10q119 -68 262 -68q82 0 125 29.5t43 72.5t-46 64.5
t-112.5 37t-133 38t-112.5 72t-46 137.5t76.5 155.5t204.5 67.5t245 -41v-121h-12q-98 41 -195.5 41t-143.5 -29.5t-46 -76z" />
    <glyph glyph-name="trademark" unicode="&#x2122;" horiz-adv-x="1951" 
d="M1765 1430v-771h-131v586h-2l-246 -586h-116l-248 586h-2v-586h-131v771h178l258 -621h4l258 621h178zM127 1311v119h639v-119h-256v-652h-129v652h-254z" />
    <glyph glyph-name="Omega" unicode="&#x2126;" horiz-adv-x="1617" 
d="M1497 160v-160h-539v154q111 47 218 161q59 66 96 174.5t37 243.5q0 219 -136.5 375t-363.5 156t-363.5 -156t-136.5 -375q0 -135 37 -243.5t96 -174.5q106 -115 217 -161v-154h-538v160h274v2q-254 209 -254 594q0 170 78 326.5t234.5 262t355.5 105.5t355.5 -105.5
t234.5 -262t78 -326.5q0 -381 -254 -594v-2h274z" />
    <glyph glyph-name="estimated" unicode="&#x212e;" horiz-adv-x="1792" 
d="M1417 735v439q-205 225 -513 225t-513 -225v-439h1026zM1704 735v-41h-1313v-438q209 -225 514 -225q162 0 303.5 68.5t237.5 189.5h110q-111 -143 -282.5 -226t-368.5 -83q-332 0 -566.5 215t-234.5 520t234.5 520t563.5 215t565.5 -210t236.5 -505z" />
    <glyph glyph-name="oneseventh" unicode="&#x2150;" horiz-adv-x="1925" 
d="M434 756h154v-121h-457v121h172v528h-8l-156 -76v135l185 97h110v-684zM1434 1454l-899 -1483h-164l899 1483h164zM1241 805h582v-109l-338 -696h-152l334 670v8h-426v127z" />
    <glyph glyph-name="onethird" unicode="&#x2153;" horiz-adv-x="1925" 
d="M1757 600q0 -133 -123 -182v-4q152 -47 152 -197q0 -98 -73 -163.5t-223.5 -65.5t-264.5 57v127h10q104 -57 233 -57q188 0 189 106q0 127 -230 127h-73v123h59q217 0 217 119q0 102 -160 102q-129 0 -227 -67h-10v123q121 70 254 69.5t201.5 -61t68.5 -156.5zM459 756
h153v-121h-456v121h172v528h-9l-155 -76v135l184 97h111v-684zM1458 1454l-899 -1483h-164l899 1483h164z" />
    <glyph glyph-name="twothirds" unicode="&#x2154;" horiz-adv-x="1925" 
d="M1802 600q0 -133 -123 -182v-4q152 -47 152 -197q0 -98 -72.5 -163.5t-223.5 -65.5t-265 57v127h10q104 -57 233 -57q188 0 189 106q0 127 -229 127h-74v123h59q217 0 217 119q0 102 -159 102q-129 0 -228 -67h-10v123q121 70 254 69.5t201.5 -61t68.5 -156.5zM1503 1454
l-899 -1483h-164l899 1483h164zM676 1225q0 -90 -57.5 -164t-126.5 -119q-213 -135 -244 -180v-6h416v-121h-562v80q0 80 70 152.5t152 119.5q223 123 223 217q0 123 -157 123t-251 -80h-8v133q123 72 257 72t211 -68.5t77 -158.5z" />
    <glyph glyph-name="onefifth" unicode="&#x2155;" horiz-adv-x="1925" 
d="M430 756h154v-121h-457v121h172v528h-8l-156 -76v135l184 97h111v-684zM1430 1454l-900 -1483h-163l899 1483h164zM1495 520q135 0 204.5 -76.5t69.5 -194.5t-83.5 -189.5t-237.5 -71.5t-262 82v141h6q115 -96 234.5 -96t165.5 35.5t46 107.5t-48 104.5t-107 32.5
q-121 0 -197 -69l-104 47l63 432h471v-123h-360l-27 -195h6q66 33 160 33z" />
    <glyph glyph-name="twofifths" unicode="&#x2156;" horiz-adv-x="1925" 
d="M1544 520q135 0 205 -76.5t70 -194.5t-84 -189.5t-238 -71.5t-262 82v141h6q115 -96 234.5 -96t166 35.5t46.5 107.5t-48.5 104.5t-107.5 32.5q-121 0 -197 -69l-104 47l63 432h471v-123h-360l-27 -195h6q66 33 160 33zM651 1225q0 -90 -57 -164t-127 -119
q-213 -135 -244 -180v-6h416v-121h-561v80q0 80 69.5 152.5t151.5 119.5q223 123 223 217q0 123 -156.5 123t-250.5 -80h-9v133q123 72 257.5 72t211 -68.5t76.5 -158.5zM1479 1454l-899 -1483h-164l899 1483h164z" />
    <glyph glyph-name="threefifths" unicode="&#x2157;" horiz-adv-x="1925" 
d="M627 1235q0 -133 -123 -182v-4q152 -47 151 -197q0 -98 -72.5 -163.5t-223 -65.5t-265.5 57v127h10q104 -57 234 -57q188 0 188 106q0 127 -229 127h-74v123h60q217 0 217 119q0 102 -160 102q-129 0 -227 -67h-11v122q121 70 254 70t202 -60.5t69 -156.5zM1524 520
q135 0 204.5 -76.5t69.5 -194.5t-84 -189.5t-237.5 -71.5t-262.5 82v141h7q115 -96 234.5 -96t165.5 35.5t46 107.5t-48 104.5t-108 32.5q-121 0 -196 -69l-105 47l64 432h471v-123h-361l-26 -195h6q66 33 160 33zM1458 1454l-899 -1483h-164l899 1483h164z" />
    <glyph glyph-name="fourfifths" unicode="&#x2158;" horiz-adv-x="1925" 
d="M1559 520q135 0 204.5 -76.5t69.5 -194.5t-84 -189.5t-237.5 -71.5t-262.5 82v141h6q115 -96 235 -96t166 35.5t46 107.5t-48 104.5t-108 32.5q-121 0 -196 -69l-105 47l64 432h471v-123h-361l-26 -195h6q66 33 160 33zM1493 1454l-899 -1483h-164l899 1483h164zM449 952
v322h-5l-243 -318v-4h248zM580 952h125v-121h-125v-196h-131v196h-398v115l385 494h144v-488z" />
    <glyph glyph-name="onesixth" unicode="&#x2159;" horiz-adv-x="1925" 
d="M436 756h154v-121h-457v121h172v528h-8l-156 -76v135l185 97h110v-684zM1436 1454l-899 -1483h-164l899 1483h164zM1469.5 113q74.5 0 117.5 43t43 102t-35.5 105.5t-115.5 46.5q-123 0 -193 -82q12 -125 60.5 -170t123 -45zM1763 258q0 -117 -78.5 -193.5t-211.5 -76.5
q-319 0 -320 413q0 182 90 299t248 117q121 0 221 -63v-131h-8q-94 66 -194.5 65.5t-159 -63t-68.5 -164.5h4q80 72 205 71.5t198.5 -79t73.5 -195.5z" />
    <glyph glyph-name="fivesixths" unicode="&#x215a;" horiz-adv-x="1925" 
d="M1518.5 113q74.5 0 117.5 43t43 102t-35.5 105.5t-115.5 46.5q-123 0 -193 -82q13 -125 61 -170t122.5 -45zM1812 258q0 -117 -78.5 -193.5t-211.5 -76.5q-319 0 -320 413q0 182 90 299t248 117q121 0 221 -63v-131h-8q-94 66 -194.5 65.5t-159 -63t-68.5 -164.5h4
q80 72 205 71.5t198.5 -79t73.5 -195.5zM1485 1454l-899 -1483h-164l899 1483h164zM401 1155q135 0 205 -77t70 -194.5t-84 -189t-237.5 -71.5t-262.5 82v141h6q115 -96 235 -96t166 35.5t46 107.5t-48 104.5t-108 32.5q-121 0 -196 -69l-105 47l64 432h471v-123h-361
l-26 -195h6q65 33 159 33z" />
    <glyph glyph-name="oneeighth" unicode="&#x215b;" horiz-adv-x="1925" 
d="M1490 698q-71 0 -109 -30.5t-38 -75.5t35 -78t111 -33t111.5 33t35.5 78t-37.5 75.5t-108.5 30.5zM1489 104q94 0 139 42t45 97.5t-53 92.5t-130 37t-130 -37t-53 -92.5t44 -97.5t138 -42zM1765 598q0 -113 -102 -168v-4q139 -61 139 -207q0 -92 -76.5 -161.5
t-236.5 -69.5t-235.5 69.5t-75.5 161.5q0 150 137 209v4q-100 55 -101 166q0 84 68 151.5t208 67.5t207.5 -67.5t67.5 -151.5zM442 756h154v-121h-457v121h172v528h-8l-156 -76v135l185 97h110v-684zM1442 1454l-899 -1483h-164l899 1483h164z" />
    <glyph glyph-name="threeeighths" unicode="&#x215c;" horiz-adv-x="1925" 
d="M1518.5 698q-70.5 0 -108.5 -30.5t-38 -75.5t35 -78t110.5 -33t111.5 33t36 78t-38 75.5t-108.5 30.5zM1517.5 104q94.5 0 139.5 42t45 97.5t-53.5 92.5t-130 37t-130 -37t-53.5 -92.5t44 -97.5t138.5 -42zM1794 598q0 -113 -102 -168v-4q139 -61 139 -207
q0 -92 -77 -161.5t-236.5 -69.5t-235.5 69.5t-76 161.5q0 150 137 209v4q-100 55 -100 166q0 84 67.5 151.5t208 67.5t208 -67.5t67.5 -151.5zM639 1235q0 -133 -123 -182v-4q152 -47 152 -197q0 -98 -73 -163.5t-223.5 -65.5t-265.5 57v127h11q104 -57 233 -57
q188 0 189 106q0 127 -230 127h-73v123h59q217 0 217 119q0 102 -160 102q-129 0 -227 -67h-10v122q121 70 254 70t201.5 -60.5t68.5 -156.5zM1470 1454l-899 -1483h-163l899 1483h163z" />
    <glyph glyph-name="fiveeighths" unicode="&#x215d;" horiz-adv-x="1925" 
d="M1531 698q-71 0 -109 -30.5t-38 -75.5t35 -78t111 -33t111.5 33t35.5 78t-37.5 75.5t-108.5 30.5zM1530 104q94 0 139 42t45 97.5t-53 92.5t-130 37t-130 -37t-53 -92.5t44 -97.5t138 -42zM1806 598q0 -113 -102 -168v-4q139 -61 139 -207q0 -92 -76.5 -161.5
t-236.5 -69.5t-235.5 69.5t-75.5 161.5q0 150 137 209v4q-100 55 -101 166q0 84 68 151.5t208 67.5t207.5 -67.5t67.5 -151.5zM1483 1454l-899 -1483h-164l899 1483h164zM410 1155q135 0 204.5 -77t69.5 -194.5t-84 -189t-237.5 -71.5t-262.5 82v141h6q115 -96 235 -96
t166 35.5t46 107.5t-48 104.5t-108 32.5q-121 0 -196 -69l-105 47l64 432h471v-123h-361l-26 -195h6q66 33 160 33z" />
    <glyph glyph-name="seveneighths" unicode="&#x215e;" horiz-adv-x="1925" 
d="M1475.5 698q-70.5 0 -108.5 -30.5t-38 -75.5t35 -78t110.5 -33t111.5 33t36 78t-38 75.5t-108.5 30.5zM1474.5 104q94.5 0 139.5 42t45 97.5t-53.5 92.5t-130 37t-130 -37t-53.5 -92.5t44 -97.5t138.5 -42zM1751 598q0 -113 -102 -168v-4q139 -61 139 -207
q0 -92 -77 -161.5t-236.5 -69.5t-235.5 69.5t-76 161.5q0 150 137 209v4q-100 55 -100 166q0 84 67.5 151.5t208 67.5t208 -67.5t67.5 -151.5zM1427 1454l-899 -1483h-163l899 1483h163zM123 1440h582v-109l-338 -696h-152l334 670v8h-426v127z" />
    <glyph glyph-name="uni2190" unicode="&#x2190;" horiz-adv-x="1710" 
d="M512 825h1049v-163h-1049v-277l-365 358l365 359v-277z" />
    <glyph glyph-name="uni2191" unicode="&#x2191;" horiz-adv-x="1710" 
d="M936 981v-1049h-164v1049h-276l358 365l358 -365h-276z" />
    <glyph glyph-name="uni2192" unicode="&#x2192;" horiz-adv-x="1710" 
d="M1196 825v277l365 -359l-365 -358v277h-1049v163h1049z" />
    <glyph glyph-name="uni2193" unicode="&#x2193;" horiz-adv-x="1710" 
d="M936 297h276l-358 -365l-358 365h276v1049h164v-1049z" />
    <glyph glyph-name="uni2196" unicode="&#x2196;" horiz-adv-x="1710" 
d="M838 1024l-195 -197l741 -741l-116 -115l-742 742l-196 -197l-4 512z" />
    <glyph glyph-name="uni2197" unicode="&#x2197;" horiz-adv-x="1710" 
d="M1067 827l-195 197l512 4l-4 -512l-196 197l-742 -742l-116 115z" />
    <glyph glyph-name="uni2198" unicode="&#x2198;" horiz-adv-x="1710" 
d="M872 -25l195 197l-741 741l116 115l742 -741l196 196l4 -512z" />
    <glyph glyph-name="uni2199" unicode="&#x2199;" horiz-adv-x="1710" 
d="M643 172l195 -197l-512 -4l4 512l196 -196l742 741l116 -115z" />
    <glyph glyph-name="partialdiff" unicode="&#x2202;" horiz-adv-x="1402" 
d="M594 143q217 0 334 152q92 117 131 283q-66 88 -168.5 143t-220.5 55q-176 0 -287 -89t-111 -228.5t84 -227.5t238 -88zM725 1544q262 0 405.5 -192.5t143.5 -464.5q0 -412 -179.5 -659.5t-514.5 -247.5q-129 0 -228.5 40.5t-154.5 108.5q-111 135 -111 297
q0 217 157.5 360.5t411.5 143.5q125 0 237 -52.5t189 -129.5h4q35 279 -70.5 449.5t-285.5 170.5t-311 -47h-17v164q160 59 324 59z" />
    <glyph glyph-name="Delta" unicode="&#x2206;" horiz-adv-x="1476" 
d="M301 145h875v11l-435 1091h-4l-436 -1091v-11zM840 1430l569 -1430h-1341l569 1430h203z" />
    <glyph glyph-name="product" unicode="&#x220f;" horiz-adv-x="1517" 
d="M1434 1430v-177h-230v-1478h-176v1478h-539v-1478h-176v1478h-229v177h1350z" />
    <glyph glyph-name="summation" unicode="&#x2211;" horiz-adv-x="1292" 
d="M1198 1251h-870v-4l575 -633v-12l-575 -631v-4h870v-178h-1104v180l576 639l-576 641v181h1104v-179z" />
    <glyph glyph-name="minus" unicode="&#x2212;" horiz-adv-x="1458" 
d="M1298 594h-1138v166h1138v-166z" />
    <glyph glyph-name="radical" unicode="&#x221a;" horiz-adv-x="1269" 
d="M1274 1430v-109h-227l-422 -1321h-148l-262 713l-154 -60l-43 111l293 115l232 -662h2l403 1213h326z" />
    <glyph glyph-name="infinity" unicode="&#x221e;" horiz-adv-x="1972" 
d="M297 522.5q0 -104.5 65.5 -180.5t193.5 -75.5t226 98.5q63 63 131 157q-133 186 -237 232q-59 25 -127 24q-121 0 -186.5 -75.5t-65.5 -180zM1675 522.5q0 104.5 -65.5 180t-173.5 75.5t-192 -54q-85 -54 -185 -202q73 -97 131 -157q98 -98 226 -98.5t193.5 75.5
t65.5 180.5zM1460 936q94 0 175 -40t123 -105.5t61.5 -132t19.5 -136t-19.5 -136.5t-61.5 -132.5t-123 -105t-210 -39.5t-233.5 76.5t-202.5 209.5h-6q-94 -129 -200.5 -207.5t-235.5 -78.5t-210 39.5t-123 105t-61.5 132.5t-19.5 136.5t19.5 136t61.5 132t123 105.5t210 40
t234.5 -79t201.5 -208h6q164 215 307 264q70 23 164 23z" />
    <glyph glyph-name="integral" unicode="&#x222b;" horiz-adv-x="759" 
d="M614 1626q57 0 123 -16l-10 -150q-39 14 -91 14.5t-83 -22t-37 -94.5l-96 -1395q-8 -119 -74.5 -191.5t-198.5 -72.5q-59 0 -122 18l8 148q49 -12 97 -12t79 21.5t35 92.5l98 1395q6 121 72.5 192.5t199.5 71.5z" />
    <glyph glyph-name="approxequal" unicode="&#x2248;" horiz-adv-x="1382" 
d="M955.5 637q-103.5 0 -279.5 77t-248 77q-127 0 -156 -138l-112 27q29 121 99.5 182.5t174 61.5t279.5 -77t248 -77q126 0 155 137l113 -26q-29 -121 -99.5 -182.5t-174 -61.5zM955.5 258q-103.5 0 -279.5 78t-248 78q-127 0 -156 -140l-112 27q29 121 99.5 183.5
t174 62.5t279.5 -78t248 -78q126 0 155 139l113 -26q-29 -121 -99.5 -183.5t-174 -62.5z" />
    <glyph glyph-name="notequal" unicode="&#x2260;" horiz-adv-x="1409" 
d="M1270 827h-402l-186 -292v-7h588v-159h-692l-199 -314l-103 66l154 241v7h-299v159h404l184 293v6h-588v160h692l197 311l104 -65l-151 -240v-6h297v-160z" />
    <glyph glyph-name="lessequal" unicode="&#x2264;" horiz-adv-x="1290" 
d="M129 0v150h995v-150h-995zM1124 1196v-180l-782 -295v-4l782 -295v-180l-995 395v164z" />
    <glyph glyph-name="greaterequal" unicode="&#x2265;" horiz-adv-x="1290" 
d="M1161 150v-150h-995v150h995zM166 1016v180l995 -395v-164l-995 -395v180l782 295v4z" />
    <glyph glyph-name="lozenge" unicode="&#x25ca;" horiz-adv-x="1282" 
d="M643 -45l387 657l-387 658h-4l-387 -658l387 -657h4zM719 1430l491 -818l-491 -817h-156l-491 817l491 818h156z" />
    <glyph glyph-name="smileface" unicode="&#x263a;" horiz-adv-x="1527" 
d="M1030 795h-153v153h153v-153zM649 795h-153v153h153v-153zM764 248q-141 0 -251 88t-140 223h106q29 -92 108 -150.5t177 -58.5t176 58.5t107 150.5h106q-29 -135 -138.5 -223t-250.5 -88zM762.5 80q232.5 0 397.5 165t165 397t-165 397t-397.5 165t-397 -165
t-164.5 -397t164.5 -397t397 -165zM763.5 1305q274.5 0 468 -195t193.5 -468t-194.5 -467.5t-468 -194.5t-468 193.5t-194.5 467.5t194.5 469t469 195z" />
    <glyph glyph-name="invsmileface" unicode="&#x263b;" horiz-adv-x="1529" 
d="M766 248q141 0 250.5 88t138.5 223h-106q-29 -92 -107 -150.5t-176 -58.5t-177 58.5t-108 150.5h-106q31 -135 140.5 -223t250.5 -88zM498 948v-153h153v153h-153zM879 948v-153h153v153h-153zM766 1305q274 0 467.5 -195t193.5 -469t-193.5 -467.5t-467.5 -193.5
t-469 193.5t-195 467.5t195 469t469 195z" />
    <glyph glyph-name="s_t" unicode="&#xfb06;" horiz-adv-x="1724" 
d="M1651 885h-297v-619q0 -86 43 -104q108 -45 239 14h15v-151q-86 -45 -185 -45q-299 0 -299 270v635h-194v159h194v173q0 96 -54 163.5t-164.5 67.5t-176 -61.5t-65.5 -169.5q0 -135 116 -209v-170h-14q-137 57 -268 57t-193.5 -40t-62.5 -100.5t63.5 -93t154.5 -52
t181 -48.5t153.5 -98.5t63.5 -190t-103.5 -206.5t-307 -86t-371.5 92v178h10q166 -98 365 -98q227 0 227 145q0 47 -63.5 76.5t-153.5 50t-180.5 49.5t-154 96.5t-63.5 171.5q0 143 103.5 233.5t296.5 90.5q72 0 158 -14q-55 76 -56 180q0 158 99.5 256t273.5 98
t273.5 -113.5t99.5 -275.5v-152h297v-159z" />
    <glyph glyph-name="twosevenths" horiz-adv-x="1925" 
d="M1286 805h582v-109l-338 -696h-152l334 670v8h-426v127zM651 1225q0 -90 -57 -164t-127 -119q-213 -135 -244 -180v-6h416v-121h-561v80q0 80 69.5 152.5t151.5 119.5q223 123 223 217q0 123 -156.5 123t-250.5 -80h-9v133q123 72 257.5 72t211 -68.5t76.5 -158.5z
M1479 1454l-899 -1483h-164l899 1483h164z" />
    <glyph glyph-name="threesevenths" horiz-adv-x="1925" 
d="M631 1235q0 -133 -123 -182v-4q152 -47 151 -197q0 -98 -72.5 -163.5t-223 -65.5t-265.5 57v127h11q104 -57 233 -57q188 0 188 106q0 127 -229 127h-74v123h60q217 0 217 119q0 102 -160 102q-129 0 -227 -67h-11v122q121 70 254.5 70t202 -60.5t68.5 -156.5zM1270 805
h581v-109l-338 -696h-151l334 670v8h-426v127zM1462 1454l-899 -1483h-164l899 1483h164z" />
    <glyph glyph-name="foursevenths" horiz-adv-x="1925" 
d="M1290 805h582v-109l-338 -696h-152l334 670v8h-426v127zM438 952v322h-4l-244 -318v-4h248zM569 952h125v-121h-125v-196h-131v196h-397v115l385 494h143v-488zM1483 1454l-899 -1483h-164l899 1483h164z" />
    <glyph glyph-name="fivesevenths" horiz-adv-x="1925" 
d="M1286 805h582v-109l-338 -696h-152l334 670v8h-426v127zM395 1155q135 0 205 -77t70 -194.5t-84 -189t-237.5 -71.5t-262.5 82v141h6q115 -96 234.5 -96t166 35.5t46.5 107.5t-48.5 104.5t-107.5 32.5q-121 0 -197 -69l-104 47l63 432h471v-123h-360l-27 -195h7
q65 33 159 33zM1479 1454l-899 -1483h-164l899 1483h164z" />
    <glyph glyph-name="sixsevenths" horiz-adv-x="1925" 
d="M1288 805h582v-109l-338 -696h-152l334 670v8h-426v127zM1481 1454l-899 -1483h-164l899 1483h164zM384 748q75 0 118 43t43 102t-36 105t-116 46q-123 0 -192 -81q12 -125 60 -170t123 -45zM678 893q0 -117 -79 -193.5t-212 -76.5q-319 0 -319 413q0 182 90 299t248 117
q121 0 221 -63v-132h-9q-94 66 -194 66t-158.5 -62.5t-68.5 -164.5h4q80 72 204.5 71.5t198.5 -79t74 -195.5z" />
    <glyph glyph-name="oneninth" horiz-adv-x="1925" 
d="M455 756h153v-121h-456v121h172v528h-9l-155 -76v135l184 97h111v-684zM1454 1454l-899 -1483h-164l899 1483h164zM1473.5 692q-74.5 0 -117.5 -43t-43 -102.5t35.5 -105.5t115.5 -46q123 0 193 82q-12 125 -60.5 170t-123 45zM1452 272q-125 0 -198.5 79t-73.5 196
t78.5 193.5t211.5 76.5q319 0 320 -414q0 -182 -90 -298.5t-248 -116.5q-121 0 -221 63v131h8q94 -66 194.5 -65.5t159 63t68.5 164.5h-4q-80 -72 -205 -72z" />
    <glyph glyph-name="twoninths" horiz-adv-x="1925" 
d="M1518.5 692q-74.5 0 -117.5 -43t-43 -102.5t36 -105.5t115 -46q123 0 193 82q-12 125 -60.5 170t-123 45zM1497 272q-125 0 -198.5 79t-73.5 196t78.5 193.5t212.5 76.5q319 0 319 -414q0 -182 -90 -298.5t-248 -116.5q-121 0 -221 63v131h8q94 -66 194.5 -65.5t159 63
t68.5 164.5h-4q-80 -72 -205 -72zM672 1225q0 -90 -57.5 -164t-127.5 -119q-213 -135 -243 -180v-6h415v-121h-561v80q0 80 70 152.5t151 119.5q223 123 224 217q0 123 -157 123t-251 -80h-8v133q123 72 257 72t211 -68.5t77 -158.5zM1499 1454l-899 -1483h-164l899 1483
h164z" />
    <glyph glyph-name="fourninths" horiz-adv-x="1925" 
d="M1522.5 692q-74.5 0 -117.5 -43t-43 -102.5t36 -105.5t115 -46q123 0 193 82q-12 125 -60.5 170t-123 45zM1501 272q-125 0 -198.5 79t-73.5 196t78.5 193.5t212.5 76.5q319 0 319 -414q0 -182 -90 -298.5t-248 -116.5q-121 0 -221 63v131h8q94 -66 194.5 -65.5t159 63
t68.5 164.5h-4q-80 -72 -205 -72zM459 952v322h-4l-244 -318v-4h248zM590 952h125v-121h-125v-196h-131v196h-398v115l385 494h144v-488zM1503 1454l-899 -1483h-164l899 1483h164z" />
    <glyph glyph-name="fiveninths" horiz-adv-x="1925" 
d="M416 1155q135 0 204.5 -77t69.5 -194.5t-84 -189t-237.5 -71.5t-262.5 82v141h7q115 -96 234.5 -96t165.5 35.5t46 107.5t-48 104.5t-108 32.5q-121 0 -196 -69l-105 47l64 432h471v-123h-361l-26 -195h6q66 33 160 33zM1518.5 692q-74.5 0 -117.5 -43t-43 -102.5
t36 -105.5t115 -46q123 0 193 82q-12 125 -60.5 170t-123 45zM1497 272q-125 0 -198.5 79t-73.5 196t78.5 193.5t212.5 76.5q319 0 319 -414q0 -182 -90 -298.5t-248 -116.5q-121 0 -221 63v131h8q94 -66 194.5 -65.5t159 63t68.5 164.5h-4q-80 -72 -205 -72zM1499 1454
l-899 -1483h-164l899 1483h164z" />
    <glyph glyph-name="sevenninths" horiz-adv-x="1925" 
d="M133 1440h582v-109l-338 -696h-152l334 670v8h-426v127zM1457 692q-75 0 -118 -43t-43 -102.5t36 -105.5t116 -46q123 0 192 82q-12 125 -60 170t-123 45zM1435.5 272q-124.5 0 -198.5 79t-74 196t79 193.5t212 76.5q319 0 320 -414q0 -182 -90.5 -298.5t-247.5 -116.5
q-121 0 -222 63v131h9q94 -66 194.5 -65.5t158.5 63t69 164.5h-5q-80 -72 -204.5 -72zM1438 1454l-899 -1483h-164l899 1483h164z" />
    <glyph glyph-name="eightninths" horiz-adv-x="1925" 
d="M400.5 1333q-70.5 0 -108.5 -30.5t-38 -75.5t35 -78t110.5 -33t111.5 33t36 78t-38 75.5t-108.5 30.5zM399.5 739q94.5 0 139.5 42t45 97.5t-53.5 92.5t-130 37t-130 -37t-53.5 -92.5t44 -97.5t138.5 -42zM676 1233q0 -113 -103 -168v-4q139 -61 140 -207
q0 -92 -77 -161.5t-236.5 -69.5t-235.5 69.5t-76 161.5q0 150 137 209v4q-100 55 -100 166q0 84 67.5 151.5t208 67.5t208 -67.5t67.5 -151.5zM1520.5 692q-74.5 0 -117.5 -43t-43 -102.5t36 -105.5t115 -46q123 0 193 82q-12 125 -60.5 170t-123 45zM1499 272
q-125 0 -198.5 79t-73.5 196t78.5 193.5t212.5 76.5q319 0 319 -414q0 -182 -90 -298.5t-248 -116.5q-121 0 -221 63v131h8q94 -66 194.5 -65.5t159 63t68.5 164.5h-4q-80 -72 -205 -72zM1501 1454l-899 -1483h-164l899 1483h164z" />
    <glyph glyph-name="zero.taboldstyle" horiz-adv-x="1306" 
d="M653 150q178 0 272.5 111.5t94.5 312t-94.5 312t-272.5 111.5t-272 -111.5t-94 -312t94 -312t272 -111.5zM653.5 1161q274.5 0 411.5 -163.5t137 -425t-137 -425t-411.5 -163.5t-412 163.5t-137.5 425t137.5 425t412 163.5z" />
    <glyph glyph-name="one.taboldstyle" horiz-adv-x="1001" 
d="M662 168h305v-168h-861v168h373v772h-8l-348 -135v184l369 156h170v-977z" />
    <glyph glyph-name="two.taboldstyle" horiz-adv-x="1134" 
d="M1026 804q0 -122 -91 -220.5t-206 -153.5q-346 -172 -422 -258v-4h701v-168h-912v111q0 94 77 177t187.5 143.5t298 154t187.5 200.5q0 108 -83 154.5t-206 46.5q-207 0 -412 -125h-10v180q219 120 455 120t364 -150q72 -86 72 -208z" />
    <glyph glyph-name="three.taboldstyle" horiz-adv-x="1157" 
d="M1067 96q0 -186 -146.5 -288.5t-386 -102.5t-440.5 92v180h10q174 -96 404 -96q158 0 266.5 52.5t108.5 172.5q0 256 -449 256h-104v170h80q203 0 312 62.5t109 183.5q0 96 -80.5 153.5t-238.5 57.5q-225 0 -395 -110h-8v170q203 113 428 112.5t352 -95.5t127 -269
q0 -250 -240 -336v-2q197 -49 262 -205q29 -70 29 -158z" />
    <glyph glyph-name="four.taboldstyle" horiz-adv-x="1230" 
d="M772 246v682h-4l-524 -678v-4h528zM956 1145v-899h228v-166h-228v-359h-184v359h-733v176l694 889h223z" />
    <glyph glyph-name="five.taboldstyle" horiz-adv-x="1208" 
d="M653 625q225 0 349 -127t124 -333t-139 -333t-407.5 -127t-462.5 133v197h8q183 -145 399 -145t317 64t101 222q0 125 -85 199t-230 74q-221 0 -363 -119l-160 71l117 744h821v-172h-667l-62 -428h6q150 80 334 80z" />
    <glyph glyph-name="six.taboldstyle" horiz-adv-x="1263" 
d="M672 156q139 0 227 86t88 216t-78 212t-225 82q-260 0 -383 -222q54 -374 371 -374zM707 922q209 0 336.5 -130t127.5 -337t-137 -339t-364 -132q-555 0 -555 727q0 348 188 563q63 74 166.5 120t232.5 46q203 0 381 -99v-186h-10q-166 106 -356 107q-100 0 -177 -37
t-154.5 -133t-94.5 -349h4q140 179 412 179z" />
    <glyph glyph-name="seven.taboldstyle" horiz-adv-x="1056" 
d="M18 1145h1016v-164l-612 -1260h-209l616 1240v8h-811v176z" />
    <glyph glyph-name="eight.taboldstyle" horiz-adv-x="1292" 
d="M646 145q181 0 269.5 83t88.5 171q0 129 -104.5 202t-254 73t-253 -72t-103.5 -203q0 -88 88 -171t269 -83zM356 1063q0 -90 70 -156.5t220.5 -66.5t220 66.5t69.5 156.5t-75 152.5t-216 62.5t-215 -62.5t-74 -152.5zM1188 379q0 -158 -133 -276.5t-409.5 -118.5
t-409 118.5t-132.5 276.5q0 283 302 381v2q-102 35 -168 113.5t-66 207.5t115.5 243t357.5 114q127 0 223.5 -35t147.5 -90q104 -113 104 -237t-65.5 -202.5t-169.5 -113.5v-2q303 -100 303 -381z" />
    <glyph glyph-name="nine.taboldstyle" horiz-adv-x="1234" 
d="M582 989q-139 0 -227.5 -86t-88.5 -216t78 -212t225 -82q260 0 383 221q-53 375 -370 375zM547 223q-209 0 -337 130t-128 337t137 339t365 132q555 0 555 -727q0 -348 -189 -563q-63 -74 -166.5 -120t-232.5 -46q-203 0 -381 98v187h10q166 -106 357 -107q100 0 177 37
t153.5 131.5t95.5 349.5h-5q-139 -178 -411 -178z" />
    <glyph glyph-name="zero.denominator" 
d="M378 104q85 0 135 76t50 221.5t-50 222t-135 76.5t-135 -76.5t-50 -222t50 -221.5t135 -76zM377.5 817q150.5 0 234.5 -110.5t84 -304t-84 -304t-234.5 -110.5t-233.5 110.5t-83 304t83 304t233.5 110.5z" />
    <glyph glyph-name="one.denominator" 
d="M475 121h154v-121h-457v121h172v528h-8l-156 -76v136l185 96h110v-684z" />
    <glyph glyph-name="two.denominator" 
d="M662 590q0 -90 -57.5 -164t-129.5 -119q-211 -135 -242 -180v-6h416v-121h-561v80q0 80 69.5 152.5t153.5 119.5q221 123 221 217q0 123 -156.5 123t-250.5 -80h-8v133q123 72 257 72t211 -68.5t77 -158.5z" />
    <glyph glyph-name="three.denominator" 
d="M631 600q0 -133 -123 -182v-4q152 -47 151 -197q0 -98 -72.5 -163.5t-223 -65.5t-265.5 57v127h11q104 -57 233 -57q188 0 188 106q0 127 -229 127h-74v123h60q217 0 217 119q0 102 -160 102q-129 0 -227 -67h-11v123q121 70 254.5 69.5t202 -61t68.5 -156.5z" />
    <glyph glyph-name="four.denominator" 
d="M444 317v322h-4l-243 -317v-5h247zM575 317h125v-120h-125v-197h-131v197h-397v114l385 494h143v-488z" />
    <glyph glyph-name="five.denominator" 
d="M406 520q135 0 204.5 -76.5t69.5 -194.5t-84 -189.5t-237.5 -71.5t-262.5 82v141h6q115 -96 235 -96t166 35.5t46 107.5t-48 104.5t-108 32.5q-121 0 -196 -69l-105 47l64 432h471v-123h-361l-26 -195h6q66 33 160 33z" />
    <glyph glyph-name="six.denominator" 
d="M396.5 113q74.5 0 117.5 43t43 102t-36 105.5t-115 46.5q-123 0 -193 -82q12 -125 60.5 -170t123 -45zM690 258q0 -117 -79 -193.5t-212 -76.5q-319 0 -319 413q0 182 90 299t248 117q121 0 221 -63v-131h-8q-94 66 -194.5 65.5t-159 -63t-68.5 -164.5h4q80 72 205 71.5
t198.5 -79t73.5 -195.5z" />
    <glyph glyph-name="seven.denominator" 
d="M90 805h582v-109l-338 -696h-152l334 670v8h-426v127z" />
    <glyph glyph-name="eight.denominator" 
d="M378 698q-71 0 -109 -30.5t-38 -75.5t35 -78t111 -33t111.5 33t35.5 78t-37.5 75.5t-108.5 30.5zM377 104q94 0 139 42t45 97.5t-53 92.5t-130 37t-130 -37t-53 -92.5t44 -97.5t138 -42zM653 598q0 -113 -102 -168v-4q139 -61 139 -207q0 -92 -76.5 -161.5t-236.5 -69.5
t-235.5 69.5t-75.5 161.5q0 150 137 209v4q-100 55 -101 166q0 84 68 151.5t208 67.5t207.5 -67.5t67.5 -151.5z" />
    <glyph glyph-name="nine.denominator" 
d="M361.5 692q-74.5 0 -117.5 -43t-43 -102.5t35.5 -105.5t115.5 -46q123 0 193 82q-13 125 -61 170t-122.5 45zM340 272q-125 0 -198.5 79t-73.5 196t78.5 193.5t211.5 76.5q319 0 320 -414q0 -182 -90 -298.5t-248 -116.5q-121 0 -221 63v131h8q94 -66 194.5 -65.5t159 63
t68.5 164.5h-4q-80 -72 -205 -72z" />
    <glyph glyph-name="parenrightdenominator" horiz-adv-x="501" 
d="M424 926v-6q-174 -236 -174 -516.5t174 -516.5v-6h-137q-166 231 -166 522t166 523h137z" />
    <glyph glyph-name="parenleftdenominator" horiz-adv-x="501" 
d="M76 926h137q166 -231 166 -522t-166 -523h-137v6q174 236 174 516.5t-174 516.5v6z" />
    <glyph glyph-name="zero.numerator" 
d="M378 739q85 0 135 76t50 221.5t-50 222t-135 76.5t-135 -76.5t-50 -222t50 -221.5t135 -76zM377.5 1452q150.5 0 234.5 -110.5t84 -304t-84 -304t-234.5 -110.5t-233.5 110.5t-83 304t83 304t233.5 110.5z" />
    <glyph glyph-name="one.numerator" 
d="M475 756h154v-121h-457v121h172v528h-8l-156 -76v135l185 97h110v-684z" />
    <glyph glyph-name="two.numerator" 
d="M659 1225q0 -90 -57 -164t-127 -119q-213 -135 -244 -180v-6h416v-121h-561v80q0 80 69.5 152.5t151.5 119.5q223 123 223 217q0 123 -156.5 123t-250.5 -80h-8v133q123 72 257 72t210.5 -68.5t76.5 -158.5z" />
    <glyph glyph-name="three.numerator" 
d="M631 1235q0 -133 -123 -182v-4q152 -47 151 -197q0 -98 -72.5 -163.5t-223 -65.5t-265.5 57v127h11q104 -57 233 -57q188 0 188 106q0 127 -229 127h-74v123h60q217 0 217 119q0 102 -160 102q-129 0 -227 -67h-11v122q121 70 254.5 70t202 -60.5t68.5 -156.5z" />
    <glyph glyph-name="four.numerator" 
d="M444 952v322h-4l-243 -318v-4h247zM575 952h125v-121h-125v-196h-131v196h-397v115l385 494h143v-488z" />
    <glyph glyph-name="five.numerator" 
d="M406 1155q135 0 204.5 -77t69.5 -194.5t-84 -189t-237.5 -71.5t-262.5 82v141h6q115 -96 235 -96t166 35.5t46 107.5t-48 104.5t-108 32.5q-121 0 -196 -69l-105 47l64 432h471v-123h-361l-26 -195h6q66 33 160 33z" />
    <glyph glyph-name="six.numerator" 
d="M396.5 748q74.5 0 117.5 43t43 102t-36 105t-115 46q-123 0 -193 -81q12 -125 60.5 -170t123 -45zM690 893q0 -117 -79 -193.5t-212 -76.5q-319 0 -319 413q0 182 90 299t248 117q121 0 221 -63v-132h-8q-94 66 -194.5 66t-159 -62.5t-68.5 -164.5h4q80 72 205 71.5
t198.5 -79t73.5 -195.5z" />
    <glyph glyph-name="seven.numerator" 
d="M92 1440h582v-109l-338 -696h-152l334 670v8h-426v127z" />
    <glyph glyph-name="eight.numerator" 
d="M380 1333q-71 0 -109 -30.5t-38 -75.5t35 -78t111 -33t111.5 33t35.5 78t-37.5 75.5t-108.5 30.5zM379 739q94 0 139 42t45 97.5t-53 92.5t-130 37t-130 -37t-53 -92.5t44 -97.5t138 -42zM655 1233q0 -113 -102 -168v-4q139 -61 139 -207q0 -92 -76.5 -161.5
t-236.5 -69.5t-235.5 69.5t-75.5 161.5q0 150 137 209v4q-100 55 -101 166q0 84 68 151.5t208 67.5t207.5 -67.5t67.5 -151.5z" />
    <glyph glyph-name="nine.numerator" 
d="M361.5 1327q-74.5 0 -117.5 -43t-43 -102.5t35.5 -105.5t115.5 -46q123 0 193 82q-13 125 -61 170t-122.5 45zM340 907q-125 0 -198.5 79t-73.5 195.5t78.5 193.5t211.5 77q319 0 320 -414q0 -182 -90 -298.5t-248 -116.5q-121 0 -221 63v131h8q94 -66 194.5 -65.5
t159 63t68.5 164.5h-4q-80 -72 -205 -72z" />
    <glyph glyph-name="parenrightnumerator" horiz-adv-x="501" 
d="M424 1561v-7q-174 -236 -174 -516t174 -516v-6h-137q-166 231 -166 522t166 523h137z" />
    <glyph glyph-name="parenleftnumerator" horiz-adv-x="501" 
d="M76 1561h137q166 -231 166 -522t-166 -523h-137v6q174 236 174 516t-174 516v7z" />
    <glyph glyph-name="commaaccent" horiz-adv-x="614" 
d="M211 -109h195v-192q0 -195 -195 -279v113q96 51 96 166h-96v192z" />
    <glyph glyph-name="cent.inferior" 
d="M395 129q-92 0 -143 -55.5t-51 -143.5q0 -131 102 -178l129 375q-12 2 -37 2zM78 -108.5q0 182.5 88 269.5t221 87q31 0 84 -8l41 120h53l-47 -135q43 -14 86 -41v-112h-6q-49 31 -117 47l-129 -381q25 -4 43 -4q113 0 201 57h8v-113q-113 -63 -217 -63q-43 0 -76 8
l-45 -137h-53l51 152q-186 71 -186 253.5z" />
    <glyph glyph-name="centinferior.alt" horiz-adv-x="679" 
d="M387.5 129q-100.5 0 -152 -56.5t-51.5 -142.5t51.5 -141t154 -55t190.5 57h6v-113q-106 -63 -215 -63q-39 0 -76 6l-47 -135h-53l53 149q-86 35 -136.5 112t-50.5 183q0 145 87.5 231.5t222.5 86.5q41 0 82 -10l43 122h51l-45 -135q31 -12 84 -41v-112h-6
q-92 57 -192.5 57z" />
    <glyph glyph-name="cent.superior" 
d="M430 1425q-92 0 -143 -55t-51 -143q0 -131 102 -178l129 374q-12 2 -37 2zM113 1187.5q0 182.5 88 269.5t221 87q31 0 84 -8l41 121h53l-47 -135q43 -14 86 -41v-113h-6q-49 31 -117 47l-129 -381q25 -4 43 -4q113 0 201 57h8v-112q-113 -63 -217 -64q-43 0 -76 9
l-45 -138h-53l51 152q-186 71 -186 253.5z" />
    <glyph glyph-name="centsuperior.alt" horiz-adv-x="751" 
d="M435.5 1425q-99.5 0 -151 -56t-51.5 -142t51.5 -141.5t154 -55.5t190.5 57h6v-112q-106 -63 -215 -64q-39 0 -76 7l-47 -136h-53l53 150q-86 35 -136 111.5t-50 183.5q0 145 87 231t222 86q41 0 82 -10l43 123h51l-45 -135q31 -12 84 -41v-113h-6q-94 57 -193.5 57z" />
    <glyph glyph-name="comma.inferior" horiz-adv-x="409" 
d="M131 -225h143v-148q0 -88 -45 -139t-98 -72v84q70 41 70 127h-70v148z" />
    <glyph glyph-name="comma.superior" horiz-adv-x="409" 
d="M147 1071h144v-147q0 -88 -45 -139.5t-99 -71.5v84q70 41 70 127h-70v147z" />
    <glyph glyph-name="dollar.inferior" 
d="M424 -266q152 10 151 116q0 41 -37.5 62.5t-113.5 42.5v-221zM219 211q0 -45 38 -69.5t114 -47.5v232q-72 -6 -112 -38t-40 -77zM424 -489h-53v104q-131 6 -265 63v125h3q119 -68 262 -71v237q-203 47 -252 137q-23 41 -23 97q0 96 72 163.5t203 75.5v105h53v-105
q94 -4 215 -45v-114h-2q-102 43 -213 45v-246q117 -31 172 -64q102 -59 102 -169.5t-79.5 -170t-194.5 -63.5v-104z" />
    <glyph glyph-name="dollarinferior.alt" horiz-adv-x="739" 
d="M680 -168q0 -94 -80 -153.5t-194 -63.5v-104h-54v104q-131 6 -264 63v125h4q129 -72 279 -71q186 0 186 118q0 73 -120 100t-190.5 50t-119.5 73t-49 138t71.5 155.5t202.5 75.5v105h54v-105q94 -4 215 -45v-114h-3q-113 45 -214 45t-152 -33t-51 -82t49 -78t119.5 -45
t141.5 -37.5t120 -74t49 -146.5z" />
    <glyph glyph-name="dollar.superior" 
d="M412 1032q152 10 151 117q0 41 -38 62.5t-113 41.5v-221zM207 1509q0 -45 38 -69.5t113 -46.5v231q-72 -6 -111.5 -38t-39.5 -77zM412 809h-54v104q-131 6 -264 64v125h2q119 -68 262 -72v238q-203 47 -252 137q-23 41 -22 96q0 96 71.5 164t202.5 76v104h54v-104
q94 -4 215 -45v-115h-2q-102 43 -213 45v-246q117 -31 172 -63q102 -59 102 -170t-80 -170t-194 -64v-104z" />
    <glyph glyph-name="dollarsuperior.alt" horiz-adv-x="737" 
d="M678 1130.5q0 -94.5 -80 -153.5t-195 -64v-104h-53v104q-131 6 -264 64v125h4q127 -72 279 -72q186 0 186 119q0 43 -49 68.5t-120 42t-141.5 39t-119.5 72.5t-49 138t71.5 156t202.5 76v104h53v-104q94 -4 215 -45v-115h-2q-113 45 -214 45t-152 -32.5t-51 -82t49 -78
t119.5 -45t141.5 -38t120 -73.5t49 -146.5z" />
    <glyph glyph-name="hyphen.inferior" horiz-adv-x="501" 
d="M399 -23h-299v99h299v-99z" />
    <glyph glyph-name="hyphen.superior" horiz-adv-x="501" 
d="M399 1274h-299v98h299v-98z" />
    <glyph glyph-name="period.inferior" horiz-adv-x="409" 
d="M133 -373v148h143v-148h-143z" />
    <glyph glyph-name="period.superior" horiz-adv-x="409" 
d="M133 924v147h143v-147h-143z" />
    <glyph glyph-name="dollar.oldstyle" horiz-adv-x="1110" 
d="M864 350q0 66 -62.5 102.5t-185.5 69.5v-368q248 18 248 196zM276 926q0 -80 62.5 -122t185.5 -75v387q-112 -10 -180 -60t-68 -130zM616 -215h-92v195q-219 10 -411 98v176h12q180 -96 399 -102v395q-174 45 -286 110q-139 82 -139.5 244t112.5 267.5t313 117.5v197h92
v-197q180 -6 334 -65v-170h-10q-152 63 -324 69v-413q250 -59 334 -146q90 -88 90 -229.5t-115.5 -240.5t-308.5 -111v-195z" />
    <glyph glyph-name="dollar.oldstyle.alt" horiz-adv-x="1110" 
d="M274 930q0 -88 79 -135t190.5 -73t224.5 -58.5t191.5 -113.5t78.5 -220.5t-115.5 -238.5t-308.5 -111v-195h-92v195q-215 10 -411 98v176h12q195 -102 432 -102q307 0 307 198q0 70 -78.5 112t-191.5 68.5t-225.5 61.5t-191.5 114.5t-79 218t113 244t313 117.5v197h92
v-197q180 -6 334 -65v-170h-10q-168 70 -327.5 69.5t-248 -51.5t-88.5 -139z" />
    <glyph glyph-name="zero.oldstyle" horiz-adv-x="1306" 
d="M653 150q178 0 272.5 111.5t94.5 312t-94.5 312t-272.5 111.5t-272 -111.5t-94 -312t94 -312t272 -111.5zM653.5 1161q274.5 0 411.5 -163.5t137 -425t-137 -425t-411.5 -163.5t-412 163.5t-137.5 425t137.5 425t412 163.5z" />
    <glyph glyph-name="one.oldstyle" horiz-adv-x="1001" 
d="M662 168h305v-168h-861v168h373v772h-8l-348 -135v184l369 156h170v-977z" />
    <glyph glyph-name="two.oldstyle" horiz-adv-x="1132" 
d="M1026 804q0 -122 -91 -220.5t-206 -153.5q-346 -172 -422 -258v-4h701v-168h-912v111q0 94 77 177t187.5 143.5t298 154t187.5 200.5q0 108 -83 154.5t-206 46.5q-207 0 -412 -125h-10v180q219 120 455 120t364 -150q72 -86 72 -208z" />
    <glyph glyph-name="three.oldstyle" horiz-adv-x="1157" 
d="M1067 96q0 -186 -146.5 -288.5t-386 -102.5t-440.5 92v180h10q174 -96 404 -96q158 0 266.5 52.5t108.5 172.5q0 256 -449 256h-104v170h80q203 0 312 62.5t109 183.5q0 96 -80.5 153.5t-238.5 57.5q-225 0 -395 -110h-8v170q203 113 428 112.5t352 -95.5t127 -269
q0 -250 -240 -336v-2q197 -49 262 -205q29 -70 29 -158z" />
    <glyph glyph-name="four.oldstyle" horiz-adv-x="1230" 
d="M772 246v682h-4l-524 -678v-4h528zM956 1145v-899h228v-166h-228v-359h-184v359h-733v176l694 889h223z" />
    <glyph glyph-name="five.oldstyle" horiz-adv-x="1208" 
d="M653 625q225 0 349 -127t124 -333t-139 -333t-407.5 -127t-462.5 133v197h8q183 -145 399 -145t317 64t101 222q0 125 -85 199t-230 74q-221 0 -363 -119l-160 71l117 744h821v-172h-667l-62 -428h6q150 80 334 80z" />
    <glyph glyph-name="six.oldstyle" horiz-adv-x="1263" 
d="M672 156q139 0 227 86t88 216t-78 212t-225 82q-260 0 -383 -222q54 -374 371 -374zM707 922q209 0 336.5 -130t127.5 -337t-137 -339t-364 -132q-555 0 -555 727q0 348 188 563q63 74 166.5 120t232.5 46q203 0 381 -99v-186h-10q-166 106 -356 107q-100 0 -177 -37
t-154.5 -133t-94.5 -349h4q140 179 412 179z" />
    <glyph glyph-name="seven.oldstyle" horiz-adv-x="1056" 
d="M18 1145h1016v-164l-612 -1260h-209l616 1240v8h-811v176z" />
    <glyph glyph-name="eight.oldstyle" horiz-adv-x="1292" 
d="M646 145q181 0 269.5 83t88.5 171q0 129 -104.5 202t-254 73t-253 -72t-103.5 -203q0 -88 88 -171t269 -83zM356 1063q0 -90 70 -156.5t220.5 -66.5t220 66.5t69.5 156.5t-75 152.5t-216 62.5t-215 -62.5t-74 -152.5zM1188 379q0 -158 -133 -276.5t-409.5 -118.5
t-409 118.5t-132.5 276.5q0 283 302 381v2q-102 35 -168 113.5t-66 207.5t115.5 243t357.5 114q127 0 223.5 -35t147.5 -90q104 -113 104 -237t-65.5 -202.5t-169.5 -113.5v-2q303 -100 303 -381z" />
    <glyph glyph-name="nine.oldstyle" horiz-adv-x="1234" 
d="M582 989q-139 0 -227.5 -86t-88.5 -216t78 -212t225 -82q260 0 383 221q-53 375 -370 375zM547 223q-209 0 -337 130t-128 337t137 339t365 132q555 0 555 -727q0 -348 -189 -563q-63 -74 -166.5 -120t-232.5 -46q-203 0 -381 98v187h10q166 -106 357 -107q100 0 177 37
t153.5 131.5t95.5 349.5h-5q-139 -178 -411 -178z" />
    <glyph glyph-name="question.smcp" horiz-adv-x="831" 
d="M262 0v215h215v-215h-215zM398.5 1143q172.5 0 263 -95.5t90.5 -219.5t-103 -222q-43 -41 -88 -82q-102 -92 -102 -184h-178v6q0 141 102 244q43 43 84 82q102 90 102 149q0 152 -200 152q-152 0 -289 -94h-8v170q154 94 326.5 94z" />
    <glyph glyph-name="exclam.smcp" horiz-adv-x="540" 
d="M164 213h213v-213h-213v213zM170 1126h201v-202l-33 -584h-137l-31 584v202z" />
    <glyph glyph-name="questiondown.smcp" horiz-adv-x="831" 
d="M569 1044v-215h-215v215h215zM433 -98q-173 0 -263 95t-90 219t102 222q43 41 88 82q102 92 103 185h178v-7q0 -141 -102 -243q-43 -43 -84 -82q-102 -90 -103 -150q0 -152 201 -151q152 0 289 94h8v-170q-154 -94 -327 -94z" />
    <glyph glyph-name="exclamdown.smcp" horiz-adv-x="534" 
d="M375 831h-213v213h213v-213zM369 -82h-201v203l31 584h137l33 -584v-203z" />
    <glyph glyph-name="agrave.smcp" horiz-adv-x="1175" 
d="M774 446v9l-184 454h-4l-185 -454v-9h373zM676 1126l479 -1126h-199l-114 285h-508l-115 -285h-199l480 1126h176zM324 1526h202l156 -273h-127z" />
    <glyph glyph-name="aacute.smcp" horiz-adv-x="1175" 
d="M774 446v9l-184 454h-4l-185 -454v-9h373zM676 1126l479 -1126h-199l-114 285h-508l-115 -285h-199l480 1126h176zM649 1526h203l-231 -273h-127z" />
    <glyph glyph-name="acircumflex.smcp" horiz-adv-x="1175" 
d="M774 446v9l-184 454h-4l-185 -454v-9h373zM676 1126l479 -1126h-199l-114 285h-508l-115 -285h-199l480 1126h176zM672 1505l231 -252h-162l-153 150l-154 -150h-162l232 252h168z" />
    <glyph glyph-name="atilde.smcp" horiz-adv-x="1175" 
d="M774 446v9l-184 454h-4l-185 -454v-9h373zM676 1126l479 -1126h-199l-114 285h-508l-115 -285h-199l480 1126h176zM754.5 1231q-66.5 0 -168 49t-152.5 49q-68 0 -88 -88h-90q8 111 56 169t115 58t167 -48t154 -48q70 0 86 84h92q-8 -111 -56.5 -168t-115 -57z" />
    <glyph glyph-name="adieresis.smcp" horiz-adv-x="1175" 
d="M774 446v9l-184 454h-4l-185 -454v-9h373zM676 1126l479 -1126h-199l-114 285h-508l-115 -285h-199l480 1126h176zM662 1253v197h196v-197h-196zM317 1253v197h197v-197h-197z" />
    <glyph glyph-name="aring.smcp" horiz-adv-x="1175" 
d="M774 446v9l-184 454h-4l-185 -454v-9h373zM676 1126l479 -1126h-199l-114 285h-508l-115 -285h-199l480 1126h176zM588 1311q41 0 70.5 29.5t29.5 70.5t-29.5 70.5t-70.5 29.5t-71 -29.5t-30 -70.5t30 -70.5t71 -29.5zM588 1604q80 0 136 -56.5t56 -136.5t-56 -136
t-136 -56t-136.5 56t-56.5 136t56.5 136.5t136.5 56.5z" />
    <glyph glyph-name="ae.smcp" horiz-adv-x="1755" 
d="M840 451v505h-39l-328 -505h367zM1632 956h-614v-307h557v-170h-557v-309h614v-170h-792v285h-475l-185 -285h-213l742 1126h923v-170z" />
    <glyph glyph-name="ccedilla.smcp" horiz-adv-x="1187" 
d="M715 -270q0 63 -60.5 63t-107.5 -24l-60 32l117 189q-217 25 -352 178.5t-135 406t159.5 410.5t405.5 158q199 0 387 -109v-176h-8q-182 113 -369.5 113t-292 -114t-104.5 -293t104.5 -292.5t295 -113.5t366.5 112h8v-176q-176 -109 -381 -110l-63 -113q33 8 86 8t97 -40
t44 -103q0 -188 -227 -189q-106 0 -201 64l33 72q76 -47 141 -48q117 0 117 95z" />
    <glyph glyph-name="eth.smcp" horiz-adv-x="1275" 
d="M578 158q184 0 294.5 112.5t110.5 293.5t-110.5 293t-294.5 112h-207v-344h215v-121h-215v-346h207zM594 1126q270 0 419.5 -169t149.5 -394t-149.5 -394t-419.5 -169h-404v504h-129v121h129v501h404z" />
    <glyph glyph-name="egrave.smcp" horiz-adv-x="1097" 
d="M975 956h-615v-307h558v-170h-558v-309h615v-170h-793v1126h793v-170zM336 1526h203l155 -273h-127z" />
    <glyph glyph-name="eacute.smcp" horiz-adv-x="1097" 
d="M975 956h-615v-307h558v-170h-558v-309h615v-170h-793v1126h793v-170zM629 1526h202l-231 -273h-127z" />
    <glyph glyph-name="ecircumflex.smcp" horiz-adv-x="1097" 
d="M975 956h-615v-307h558v-170h-558v-309h615v-170h-793v1126h793v-170zM674 1505l231 -252h-162l-153 150l-154 -150h-162l232 252h168z" />
    <glyph glyph-name="edieresis.smcp" horiz-adv-x="1097" 
d="M975 956h-615v-307h558v-170h-558v-309h615v-170h-793v1126h793v-170zM653 1253v197h197v-197h-197zM309 1253v197h197v-197h-197z" />
    <glyph glyph-name="igrave.smcp" horiz-adv-x="544" 
d="M27 1526h202l156 -273h-127zM362 0h-180v1126h180v-1126z" />
    <glyph glyph-name="iacute.smcp" horiz-adv-x="544" 
d="M317 1526h203l-231 -273h-127zM362 0h-180v1126h180v-1126z" />
    <glyph glyph-name="icircumflex.smcp" horiz-adv-x="544" 
d="M356 1505l232 -252h-162l-154 150l-153 -150h-162l231 252h168zM362 0h-180v1126h180v-1126z" />
    <glyph glyph-name="idieresis.smcp" horiz-adv-x="544" 
d="M346 1253v197h197v-197h-197zM2 1253v197h197v-197h-197zM362 0h-180v1126h180v-1126z" />
    <glyph glyph-name="ntilde.smcp" horiz-adv-x="1359" 
d="M999 1126h179v-1126h-203l-610 862h-5v-862h-178v1126h203l610 -862h4v862zM853 1231q-67 0 -168 49t-153 49q-68 0 -88 -88h-90q8 111 55.5 169t114 58t167 -48t155.5 -48q70 0 86 84h92q-8 -111 -56 -168t-115 -57z" />
    <glyph glyph-name="ograve.smcp" horiz-adv-x="1359" 
d="M681 152q179 0 282.5 116.5t103.5 294.5t-103.5 296t-282.5 118t-283.5 -117t-104.5 -297t104.5 -295.5t283.5 -115.5zM679 1143q255 0 409.5 -161t158.5 -417q-4 -256 -158.5 -418.5t-409.5 -162.5t-407.5 161.5t-158.5 419.5q6 256 158.5 417t407.5 161zM436 1526h203
l156 -273h-127z" />
    <glyph glyph-name="oacute.smcp" horiz-adv-x="1359" 
d="M681 152q179 0 282.5 116.5t103.5 294.5t-103.5 296t-282.5 118t-283.5 -117t-104.5 -297t104.5 -295.5t283.5 -115.5zM679 1143q255 0 409.5 -161t158.5 -417q-4 -256 -158.5 -418.5t-409.5 -162.5t-407.5 161.5t-158.5 419.5q6 256 158.5 417t407.5 161zM721 1526h203
l-232 -273h-127z" />
    <glyph glyph-name="ocircumflex.smcp" horiz-adv-x="1359" 
d="M681 152q179 0 282.5 116.5t103.5 294.5t-103.5 296t-282.5 118t-283.5 -117t-104.5 -297t104.5 -295.5t283.5 -115.5zM679 1143q255 0 409.5 -161t158.5 -417q-4 -256 -158.5 -418.5t-409.5 -162.5t-407.5 161.5t-158.5 419.5q6 256 158.5 417t407.5 161zM764 1505
l231 -252h-161l-154 150l-154 -150h-161l231 252h168z" />
    <glyph glyph-name="otilde.smcp" horiz-adv-x="1359" 
d="M681 152q179 0 282.5 116.5t103.5 294.5t-103.5 296t-282.5 118t-283.5 -117t-104.5 -297t104.5 -295.5t283.5 -115.5zM679 1143q255 0 409.5 -161t158.5 -417q-4 -256 -158.5 -418.5t-409.5 -162.5t-407.5 161.5t-158.5 419.5q6 256 158.5 417t407.5 161zM848.5 1231
q-66.5 0 -167.5 49t-153 49q-68 0 -88 -88h-90q8 111 56.5 169t114 58t165.5 -48t156 -48q70 0 86 84h92q-8 -111 -56.5 -168t-115 -57z" />
    <glyph glyph-name="odieresis.smcp" horiz-adv-x="1359" 
d="M681 152q179 0 282.5 116.5t103.5 294.5t-103.5 296t-282.5 118t-283.5 -117t-104.5 -297t104.5 -295.5t283.5 -115.5zM679 1143q255 0 409.5 -161t158.5 -417q-4 -256 -158.5 -418.5t-409.5 -162.5t-407.5 161.5t-158.5 419.5q6 256 158.5 417t407.5 161zM754 1253v197
h196v-197h-196zM410 1253v197h196v-197h-196z" />
    <glyph glyph-name="oslash.smcp" horiz-adv-x="1359" 
d="M682 152q178 0 281.5 116.5t103.5 300t-113 299.5l-469 -669q84 -47 197 -47zM293 559q0 -184 110 -299l471 670q-84 47 -192 47q-180 0 -284.5 -117t-104.5 -301zM680 -16q-162 0 -293 71l-84 -116l-84 59l84 117q-184 162 -190 450q6 256 158.5 417t408.5 161
q162 0 293 -72l82 117l84 -58l-84 -118q186 -160 192 -447q-4 -256 -158.5 -418.5t-408.5 -162.5z" />
    <glyph glyph-name="ugrave.smcp" horiz-adv-x="1282" 
d="M928 1126h180v-698q0 -145 -72 -250q-137 -195 -395 -194.5t-395 194.5q-72 104 -72 250v698h180v-704q0 -129 85 -199.5t202 -70.5t202 70.5t85 199.5v704zM401 1526h203l156 -273h-127z" />
    <glyph glyph-name="uacute.smcp" horiz-adv-x="1282" 
d="M928 1126h180v-698q0 -145 -72 -250q-137 -195 -395 -194.5t-395 194.5q-72 104 -72 250v698h180v-704q0 -129 85 -199.5t202 -70.5t202 70.5t85 199.5v704zM678 1526h203l-232 -273h-127z" />
    <glyph glyph-name="ucircumflex.smcp" horiz-adv-x="1282" 
d="M928 1126h180v-698q0 -145 -72 -250q-137 -195 -395 -194.5t-395 194.5q-72 104 -72 250v698h180v-704q0 -129 85 -199.5t202 -70.5t202 70.5t85 199.5v704zM725 1505l231 -252h-161l-154 150l-154 -150h-161l231 252h168z" />
    <glyph glyph-name="udieresis.smcp" horiz-adv-x="1282" 
d="M928 1126h180v-698q0 -145 -72 -250q-137 -195 -395 -194.5t-395 194.5q-72 104 -72 250v698h180v-704q0 -129 85 -199.5t202 -70.5t202 70.5t85 199.5v704zM715 1253v197h196v-197h-196zM371 1253v197h196v-197h-196z" />
    <glyph glyph-name="yacute.smcp" horiz-adv-x="1085" 
d="M633 0h-180v473l-459 653h219l326 -489h8l325 489h220l-459 -653v-473zM590 1526h203l-232 -273h-127z" />
    <glyph glyph-name="ydieresis.smcp" horiz-adv-x="1085" 
d="M633 0h-180v473l-459 653h219l326 -489h8l325 489h220l-459 -653v-473zM616 1253v197h197v-197h-197zM272 1253v197h197v-197h-197z" />
    <glyph glyph-name="thorn.smcp" horiz-adv-x="1142" 
d="M612 381q147 0 209 57.5t62 143.5t-61.5 143t-209.5 57h-250v-401h250zM627 946q227 0 331.5 -106.5t104.5 -258t-104.5 -259t-331.5 -107.5h-265v-215h-180v1126h180v-180h265z" />
    <glyph glyph-name="adotbelow.smcp" horiz-adv-x="1171" 
d="M487 -319v196h197v-196h-197zM772 446v9l-184 454h-4l-185 -454v-9h373zM674 1126l479 -1126h-199l-114 285h-508l-115 -285h-199l480 1126h176z" />
    <glyph glyph-name="ahookabove.smcp" horiz-adv-x="1175" 
d="M553 1599q236 0 235 -161q0 -117 -153 -148v-37h-111v93q43 2 90.5 21t47.5 60q0 74 -140 74q-35 0 -53 -2v94q35 6 84 6zM774 446v9l-184 454h-4l-185 -454v-9h373zM676 1126l479 -1126h-199l-114 285h-508l-115 -285h-199l480 1126h176z" />
    <glyph glyph-name="acircumflexacute.smcp" horiz-adv-x="1175" 
d="M954 1688h203l-231 -273h-127zM672 1485l231 -252h-162l-153 149l-154 -149h-162l232 252h168zM774 446v9l-184 454h-4l-185 -454v-9h373zM676 1126l479 -1126h-199l-114 285h-508l-115 -285h-199l480 1126h176z" />
    <glyph glyph-name="acircumflexgrave.smcp" horiz-adv-x="1175" 
d="M18 1688h203l156 -273h-127zM672 1485l231 -252h-162l-153 149l-154 -149h-162l232 252h168zM774 446v9l-184 454h-4l-185 -454v-9h373zM676 1126l479 -1126h-199l-114 285h-508l-115 -285h-199l480 1126h176z" />
    <glyph glyph-name="acircumflexhookabove.smcp" horiz-adv-x="1175" 
d="M905 1692q236 0 236 -162q0 -117 -154 -148v-36h-110v92q43 2 90 21.5t47 60.5q0 74 -140 73q-35 0 -53 -2v95q35 6 84 6zM672 1485l231 -252h-162l-153 149l-154 -149h-162l232 252h168zM774 446v9l-184 454h-4l-185 -454v-9h373zM676 1126l479 -1126h-199l-114 285
h-508l-115 -285h-199l480 1126h176z" />
    <glyph glyph-name="acircumflextilde.smcp" horiz-adv-x="1175" 
d="M754.5 1520q-66.5 0 -168 49t-152.5 49q-68 0 -88 -88h-90q8 111 56 169t115 58t167 -48t154 -48q70 0 86 84h92q-8 -111 -56.5 -168t-115 -57zM672 1477l231 -252h-162l-153 149l-154 -149h-162l232 252h168zM774 446v9l-184 454h-4l-185 -454v-9h373zM676 1126
l479 -1126h-199l-114 285h-508l-115 -285h-199l480 1126h176z" />
    <glyph glyph-name="acircumflexdotbelow.smcp" horiz-adv-x="1171" 
d="M487 -319v196h197v-196h-197zM670 1505l231 -252h-162l-153 150l-154 -150h-162l232 252h168zM772 446v9l-184 454h-4l-185 -454v-9h373zM674 1126l479 -1126h-199l-114 285h-508l-115 -285h-199l480 1126h176z" />
    <glyph glyph-name="abreveacute.smcp" horiz-adv-x="1175" 
d="M653 1745h203l-231 -272h-127zM588 1233q-119 0 -200 64.5t-101 172.5h131q41 -119 170 -119t170 119h131q-20 -109 -101 -173t-200 -64zM774 446v9l-184 454h-4l-185 -454v-9h373zM676 1126l479 -1126h-199l-114 285h-508l-115 -285h-199l480 1126h176z" />
    <glyph glyph-name="abrevegrave.smcp" horiz-adv-x="1175" 
d="M319 1745h203l156 -272h-127zM588 1233q-119 0 -200 64.5t-101 172.5h131q41 -119 170 -119t170 119h131q-20 -109 -101 -173t-200 -64zM774 446v9l-184 454h-4l-185 -454v-9h373zM676 1126l479 -1126h-199l-114 285h-508l-115 -285h-199l480 1126h176z" />
    <glyph glyph-name="abrevehookabove.smcp" horiz-adv-x="1175" 
d="M588 1233q-119 0 -200 64.5t-101 172.5h131q41 -119 170 -119t170 119h131q-20 -109 -101 -173t-200 -64zM549 1806q236 0 235 -161q0 -117 -153 -148v-37h-111v92q43 2 90 21.5t47 60.5q0 74 -139 74q-35 0 -53 -2v94q35 6 84 6zM774 446v9l-184 454h-4l-185 -454v-9
h373zM676 1126l479 -1126h-199l-114 285h-508l-115 -285h-199l480 1126h176z" />
    <glyph glyph-name="abrevetilde.smcp" horiz-adv-x="1175" 
d="M754.5 1520q-66.5 0 -168 49t-152.5 49q-68 0 -88 -88h-90q8 111 56 169t115 58t167 -48t154 -48q70 0 86 84h92q-8 -111 -56.5 -168t-115 -57zM588 1233q-119 0 -200 64.5t-101 172.5h131q41 -119 170 -119t170 119h131q-20 -109 -101 -173t-200 -64zM774 446v9
l-184 454h-4l-185 -454v-9h373zM676 1126l479 -1126h-199l-114 285h-508l-115 -285h-199l480 1126h176z" />
    <glyph glyph-name="abrevedotbelow.smcp" horiz-adv-x="1171" 
d="M487 -319v196h197v-196h-197zM586 1251q-119 0 -200 64.5t-101 173.5h131q41 -119 170 -119t170 119h131q-20 -109 -101 -173.5t-200 -64.5zM772 446v9l-184 454h-4l-185 -454v-9h373zM674 1126l479 -1126h-199l-114 285h-508l-115 -285h-199l480 1126h176z" />
    <glyph glyph-name="edotbelow.smcp" horiz-adv-x="1095" 
d="M496 -319v196h196v-196h-196zM975 956h-615v-307h558v-170h-558v-309h615v-170h-793v1126h793v-170z" />
    <glyph glyph-name="ehookabove.smcp" horiz-adv-x="1097" 
d="M537 1599q236 0 235 -161q0 -117 -154 -148v-37h-110v93q43 2 90 21t47 60q0 74 -139 74q-35 0 -53 -2v94q35 6 84 6zM975 956h-615v-307h558v-170h-558v-309h615v-170h-793v1126h793v-170z" />
    <glyph glyph-name="etilde.smcp" horiz-adv-x="1097" 
d="M752.5 1231q-66.5 0 -168 49t-152.5 49q-68 0 -88 -88h-90q8 111 55 169t115 58t168 -48t153 -48q70 0 86 84h93q-8 -111 -56.5 -168t-115 -57zM975 956h-615v-307h558v-170h-558v-309h615v-170h-793v1126h793v-170z" />
    <glyph glyph-name="ecircumflexacute.smcp" horiz-adv-x="1097" 
d="M952 1688h203l-231 -273h-127zM670 1485l231 -252h-162l-153 149l-154 -149h-162l232 252h168zM975 956h-615v-307h558v-170h-558v-309h615v-170h-793v1126h793v-170z" />
    <glyph glyph-name="ecircumflexgrave.smcp" horiz-adv-x="1097" 
d="M16 1688h203l156 -273h-127zM670 1485l231 -252h-162l-153 149l-154 -149h-162l232 252h168zM975 956h-615v-307h558v-170h-558v-309h615v-170h-793v1126h793v-170z" />
    <glyph glyph-name="ecircumflexhookabove.smcp" horiz-adv-x="1097" 
d="M903 1692q236 0 236 -162q0 -117 -154 -148v-36h-111v92q43 2 90.5 21.5t47.5 60.5q0 74 -140 73q-35 0 -53 -2v95q35 6 84 6zM670 1485l231 -252h-162l-153 149l-154 -149h-162l232 252h168zM975 956h-615v-307h558v-170h-558v-309h615v-170h-793v1126h793v-170z" />
    <glyph glyph-name="ecircumflextilde.smcp" horiz-adv-x="1097" 
d="M752.5 1520q-66.5 0 -168 49t-152.5 49q-68 0 -88 -88h-90q8 111 55 169t115 58t168 -48t153 -48q70 0 86 84h93q-8 -111 -56.5 -168t-115 -57zM670 1477l231 -252h-162l-153 149l-154 -149h-162l232 252h168zM975 956h-615v-307h558v-170h-558v-309h615v-170h-793v1126
h793v-170z" />
    <glyph glyph-name="ecircumflexdotbelow.smcp" horiz-adv-x="1095" 
d="M492 -319v196h196v-196h-196zM674 1505l231 -252h-162l-153 150l-154 -150h-162l232 252h168zM975 956h-615v-307h558v-170h-558v-309h615v-170h-793v1126h793v-170z" />
    <glyph glyph-name="ihookabove.smcp" horiz-adv-x="544" 
d="M233 1599q236 0 236 -161q0 -117 -154 -148v-37h-110v93q43 2 90 21t47 60q0 74 -139 74q-35 0 -53 -2v94q34 6 83 6zM362 0h-180v1126h180v-1126z" />
    <glyph glyph-name="idotbelow.smcp" horiz-adv-x="544" 
d="M174 -319v196h197v-196h-197zM362 1126v-1126h-180v1126h180z" />
    <glyph glyph-name="odotbelow.smcp" horiz-adv-x="1359" 
d="M582 -338v197h196v-197h-196zM681 152q179 0 282.5 116.5t103.5 294.5t-103.5 296t-282.5 118t-283.5 -117t-104.5 -297t104.5 -295.5t283.5 -115.5zM679 1143q255 0 409.5 -161t158.5 -417q-4 -256 -158.5 -418.5t-409.5 -162.5t-407.5 161.5t-158.5 419.5
q6 256 158.5 417t407.5 161z" />
    <glyph glyph-name="ohookabove.smcp" horiz-adv-x="1359" 
d="M633 1599q236 0 235 -161q0 -117 -153 -148v-37h-111v93q43 2 90 21t47 60q0 74 -139 74q-35 0 -53 -2v94q35 6 84 6zM681 152q179 0 282.5 116.5t103.5 294.5t-103.5 296t-282.5 118t-283.5 -117t-104.5 -297t104.5 -295.5t283.5 -115.5zM679 1143q255 0 409.5 -161
t158.5 -417q-4 -256 -158.5 -418.5t-409.5 -162.5t-407.5 161.5t-158.5 419.5q6 256 158.5 417t407.5 161z" />
    <glyph glyph-name="ocircumflexacute.smcp" horiz-adv-x="1359" 
d="M1047 1688h202l-231 -273h-127zM764 1485l231 -252h-161l-154 149l-154 -149h-161l231 252h168zM681 152q179 0 282.5 116.5t103.5 294.5t-103.5 296t-282.5 118t-283.5 -117t-104.5 -297t104.5 -295.5t283.5 -115.5zM679 1143q255 0 409.5 -161t158.5 -417
q-4 -256 -158.5 -418.5t-409.5 -162.5t-407.5 161.5t-158.5 419.5q6 256 158.5 417t407.5 161z" />
    <glyph glyph-name="ocircumflexgrave.smcp" horiz-adv-x="1359" 
d="M111 1688h202l156 -273h-127zM764 1485l231 -252h-161l-154 149l-154 -149h-161l231 252h168zM681 152q179 0 282.5 116.5t103.5 294.5t-103.5 296t-282.5 118t-283.5 -117t-104.5 -297t104.5 -295.5t283.5 -115.5zM679 1143q255 0 409.5 -161t158.5 -417
q-4 -256 -158.5 -418.5t-409.5 -162.5t-407.5 161.5t-158.5 419.5q6 256 158.5 417t407.5 161z" />
    <glyph glyph-name="ocircumflexhookabove.smcp" horiz-adv-x="1359" 
d="M997 1692q236 0 236 -162q0 -117 -154 -148v-36h-110v92q43 2 90 21.5t47 60.5q0 74 -139 73q-35 0 -54 -2v95q35 6 84 6zM764 1485l231 -252h-161l-154 149l-154 -149h-161l231 252h168zM681 152q179 0 282.5 116.5t103.5 294.5t-103.5 296t-282.5 118t-283.5 -117
t-104.5 -297t104.5 -295.5t283.5 -115.5zM679 1143q255 0 409.5 -161t158.5 -417q-4 -256 -158.5 -418.5t-409.5 -162.5t-407.5 161.5t-158.5 419.5q6 256 158.5 417t407.5 161z" />
    <glyph glyph-name="ocircumflextilde.smcp" horiz-adv-x="1359" 
d="M846.5 1520q-66.5 0 -167.5 49t-153 49q-68 0 -88 -88h-90q8 111 56.5 169t115 58t166.5 -48t154 -48q70 0 86 84h92q-8 -111 -56.5 -168t-115 -57zM764 1477l231 -252h-161l-154 149l-154 -149h-161l231 252h168zM681 152q179 0 282.5 116.5t103.5 294.5t-103.5 296
t-282.5 118t-283.5 -117t-104.5 -297t104.5 -295.5t283.5 -115.5zM679 1143q255 0 409.5 -161t158.5 -417q-4 -256 -158.5 -418.5t-409.5 -162.5t-407.5 161.5t-158.5 419.5q6 256 158.5 417t407.5 161z" />
    <glyph glyph-name="ocircumflexdotbelow.smcp" horiz-adv-x="1359" 
d="M582 -338v197h196v-197h-196zM764 1505l231 -252h-161l-154 150l-154 -150h-161l231 252h168zM681 152q179 0 282.5 116.5t103.5 294.5t-103.5 296t-282.5 118t-283.5 -117t-104.5 -297t104.5 -295.5t283.5 -115.5zM679 1143q255 0 409.5 -161t158.5 -417
q-4 -256 -158.5 -418.5t-409.5 -162.5t-407.5 161.5t-158.5 419.5q6 256 158.5 417t407.5 161z" />
    <glyph glyph-name="ohorn.smcp" horiz-adv-x="1513" 
d="M681 152q179 0 282.5 116.5t103.5 294.5t-103.5 296t-282.5 118t-283.5 -117t-104.5 -297t104.5 -295.5t283.5 -115.5zM1264 1128h221v-217q0 -160 -58.5 -235.5t-181.5 -97.5q2 -4 2 -13q-4 -256 -158.5 -418.5t-409.5 -162.5t-407.5 161.5t-158.5 419.5
q6 256 158.5 417t394 161t391 -131t182.5 -348q72 16 108.5 70t36.5 169h-120v225z" />
    <glyph glyph-name="ohornacute.smcp" horiz-adv-x="1513" 
d="M681 152q179 0 282.5 116.5t103.5 294.5t-103.5 296t-282.5 118t-283.5 -117t-104.5 -297t104.5 -295.5t283.5 -115.5zM1264 1128h221v-217q0 -160 -58.5 -235.5t-181.5 -97.5q2 -4 2 -13q-4 -256 -158.5 -418.5t-409.5 -162.5t-407.5 161.5t-158.5 419.5
q6 256 158.5 417t394 161t391 -131t182.5 -348q72 16 108.5 70t36.5 169h-120v225zM721 1526h203l-232 -273h-127z" />
    <glyph glyph-name="ohorngrave.smcp" horiz-adv-x="1513" 
d="M681 152q179 0 282.5 116.5t103.5 294.5t-103.5 296t-282.5 118t-283.5 -117t-104.5 -297t104.5 -295.5t283.5 -115.5zM1264 1128h221v-217q0 -160 -58.5 -235.5t-181.5 -97.5q2 -4 2 -13q-4 -256 -158.5 -418.5t-409.5 -162.5t-407.5 161.5t-158.5 419.5
q6 256 158.5 417t394 161t391 -131t182.5 -348q72 16 108.5 70t36.5 169h-120v225zM436 1526h203l156 -273h-127z" />
    <glyph glyph-name="ohornhookabove.smcp" horiz-adv-x="1513" 
d="M681 152q179 0 282.5 116.5t103.5 294.5t-103.5 296t-282.5 118t-283.5 -117t-104.5 -297t104.5 -295.5t283.5 -115.5zM1264 1128h221v-217q0 -160 -58.5 -235.5t-181.5 -97.5q2 -4 2 -13q-4 -256 -158.5 -418.5t-409.5 -162.5t-407.5 161.5t-158.5 419.5
q6 256 158.5 417t394 161t391 -131t182.5 -348q72 16 108.5 70t36.5 169h-120v225zM633 1599q236 0 235 -161q0 -117 -153 -148v-37h-111v93q43 2 90 21t47 60q0 74 -139 74q-35 0 -53 -2v94q35 6 84 6z" />
    <glyph glyph-name="ohorntilde.smcp" horiz-adv-x="1513" 
d="M681 152q179 0 282.5 116.5t103.5 294.5t-103.5 296t-282.5 118t-283.5 -117t-104.5 -297t104.5 -295.5t283.5 -115.5zM1264 1128h221v-217q0 -160 -58.5 -235.5t-181.5 -97.5q2 -4 2 -13q-4 -256 -158.5 -418.5t-409.5 -162.5t-407.5 161.5t-158.5 419.5
q6 256 158.5 417t394 161t391 -131t182.5 -348q72 16 108.5 70t36.5 169h-120v225zM848.5 1231q-66.5 0 -167.5 49t-153 49q-68 0 -88 -88h-90q8 111 56.5 169t114 58t165.5 -48t156 -48q70 0 86 84h92q-8 -111 -56.5 -168t-115 -57z" />
    <glyph glyph-name="ohorndotbelow.smcp" horiz-adv-x="1513" 
d="M681 152q179 0 282.5 116.5t103.5 294.5t-103.5 296t-282.5 118t-283.5 -117t-104.5 -297t104.5 -295.5t283.5 -115.5zM1264 1128h221v-217q0 -160 -58.5 -235.5t-181.5 -97.5q2 -4 2 -13q-4 -256 -158.5 -418.5t-409.5 -162.5t-407.5 161.5t-158.5 419.5
q6 256 158.5 417t394 161t391 -131t182.5 -348q72 16 108.5 70t36.5 169h-120v225zM582 -338v197h196v-197h-196z" />
    <glyph glyph-name="udotbelow.smcp" horiz-adv-x="1282" 
d="M543 -338v197h196v-197h-196zM928 1126h180v-698q0 -145 -72 -250q-137 -195 -395 -194.5t-395 194.5q-72 104 -72 250v698h180v-704q0 -129 85 -199.5t202 -70.5t202 70.5t85 199.5v704z" />
    <glyph glyph-name="uhookabove.smcp" horiz-adv-x="1282" 
d="M586 1599q236 0 235 -161q0 -117 -153 -148v-37h-111v93q43 2 90 21t47 60q0 74 -139 74q-35 0 -53 -2v94q35 6 84 6zM928 1126h180v-698q0 -145 -72 -250q-137 -195 -395 -194.5t-395 194.5q-72 104 -72 250v698h180v-704q0 -129 85 -199.5t202 -70.5t202 70.5t85 199.5
v704z" />
    <glyph glyph-name="uhorn.smcp" horiz-adv-x="1468" 
d="M1233 1126h221v-217q0 -188 -83 -263t-263 -81v-137q0 -145 -72 -250q-137 -195 -395 -194.5t-395 194.5q-72 104 -72 250v698h180v-704q0 -129 85 -199.5t202 -70.5t202 70.5t85 199.5v704h180v-475q125 4 185.5 53.5t60.5 196.5h-121v225z" />
    <glyph glyph-name="uhornacute.smcp" horiz-adv-x="1468" 
d="M1233 1126h221v-217q0 -188 -83 -263t-263 -81v-137q0 -145 -72 -250q-137 -195 -395 -194.5t-395 194.5q-72 104 -72 250v698h180v-704q0 -129 85 -199.5t202 -70.5t202 70.5t85 199.5v704h180v-475q125 4 185.5 53.5t60.5 196.5h-121v225zM678 1526h203l-232 -273h-127
z" />
    <glyph glyph-name="uhorngrave.smcp" horiz-adv-x="1468" 
d="M1233 1126h221v-217q0 -188 -83 -263t-263 -81v-137q0 -145 -72 -250q-137 -195 -395 -194.5t-395 194.5q-72 104 -72 250v698h180v-704q0 -129 85 -199.5t202 -70.5t202 70.5t85 199.5v704h180v-475q125 4 185.5 53.5t60.5 196.5h-121v225zM401 1526h203l156 -273h-127z
" />
    <glyph glyph-name="uhornhookabove.smcp" horiz-adv-x="1468" 
d="M1233 1126h221v-217q0 -188 -83 -263t-263 -81v-137q0 -145 -72 -250q-137 -195 -395 -194.5t-395 194.5q-72 104 -72 250v698h180v-704q0 -129 85 -199.5t202 -70.5t202 70.5t85 199.5v704h180v-475q125 4 185.5 53.5t60.5 196.5h-121v225zM586 1599q236 0 235 -161
q0 -117 -153 -148v-37h-111v93q43 2 90 21t47 60q0 74 -139 74q-35 0 -53 -2v94q35 6 84 6z" />
    <glyph glyph-name="uhorntilde.smcp" horiz-adv-x="1468" 
d="M1233 1126h221v-217q0 -188 -83 -263t-263 -81v-137q0 -145 -72 -250q-137 -195 -395 -194.5t-395 194.5q-72 104 -72 250v698h180v-704q0 -129 85 -199.5t202 -70.5t202 70.5t85 199.5v704h180v-475q125 4 185.5 53.5t60.5 196.5h-121v225zM814.5 1231q-66.5 0 -168 49
t-152.5 49q-68 0 -88 -88h-91q8 111 55.5 169t115 58t168 -48t153.5 -48q70 0 86 84h92q-8 -111 -56 -168t-114.5 -57z" />
    <glyph glyph-name="uhorndotbelow.smcp" horiz-adv-x="1468" 
d="M1233 1126h221v-217q0 -188 -83 -263t-263 -81v-137q0 -145 -72 -250q-137 -195 -395 -194.5t-395 194.5q-72 104 -72 250v698h180v-704q0 -129 85 -199.5t202 -70.5t202 70.5t85 199.5v704h180v-475q125 4 185.5 53.5t60.5 196.5h-121v225zM543 -338v197h196v-197h-196z
" />
    <glyph glyph-name="ygrave.smcp" horiz-adv-x="1085" 
d="M293 1526h203l155 -273h-127zM633 0h-180v473l-459 653h219l326 -489h8l325 489h220l-459 -653v-473z" />
    <glyph glyph-name="ydotbelow.smcp" horiz-adv-x="1093" 
d="M449 -319v196h196v-196h-196zM637 0h-180v473l-459 653h219l326 -489h8l326 489h219l-459 -653v-473z" />
    <glyph glyph-name="yhookabove.smcp" horiz-adv-x="1085" 
d="M494 1599q236 0 235 -161q0 -117 -154 -148v-37h-110v93q43 2 90 21t47 60q0 74 -139 74q-35 0 -53 -2v94q35 6 84 6zM633 0h-180v473l-459 653h219l326 -489h8l325 489h220l-459 -653v-473z" />
    <glyph glyph-name="ytilde.smcp" horiz-adv-x="1085" 
d="M713.5 1231q-66.5 0 -168 49t-152.5 49q-68 0 -88 -88h-90q8 111 56 169t114 58t166 -48t156 -48q70 0 86 84h92q-8 -111 -56.5 -168t-115 -57zM633 0h-180v473l-459 653h219l326 -489h8l325 489h220l-459 -653v-473z" />
    <glyph glyph-name="a.alt" horiz-adv-x="1292" 
d="M621 154q184 0 323 153v430q-139 154 -323 154q-152 0 -244 -96.5t-92 -272.5t92 -272t244 -96zM594 1065q199 0 344 -152h6l23 131h163v-1044h-163l-23 131h-6q-145 -152 -344 -151.5t-347.5 147.5t-148.5 395t148.5 395.5t347.5 147.5z" />
    </font>
</defs>
</svg>
