<?xml version="1.0" encoding="UTF-8" standalone="no"?>
<svg width="626px" height="398px" viewBox="0 0 626 398" version="1.1" xmlns="http://www.w3.org/2000/svg" xmlns:xlink="http://www.w3.org/1999/xlink">
    <!-- Generator: Sketch 39 (31667) - http://www.bohemiancoding.com/sketch -->
    <title>Group 9</title>
    <desc>Created with Sketch.</desc>
    <defs></defs>
    <g id="Page-1" stroke="none" stroke-width="1" fill="none" fill-rule="evenodd">
        <g id="PH-Popup" transform="translate(-413.000000, -353.000000)">
            <g id="Group-3" transform="translate(367.000000, 300.000000)">
                <g id="Group-9" transform="translate(48.000000, 53.000000)">
                    <path d="M562.864082,284.01629 L564.758285,289.439839 C565.060375,290.305578 565.741463,290.985801 566.606502,291.287858 L572.030632,293.181858 C574.719307,294.121327 574.719307,297.922806 572.030632,298.862275 L566.606502,300.756276 C565.741463,301.058333 565.060375,301.738556 564.758285,302.604294 L562.864082,308.027843 C561.925305,310.71623 558.122626,310.71623 557.183849,308.027843 L555.289646,302.604294 C554.986763,301.738556 554.306468,301.058333 553.440636,300.756276 L548.016506,298.862275 C545.327831,297.922806 545.327831,294.121327 548.016506,293.181858 L553.440636,291.287858 C554.306468,290.985801 554.986763,290.305578 555.289646,289.439839 L557.183849,284.01629 C558.122626,281.327903 561.925305,281.327903 562.864082,284.01629" id="Fill-1-Copy-2" fill="#DBDDE4" transform="translate(560.023569, 296.022067) scale(-1, 1) translate(-560.023569, -296.022067) "></path>
                    <path d="M604.762952,195.000005 C602.514725,195.001504 600.476748,195.89984 598.993785,197.350307 C597.507186,195.904936 595.467695,195.011695 593.217044,195.014393 C588.673935,195.019189 584.996065,198.669785 585.000003,203.164763 C585.01303,213.493382 599.020142,219 599.020142,219 C599.020142,219 613.015135,213.46011 612.999988,203.128794 C612.994232,198.633516 609.307273,194.99491 604.762952,195.000005 L604.762952,195.000005 Z" id="Shape" stroke="#DBDDE4" stroke-width="4" stroke-linejoin="round"></path>
                    <path d="M32.7629517,351.000005 C30.5147247,351.001504 28.4767482,351.89984 26.9937849,353.350307 C25.507186,351.904936 23.4676948,351.011695 21.2170442,351.014393 C16.6739351,351.019189 12.9960647,354.669785 13.0000032,359.164763 C13.0130302,369.493382 27.0201419,375 27.0201419,375 C27.0201419,375 41.0151354,369.46011 40.9999877,359.128794 C40.9942316,354.633516 37.3072726,350.99491 32.7629517,351.000005 L32.7629517,351.000005 Z" id="Shape-Copy" stroke="#DBDDE4" stroke-width="4" stroke-linejoin="round"></path>
                    <path d="M108.762952,7.00000535 C106.514725,7.00150407 104.476748,7.89984029 102.993785,9.35030707 C101.507186,7.90493595 99.4676948,7.01169541 97.2170442,7.01439311 C92.6739351,7.01918904 88.9960647,10.6697852 89.0000032,15.1647635 C89.0130302,25.4933819 103.020142,31 103.020142,31 C103.020142,31 117.015135,25.4601101 116.999988,15.1287941 C116.994232,10.6335161 113.307273,6.99490968 108.762952,7.00000535 L108.762952,7.00000535 Z" id="Shape-Copy-2" stroke="#DBDDE4" stroke-width="4" stroke-linejoin="round"></path>
                    <path d="M595.998935,56.0000031 C594.63394,56.0008774 593.396597,56.5249068 592.496227,57.3710125 C591.593649,56.5278793 590.355386,56.0068223 588.98892,56.008396 C586.230603,56.0111936 583.997611,58.140708 584.000002,60.7627787 C584.007911,66.7878061 592.512229,70 592.512229,70 C592.512229,70 601.009189,66.7683976 600.999993,60.7417965 C600.996498,58.119551 598.757987,55.9970306 595.998935,56.0000031 L595.998935,56.0000031 Z" id="Shape-Copy-3" stroke="#DBDDE4" stroke-width="4" stroke-linejoin="round"></path>
                    <path d="M11.998935,129.000003 C10.63394,129.000877 9.39659715,129.524907 8.49622652,130.371012 C7.59364866,129.527879 6.35538614,129.006822 4.98891967,129.008396 C2.23060346,129.011194 -0.00238925973,131.140708 1.91863488e-06,133.762779 C0.00791120092,139.787806 8.51222903,143 8.51222903,143 C8.51222903,143 17.0091894,139.768398 16.9999925,133.741797 C16.9964977,131.119551 14.7579869,128.997031 11.998935,129.000003 L11.998935,129.000003 Z" id="Shape-Copy-4" stroke="#DBDDE4" stroke-width="4" stroke-linejoin="round"></path>
                    <path d="M36.8640816,235.01629 L38.7582853,240.439839 C39.0603747,241.305578 39.7414634,241.985801 40.6065015,242.287858 L46.0306318,244.181858 C48.7193068,245.121327 48.7193068,248.922806 46.0306318,249.862275 L40.6065015,251.756276 C39.7414634,252.058333 39.0603747,252.738556 38.7582853,253.604294 L36.8640816,259.027843 C35.9253051,261.71623 32.1226258,261.71623 31.1838493,259.027843 L29.2896457,253.604294 C28.9867634,252.738556 28.3064676,252.058333 27.4406365,251.756276 L22.0165063,249.862275 C19.3278312,248.922806 19.3278312,245.121327 22.0165063,244.181858 L27.4406365,242.287858 C28.3064676,241.985801 28.9867634,241.305578 29.2896457,240.439839 L31.1838493,235.01629 C32.1226258,232.327903 35.9253051,232.327903 36.8640816,235.01629" id="Fill-1-Copy-4" fill="#DBDDE4" transform="translate(34.023569, 247.022067) scale(-1, 1) translate(-34.023569, -247.022067) "></path>
                    <path d="M517.636618,383.152166 L518.71902,386.251337 C518.891643,386.746044 519.280836,387.134743 519.775144,387.307347 L522.874647,388.389633 C524.411032,388.926473 524.411032,391.098746 522.874647,391.635586 L519.775144,392.717872 C519.280836,392.890476 518.891643,393.279175 518.71902,393.773882 L517.636618,396.873053 C517.100174,398.409274 514.927215,398.409274 514.390771,396.873053 L513.308369,393.773882 C513.135293,393.279175 512.746553,392.890476 512.251792,392.717872 L509.152289,391.635586 C507.615904,391.098746 507.615904,388.926473 509.152289,388.389633 L512.251792,387.307347 C512.746553,387.134743 513.135293,386.746044 513.308369,386.251337 L514.390771,383.152166 C514.927215,381.615945 517.100174,381.615945 517.636618,383.152166" id="Fill-1-Copy-3" fill="#DBDDE4" transform="translate(516.013468, 390.012610) scale(-1, 1) translate(-516.013468, -390.012610) "></path>
                    <path d="M94.6366181,381.152166 L95.7190201,384.251337 C95.8916427,384.746044 96.2808362,385.134743 96.7751437,385.307347 L99.8746467,386.389633 C101.411032,386.926473 101.411032,389.098746 99.8746467,389.635586 L96.7751437,390.717872 C96.2808362,390.890476 95.8916427,391.279175 95.7190201,391.773882 L94.6366181,394.873053 C94.1001743,396.409274 91.9272148,396.409274 91.390771,394.873053 L90.308369,391.773882 C90.1352934,391.279175 89.7465529,390.890476 89.2517923,390.717872 L86.1522893,389.635586 C84.6159036,389.098746 84.6159036,386.926473 86.1522893,386.389633 L89.2517923,385.307347 C89.7465529,385.134743 90.1352934,384.746044 90.308369,384.251337 L91.390771,381.152166 C91.9272148,379.615945 94.1001743,379.615945 94.6366181,381.152166" id="Fill-1-Copy-6" fill="#DBDDE4" transform="translate(93.013468, 388.012610) scale(-1, 1) translate(-93.013468, -388.012610) "></path>
                    <path d="M516.636618,1.15216585 L517.71902,4.25133683 C517.891643,4.74604443 518.280836,5.13474326 518.775144,5.30734729 L521.874647,6.38963342 C523.411032,6.92647272 523.411032,9.09874648 521.874647,9.63558578 L518.775144,10.7178719 C518.280836,10.8904759 517.891643,11.2791748 517.71902,11.7738824 L516.636618,14.8730533 C516.100174,16.4092745 513.927215,16.4092745 513.390771,14.8730533 L512.308369,11.7738824 C512.135293,11.2791748 511.746553,10.8904759 511.251792,10.7178719 L508.152289,9.63558578 C506.615904,9.09874648 506.615904,6.92647272 508.152289,6.38963342 L511.251792,5.30734729 C511.746553,5.13474326 512.135293,4.74604443 512.308369,4.25133683 L513.390771,1.15216585 C513.927215,-0.384055284 516.100174,-0.384055284 516.636618,1.15216585" id="Fill-1-Copy-5" fill="#DBDDE4" transform="translate(515.013468, 8.012610) scale(-1, 1) translate(-515.013468, -8.012610) "></path>
                    <ellipse id="Oval-55-Copy" fill="#DBDDE4" transform="translate(500.342312, 93.341740) scale(-1, 1) translate(-500.342312, -93.341740) " cx="500.342312" cy="93.3417397" rx="5.34231201" ry="5.34173973"></ellipse>
                    <ellipse id="Oval-55-Copy-2" fill="#DBDDE4" transform="translate(618.342312, 382.341740) scale(-1, 1) translate(-618.342312, -382.341740) " cx="618.342312" cy="382.34174" rx="5.34231201" ry="5.34173973"></ellipse>
                    <ellipse id="Oval-55-Copy-4" fill="#DBDDE4" transform="translate(21.342312, 47.341740) scale(-1, 1) translate(-21.342312, -47.341740) " cx="21.342312" cy="47.3417397" rx="5.34231201" ry="5.34173973"></ellipse>
                </g>
            </g>
        </g>
    </g>
</svg>