<?xml version="1.0" encoding="UTF-8" standalone="no"?>
<svg width="20px" height="40px" viewBox="0 0 20 40" version="1.1" xmlns="http://www.w3.org/2000/svg" xmlns:xlink="http://www.w3.org/1999/xlink">
    <!-- Generator: Sketch 39.1 (31720) - http://www.bohemiancoding.com/sketch -->
    <title>checkbox</title>
    <desc>Created with Sketch.</desc>
    <defs>
        <rect id="path-1" x="0" y="0" width="20" height="20" rx="4"></rect>
        <mask id="mask-2" maskContentUnits="userSpaceOnUse" maskUnits="objectBoundingBox" x="0" y="0" width="20" height="20" fill="white">
            <use xlink:href="#path-1"></use>
        </mask>
        <rect id="path-3" x="0" y="20" width="20" height="20" rx="4"></rect>
        <mask id="mask-4" maskContentUnits="userSpaceOnUse" maskUnits="objectBoundingBox" x="0" y="0" width="20" height="20" fill="white">
            <use xlink:href="#path-3"></use>
        </mask>
    </defs>
    <g id="Page-1" stroke="none" stroke-width="1" fill="none" fill-rule="evenodd">
        <g id="checkbox">
            <use id="Rectangle-5" stroke="#DFE9F0" mask="url(#mask-2)" stroke-width="2" fill="#FFFFFF" xlink:href="#path-1"></use>
            <use id="Rectangle-5-Copy" stroke="#DFE9F0" mask="url(#mask-4)" stroke-width="2" fill="#FFFFFF" xlink:href="#path-3"></use>
            <g id="stroke-checkmark-1-(2)" transform="translate(5.000000, 26.000000)" fill="#00D061">
                <g id="Checkmark_1">
                    <path d="M3.646,7.858 L0.146,4.441 C-0.049,4.253 -0.049,3.947 0.146,3.757 L0.853,3.073 C1.048,2.885 1.365,2.885 1.56,3.073 L4,5.467 L9.439,0.142 C9.634,-0.046 9.951,-0.046 10.146,0.142 L10.853,0.826 C11.048,1.014 11.048,1.321 10.853,1.509 L4.353,7.86 C4.158,8.047 3.842,8.047 3.646,7.858 L3.646,7.858 Z" id="Shape"></path>
                </g>
            </g>
        </g>
    </g>
</svg>