<?xml version="1.0" encoding="UTF-8" standalone="no"?>
<svg width="18px" height="10px" viewBox="0 0 18 10" version="1.1" xmlns="http://www.w3.org/2000/svg" xmlns:xlink="http://www.w3.org/1999/xlink">
    <!-- Generator: Sketch 40.3 (33839) - http://www.bohemiancoding.com/sketch -->
    <title>Combined Shape Copy 2</title>
    <desc>Created with Sketch.</desc>
    <defs></defs>
    <g id="Page-1" stroke="none" stroke-width="1" fill="none" fill-rule="evenodd">
        <g id="2-copy-8" transform="translate(-1060.000000, -75.000000)" fill="#C9D0D1">
            <g id="Gif" transform="translate(1060.000000, 75.000000)">
                <path d="M0,1.606673 C0,0.719332005 0.716729064,0 1.59737992,0 L16.4026201,0 C17.2848286,0 18,0.719175339 18,1.606673 L18,8.393327 C18,9.28066799 17.2832709,10 16.4026201,10 L1.59737992,10 C0.715171352,10 0,9.28082466 0,8.393327 L0,1.606673 Z M5.4273913,7.78461538 C6.39782609,7.78461538 7.1726087,7.4 7.7126087,6.94615385 L7.7126087,4.68461538 L5.38043478,4.68461538 L5.38043478,5.50769231 L6.78130435,5.50769231 L6.78130435,6.51538462 C6.44478261,6.76153846 5.97521739,6.92307692 5.45869565,6.92307692 C4.33956522,6.92307692 3.59608696,6.10769231 3.59608696,5 L3.59608696,4.98461538 C3.59608696,3.95384615 4.36304348,3.08461538 5.3726087,3.08461538 C6.06913043,3.08461538 6.48391304,3.30769231 6.90652174,3.66153846 L7.51695652,2.94615385 C6.95347826,2.47692308 6.36652174,2.21538462 5.41173913,2.21538462 C3.76043478,2.21538462 2.58652174,3.49230769 2.58652174,5 L2.58652174,5.01538462 C2.58652174,6.58461538 3.71347826,7.78461538 5.4273913,7.78461538 Z M9.01956522,7.69230769 L9.98217391,7.69230769 L9.98217391,2.30769231 L9.01956522,2.30769231 L9.01956522,7.69230769 Z M11.4456522,7.69230769 L12.4082609,7.69230769 L12.4082609,5.5 L15.1708696,5.5 L15.1708696,4.63846154 L12.4082609,4.63846154 L12.4082609,3.16923077 L15.5230435,3.16923077 L15.5230435,2.30769231 L11.4456522,2.30769231 L11.4456522,7.69230769 Z" id="Combined-Shape-Copy-2"></path>
            </g>
        </g>
    </g>
</svg>