<?xml version="1.0" encoding="UTF-8" standalone="no"?>
<svg width="455px" height="167px" viewBox="0 0 455 167" version="1.1" xmlns="http://www.w3.org/2000/svg" xmlns:xlink="http://www.w3.org/1999/xlink">
    <!-- Generator: Sketch 3.8.3 (29802) - http://www.bohemiancoding.com/sketch -->
    <title>Group 9</title>
    <desc>Created with Sketch.</desc>
    <defs>
        <polygon id="path-1" points="28.3718445 17.9312727 56.7436351 17.9312727 56.7436351 0 28.3718445 3.87568765e-15 5.4028436e-05 0 5.4028436e-05 17.9312727"></polygon>
        <polygon id="path-3" points="15.4784796 12.9245246 30.9569024 12.9245246 30.9569024 7.5362319e-05 15.4784796 7.5362319e-05 5.67073171e-05 7.5362319e-05 5.67073171e-05 12.9245246 15.4784796 12.9245246"></polygon>
    </defs>
    <g id="Page-1" stroke="none" stroke-width="1" fill="none" fill-rule="evenodd">
        <g id="Popup" transform="translate(-502.000000, -153.000000)">
            <g id="Group-9" transform="translate(502.000000, 153.000000)">
                <g id="Page-1" transform="translate(143.000000, 43.000000)">
                    <path d="M123.628346,42.6040844 L129.436038,42.6040844 C141.051423,42.6040844 150.481281,33.1235219 150.481281,21.4464385 C150.481281,9.76996979 141.051423,0.289407292 129.436038,0.289407292 C117.820654,0.289407292 108.390184,9.76996979 108.390184,21.4464385 L108.390184,27.2849802 C108.332719,35.7250531 115.175403,42.6040844 123.628346,42.6040844" id="Fill-1" fill="#000000"></path>
                    <path d="M26.8532409,42.6040844 L21.0455486,42.6040844 C9.43016397,42.6040844 0.000305668016,33.1235219 0.000305668016,21.4464385 C0.000305668016,9.76996979 9.43016397,0.289407292 21.0455486,0.289407292 C32.6609332,0.289407292 42.0914028,9.76996979 42.0914028,21.4464385 L42.0914028,27.2849802 C42.1488684,35.7250531 35.3061842,42.6040844 26.8532409,42.6040844" id="Fill-3" fill="#000000"></path>
                    <path d="M106.837941,110.816381 L106.837941,110.816381 C87.6896737,119.545308 65.4370421,119.718621 46.1738437,111.278548 L44.506119,110.527527 C25.0705239,102.087454 12.6500097,83.7624229 12.6500097,63.7036521 L12.6500097,58.7900583 C12.6500097,26.3603396 40.7109449,0.000245833333 75.2697709,0.000245833333 C109.827985,0.000245833333 137.888921,26.3025687 137.888921,58.7900583 L137.888921,64.281975 C137.888921,84.1096625 125.8132,102.202996 106.837941,110.816381" id="Fill-5" fill="#FFFFFF"></path>
                    <path d="M106.837941,110.816381 L106.837941,110.816381 C87.6896737,119.545308 65.4370421,119.718621 46.1738437,111.278548 L44.506119,110.527527 C25.0705239,102.087454 12.6500097,83.7624229 12.6500097,63.7036521 L12.6500097,58.7900583 C12.6500097,26.3603396 40.7109449,0.000245833333 75.2697709,0.000245833333 C109.827985,0.000245833333 137.888921,26.3025687 137.888921,58.7900583 L137.888921,64.281975 C137.888921,84.1096625 125.8132,102.202996 106.837941,110.816381 L106.837941,110.816381 Z" id="Stroke-7" stroke="#000000" stroke-width="7.3267196"></path>
                    <path d="M31.0616781,39.9224115 C37.1982692,30.0159427 48.841164,26.9073802 57.067913,32.978849 C65.2940506,39.0503177 66.9880628,52.003276 60.852083,61.9097448 C54.7154919,71.815599 43.0719858,74.924776 34.8458482,68.8533073 C26.6197105,62.781224 24.925087,49.8288802 31.0616781,39.9224115" id="Fill-9" fill="#000000"></path>
                    <path d="M105.211115,103.032622 L105.206224,103.03508 C86.9963575,111.335643 66.0513737,111.49482 47.7748717,103.488028 L46.0765802,102.722872 C28.1136935,94.9225802 16.5068676,77.9109135 16.5068676,59.3830698 L16.5068676,64.226601 C16.5068676,82.7544448 28.1136935,99.7661115 46.0765802,107.566403 L47.7748717,108.331559 C66.0513737,116.338351 86.9963575,116.179174 105.206224,107.878611 L105.211115,107.876153 C122.719167,99.928976 134.03194,83.0205594 134.03194,64.8006219 L134.03194,59.9570906 C134.03194,78.1770281 122.719167,95.0854448 105.211115,103.032622" id="Fill-11" fill="#E6E6E6"></path>
                    <path d="M83.614202,79.3200302 L78.0510441,82.8231552 C76.3393032,83.8679469 74.1996271,83.8679469 72.5490198,82.8231552 L66.9858619,79.3200302 C65.4575219,78.3366969 64.5405178,76.6773219 64.5405178,74.8950302 C64.5405178,72.0064885 66.8635947,69.6710719 69.7368741,69.6710719 L80.8631899,69.6710719 C83.7364692,69.6710719 86.0595462,72.0064885 86.0595462,74.8950302 C86.0595462,76.6773219 85.1425421,78.3981552 83.614202,79.3200302" id="Fill-13" fill="#000000"></path>
                    <path d="M90.7668947,87.4939271 C82.2081903,96.0980938 68.3308623,96.0980938 59.7721579,87.4939271" id="Stroke-15" stroke="#010202" stroke-width="6.10559967" stroke-linecap="round"></path>
                    <path d="M75.300032,93.9470521 L75.300032,81.2251771" id="Stroke-17" stroke="#010202" stroke-width="4.88447974" stroke-linecap="round"></path>
                    <path d="M43.299036,42.0250854 C45.4772263,38.5090542 49.6098579,37.4052625 52.5295988,39.5606063 C55.4493397,41.7153354 56.050283,46.3130333 53.872704,49.8290646 C51.6945138,53.3450958 47.5618822,54.4482729 44.6421413,52.2935438 C41.7224004,50.1388146 41.1208457,45.5411167 43.299036,42.0250854" id="Fill-19" fill="#FFFFFF"></path>
                    <path d="M119.538386,39.9224115 C113.401795,30.0159427 101.7589,26.9073802 93.532151,32.978849 C85.3060134,39.0503177 83.6120012,52.003276 89.747981,61.9097448 C95.8845721,71.815599 107.528078,74.924776 115.754216,68.8533073 C123.980353,62.781224 125.674977,49.8288802 119.538386,39.9224115" id="Fill-21" fill="#000000"></path>
                    <path d="M107.301089,42.0250854 C105.122899,38.5090542 100.990267,37.4052625 98.0705263,39.5606063 C95.1507854,41.7153354 94.5498421,46.3130333 96.7274211,49.8290646 C98.9056113,53.3450958 103.038243,54.4482729 105.957984,52.2935438 C108.877725,50.1388146 109.479279,45.5411167 107.301089,42.0250854" id="Fill-23" fill="#FFFFFF"></path>
                </g>
                <g id="Group-5" transform="translate(126.000000, 130.000000)">
                    <path d="M6.11632707,18 C6.0395025,18.6559783 6,19.3233728 6,20 C6,29.3909051 13.6076665,37 22.9921987,37 L31.0078013,37 C40.3941168,37 48,29.3888407 48,20 C48,19.3233562 47.9605037,18.6559629 47.8836922,18 L6.11632707,18 Z" id="Combined-Shape" fill="#D3DCE6" opacity="0.4"></path>
                    <rect id="Rectangle-11" fill="#000000" x="0" y="0" width="42" height="34" rx="17"></rect>
                </g>
                <g id="Group-4" transform="translate(263.000000, 130.000000)">
                    <path d="M0.116327072,18 C0.0395025002,18.6559783 0,19.3233728 0,20 C0,29.3909051 7.60766648,37 16.9921987,37 L25.0078013,37 C34.3941168,37 42,29.3888407 42,20 C42,19.3233562 41.9605037,18.6559629 41.8836922,18 L0.116327072,18 Z" id="Combined-Shape-Copy" fill="#D3DCE6" opacity="0.4"></path>
                    <rect id="Rectangle-11-Copy" fill="#000000" x="6" y="0" width="42" height="34" rx="17"></rect>
                </g>
                <g id="Group-7" transform="translate(312.000000, 0.000000)">
                    <path d="M43.5,101.5 L43.5,147" id="Line" stroke="#3B4859" stroke-linecap="square"></path>
                    <g id="Group-6">
                        <path d="M43,96 C66.7482442,96 86,66.7482442 86,43 C86,19.2517558 66.7482442,0 43,0 C19.2517558,0 0,19.2517558 0,43 C0,66.7482442 19.2517558,96 43,96 Z" id="Oval-1" fill="#DC4C3B"></path>
                        <ellipse id="Oval-2" fill="#FFFFFF" transform="translate(24.718557, 26.904864) rotate(-330.000000) translate(-24.718557, -26.904864) " cx="24.7185573" cy="26.9048644" rx="10" ry="13.5"></ellipse>
                        <ellipse id="Oval-2-Copy" fill="#FFFFFF" transform="translate(15.385921, 48.779650) rotate(-357.000000) translate(-15.385921, -48.779650) " cx="15.3859214" cy="48.7796496" rx="4.10532399" ry="5.54218738"></ellipse>
                        <rect id="Rectangle-17" fill="#DC4C3B" x="40" y="95" width="6" height="5" rx="2"></rect>
                        <path d="M43,99 C44.6568542,99 46.5532273,100.21419 47.2469045,101.73663 L47.4869059,102.26337 C48.1755522,103.774769 47.3958851,105 45.7358069,105 L40.2641931,105 C38.6084415,105 37.8194169,103.78581 38.5130941,102.26337 L38.7530955,101.73663 C39.4417418,100.225231 41.3465171,99 43,99 L43,99 Z" id="Rectangle-17-Copy" fill="#DC4C3B"></path>
                    </g>
                </g>
                <g id="Page-1-Copy-7" transform="translate(426.500000, 92.000000) scale(-1, 1) translate(-426.500000, -92.000000) translate(398.000000, 83.000000)">
                    <mask id="mask-2" fill="white">
                        <use xlink:href="#path-1"></use>
                    </mask>
                    <g id="Clip-2"></g>
                    <path d="M21.2013526,0 C27.4046275,0 32.9860351,2.65036364 36.9130919,6.88663636 C38.6071536,6.18927273 40.4592483,5.80227273 42.4029213,5.80227273 C49.5781678,5.80227273 55.5291299,11.0394545 56.7436891,17.9312727 L42.4029213,17.9312727 L28.0618834,17.9312727 L5.4028436e-05,17.9312727 C1.79541896,7.74272727 10.5934095,0 21.2013526,0" id="Fill-1" fill="#FFFFFF" mask="url(#mask-2)"></path>
                </g>
                <path d="M0,101.723396 C1.3553592,97.1589192 5.57651428,93.8269945 10.5811243,93.8269945 C11.7338968,93.8269945 12.8449866,94.0049302 13.8897426,94.332565 C13.7570752,93.4191318 13.6867076,92.4859777 13.6867076,91.535792 C13.6867076,80.7794212 22.4064541,72.0596747 33.1628249,72.0596747 C33.6576386,72.0596747 34.1466257,72.0838776 34.6324753,72.1201818 C38.8944167,64.3040082 47.1847868,59 56.7144321,59 C69.0327827,59 79.2741708,67.8631707 81.4268792,79.5585222 C82.0857344,79.4747087 82.7562428,79.4267512 83.4379562,79.4267512 C92.1599437,79.4267512 99.2307594,86.4971187 99.2307594,95.2195544 C104.480087,95.2195544 109.128378,97.7823665 112,101.723396 L0,101.723396 Z" id="Page-1-Copy-4" fill="#FFFFFF"></path>
                <g id="Page-1" transform="translate(96.000000, 8.000000)">
                    <mask id="mask-4" fill="white">
                        <use xlink:href="#path-3"></use>
                    </mask>
                    <g id="Clip-2"></g>
                    <path d="M30.9569591,12.9245246 C29.646264,5.58065507 23.2230262,7.5362319e-05 15.4785079,7.5362319e-05 C7.73398963,7.5362319e-05 1.31075183,5.58065507 5.67073171e-05,12.9245246 L30.9569591,12.9245246 Z" id="Fill-1" fill="#FFFFFF" mask="url(#mask-4)"></path>
                </g>
            </g>
        </g>
    </g>
</svg>