<?xml version="1.0" encoding="UTF-8"?>
<svg width="149px" height="103px" viewBox="0 0 149 103" version="1.1" xmlns="http://www.w3.org/2000/svg" xmlns:xlink="http://www.w3.org/1999/xlink">
    <!-- Generator: Sketch 39.1 (31720) - http://www.bohemiancoding.com/sketch -->
    <title>Group 2</title>
    <desc>Created with Sketch.</desc>
    <defs></defs>
    <g id="Page-1" stroke="none" stroke-width="1" fill="none" fill-rule="evenodd">
        <g id="Case-1" transform="translate(-670.000000, -139.000000)">
            <g id="Group-19" transform="translate(531.000000, 139.000000)">
                <g id="Group-2" transform="translate(139.000000, 0.000000)">
                    <g id="Group-5" transform="translate(0.472441, 72.923865)"></g>
                    <g id="Group-4" transform="translate(109.964567, 72.923865)"></g>
                    <g id="Group-15">
                        <g id="Group-8">
                            <g id="Page-1" transform="translate(14.059055, 0.374817)">
                                <path d="M98.2476923,36.9388469 L102.863077,36.9388469 C112.093846,36.9388469 119.587773,29.3865344 119.587773,20.084451 C119.587773,10.7828573 112.093846,3.23054479 102.863077,3.23054479 C93.6323077,3.23054479 86.1378947,10.7828573 86.1378947,20.084451 L86.1378947,24.7354927 C86.0922267,31.4589406 91.5301215,36.9388469 98.2476923,36.9388469" id="Fill-1" fill="#000000"></path>
                                <path d="M21.3403239,36.9388469 L16.7249393,36.9388469 C7.49417004,36.9388469 0.000242914979,29.3865344 0.000242914979,20.084451 C0.000242914979,10.7828573 7.49417004,3.23054479 16.7249393,3.23054479 C25.9557085,3.23054479 33.4501215,10.7828573 33.4501215,20.084451 L33.4501215,24.7354927 C33.4957895,31.4589406 28.0578947,36.9388469 21.3403239,36.9388469" id="Fill-3" fill="#000000"></path>
                                <path d="M84.9043239,91.2774562 C69.6871579,98.2310083 52.0029474,98.3690708 36.6944453,91.6456229 L35.3691012,91.0473521 C19.9235951,84.3239042 10.0529879,69.7259979 10.0529879,53.7469771 L10.0529879,49.8327583 C10.0529879,23.9989146 32.3530688,3.00019583 59.8170364,3.00019583 C87.2805182,3.00019583 109.580599,23.9528937 109.580599,49.8327583 L109.580599,54.207675 C109.580599,70.0026125 99.984,84.4159458 84.9043239,91.2774562 L89.4133552,0.855564219" id="Fill-5" fill="#FFFFFF"></path>
                                <path d="M84.9043239,91.2774562 L84.9043239,91.2774562 C69.6871579,98.2310083 52.0029474,98.3690708 36.6944453,91.6456229 L35.3691012,91.0473521 C19.9235951,84.3239042 10.0529879,69.7259979 10.0529879,53.7469771 L10.0529879,49.8327583 C10.0529879,23.9989146 32.3530688,3.00019583 59.8170364,3.00019583 C87.2805182,3.00019583 109.580599,23.9528937 109.580599,49.8327583 L109.580599,54.207675 C109.580599,70.0026125 99.984,84.4159458 84.9043239,91.2774562 L84.9043239,91.2774562 Z" id="Stroke-7" stroke="#000000" stroke-width="5.86137568"></path>
                                <path d="M24.6847773,34.802599 C29.5615385,26.9110052 38.81417,24.4346927 45.3519838,29.2712865 C51.8893117,34.1078802 53.2355466,44.4263385 48.3592713,52.3179323 C43.4825101,60.2090365 34.2293927,62.6858385 27.6920648,57.8492448 C21.1547368,53.0121615 19.8080162,42.6941927 24.6847773,34.802599" id="Fill-9" fill="#000000"></path>
                                <path d="M83.6114818,85.0768344 L83.6075951,85.0787927 C69.1361781,91.6911052 52.4911579,91.8179073 37.9667854,85.4396156 L36.6171498,84.8300844 C22.3420081,78.6162927 13.1180405,65.064626 13.1180405,50.3051573 L13.1180405,54.1635635 C13.1180405,68.9230323 22.3420081,82.474699 36.6171498,88.6884906 L37.9667854,89.2980219 C52.4911579,95.6763135 69.1361781,95.5495115 83.6075951,88.937199 L83.6114818,88.9352406 C97.525166,82.6044385 106.515449,69.1350219 106.515449,54.6208344 L106.515449,50.7624281 C106.515449,65.2766156 97.525166,78.7460323 83.6114818,85.0768344" id="Fill-11" fill="#E6E6E6"></path>
                                <path d="" id="Stroke-17" stroke="#010202" stroke-width="3.90758379" stroke-linecap="round"></path>
                                <path d="M34.40983,36.4776104 C36.1408421,33.6767042 39.4250526,32.7974125 41.7453765,34.5143813 C44.0657004,36.2308604 44.5432713,39.8934333 42.8127449,42.6943396 C41.0817328,45.4952458 37.7975223,46.3740479 35.4771984,44.6575688 C33.1568745,42.9410896 32.6788178,39.2785167 34.40983,36.4776104" id="Fill-19" fill="#FFFFFF"></path>
                                <path d="M94.9973927,34.802599 C90.1206316,26.9110052 80.868,24.4346927 74.3301862,29.2712865 C67.7928583,34.1078802 66.4466235,44.4263385 71.3228988,52.3179323 C76.1996599,60.2090365 85.4527773,62.6858385 91.9901053,57.8492448 C98.5274332,53.0121615 99.8741538,42.6941927 94.9973927,34.802599" id="Fill-21" fill="#000000"></path>
                                <path d="M85.2723887,36.4776104 C83.5413765,33.6767042 80.257166,32.7974125 77.9368421,34.5143813 C75.6165182,36.2308604 75.1389474,39.8934333 76.8694737,42.6943396 C78.6004858,45.4952458 81.8846964,46.3740479 84.2050202,44.6575688 C86.5253441,42.9410896 87.0034008,39.2785167 85.2723887,36.4776104" id="Fill-23" fill="#FFFFFF"></path>
                            </g>
                            <path d="M5.3606866,87.3133236 C5.29928743,87.8377221 5.26771654,88.3712468 5.26771654,88.9121523 C5.26771654,96.4193765 11.3478594,102.502196 18.8480958,102.502196 L25.2542664,102.502196 C32.755928,102.502196 38.8346457,96.4177263 38.8346457,88.9121523 C38.8346457,88.3712335 38.8030797,87.8377097 38.741691,87.3133236 L5.3606866,87.3133236 Z" id="Combined-Shape" fill="#D3DCE6" opacity="0.4"></path>
                            <rect id="Rectangle-11" fill="#000000" x="0.472440945" y="72.9238653" width="33.5669291" height="27.1800878" rx="13.5900439"></rect>
                            <path d="M110.057537,87.3133236 C109.996138,87.8377221 109.964567,88.3712468 109.964567,88.9121523 C109.964567,96.4193765 116.04471,102.502196 123.544946,102.502196 L129.951117,102.502196 C137.452778,102.502196 143.531496,96.4177263 143.531496,88.9121523 C143.531496,88.3712335 143.49993,87.8377097 143.438541,87.3133236 L110.057537,87.3133236 Z" id="Combined-Shape-Copy" fill="#D3DCE6" opacity="0.4"></path>
                            <rect id="Rectangle-11-Copy" fill="#000000" x="114.759843" y="72.9238653" width="33.5669291" height="27.1800878" rx="13.5900439"></rect>
                        </g>
                        <g id="Page-1" transform="translate(63.000000, 57.000000)" fill="#000000">
                            <g id="Group-3" transform="translate(3.080000, 0.248313)">
                                <path d="M13.756336,6.9989 L9.752336,9.47248491 C8.520336,10.2102208 6.980336,10.2102208 5.792336,9.47248491 L1.788336,6.9989 C0.688336,6.30456038 0.028336,5.13286226 0.028336,3.8743717 C0.028336,1.83474906 1.700336,0.185692453 3.768336,0.185692453 L11.776336,0.185692453 C13.844336,0.185692453 15.516336,1.83474906 15.516336,3.8743717 C15.516336,5.13286226 14.856336,6.3479566 13.756336,6.9989" id="Fill-1"></path>
                            </g>
                            <path d="M10.852248,19.3112774 C9.880288,19.3112774 9.092248,18.5340509 9.092248,17.5754283 L9.092248,8.59240943 C9.092248,7.63378679 9.880288,6.85656038 10.852248,6.85656038 C11.824208,6.85656038 12.612248,7.63378679 12.612248,8.59240943 L12.612248,17.5754283 C12.612248,18.5340509 11.824208,19.3112774 10.852248,19.3112774" id="Fill-4"></path>
                            <path d="M19.504408,22.8143509 C18.941648,22.8143509 18.378008,22.6025774 17.949008,22.1785962 C14.036088,18.3206717 7.669288,18.3193698 3.755488,22.1790302 C2.897048,23.0256906 1.503568,23.0261245 0.644248,22.1785962 C-0.214632,21.3315019 -0.214632,19.9575774 0.644688,19.1100491 C6.273608,13.5592377 15.431768,13.5588038 21.059808,19.110483 C21.919128,19.9575774 21.919128,21.3315019 21.059808,22.1785962 C20.630808,22.6025774 20.067168,22.8143509 19.504408,22.8143509" id="Fill-6"></path>
                        </g>
                    </g>
                </g>
            </g>
        </g>
    </g>
</svg>