<?xml version="1.0" encoding="UTF-8" standalone="no"?>
<svg width="318px" height="257px" viewBox="0 0 318 257" version="1.1" xmlns="http://www.w3.org/2000/svg" xmlns:xlink="http://www.w3.org/1999/xlink" xmlns:sketch="http://www.bohemiancoding.com/sketch/ns">
    <!-- Generator: Sketch 3.2.1 (9971) - http://www.bohemiancoding.com/sketch -->
    <title>Shape</title>
    <desc>Created with Sketch.</desc>
    <defs></defs>
    <g id="Page-1" stroke="none" stroke-width="1" fill="none" fill-rule="evenodd" sketch:type="MSPage">
        <g id="panda-outline" sketch:type="MSLayerGroup" transform="translate(-586.000000, -538.000000)" fill="#FFFFFF">
            <path d="M813.810447,557.182156 C793.761395,547.520574 770.807292,542.035534 746.415917,542.035534 C721.126622,542.035534 697.38262,547.931652 676.819471,558.265862 C667.495953,546.49888 653.08022,538.950699 636.901152,538.950699 C608.789071,538.950699 586,561.74002 586,589.851851 C586,608.142319 595.647079,624.17986 610.130826,633.153061 C606.471382,644.375689 604.50951,656.242439 604.50951,668.517267 C604.50951,738.371262 668.043057,794.999 746.415917,794.999 C824.788778,794.999 888.322325,738.371262 888.322325,668.517267 C888.322325,655.631324 886.160415,643.195466 882.142153,631.482245 C895.210631,622.268748 903.747,607.057113 903.747,589.851851 C903.747,561.73977 880.957679,538.950699 852.845848,538.950699 C837.169126,538.950699 823.147967,546.037543 813.810697,557.182156 L813.810447,557.182156 Z M816.686742,576.423304 C796.588181,564.445533 772.418348,557.460209 746.415917,557.460209 C719.306527,557.460209 694.189264,565.052898 673.600611,577.97985 C668.594161,562.491913 654.055654,551.290289 636.901152,551.290289 C615.604113,551.290289 598.33959,568.554812 598.33959,589.851851 C598.33959,608.51639 611.599854,624.083842 629.213694,627.647017 C623.23056,640.7375 619.934184,655.055965 619.934184,670.059809 C619.934184,732.246851 676.561922,782.65941 746.415917,782.65941 C816.269913,782.65941 872.89765,732.246851 872.89765,670.059809 C872.89765,654.510611 869.357229,639.697302 862.955015,626.224248 C878.75101,620.934745 891.40716,606.647285 891.40716,589.851601 C891.40716,568.554562 874.142637,551.290039 852.845598,551.290039 C836.271205,551.290039 822.139276,561.746772 816.686742,576.422804 L816.686742,576.423304 Z" id="Shape" sketch:type="MSShapeGroup"></path>
        </g>
    </g>
</svg>