<?xml version="1.0" encoding="UTF-8" standalone="no"?>
<svg width="206px" height="48px" viewBox="0 0 206 48" version="1.1" xmlns="http://www.w3.org/2000/svg" xmlns:xlink="http://www.w3.org/1999/xlink">
    <!-- Generator: Sketch 3.8.3 (29802) - http://www.bohemiancoding.com/sketch -->
    <title>panda-5-logo</title>
    <desc>Created with Sketch.</desc>
    <defs></defs>
    <g id="Page-1" stroke="none" stroke-width="1" fill="none" fill-rule="evenodd">
        <g id="panda-5-logo">
            <g id="Page-1" transform="translate(70.000000, 2.000000)">
                <g id="panda-5-logo">
                    <g id="Group" transform="translate(0.000000, 7.000000)" fill="#000000">
                        <g id="Page-1" transform="translate(0.778469, 0.568627)">
                            <path d="M10.1554667,15.1356413 L4.15897379,15.1356413 L4.15897379,3.68633585 L10.197073,3.68633585 C13.6951135,3.68633585 15.8605425,5.78334384 15.8605425,9.34813571 C15.8605425,12.9129276 13.6951135,15.1356413 10.1554667,15.1356413 M10.8216861,0.079642078 L1.45214441,0.079642078 C0.535941624,0.079642078 0.0779265509,0.541084677 0.0779265509,1.46362214 L0.0779265509,28.3043159 C0.0779265509,29.2270272 0.535941624,29.688296 1.45214441,29.688296 L2.78475593,29.688296 C3.70078608,29.688296 4.15897379,29.2270272 4.15897379,28.3043159 L4.15897379,18.7423351 L10.8216861,18.7423351 C16.1937385,18.7423351 20.0248024,14.9678598 20.0248024,9.34813571 C20.0248024,3.72841163 16.1937385,0.079642078 10.8216861,0.079642078" id="Fill-1"></path>
                            <path d="M34.8910947,20.2102233 C34.8910947,23.3556483 32.7256657,26.9623421 29.1860189,26.9623421 C26.6041812,26.9623421 25.2715696,25.242799 25.2715696,23.5653317 C25.2715696,19.5392711 30.8518264,19.2875119 33.8084665,19.2875119 L34.8910947,19.2875119 L34.8910947,20.2102233 L34.8910947,20.2102233 Z M30.6018431,7.96408609 C27.3953923,7.96408609 25.0217589,9.05457893 23.7725327,9.76743298 C23.022928,10.1869737 22.8979363,10.8579258 23.314345,11.6547576 L23.6475411,12.2419059 C24.1055561,12.9968357 24.7303419,13.1225414 25.521553,12.7450765 C26.4791895,12.200004 28.1866034,11.4031722 30.2688197,11.4031722 C32.8506574,11.4031722 34.8494883,12.5774689 34.8494883,16.0582831 L34.8494883,16.6035295 L33.7666875,16.6035295 C29.3942232,16.6035295 21.190695,17.3163835 21.190695,23.9008947 C21.190695,27.8850534 24.5637439,30.1915709 28.2698161,30.1915709 C33.1836808,30.1915709 35.1409054,25.7461435 35.1409054,25.7461435 L35.2242907,25.7461435 C35.2242907,25.7461435 35.099299,26.2493142 35.099299,27.0461459 L35.099299,28.3044202 C35.099299,29.2269577 35.5990931,29.6884003 36.4735169,29.6884003 L37.5145387,29.6884003 C38.3891352,29.6884003 38.8887566,29.2269577 38.8887566,28.3044202 L38.8887566,16.2679665 C38.8887566,10.8998277 35.8489038,7.96408609 30.6018431,7.96408609 L30.6018431,7.96408609 L30.6018431,7.96408609 Z" id="Fill-3"></path>
                            <path d="M56.2954701,7.96415564 C51.6731951,7.96415564 49.1329638,11.1095807 48.2999737,12.9548295 L48.216761,12.9548295 C48.216761,12.9548295 48.3417526,12.3676812 48.3417526,11.7386309 L48.3417526,9.85130635 C48.3417526,8.92876888 47.8835649,8.46750015 46.9675348,8.46750015 L45.8015213,8.46750015 C44.9269248,8.46750015 44.4273034,8.92876888 44.4273034,9.85130635 L44.4273034,28.3043159 C44.4273034,29.2270272 44.9269248,29.688296 45.8015213,29.688296 L47.0923538,29.688296 C48.0085566,29.688296 48.4665717,29.2270272 48.4665717,28.3043159 L48.4665717,19.5391668 C48.4665717,15.1356413 51.4232118,11.696729 55.504259,11.696729 C58.8773078,11.696729 59.4603146,14.0453223 59.4603146,17.0229659 L59.4603146,28.3043159 C59.4603146,29.2270272 59.9601086,29.688296 60.8345324,29.688296 L62.1255376,29.688296 C63.0415677,29.688296 63.4995828,29.2270272 63.4995828,28.3043159 L63.4995828,16.1002545 C63.4995828,10.6902139 61.2509412,7.96415564 56.2954701,7.96415564" id="Fill-5"></path>
                            <path d="M77.8241121,26.6687505 C74.3260717,26.6687505 71.8692256,23.691107 71.8692256,19.0778981 C71.8692256,14.2550057 74.6176613,11.5289475 77.9073248,11.5289475 C81.9467657,11.5289475 83.9039903,15.2615209 83.9039903,19.0359962 C83.9039903,24.4460368 80.9473503,26.6687505 77.8241121,26.6687505 M86.4442217,0.079642078 L85.1532165,0.079642078 C84.2370137,0.079642078 83.7789987,0.541084677 83.7789987,1.46362214 L83.7789987,10.1868694 C83.7789987,10.9837011 83.9039903,11.6127513 83.9039903,11.6127513 L83.820605,11.6127513 C83.820605,11.6127513 82.1133637,7.96415564 77.2827117,7.96415564 C71.7026276,7.96415564 67.746572,12.3257792 67.746572,19.0778981 C67.746572,25.6622354 71.3278252,30.1916405 77.032901,30.1916405 C82.1965764,30.1916405 83.987203,26.1235041 83.987203,26.1235041 L84.0705884,26.1235041 C84.0705884,26.1235041 83.987203,26.5849467 83.987203,27.172095 L83.987203,28.3882936 C83.987203,29.2270272 84.4453907,29.688296 85.3614209,29.688296 L86.4442217,29.688296 C87.3602518,29.688296 87.8184396,29.2270272 87.8184396,28.3043159 L87.8184396,1.46362214 C87.8184396,0.541084677 87.3602518,0.079642078 86.4442217,0.079642078" id="Fill-7"></path>
                            <path d="M105.682944,20.2102233 C105.682944,23.3556483 103.517515,26.9623421 99.9778679,26.9623421 C97.3960302,26.9623421 96.0634187,25.242799 96.0634187,23.5653317 C96.0634187,19.5392711 101.643675,19.2875119 104.600316,19.2875119 L105.682944,19.2875119 L105.682944,20.2102233 L105.682944,20.2102233 Z M101.393692,7.96408609 C98.1872413,7.96408609 95.813608,9.05457893 94.5643818,9.76743298 C93.814777,10.1869737 93.6897854,10.8579258 94.1061941,11.6547576 L94.4393901,12.2419059 C94.8974052,12.9968357 95.5221909,13.1225414 96.3134021,12.7450765 C97.2710386,12.200004 98.9784525,11.4031722 101.060669,11.4031722 C103.642506,11.4031722 105.641337,12.5774689 105.641337,16.0582831 L105.641337,16.6035295 L104.558537,16.6035295 C100.186072,16.6035295 91.9825441,17.3163835 91.9825441,23.9008947 C91.9825441,27.8850534 95.3555929,30.1915709 99.0616651,30.1915709 C103.97553,30.1915709 105.932754,25.7461435 105.932754,25.7461435 L106.01614,25.7461435 C106.01614,25.7461435 105.891148,26.2493142 105.891148,27.0461459 L105.891148,28.3044202 C105.891148,29.2269577 106.390942,29.6884003 107.265366,29.6884003 L108.306388,29.6884003 C109.180984,29.6884003 109.680606,29.2269577 109.680606,28.3044202 L109.680606,16.2679665 C109.680606,10.8998277 106.640753,7.96408609 101.393692,7.96408609 L101.393692,7.96408609 L101.393692,7.96408609 Z" id="Fill-9"></path>
                        </g>
                    </g>
                    <g id="Group-2" transform="translate(114.168478, 0.693252)">
                        <ellipse id="Oval-1" fill="#2ECC71" cx="10.9157609" cy="11.006135" rx="10.9157609" ry="11.006135"></ellipse>
                        <path d="M7.65840116,15.7785752 C8.12465419,16.2324777 9.1536264,17.0268069 10.7774732,17.0268069 C13.0605052,17.0268069 14.7968958,15.3733052 14.7968958,13.1686362 C14.7968958,11.1098644 13.2373598,9.4401518 10.8417839,9.4401518 C10.005744,9.4401518 9.37871407,9.79678943 9.37871407,9.79678943 L9.34655868,9.79678943 C9.34655868,9.79678943 9.41086945,9.53741661 9.42694714,9.19698978 L9.70026788,6.78158034 L13.5106806,6.78158034 C13.8643898,6.78158034 14.0412444,6.58705072 14.0412444,6.24662389 L14.0412444,5.92240786 C14.0412444,5.56577022 13.8643898,5.38745141 13.5106806,5.38745141 L8.81599489,5.38745141 C8.47836339,5.38745141 8.30150879,5.54955942 8.26935341,5.88998625 L7.78702269,10.5911187 C7.75486731,10.8991239 7.89956652,11.1098644 8.17288727,11.22334 L8.31758648,11.2719724 C8.54267415,11.3530264 8.76776182,11.3368156 9.02500487,11.2395508 C9.3144033,11.0936536 9.87712248,10.8342807 10.5845409,10.8342807 C12.0476107,10.8342807 13.1730491,11.8069288 13.1730491,13.184847 C13.1730491,14.5789759 12.0154553,15.5029916 10.681007,15.5029916 C9.61987943,15.5029916 8.94461642,14.9680351 8.59090722,14.6276083 C8.31758648,14.4168679 8.07642112,14.4168679 7.86741114,14.6924515 L7.61016809,15.0490891 C7.40115811,15.2922512 7.40115811,15.5678348 7.65840116,15.7785752 L7.65840116,15.7785752 L7.65840116,15.7785752 Z" id="5-copy" stroke="#FFFFFF" stroke-width="0.56" fill="#FFFFFF"></path>
                    </g>
                </g>
            </g>
            <g id="Page-1">
                <path d="M47.6378563,17.807563 L49.8757413,17.807563 C54.3515111,17.807563 57.9851295,14.1735534 57.9851295,9.69759183 C57.9851295,5.22186587 54.3515111,1.58785625 49.8757413,1.58785625 C45.3999714,1.58785625 41.7661174,5.22186587 41.7661174,9.69759183 L41.7661174,11.9355726 C41.7439742,15.1707505 44.3806737,17.807563 47.6378563,17.807563" id="Fill-1" fill="#000000"></path>
                <path d="M10.347391,17.807563 L8.10950604,17.807563 C3.6337362,17.807563 0.000117783417,14.1735534 0.000117783417,9.69759183 C0.000117783417,5.22186587 3.6337362,1.58785625 8.10950604,1.58785625 C12.5852759,1.58785625 16.2191299,5.22186587 16.2191299,9.69759183 L16.2191299,11.9355726 C16.2412731,15.1707505 13.6045736,17.807563 10.347391,17.807563" id="Fill-3" fill="#000000"></path>
                <path d="M41.1679897,43.9541279 L41.1679897,43.9541279 C33.7895653,47.3000269 25.2149326,47.3664596 17.7922216,44.1312817 L17.1495953,43.8434067 C9.66045452,40.6082288 4.87444315,33.5840317 4.87444315,25.8952721 L4.87444315,24.0118346 C4.87444315,11.5811471 15.6871964,1.47701731 29.0037895,1.47701731 C42.3201471,1.47701731 53.1329003,11.5590029 53.1329003,24.0118346 L53.1329003,26.11695 C53.1329003,33.7171327 48.4797486,40.6525173 41.1679897,43.9541279" id="Fill-5" fill="#FFFFFF"></path>
                <path d="M40.5838256,42.6713822 C33.5686585,45.8525547 25.4117942,45.9147418 18.3573831,42.8400869 L17.7922216,44.1312817 L18.3704905,42.845879 L17.7278641,42.558004 L17.7105378,42.5503812 C10.7386636,39.5386535 6.28642394,33.0219346 6.28642394,25.8952721 L6.28642394,24.0118346 C6.28642394,12.3788318 16.4491112,2.88600185 29.0037895,2.88600185 C41.566654,2.88600185 51.7209195,12.364594 51.7209195,24.0118346 L51.7209195,26.11695 C51.7209195,33.1536121 47.4012138,39.5930018 40.5858806,42.6704523 L40.5838256,42.6713822 Z M41.7500988,45.2378035 C49.5593164,41.7115664 54.5448811,34.2795799 54.5448811,26.11695 L54.5448811,24.0118346 C54.5448811,10.7646897 43.085722,0.0680327684 29.0037895,0.0680327684 C14.9296515,0.0680327684 3.46246237,10.7793805 3.46246237,24.0118346 L3.46246237,25.8952721 C3.46246237,34.1650673 8.60060176,41.6857338 16.5886528,45.1364322 L17.1495953,43.8434067 L16.5713265,45.1288095 L17.2139528,45.4166845 L17.2270602,45.4224766 C25.0156794,48.8171351 34.0080933,48.7485778 41.7521538,45.2368736 L41.7500988,45.2378035 Z" id="Stroke-7" fill="#000000"></path>
                <path d="M11.969033,16.7796466 C14.3336529,12.9823822 18.8200233,11.7908341 21.9900462,14.1180986 C25.1598335,16.445363 25.8125892,21.4103822 23.4482049,25.2076466 C21.083585,29.0046755 16.5969791,30.1964591 13.4271917,27.8691947 C10.2574044,25.5416947 9.60441317,20.5769111 11.969033,16.7796466" id="Fill-9" fill="#000000"></path>
                <path d="M40.5411228,40.9705226 L40.5392383,40.9714649 C33.522409,44.1531668 25.4516537,44.2141813 18.4091476,41.1450851 L17.7547429,40.8517918 C10.8330827,37.8618495 6.36061075,31.3410803 6.36061075,24.2391428 L6.36061075,26.0957245 C6.36061075,33.197662 10.8330827,39.7184313 17.7547429,42.7083736 L18.4091476,43.0016668 C25.4516537,46.070763 33.522409,46.0097486 40.5392383,42.8280466 L40.5411228,42.8271043 C47.2875213,39.7808591 51.6466856,33.2996668 51.6466856,26.3157534 L51.6466856,24.4591716 C51.6466856,31.4430851 47.2875213,37.9242774 40.5411228,40.9705226" id="Fill-11" fill="#E6E6E6"></path>
                <path d="M32.219159,31.8812111 L30.0755008,33.2239995 C29.4159137,33.6244803 28.5914298,33.6244803 27.9553993,33.2239995 L25.8117411,31.8812111 C25.2228241,31.504288 24.8694738,30.8682303 24.8694738,30.1850572 C24.8694738,29.0778457 25.7646278,28.1826534 26.8717919,28.1826534 L31.1591083,28.1826534 C32.2662724,28.1826534 33.1614264,29.0778457 33.1614264,30.1850572 C33.1614264,30.8682303 32.8080761,31.5278457 32.219159,31.8812111" id="Fill-13" fill="#000000"></path>
                <path d="M34.1423958,34.1850086 C31.3041762,37.0233498 26.7032144,37.0233498 23.8649948,34.1850086 C23.4059823,33.7259764 22.6609687,33.7251709 22.2009604,34.1832093 C21.7409521,34.6412478 21.7401449,35.3846804 22.1991574,35.8437126 C25.9568091,39.6015252 32.0505815,39.6015252 35.8082332,35.8437126 C36.2672457,35.3846804 36.2664385,34.6412478 35.8064302,34.1832093 C35.3464219,33.7251709 34.6014083,33.7259764 34.1423958,34.1850086 L34.1423958,34.1850086 Z" id="Stroke-15" fill="#010202"></path>
                <path d="M29.9567706,37.4879183 L29.9567706,32.611476 C29.9567706,32.0927022 29.535327,31.6721529 29.0154501,31.6721529 C28.4955731,31.6721529 28.0741296,32.0927022 28.0741296,32.611476 L28.0741296,37.4879183 C28.0741296,38.0066921 28.4955731,38.4272413 29.0154501,38.4272413 C29.535327,38.4272413 29.9567706,38.0066921 29.9567706,37.4879183 L29.9567706,37.4879183 Z" id="Stroke-17" fill="#010202"></path>
                <path d="M16.6844686,17.585626 C17.5237932,16.2378904 19.116225,15.8147942 20.2412922,16.6409625 C21.3663594,17.4668952 21.5979216,19.2292462 20.7588325,20.5769817 C19.9195079,21.9247173 18.3270761,22.3475779 17.2020089,21.5216452 C16.0769417,20.6957125 15.845144,18.9333615 16.6844686,17.585626" id="Fill-19" fill="#FFFFFF"></path>
                <path d="M46.0618671,16.7796466 C43.6972472,12.9823822 39.2108769,11.7908341 36.040854,14.1180986 C32.8710667,16.445363 32.218311,21.4103822 34.5826953,25.2076466 C36.9473152,29.0046755 41.4339211,30.1964591 44.6037084,27.8691947 C47.7734957,25.5416947 48.426487,20.5769111 46.0618671,16.7796466" id="Fill-21" fill="#000000"></path>
                <path d="M41.3464551,17.585626 C40.5071305,16.2378904 38.9146987,15.8147942 37.7896315,16.6409625 C36.6645643,17.4668952 36.4330021,19.2292462 37.2720912,20.5769817 C38.1114158,21.9247173 39.7038476,22.3475779 40.8289148,21.5216452 C41.953982,20.6957125 42.1857797,18.9333615 41.3464551,17.585626" id="Fill-23" fill="#FFFFFF"></path>
            </g>
        </g>
    </g>
</svg>