<?xml version="1.0" encoding="UTF-8" standalone="no"?>
<svg width="218px" height="184px" viewBox="0 0 218 184" version="1.1" xmlns="http://www.w3.org/2000/svg" xmlns:xlink="http://www.w3.org/1999/xlink">
    <!-- Generator: Sketch 3.8.3 (29802) - http://www.bohemiancoding.com/sketch -->
    <title>panda-stroke</title>
    <desc>Created with Sketch.</desc>
    <defs></defs>
    <g id="Page-1" stroke="none" stroke-width="1" fill="none" fill-rule="evenodd">
        <g id="Shape-no-stroke" transform="translate(-154.000000, -108.000000)">
            <g id="panda-stroke" transform="translate(163.000000, 117.000000)">
                <path d="M184.238783,58.7051423 C193.537756,54.1499106 199.948722,44.5748243 199.948722,33.5110829 C199.948722,18.0447252 187.419004,5.4870099 171.985315,5.4870099 C163.477649,5.4870099 155.852153,9.3028658 150.721438,15.3183311 C136.374137,5.8128745 118.875975,0.235094628 100.013067,0.235094628 C81.1391849,0.235094628 63.624897,5.83323208 49.267252,15.3648162 C44.1362175,9.32253084 36.4933736,5.4870099 27.9638139,5.4870099 C12.5301248,5.4870099 0.000406149714,18.0447252 0.000406149714,33.5110829 C0.000406149714,44.6037461 6.44493481,54.199961 15.7833307,58.7407629 C13.2846942,66.404253 11.9395254,74.5416943 11.9395254,82.9755051 L11.9395254,89.4839281 C11.9395254,118.061104 29.6572475,144.049585 57.2022509,155.973849 L59.1365355,151.505659 L57.1425051,155.947508 L59.3584579,156.942291 L59.4036558,156.962306 C86.2609635,168.692918 117.269287,168.456011 143.972944,156.320935 L143.965858,156.324148 C170.894194,144.138853 188.085797,118.456815 188.085797,90.2499601 L188.085797,82.9755051 C188.085797,74.5261134 186.73959,66.376987 184.238783,58.7051423 Z" id="Combined-Shape" stroke="#FFFFFF" stroke-width="17" fill="#000000"></path>
                <path d="M164.26847,61.5359699 L171.985315,61.5359699 C187.419004,61.5359699 199.948722,48.9782546 199.948722,33.5110829 C199.948722,18.0447252 187.419004,5.4870099 171.985315,5.4870099 C156.551626,5.4870099 144.021095,18.0447252 144.021095,33.5110829 L144.021095,41.2446687 C143.944738,52.4241776 153.036806,61.5359699 164.26847,61.5359699" id="Fill-1" fill="#000000"></path>
                <path d="M35.6806585,61.5359699 L27.9638139,61.5359699 C12.5301248,61.5359699 0.000406149714,48.9782546 0.000406149714,33.5110829 C0.000406149714,18.0447252 12.5301248,5.4870099 27.9638139,5.4870099 C43.3975031,5.4870099 55.928034,18.0447252 55.928034,33.5110829 L55.928034,41.2446687 C56.0043902,52.4241776 46.9123227,61.5359699 35.6806585,61.5359699" id="Fill-3" fill="#000000"></path>
                <path d="M141.958585,151.888268 L141.958585,151.888268 C116.515742,163.450385 86.9480433,163.679951 61.3524884,152.500442 L59.1365355,151.505659 C33.3119121,140.32615 16.8084247,116.053273 16.8084247,89.4839281 L16.8084247,82.9755051 C16.8084247,40.0199129 54.0937807,5.10399389 100.013067,5.10399389 C145.931542,5.10399389 183.216898,39.9433911 183.216898,82.9755051 L183.216898,90.2499601 C183.216898,116.513218 167.171547,140.479193 141.958585,151.888268" id="Fill-5" fill="#FFFFFF"></path>
                <path d="M139.944226,147.4556 C115.753995,158.448488 87.6268764,158.663382 63.3013209,148.038578 L61.3524884,152.500442 L63.3465188,148.058593 L61.130566,147.06381 L61.0708201,147.037468 C37.0298745,136.630116 21.6773239,114.110885 21.6773239,89.4839281 L21.6773239,82.9755051 C21.6773239,42.7763992 56.7210729,9.97289314 100.013067,9.97289314 C143.33329,9.97289314 178.347998,42.7271988 178.347998,82.9755051 L178.347998,90.2499601 C178.347998,114.565911 163.452462,136.817922 139.951312,147.452387 L139.944226,147.4556 Z M143.965858,156.324148 C170.894194,144.138853 188.085797,118.456815 188.085797,90.2499601 L188.085797,82.9755051 C188.085797,37.1985557 148.571455,0.235094628 100.013067,0.235094628 C51.481557,0.235094628 11.9395254,37.2493214 11.9395254,82.9755051 L11.9395254,89.4839281 C11.9395254,118.061104 29.6572475,144.049585 57.2022509,155.973849 L59.1365355,151.505659 L57.1425051,155.947508 L59.3584579,156.942291 L59.4036558,156.962306 C86.2609635,168.692918 117.269287,168.456011 143.972944,156.320935 L143.965858,156.324148 Z" id="Stroke-7" fill="#000000"></path>
                <path d="M41.2725277,57.9838932 C49.4263894,44.8620332 64.896632,40.7445092 75.8277454,48.7866245 C86.7580465,56.8287397 89.0089282,73.9859034 80.8558788,87.1077635 C72.7020172,100.228809 57.2309623,104.347147 46.3006612,96.3050322 C35.3703601,88.2621029 33.1186661,71.1057533 41.2725277,57.9838932" id="Fill-9" fill="#000000"></path>
                <path d="M139.796975,141.578095 L139.790477,141.581351 C115.594514,152.576068 87.764323,152.78691 63.4798193,142.181315 L61.2232515,141.167808 C37.3554575,130.835737 21.9331405,108.30251 21.9331405,83.7609932 L21.9331405,90.1766132 C21.9331405,114.71813 37.3554575,137.251357 61.2232515,147.583428 L63.4798193,148.596935 C87.764323,159.20253 115.594514,158.991688 139.790477,147.996971 L139.796975,147.993715 C163.060418,137.467084 178.092019,115.070619 178.092019,90.9369468 L178.092019,84.5213268 C178.092019,108.654999 163.060418,131.051464 139.796975,141.578095" id="Fill-11" fill="#E6E6E6"></path>
                <path d="M111.100548,110.168991 L103.708624,114.809142 C101.434185,116.193047 98.5911372,116.193047 96.3979287,114.809142 L89.0060039,110.168991 C86.9752553,108.866492 85.7568062,106.668526 85.7568062,104.307747 C85.7568062,100.481657 88.843544,97.3882227 92.6613513,97.3882227 L107.445201,97.3882227 C111.263008,97.3882227 114.349746,100.481657 114.349746,104.307747 C114.349746,106.668526 113.131297,108.947898 111.100548,110.168991" id="Fill-13" fill="#000000"></path>
                <path d="M117.732399,118.130014 C107.945435,127.93821 92.0800497,127.93821 82.2930853,118.130014 C80.7102837,116.543778 78.1412714,116.540995 76.5550359,118.123796 C74.9688004,119.706598 74.9660168,122.27561 76.5488185,123.861846 C89.5062381,136.847376 110.519247,136.847376 123.476666,123.861846 C125.059468,122.27561 125.056684,119.706598 123.470449,118.123796 C121.884213,116.540995 119.315201,116.543778 117.732399,118.130014 L117.732399,118.130014 Z" id="Stroke-15" fill="#010202"></path>
                <path d="M103.299209,129.543577 L103.299209,112.692501 C103.299209,110.899821 101.845955,109.446568 100.053276,109.446568 C98.2605969,109.446568 96.8073433,110.899821 96.8073433,112.692501 L96.8073433,129.543577 C96.8073433,131.336256 98.2605969,132.78951 100.053276,132.78951 C101.845955,132.78951 103.299209,131.336256 103.299209,129.543577 L103.299209,129.543577 Z" id="Stroke-17" fill="#010202"></path>
                <path d="M57.5326503,60.7690424 C60.4268732,56.1117956 65.9180173,54.6497408 69.7975594,57.5046551 C73.6771014,60.3587553 74.4755918,66.4487507 71.5821812,71.1059975 C68.6879583,75.7632443 63.1968142,77.224485 59.3172721,74.3703848 C55.4377301,71.5162846 54.6384274,65.4262892 57.5326503,60.7690424" id="Fill-19" fill="#FFFFFF"></path>
                <path d="M158.834024,57.9838932 C150.680163,44.8620332 135.20992,40.7445092 124.278807,48.7866245 C113.348506,56.8287397 111.097624,73.9859034 119.250673,87.1077635 C127.404535,100.228809 142.87559,104.347147 153.805891,96.3050322 C164.736192,88.2621029 166.987886,71.1057533 158.834024,57.9838932" id="Fill-21" fill="#000000"></path>
                <path d="M142.573983,60.7690424 C139.67976,56.1117956 134.188616,54.6497408 130.309074,57.5046551 C126.429532,60.3587553 125.631042,66.4487507 128.524452,71.1059975 C131.418675,75.7632443 136.909819,77.224485 140.789361,74.3703848 C144.668903,71.5162846 145.468206,65.4262892 142.573983,60.7690424" id="Fill-23" fill="#FFFFFF"></path>
            </g>
        </g>
    </g>
</svg>