<?xml version="1.0" encoding="UTF-8" standalone="no"?>
<svg width="297px" height="714px" viewBox="0 0 297 714" version="1.1" xmlns="http://www.w3.org/2000/svg" xmlns:xlink="http://www.w3.org/1999/xlink">
    <!-- Generator: Sketch 3.8.3 (29802) - http://www.bohemiancoding.com/sketch -->
    <title>panda</title>
    <desc>Created with Sketch.</desc>
    <defs>
        <path d="M0.674286656,26.9346338 C8.4628817,12.4479068 23.3579752,2.17683524 41.0292978,1.03437439 L48.8644829,0.528412963 C49.9525243,0.457850989 51.0349322,0.423371843 52.1100973,0.423371843 C70.9463235,0.422786666 87.602187,11.0657558 95.8864456,26.9346378 L0.674282408,26.9346417 L0.674286656,26.9346338 Z" id="path-1"></path>
    </defs>
    <g id="Page-1" stroke="none" stroke-width="1" fill="none" fill-rule="evenodd">
        <g id="panda">
            <g id="Page-1">
                <g id="panda">
                    <g id="Group" transform="translate(11.000000, 380.000000)">
                        <path d="M61.3,275.9 C61.3,275.9 78.1,324.9 89.6,329.8 C101.1,334.7 110,335.1 113.9,329.8 C117.9,324.5 116.1,310.8 116.1,310.8 L116.5,296.6 C116.6,296.5 97.2,272.8 61.3,275.9 L61.3,275.9 L61.3,275.9 Z" id="Shape" fill="#3B434F"></path>
                        <path d="M199.2,275.9 C199.2,275.9 182.4,324.9 170.9,329.8 C159.4,334.7 150.5,335.1 146.6,329.8 C142.6,324.5 144.4,310.8 144.4,310.8 L144,296.6 C143.9,296.5 163.3,272.8 199.2,275.9 L199.2,275.9 L199.2,275.9 Z" id="Shape_1_" fill="#3B434F"></path>
                        <g transform="translate(41.000000, 139.000000)">
                            <ellipse id="Oval" fill="#FFFFFF" cx="87.6" cy="86.2" rx="76.6" ry="75.2"></ellipse>
                            <path d="M87.7,171.7 C39.6,171.7 0.5,133.2 0.5,85.9 C0.5,38.6 39.6,0.2 87.7,0.2 C135.8,0.2 174.9,38.7 174.9,86 C174.9,133.2 135.8,171.7 87.7,171.7 L87.7,171.7 L87.7,171.7 Z M87.7,21.4 C51.3,21.4 21.7,50.4 21.7,86 C21.7,121.6 51.3,150.6 87.7,150.6 C124.1,150.6 153.7,121.6 153.7,86 C153.7,50.4 124.1,21.4 87.7,21.4 L87.7,21.4 L87.7,21.4 Z" id="Shape_2_" fill="#3B434F"></path>
                        </g>
                        <g id="Shape_3_" transform="translate(58.000000, 139.000000)" fill="#EDEDED">
                            <path d="M43.8,67.3 C43.8,38 61.3,12.8 86.6,1 C82.8,0.5 79,0.2 75.2,0.2 C33.9,0.2 0.5,33 0.5,73.5 C0.5,114 26.1,140.8 51.8,147.9 C77.5,155 98.8,145.7 102.9,142.5 C106.9,139.3 43.8,109.6 43.8,67.3 L43.8,67.3 L43.8,67.3 Z" id="Shape"></path>
                        </g>
                        <g id="Shape_4_" transform="translate(183.000000, 3.000000)" fill="#3B434F">
                            <path d="M3.3,32.9 C3.3,14.6 18.2,4.3 36.5,4.3 C54.8,4.3 69.7,19.2 69.7,37.5 C69.7,55.8 57.8,70.7 39.5,70.7 C28.6,70.7 31.3,65.5 24.4,57.4 L3.3,32.9 L3.3,32.9 L3.3,32.9 Z" id="Shape"></path>
                            <path d="M39.5,74.9 C30.4,74.9 27.8,71.4 25.2,66.3 C24.2,64.5 23.6,62.4 21.6,60.1 L0,34.5 L0,32.9 C0,13.6 15,0.1 37,0.1 C57.6,0.1 74.2,16.9 74.2,37.5 C74.2,59.2 59.5,74.9 39.5,74.9 L39.5,74.9 L39.5,74.9 Z M7.6,31.4 L27.6,54.6 C30.2,57.7 31.7,60.4 32.7,62.5 C34.5,66 34.8,66.5 39.4,66.5 C54.5,66.5 65.4,54.3 65.4,37.5 C65.4,21.5 52.4,8.5 36.4,8.5 C16.1,8.5 8.3,20.5 7.6,31.4 L7.6,31.4 L7.6,31.4 Z" id="Shape"></path>
                        </g>
                        <g id="Shape_5_" transform="translate(0.000000, 3.000000)" fill="#3B434F">
                            <path d="M70.6,32.9 C70.6,14.6 55.7,4.3 37.4,4.3 C19.1,4.3 4.2,19.2 4.2,37.5 C4.2,55.8 16.1,70.7 34.4,70.7 C45.3,70.7 42.6,65.5 49.5,57.4 L70.6,32.9 L70.6,32.9 L70.6,32.9 Z" id="Shape"></path>
                            <path d="M34.5,74.9 C14.5,74.9 0,59.2 0,37.5 C0,16.9 16.9,0.1 37.5,0.1 C59.5,0.1 75,13.6 75,32.9 L75,34.5 L52.8,60.1 C50.8,62.4 49.7,64.5 48.8,66.3 C46.2,71.4 43.6,74.9 34.5,74.9 L34.5,74.9 L34.5,74.9 Z M37.4,8.5 C21.4,8.5 8.4,21.5 8.4,37.5 C8.4,54.3 19.3,66.5 34.4,66.5 C39.1,66.5 39.3,66 41.1,62.5 C42.1,60.5 43.6,57.7 46.2,54.7 L66.3,31.5 C65.7,20.5 57.9,8.5 37.4,8.5 L37.4,8.5 L37.4,8.5 Z" id="Shape"></path>
                        </g>
                        <circle id="Oval_1_" fill="#FFFFFF" cx="38.9" cy="40.9" r="19.9"></circle>
                        <circle id="Oval_2_" fill="#FFFFFF" cx="218.9" cy="40.9" r="19.9"></circle>
                        <path d="M129.6,204.8 L129.6,204.8 C66.3,204.8 16.8,157.6 16.8,97.9 C16.8,40.5 63.2,0.3 129.6,0.1 C193.9,0.3 242.4,42.3 242.4,97.8 C242.4,155.6 190.8,204.8 129.6,204.8 L129.6,204.8 L129.6,204.8 L129.6,204.8 Z M129.6,17.1 C73.2,17.3 33.8,50.5 33.8,97.9 C33.8,148.2 75.9,187.7 129.7,187.9 C181.7,187.7 225.6,146.5 225.6,97.9 C225.4,45.6 176.1,17.2 129.6,17.1 L129.6,17.1 L129.6,17.1 Z" id="Shape_6_" fill="#3B434F"></path>
                        <path d="M229.4,98.8 C229.4,148.7 183.5,191.3 129.4,191.3 C75.3,191.3 29.4,150.8 29.4,100.9 C29.4,51 75.3,10.5 129.4,10.5 C183.4,10.5 229.4,48.8 229.4,98.8 L229.4,98.8 L229.4,98.8 Z" id="Shape_7_" fill="#FFFFFF"></path>
                        <ellipse id="Oval_3_" fill="#3B434F" transform="translate(86.922950, 76.767900) rotate(-82.489791) translate(-86.922950, -76.767900) " cx="86.92295" cy="76.7679" rx="31.7993075" ry="21.8995231"></ellipse>
                        <circle id="Oval_4_" fill="#FFFFFF" cx="90.4" cy="63.4" r="9.4"></circle>
                        <ellipse id="Oval_5_" fill="#3B434F" transform="translate(171.683750, 76.546000) rotate(82.489791) translate(-171.683750, -76.546000) " cx="171.68375" cy="76.546" rx="31.7993075" ry="21.8995231"></ellipse>
                        <circle id="Oval_6_" fill="#FFFFFF" cx="168.4" cy="63.4" r="9.4"></circle>
                        <path d="M149.4,117.9 C149.4,124 140.8,129 130.1,129 C119.4,129 110.8,124 110.8,117.9 C110.8,113 112,108.9 119.6,107.4 C121.6,107 127.9,106.8 130.1,106.8 C132.4,106.8 138.9,107 140.9,107.5 C148.4,109 149.4,113.1 149.4,117.9 L149.4,117.9 L149.4,117.9 Z" id="Shape_8_" fill="#3B434F"></path>
                        <path d="M136,144.5 C136,147.4 133.6,149.8 130.7,149.8 L130.3,149.8 C127.4,149.8 125,147.4 125,144.5 L125,130.1 C125,127.2 127.4,124.8 130.3,124.8 L130.7,124.8 C133.6,124.8 136,127.2 136,130.1 L136,144.5 L136,144.5 L136,144.5 Z" id="Shape_9_" fill="#3B434F"></path>
                        <path d="M159.1,138 C159.1,145.1 146.4,150.9 130.8,150.9 C115.2,150.9 99.9,144.2 99.9,137 C99.9,129.9 114.5,140.7 130.2,140.7 C145.7,140.8 159.1,130.9 159.1,138 L159.1,138 L159.1,138 Z" id="Shape_10_" fill="#3B434F"></path>
                        <path d="M138.5,115.8 C138.5,117.8 133.6,119.4 130.1,119.4 C126.6,119.4 121.7,117.8 121.7,115.8 C121.7,114.2 124.2,112.9 126.7,112.4 C127.3,112.3 129.4,112.2 130.1,112.2 C130.9,112.2 132.9,112.3 133.6,112.4 C136,112.9 138.5,114.2 138.5,115.8 L138.5,115.8 L138.5,115.8 Z" id="Shape_11_" fill="#E7EAE4"></path>
                        <g id="Shape_12_" transform="translate(29.000000, 10.000000)" fill="#EDEDED">
                            <path d="M17.3,90.9 C17.3,43.5 58.6,4.7 109,0.8 C106.2,0.6 103.3,0.5 100.4,0.5 C46.3,0.5 0.4,41 0.4,90.9 C0.4,140.8 46.3,181.3 100.4,181.3 C103.2,181.3 106,181.2 108.7,180.9 C58.5,176.9 17.3,138.2 17.3,90.9 L17.3,90.9 L17.3,90.9 Z" id="Shape"></path>
                        </g>
                        <g id="Shape_13_" transform="translate(123.000000, 10.000000)" fill="#EDEDED">
                            <path d="M6.4,0.5 C4.3,0.5 2.2,0.6 0.1,0.7 C51.3,3.6 93.7,40.9 93.7,88.8 C93.7,136.8 51.3,178 -1.42108547e-14,181.1 C2.1,181.2 4.3,181.3 6.4,181.3 C60.5,181.3 106.4,138.7 106.4,88.8 C106.4,38.8 60.4,0.5 6.4,0.5 L6.4,0.5 L6.4,0.5 Z" id="Shape"></path>
                        </g>
                        <path d="M46.5,172.2 C46.5,172.2 9.5,214.6 40.3,240.8 C71.1,267 93,241.6 93.6,240.8 C94.3,240 101.8,231.8 80.3,212.4 C58.8,193 80.3,192.2 80.3,192.2 C80.3,192.2 62.7,167.6 46.5,172.2 L46.5,172.2 L46.5,172.2 Z" id="Shape_14_" fill="#3B434F"></path>
                        <path d="M208.3,174.3 C208.3,174.3 245.3,216.7 214.5,242.9 C183.7,269.1 161.8,243.7 161.2,242.9 C160.6,242.1 153,233.9 174.5,214.5 C196,195.1 174.5,194.3 174.5,194.3 C174.5,194.3 192.1,169.7 208.3,174.3 L208.3,174.3 L208.3,174.3 Z" id="Shape_15_" fill="#3B434F"></path>
                    </g>
                    <g id="Group-11">
                        <g id="Group-19" transform="translate(58.183075, 98.886470)">
                            <path d="M45.1570948,258.334164 C30.1699694,258.334164 17.4482555,246.86624 16.2032852,231.720273 L11.7183338,177.176669 C10.4073728,161.226455 22.3211033,147.236742 38.3302793,145.930544 C54.3362363,144.615525 68.3793732,156.495596 69.691139,172.445007 L74.1752856,226.988611 C75.4870514,242.938825 63.5725161,256.928538 47.56334,258.234736 C46.7569662,258.301289 45.9530067,258.334164 45.1570948,258.334164" id="Fill-1" fill="#131316"></path>
                            <path d="M123.632477,258.11438 C121.774277,258.11438 119.888714,257.936371 117.996713,257.565119 C102.235404,254.482042 91.9674169,239.251881 95.0625404,223.547031 L106.976271,163.098673 C110.071394,147.395426 125.361916,137.161535 141.119201,140.247819 C156.880509,143.331698 167.148497,158.561859 164.052569,174.266709 L152.139643,234.715067 C149.415516,248.533186 137.252308,258.11438 123.632477,258.11438" id="Fill-3" fill="#131316"></path>
                            <g id="Group-2" transform="translate(102.349315, 0.988827)">
                                <path d="M27.0142136,130.935204 C16.3247978,130.935204 6.29206962,124.34431 2.42751485,113.728782 C-2.50980349,100.167869 4.49486489,85.1772094 18.0724903,80.2459686 L54.4161566,67.0468308 C67.5108213,62.2917057 77.1422403,51.3447673 80.182461,37.7630333 L83.8732889,21.2714854 C87.0255634,7.18743109 101.011447,-1.67648309 115.111122,1.47364634 C129.209928,4.62117307 138.084766,18.5889736 134.93336,32.6712928 L131.241664,49.1637083 C124.287376,80.2329551 102.250988,105.276094 72.2961286,116.156229 L35.9515937,129.355367 C33.001711,130.42681 29.9814689,130.935204 27.0142136,130.935204" id="Fill-5" fill="#131316"></path>
                                <path d="M105.217288,51.6192649 L102.118869,50.8124293 C95.287059,49.0339205 91.1923161,42.060431 92.9730167,35.2370303 L92.9730167,35.2370303 C94.7537174,28.412762 101.735801,24.3230594 108.567611,26.1024357 L111.666031,26.9084039 C118.498709,28.6877802 122.593452,35.6612697 120.812752,42.4846704 L120.812752,42.4846704 C119.031182,49.3080711 112.049098,53.3977737 105.217288,51.6192649" id="Fill-7" fill="#FFFFFF"></path>
                                <path d="M118.418882,17.0923368 L118.062742,18.4578845 C117.276627,21.4700711 114.194712,23.2746068 111.179682,22.4894603 C108.164652,21.7043137 106.357024,18.6270598 107.143138,15.6157408 L107.500146,14.2493255 C108.285392,11.2380065 111.367307,9.43347077 114.382337,10.2177498 C117.397368,11.0028963 119.204996,14.0810178 118.418882,17.0923368" id="Fill-9" fill="#FFFFFF"></path>
                                <path d="M127.775552,28.4749664 L126.692365,29.1091566 C124.304488,30.5076718 121.233866,29.7086442 119.833627,27.3237074 C118.433388,24.9387705 119.2334,21.8719273 121.621277,20.4725446 L122.704464,19.8383544 C125.09234,18.4398392 128.162963,19.2397343 129.563201,21.6246712 L129.563201,21.6246712 C130.96344,24.0096081 130.163428,27.0764513 127.775552,28.4749664" id="Fill-11" fill="#FFFFFF"></path>
                                <path d="M94.2059565,19.7352876 L94.8409283,20.8171415 C96.2411671,23.2020784 99.3126585,24.0011059 101.699666,22.6025908 C104.087542,21.2040756 104.888423,18.1372324 103.488184,15.7522955 L102.853213,14.6704417 C101.452974,12.2855048 98.3814824,11.4864772 95.9936062,12.8849924 C93.6057301,14.2835076 92.8057177,17.3503507 94.2059565,19.7352876" id="Fill-13" fill="#FFFFFF"></path>
                            </g>
                            <path d="M94.8156387,217.893012 L87.6073649,218.358882 C42.3667356,221.283195 3.31313411,187.112757 0.37815874,142.036485 L0.37815874,142.036485 C-2.55681663,96.9602132 31.7390184,58.0484919 76.9788429,55.1249811 L84.1879215,54.6591117 C129.427746,51.734799 168.481348,85.9052366 171.416323,130.980707 L171.416323,130.981508 C174.351298,176.056978 140.055463,214.9687 94.8156387,217.893012" id="Fill-15" fill="#131316"></path>
                            <path d="M93.5449963,193.539269 L85.7090064,194.046032 C58.4975115,195.804469 35.0072466,175.25169 33.2423985,148.139053 L33.2423985,148.139053 C31.4767457,121.026417 52.1052687,97.6214911 79.3167637,95.8630547 L87.1527536,95.3562914 C114.363444,93.5970531 137.853709,114.150633 139.619361,141.26327 L139.619361,141.26327 C141.38421,168.375907 120.756491,191.780832 93.5449963,193.539269" id="Fill-17" fill="#FFFFFF"></path>
                        </g>
                        <g id="Group-22" transform="translate(96.811760, 193.692618)">
                            <mask id="mask-2" fill="white">
                                <use xlink:href="#path-1"></use>
                            </mask>
                            <g id="Clip-21"></g>
                            <path d="M52.3252108,26.0432218 L40.9064103,26.781717 C1.25245466,29.3443996 -32.9789992,-0.606752791 -35.5518306,-40.1166471 L-35.5518306,-40.1166471 C-38.1238573,-79.6273433 -8.06349676,-113.733634 31.5904589,-116.297118 L43.0092594,-117.034811 C82.663215,-119.598296 116.894669,-89.6471436 119.4675,-50.1372492 L119.4675,-50.1364474 C122.039527,-10.6265531 91.9791665,23.4805392 52.3252108,26.0432218" id="Fill-20" fill="#E6E6E6" mask="url(#mask-2)"></path>
                        </g>
                        <path d="M67.5644533,298.293688 C62.4413238,298.293688 57.2771513,296.68279 52.8887717,293.348737 C44.150641,286.711101 41.2035942,275.312134 44.9167766,265.574582 L33.1728513,257.795926 C23.3040268,251.259322 17.881525,239.896438 19.0226808,228.142257 C20.1638366,216.388877 27.6722874,206.272856 38.6170817,201.741655 L63.5132698,191.437201 C75.8752541,186.317449 90.0584199,192.157254 95.1928161,204.473526 C99.8499871,215.643967 95.4640217,228.308238 85.3851537,234.385388 L85.5259875,234.478401 C92.8718759,239.344772 97.9225766,247.106589 99.3832238,255.774486 C100.843066,264.440779 98.6130643,273.421394 93.2654056,280.408633 L86.8562628,288.785462 C82.0872296,295.018971 74.8676892,298.293688 67.5644533,298.293688" id="Fill-23" fill="#131316"></path>
                        <path d="M211.313302,72.2848888 L221.093602,71.5295549 C240.653398,70.0180854 255.301718,52.9685484 253.784737,33.4798124 C252.268561,13.9910763 235.156858,-0.604828374 215.597062,0.90664118 C196.037266,2.41730889 181.388142,19.4676477 182.905122,38.9563837 L183.66321,48.7003509 C184.662728,62.7943033 197.079436,73.3850141 211.313302,72.2848888" id="Fill-25" fill="#000000"></path>
                        <path d="M48.3466015,84.8764325 L38.5663011,85.6317663 C19.006505,87.1432359 1.89480194,72.5473312 0.378626015,53.0585951 C-1.13835467,33.5698591 13.5107697,16.5203221 33.0705658,15.0088526 C52.6303619,13.4981849 69.742065,28.0932877 71.2582409,47.5820238 L72.0171336,57.3267927 C73.2097943,71.4055102 62.5804675,83.7763071 48.3466015,84.8764325" id="Fill-27" fill="#000000"></path>
                        <path d="M191.899088,188.315154 L191.899088,188.315154 C160.78851,205.375115 123.337194,208.560026 89.8026659,196.979844 L86.896662,195.943064 C53.0716141,184.385334 29.7752974,155.41804 27.1702754,121.93959 L26.5320974,113.738365 C22.3191563,59.6133214 66.1490338,11.9679522 124.343954,7.47203193 C182.539679,2.97530977 233.210053,43.2220956 237.430237,97.4441615 L238.143258,106.6092 C240.718504,139.701964 222.734436,171.470889 191.899088,188.315154" id="Fill-29" fill="#FFFFFF"></path>
                        <path d="M124.823272,13.6259181 C70.0840093,17.8556273 28.7617773,62.5518267 32.7083414,113.261831 L33.3465195,121.461453 C35.758398,152.451791 57.5675103,179.395239 88.9066413,190.10382 L91.891512,191.168665 C123.829388,202.195577 159.214069,199.192684 188.911481,182.907301 L188.920333,182.90249 C217.441179,167.322727 234.33801,137.563214 231.96637,107.086856 L231.253349,97.9210161 C227.306785,47.2118139 179.562534,9.39620884 124.823272,13.6259181 M141.279897,209.658307 C123.332043,211.045491 105.105742,208.79713 87.7735332,202.812994 L84.807172,201.753762 C48.8672036,189.474375 23.7875292,158.322066 20.9933876,122.416445 L20.3552095,114.216021 C15.8799153,56.7184362 62.3148148,6.07257951 123.865602,1.31686284 C185.416389,-3.43885383 239.131991,39.469241 243.606481,96.9668258 L244.320307,106.131864 C247.067772,141.436104 227.660076,175.819832 194.877198,193.727338 C178.197654,202.873132 159.890876,208.220607 141.279897,209.658307" id="Fill-31" fill="#000000"></path>
                        <path d="M55.0852148,79.8531416 C64.1315702,62.5213568 83.3348557,55.8179692 97.9767372,64.8811737 C112.618619,73.9435763 117.153465,95.3414948 108.10711,112.67328 C99.05995,130.005866 79.8574692,136.708452 65.2155877,127.646049 C50.5737062,118.582845 46.0388595,97.1849264 55.0852148,79.8531416" id="Fill-33" fill="#000000"></path>
                        <path d="M188.148564,175.53582 L188.140516,175.539829 C158.553357,191.76347 123.303877,194.754335 91.4867156,183.768317 L88.5267925,182.713095 C57.2649189,172.030974 35.5097259,145.149268 33.1034806,114.227086 L33.7328063,122.310442 C36.1390515,153.232623 57.8942446,180.115131 89.1561182,190.797252 L92.1160413,191.852474 C123.933202,202.838492 159.182683,199.847627 188.769842,183.623986 L188.77789,183.619175 C217.227917,168.0779 234.0829,138.385742 231.716088,107.977541 L231.086763,99.8933836 C233.453575,130.302387 216.599396,159.994545 188.148564,175.53582" id="Fill-35" fill="#E6E6E6"></path>
                        <path d="M148.699743,138.769744 L139.786978,145.340026 C137.039513,147.306941 133.436583,147.585179 130.521727,146.056069 L120.697969,140.93311 C117.996376,139.490598 116.237161,136.840515 116.005389,133.866488 C115.630369,129.045021 119.238932,124.84498 124.077175,124.471322 L142.813697,123.024 C147.65194,122.64954 151.867295,126.244993 152.24312,131.066461 C152.474087,134.04129 151.153469,137.032155 148.699743,138.769744" id="Fill-37" fill="#000000"></path>
                        <path d="M136.945195,169.377604 C126.175839,170.209914 115.088601,166.957649 106.254704,159.42195 C104.088278,157.57451 103.835582,154.327055 105.689759,152.1685 C107.544741,150.010747 110.803231,149.758969 112.969657,151.60641 C126.312649,162.988538 146.461532,161.431363 157.884357,148.136044 C159.739338,145.978291 162.997829,145.726513 165.164254,147.573152 C167.329875,149.421394 167.582571,152.668849 165.728394,154.826602 C158.166024,163.629208 147.71455,168.545293 136.945195,169.377604" id="Fill-39" fill="#010202"></path>
                        <path d="M136.918155,168.366883 C134.643891,168.542487 132.656928,166.848197 132.480684,164.582196 L130.828503,143.349456 C130.65226,141.083455 132.352727,139.10371 134.626991,138.928107 C136.901255,138.752504 138.888218,140.446793 139.064461,142.712795 L140.716642,163.945534 C140.892885,166.211536 139.192418,168.19128 136.918155,168.366883" id="Fill-41" fill="#010202"></path>
                        <path d="M75.9656291,81.7703425 C79.1766386,75.6186213 85.9921874,73.2395602 91.1893552,76.4557429 C96.3857182,79.6727274 97.9960516,87.2677617 94.785042,93.4194829 C91.5740325,99.5712041 84.757679,101.950265 79.561316,98.7332806 C74.3641482,95.5170979 72.7546196,87.9220637 75.9656291,81.7703425" id="Fill-43" fill="#FFFFFF"></path>
                        <path d="M204.077586,68.3414366 C192.457594,52.6061165 172.446325,48.9328846 159.382586,60.1362017 C146.318043,71.3403205 145.147916,93.1784496 156.767907,108.91377 C168.387899,124.64909 188.399168,128.322322 201.462906,117.119005 C214.52745,105.914886 215.697577,84.0767568 204.077586,68.3414366" id="Fill-45" fill="#000000"></path>
                        <path d="M183.743445,73.4429872 C179.619028,67.8581673 172.516179,66.5543745 167.879932,70.5307021 C163.24288,74.5070297 162.826817,82.2584229 166.951234,87.8432427 C171.075651,93.4280626 178.1785,94.7326573 182.815552,90.7555278 C187.452604,86.7792002 187.867862,79.027807 183.743445,73.4429872" id="Fill-47" fill="#FFFFFF"></path>
                    </g>
                </g>
            </g>
        </g>
    </g>
</svg>