<?xml version="1.0" encoding="UTF-8"?>
<svg width="799px" height="1031px" viewBox="0 0 799 1031" version="1.1" xmlns="http://www.w3.org/2000/svg" xmlns:xlink="http://www.w3.org/1999/xlink">
    <!-- Generator: Sketch 50.2 (55047) - http://www.bohemiancoding.com/sketch -->
    <title>reader-empty-state-night</title>
    <desc>Created with Sketch.</desc>
    <defs></defs>
    <g id="Page-1" stroke="none" stroke-width="1" fill="none" fill-rule="evenodd" opacity="0.420942164">
        <g id="reader-empty-state-night" transform="translate(0.000000, 2.000000)">
            <g id="Group">
                <path d="M556.877673,235.621002 L558.582457,240.500336 C558.854337,241.279203 559.467317,241.891171 560.245851,242.162918 L565.127569,243.866869 C567.547376,244.712069 567.547376,248.132096 565.127569,248.977296 L560.245851,250.681246 C559.467317,250.952994 558.854337,251.564961 558.582457,252.343829 L556.877673,257.223163 C556.032775,259.641789 552.610363,259.641789 551.765464,257.223163 L550.060681,252.343829 C549.788087,251.564961 549.175821,250.952994 548.396573,250.681246 L543.514856,248.977296 C541.095048,248.132096 541.095048,244.712069 543.514856,243.866869 L548.396573,242.162918 C549.175821,241.891171 549.788087,241.279203 550.060681,240.500336 L551.765464,235.621002 C552.610363,233.202376 556.032775,233.202376 556.877673,235.621002" id="Fill-1-Copy-2" fill="#ACB1B7" fill-rule="nonzero" transform="translate(554.321212, 246.422082) scale(-1, 1) translate(-554.321212, -246.422082) "></path>
                <path d="M213.977673,117.765942 L215.682457,122.645276 C215.954337,123.424143 216.567317,124.036111 217.345851,124.307858 L222.227569,126.011809 C224.647376,126.857009 224.647376,130.277036 222.227569,131.122235 L217.345851,132.826186 C216.567317,133.097934 215.954337,133.709901 215.682457,134.488769 L213.977673,139.368103 C213.132775,141.786729 209.710363,141.786729 208.865464,139.368103 L207.160681,134.488769 C206.888087,133.709901 206.275821,133.097934 205.496573,132.826186 L200.614856,131.122235 C198.195048,130.277036 198.195048,126.857009 200.614856,126.011809 L205.496573,124.307858 C206.275821,124.036111 206.888087,123.424143 207.160681,122.645276 L208.865464,117.765942 C209.710363,115.347316 213.132775,115.347316 213.977673,117.765942" id="Fill-1-Copy-4" fill="#ACB1B7" fill-rule="nonzero" transform="translate(211.421212, 128.567022) scale(-1, 1) translate(-211.421212, -128.567022) "></path>
                <path d="M258.977673,901.367143 L260.682457,906.246476 C260.954337,907.025344 261.567317,907.637311 262.345851,907.909059 L267.227569,909.61301 C269.647376,910.45821 269.647376,913.878237 267.227569,914.723436 L262.345851,916.427387 C261.567317,916.699135 260.954337,917.311102 260.682457,918.08997 L258.977673,922.969303 C258.132775,925.387929 254.710363,925.387929 253.865464,922.969303 L252.160681,918.08997 C251.888087,917.311102 251.275821,916.699135 250.496573,916.427387 L245.614856,914.723436 C243.195048,913.878237 243.195048,910.45821 245.614856,909.61301 L250.496573,907.909059 C251.275821,907.637311 251.888087,907.025344 252.160681,906.246476 L253.865464,901.367143 C254.710363,898.948517 258.132775,898.948517 258.977673,901.367143" id="Fill-1-Copy-9" fill="#ACB1B7" fill-rule="nonzero" transform="translate(256.421212, 912.168223) scale(-1, 1) translate(-256.421212, -912.168223) "></path>
                <path d="M549.472956,375.19007 L550.447118,377.978261 C550.602478,378.423328 550.952753,378.773024 551.397629,378.928308 L554.187182,379.901994 C555.569929,380.384966 555.569929,382.339267 554.187182,382.822238 L551.397629,383.795924 C550.952753,383.951209 550.602478,384.300904 550.447118,384.745971 L549.472956,387.534162 C548.990157,388.916234 547.034493,388.916234 546.551694,387.534162 L545.577532,384.745971 C545.421764,384.300904 545.071898,383.951209 544.626613,383.795924 L541.83706,382.822238 C540.454313,382.339267 540.454313,380.384966 541.83706,379.901994 L544.626613,378.928308 C545.071898,378.773024 545.421764,378.423328 545.577532,377.978261 L546.551694,375.19007 C547.034493,373.807998 548.990157,373.807998 549.472956,375.19007" id="Fill-1-Copy-3" fill="#ACB1B7" fill-rule="nonzero" transform="translate(548.012121, 381.362116) scale(-1, 1) translate(-548.012121, -381.362116) "></path>
                <path d="M329.872956,256.435353 L330.847118,259.223544 C331.002478,259.668611 331.352753,260.018307 331.797629,260.173591 L334.587182,261.147277 C335.969929,261.630249 335.969929,263.58455 334.587182,264.067521 L331.797629,265.041207 C331.352753,265.196492 331.002478,265.546187 330.847118,265.991254 L329.872956,268.779445 C329.390157,270.161517 327.434493,270.161517 326.951694,268.779445 L325.977532,265.991254 C325.821764,265.546187 325.471898,265.196492 325.026613,265.041207 L322.23706,264.067521 C320.854313,263.58455 320.854313,261.630249 322.23706,261.147277 L325.026613,260.173591 C325.471898,260.018307 325.821764,259.668611 325.977532,259.223544 L326.951694,256.435353 C327.434493,255.053281 329.390157,255.053281 329.872956,256.435353" id="Fill-1-Copy-6" fill="#ACB1B7" fill-rule="nonzero" transform="translate(328.412121, 262.607399) scale(-1, 1) translate(-328.412121, -262.607399) "></path>
                <path d="M401.872956,1014.74239 L402.847118,1017.53058 C403.002478,1017.97564 403.352753,1018.32534 403.797629,1018.48062 L406.587182,1019.45431 C407.969929,1019.93728 407.969929,1021.89158 406.587182,1022.37455 L403.797629,1023.34824 C403.352753,1023.50352 403.002478,1023.85322 402.847118,1024.29829 L401.872956,1027.08648 C401.390157,1028.46855 399.434493,1028.46855 398.951694,1027.08648 L397.977532,1024.29829 C397.821764,1023.85322 397.471898,1023.50352 397.026613,1023.34824 L394.23706,1022.37455 C392.854313,1021.89158 392.854313,1019.93728 394.23706,1019.45431 L397.026613,1018.48062 C397.471898,1018.32534 397.821764,1017.97564 397.977532,1017.53058 L398.951694,1014.74239 C399.434493,1013.36031 401.390157,1013.36031 401.872956,1014.74239" id="Fill-1-Copy-10" fill="#ACB1B7" fill-rule="nonzero" transform="translate(400.412121, 1020.914431) scale(-1, 1) translate(-400.412121, -1020.914431) "></path>
                <path d="M713.272956,511.937926 L714.247118,514.726117 C714.402478,515.171184 714.752753,515.52088 715.197629,515.676164 L717.987182,516.64985 C719.369929,517.132822 719.369929,519.087123 717.987182,519.570094 L715.197629,520.54378 C714.752753,520.699065 714.402478,521.04876 714.247118,521.493827 L713.272956,524.282018 C712.790157,525.66409 710.834493,525.66409 710.351694,524.282018 L709.377532,521.493827 C709.221764,521.04876 708.871898,520.699065 708.426613,520.54378 L705.63706,519.570094 C704.254313,519.087123 704.254313,517.132822 705.63706,516.64985 L708.426613,515.676164 C708.871898,515.52088 709.221764,515.171184 709.377532,514.726117 L710.351694,511.937926 C710.834493,510.555854 712.790157,510.555854 713.272956,511.937926" id="Fill-1-Copy-8" fill="#ACB1B7" fill-rule="nonzero" transform="translate(711.812121, 518.109972) scale(-1, 1) translate(-711.812121, -518.109972) "></path>
                <path d="M117.472956,871.800705 L118.447118,874.588896 C118.602478,875.033963 118.952753,875.383658 119.397629,875.538943 L122.187182,876.512629 C123.569929,876.9956 123.569929,878.949901 122.187182,879.432873 L119.397629,880.406559 C118.952753,880.561843 118.602478,880.911539 118.447118,881.356606 L117.472956,884.144797 C116.990157,885.526869 115.034493,885.526869 114.551694,884.144797 L113.577532,881.356606 C113.421764,880.911539 113.071898,880.561843 112.626613,880.406559 L109.83706,879.432873 C108.454313,878.949901 108.454313,876.9956 109.83706,876.512629 L112.626613,875.538943 C113.071898,875.383658 113.421764,875.033963 113.577532,874.588896 L114.551694,871.800705 C115.034493,870.418633 116.990157,870.418633 117.472956,871.800705" id="Fill-1-Copy-7" fill="#ACB1B7" fill-rule="nonzero" transform="translate(116.012121, 877.972751) scale(-1, 1) translate(-116.012121, -877.972751) "></path>
                <path d="M323.572956,6.33072211 L324.547118,9.11891281 C324.702478,9.56397994 325.052753,9.91367554 325.497629,10.06896 L328.287182,11.0426462 C329.669929,11.5256174 329.669929,13.4799186 328.287182,13.9628898 L325.497629,14.936576 C325.052753,15.0918604 324.702478,15.441556 324.547118,15.8866232 L323.572956,18.6748139 C323.090157,20.0568859 321.134493,20.0568859 320.651694,18.6748139 L319.677532,15.8866232 C319.521764,15.441556 319.171898,15.0918604 318.726613,14.936576 L315.93706,13.9628898 C314.554313,13.4799186 314.554313,11.5256174 315.93706,11.0426462 L318.726613,10.06896 C319.171898,9.91367554 319.521764,9.56397994 319.677532,9.11891281 L320.651694,6.33072211 C321.134493,4.94865009 323.090157,4.94865009 323.572956,6.33072211" id="Fill-1-Copy-5" fill="#ACB1B7" fill-rule="nonzero" transform="translate(322.112121, 12.502768) scale(-1, 1) translate(-322.112121, -12.502768) "></path>
                <path d="M434.272956,790.83158 L435.247118,793.61977 C435.402478,794.064838 435.752753,794.414533 436.197629,794.569818 L438.987182,795.543504 C440.369929,796.026475 440.369929,797.980776 438.987182,798.463747 L436.197629,799.437434 C435.752753,799.592718 435.402478,799.942414 435.247118,800.387481 L434.272956,803.175671 C433.790157,804.557744 431.834493,804.557744 431.351694,803.175671 L430.377532,800.387481 C430.221764,799.942414 429.871898,799.592718 429.426613,799.437434 L426.63706,798.463747 C425.254313,797.980776 425.254313,796.026475 426.63706,795.543504 L429.426613,794.569818 C429.871898,794.414533 430.221764,794.064838 430.377532,793.61977 L431.351694,790.83158 C431.834493,789.449508 433.790157,789.449508 434.272956,790.83158" id="Fill-1-Copy-11" fill="#ACB1B7" fill-rule="nonzero" transform="translate(432.812121, 797.003626) scale(-1, 1) translate(-432.812121, -797.003626) "></path>
                <ellipse id="Oval-55-Copy" fill="#ACB1B7" fill-rule="nonzero" transform="translate(569.908081, 136.051874) scale(-1, 1) translate(-569.908081, -136.051874) " cx="569.908081" cy="136.051874" rx="4.80808081" ry="4.80573326"></ellipse>
                <ellipse id="Oval-55-Copy-11" fill="#ACB1B7" fill-rule="nonzero" transform="translate(794.008081, 335.775716) scale(-1, 1) translate(-794.008081, -335.775716) " cx="794.008081" cy="335.775716" rx="4.80808081" ry="4.80573326"></ellipse>
                <ellipse id="Oval-55-Copy-12" fill="#ACB1B7" fill-rule="nonzero" transform="translate(4.808081, 409.547586) scale(-1, 1) translate(-4.808081, -409.547586) " cx="4.80808119" cy="409.547586" rx="4.80808081" ry="4.80573326"></ellipse>
                <ellipse id="Oval-55-Copy-4" fill="#ACB1B7" fill-rule="nonzero" transform="translate(405.208081, 155.844327) scale(-1, 1) translate(-405.208081, -155.844327) " cx="405.208081" cy="155.844327" rx="4.80808081" ry="4.80573326"></ellipse>
                <ellipse id="Oval-55-Copy-9" fill="#ACB1B7" fill-rule="nonzero" transform="translate(477.208081, 924.151359) scale(-1, 1) translate(-477.208081, -924.151359) " cx="477.208081" cy="924.151359" rx="4.80808081" ry="4.80573326"></ellipse>
                <ellipse id="Oval-55-Copy-7" fill="#ACB1B7" fill-rule="nonzero" transform="translate(793.908081, 736.123057) scale(-1, 1) translate(-793.908081, -736.123057) " cx="793.908081" cy="736.123057" rx="4.80808081" ry="4.80573326"></ellipse>
                <ellipse id="Oval-55-Copy-6" fill="#ACB1B7" fill-rule="nonzero" transform="translate(97.408081, 614.669370) scale(-1, 1) translate(-97.408081, -614.669370) " cx="97.4080812" cy="614.66937" rx="4.80808081" ry="4.80573326"></ellipse>
                <ellipse id="Oval-55-Copy-2" stroke="#ACB1B7" stroke-width="3.6" transform="translate(704.600000, 145.639881) scale(-1, 1) translate(-704.600000, -145.639881) " cx="704.6" cy="145.639881" rx="7.2" ry="7.19648459"></ellipse>
                <ellipse id="Oval-55-Copy-3" stroke="#ACB1B7" stroke-width="3.6" transform="translate(153.800000, 264.394598) scale(-1, 1) translate(-153.800000, -264.394598) " cx="153.8" cy="264.394598" rx="7.2" ry="7.19648459"></ellipse>
                <ellipse id="Oval-55-Copy-8" stroke="#ACB1B7" stroke-width="3.6" transform="translate(10.700000, 750.209349) scale(-1, 1) translate(-10.700000, -750.209349) " cx="10.7" cy="750.209349" rx="7.2" ry="7.19648459"></ellipse>
                <ellipse id="Oval-55-Copy-5" stroke="#ACB1B7" stroke-width="3.6" transform="translate(476.000000, 4.497803) scale(-1, 1) translate(-476.000000, -4.497803) " cx="476" cy="4.49780287" rx="4.5" ry="4.49780287"></ellipse>
                <ellipse id="Oval-55-Copy-10" stroke="#ACB1B7" stroke-width="3.6" transform="translate(602.900000, 745.711353) scale(-1, 1) translate(-602.900000, -745.711353) " cx="602.9" cy="745.711353" rx="4.5" ry="4.49780287"></ellipse>
                <polygon id="Triangle-8" stroke="#ACB1B7" stroke-width="3.6" stroke-linejoin="round" points="61.1 167.232419 70.1 183.726129 52.1 183.726129"></polygon>
                <polygon id="Triangle-8-Copy-3" stroke="#ACB1B7" stroke-width="3.6" stroke-linejoin="round" points="220.4 746.611492 229.4 763.105203 211.4 763.105203"></polygon>
                <polygon id="Triangle-8-Copy" stroke="#ACB1B7" stroke-width="3.6" stroke-linejoin="round" points="684.8 314.776158 693.8 331.269868 675.8 331.269868"></polygon>
                <polygon id="Triangle-8-Copy-4" stroke="#ACB1B7" stroke-width="3.6" stroke-linejoin="round" points="162.8 388.548027 171.8 405.041738 153.8 405.041738"></polygon>
                <polygon id="Triangle-8-Copy-2" stroke="#ACB1B7" stroke-width="3.6" stroke-linejoin="round" points="693.8 872.563465 702.8 889.057176 684.8 889.057176"></polygon>
            </g>
        </g>
    </g>
</svg>