<?xml version="1.0" encoding="UTF-8" standalone="no"?>
<svg width="810px" height="1051px" viewBox="0 0 810 1051" version="1.1" xmlns="http://www.w3.org/2000/svg" xmlns:xlink="http://www.w3.org/1999/xlink">
    <!-- Generator: Sketch 39.1 (31720) - http://www.bohemiancoding.com/sketch -->
    <title>Group</title>
    <desc>Created with Sketch.</desc>
    <defs></defs>
    <g id="Page-1" stroke="none" stroke-width="1" fill="none" fill-rule="evenodd">
        <g id="Group" transform="translate(0.000000, 2.000000)">
            <path d="M557.877673,245.621002 L559.582457,250.500336 C559.854337,251.279203 560.467317,251.891171 561.245851,252.162918 L566.127569,253.866869 C568.547376,254.712069 568.547376,258.132096 566.127569,258.977296 L561.245851,260.681246 C560.467317,260.952994 559.854337,261.564961 559.582457,262.343829 L557.877673,267.223163 C557.032775,269.641789 553.610363,269.641789 552.765464,267.223163 L551.060681,262.343829 C550.788087,261.564961 550.175821,260.952994 549.396573,260.681246 L544.514856,258.977296 C542.095048,258.132096 542.095048,254.712069 544.514856,253.866869 L549.396573,252.162918 C550.175821,251.891171 550.788087,251.279203 551.060681,250.500336 L552.765464,245.621002 C553.610363,243.202376 557.032775,243.202376 557.877673,245.621002" id="Fill-1-Copy-2" fill="#DBDDE4" transform="translate(555.321212, 256.422082) scale(-1, 1) translate(-555.321212, -256.422082) "></path>
            <path d="M214.977673,127.765942 L216.682457,132.645276 C216.954337,133.424143 217.567317,134.036111 218.345851,134.307858 L223.227569,136.011809 C225.647376,136.857009 225.647376,140.277036 223.227569,141.122235 L218.345851,142.826186 C217.567317,143.097934 216.954337,143.709901 216.682457,144.488769 L214.977673,149.368103 C214.132775,151.786729 210.710363,151.786729 209.865464,149.368103 L208.160681,144.488769 C207.888087,143.709901 207.275821,143.097934 206.496573,142.826186 L201.614856,141.122235 C199.195048,140.277036 199.195048,136.857009 201.614856,136.011809 L206.496573,134.307858 C207.275821,134.036111 207.888087,133.424143 208.160681,132.645276 L209.865464,127.765942 C210.710363,125.347316 214.132775,125.347316 214.977673,127.765942" id="Fill-1-Copy-4" fill="#DBDDE4" transform="translate(212.421212, 138.567022) scale(-1, 1) translate(-212.421212, -138.567022) "></path>
            <path d="M259.977673,911.367143 L261.682457,916.246476 C261.954337,917.025344 262.567317,917.637311 263.345851,917.909059 L268.227569,919.61301 C270.647376,920.45821 270.647376,923.878237 268.227569,924.723436 L263.345851,926.427387 C262.567317,926.699135 261.954337,927.311102 261.682457,928.08997 L259.977673,932.969303 C259.132775,935.387929 255.710363,935.387929 254.865464,932.969303 L253.160681,928.08997 C252.888087,927.311102 252.275821,926.699135 251.496573,926.427387 L246.614856,924.723436 C244.195048,923.878237 244.195048,920.45821 246.614856,919.61301 L251.496573,917.909059 C252.275821,917.637311 252.888087,917.025344 253.160681,916.246476 L254.865464,911.367143 C255.710363,908.948517 259.132775,908.948517 259.977673,911.367143" id="Fill-1-Copy-9" fill="#DBDDE4" transform="translate(257.421212, 922.168223) scale(-1, 1) translate(-257.421212, -922.168223) "></path>
            <path d="M550.472956,385.19007 L551.447118,387.978261 C551.602478,388.423328 551.952753,388.773024 552.397629,388.928308 L555.187182,389.901994 C556.569929,390.384966 556.569929,392.339267 555.187182,392.822238 L552.397629,393.795924 C551.952753,393.951209 551.602478,394.300904 551.447118,394.745971 L550.472956,397.534162 C549.990157,398.916234 548.034493,398.916234 547.551694,397.534162 L546.577532,394.745971 C546.421764,394.300904 546.071898,393.951209 545.626613,393.795924 L542.83706,392.822238 C541.454313,392.339267 541.454313,390.384966 542.83706,389.901994 L545.626613,388.928308 C546.071898,388.773024 546.421764,388.423328 546.577532,387.978261 L547.551694,385.19007 C548.034493,383.807998 549.990157,383.807998 550.472956,385.19007" id="Fill-1-Copy-3" fill="#DBDDE4" transform="translate(549.012121, 391.362116) scale(-1, 1) translate(-549.012121, -391.362116) "></path>
            <path d="M330.872956,266.435353 L331.847118,269.223544 C332.002478,269.668611 332.352753,270.018307 332.797629,270.173591 L335.587182,271.147277 C336.969929,271.630249 336.969929,273.58455 335.587182,274.067521 L332.797629,275.041207 C332.352753,275.196492 332.002478,275.546187 331.847118,275.991254 L330.872956,278.779445 C330.390157,280.161517 328.434493,280.161517 327.951694,278.779445 L326.977532,275.991254 C326.821764,275.546187 326.471898,275.196492 326.026613,275.041207 L323.23706,274.067521 C321.854313,273.58455 321.854313,271.630249 323.23706,271.147277 L326.026613,270.173591 C326.471898,270.018307 326.821764,269.668611 326.977532,269.223544 L327.951694,266.435353 C328.434493,265.053281 330.390157,265.053281 330.872956,266.435353" id="Fill-1-Copy-6" fill="#DBDDE4" transform="translate(329.412121, 272.607399) scale(-1, 1) translate(-329.412121, -272.607399) "></path>
            <path d="M402.872956,1034.74239 L403.847118,1037.53058 C404.002478,1037.97564 404.352753,1038.32534 404.797629,1038.48062 L407.587182,1039.45431 C408.969929,1039.93728 408.969929,1041.89158 407.587182,1042.37455 L404.797629,1043.34824 C404.352753,1043.50352 404.002478,1043.85322 403.847118,1044.29829 L402.872956,1047.08648 C402.390157,1048.46855 400.434493,1048.46855 399.951694,1047.08648 L398.977532,1044.29829 C398.821764,1043.85322 398.471898,1043.50352 398.026613,1043.34824 L395.23706,1042.37455 C393.854313,1041.89158 393.854313,1039.93728 395.23706,1039.45431 L398.026613,1038.48062 C398.471898,1038.32534 398.821764,1037.97564 398.977532,1037.53058 L399.951694,1034.74239 C400.434493,1033.36031 402.390157,1033.36031 402.872956,1034.74239" id="Fill-1-Copy-10" fill="#DBDDE4" transform="translate(401.412121, 1040.914432) scale(-1, 1) translate(-401.412121, -1040.914432) "></path>
            <path d="M714.272956,521.937926 L715.247118,524.726117 C715.402478,525.171184 715.752753,525.52088 716.197629,525.676164 L718.987182,526.64985 C720.369929,527.132822 720.369929,529.087123 718.987182,529.570094 L716.197629,530.54378 C715.752753,530.699065 715.402478,531.04876 715.247118,531.493827 L714.272956,534.282018 C713.790157,535.66409 711.834493,535.66409 711.351694,534.282018 L710.377532,531.493827 C710.221764,531.04876 709.871898,530.699065 709.426613,530.54378 L706.63706,529.570094 C705.254313,529.087123 705.254313,527.132822 706.63706,526.64985 L709.426613,525.676164 C709.871898,525.52088 710.221764,525.171184 710.377532,524.726117 L711.351694,521.937926 C711.834493,520.555854 713.790157,520.555854 714.272956,521.937926" id="Fill-1-Copy-8" fill="#DBDDE4" transform="translate(712.812121, 528.109972) scale(-1, 1) translate(-712.812121, -528.109972) "></path>
            <path d="M118.472956,881.800705 L119.447118,884.588896 C119.602478,885.033963 119.952753,885.383658 120.397629,885.538943 L123.187182,886.512629 C124.569929,886.9956 124.569929,888.949901 123.187182,889.432873 L120.397629,890.406559 C119.952753,890.561843 119.602478,890.911539 119.447118,891.356606 L118.472956,894.144797 C117.990157,895.526869 116.034493,895.526869 115.551694,894.144797 L114.577532,891.356606 C114.421764,890.911539 114.071898,890.561843 113.626613,890.406559 L110.83706,889.432873 C109.454313,888.949901 109.454313,886.9956 110.83706,886.512629 L113.626613,885.538943 C114.071898,885.383658 114.421764,885.033963 114.577532,884.588896 L115.551694,881.800705 C116.034493,880.418633 117.990157,880.418633 118.472956,881.800705" id="Fill-1-Copy-7" fill="#DBDDE4" transform="translate(117.012121, 887.972751) scale(-1, 1) translate(-117.012121, -887.972751) "></path>
            <path d="M324.572956,16.3307221 L325.547118,19.1189128 C325.702478,19.5639799 326.052753,19.9136755 326.497629,20.06896 L329.287182,21.0426462 C330.669929,21.5256174 330.669929,23.4799186 329.287182,23.9628898 L326.497629,24.936576 C326.052753,25.0918604 325.702478,25.441556 325.547118,25.8866232 L324.572956,28.6748139 C324.090157,30.0568859 322.134493,30.0568859 321.651694,28.6748139 L320.677532,25.8866232 C320.521764,25.441556 320.171898,25.0918604 319.726613,24.936576 L316.93706,23.9628898 C315.554313,23.4799186 315.554313,21.5256174 316.93706,21.0426462 L319.726613,20.06896 C320.171898,19.9136755 320.521764,19.5639799 320.677532,19.1189128 L321.651694,16.3307221 C322.134493,14.9486501 324.090157,14.9486501 324.572956,16.3307221" id="Fill-1-Copy-5" fill="#DBDDE4" transform="translate(323.112121, 22.502768) scale(-1, 1) translate(-323.112121, -22.502768) "></path>
            <path d="M435.272956,800.83158 L436.247118,803.61977 C436.402478,804.064838 436.752753,804.414533 437.197629,804.569818 L439.987182,805.543504 C441.369929,806.026475 441.369929,807.980776 439.987182,808.463747 L437.197629,809.437434 C436.752753,809.592718 436.402478,809.942414 436.247118,810.387481 L435.272956,813.175671 C434.790157,814.557744 432.834493,814.557744 432.351694,813.175671 L431.377532,810.387481 C431.221764,809.942414 430.871898,809.592718 430.426613,809.437434 L427.63706,808.463747 C426.254313,807.980776 426.254313,806.026475 427.63706,805.543504 L430.426613,804.569818 C430.871898,804.414533 431.221764,804.064838 431.377532,803.61977 L432.351694,800.83158 C432.834493,799.449508 434.790157,799.449508 435.272956,800.83158" id="Fill-1-Copy-11" fill="#DBDDE4" transform="translate(433.812121, 807.003626) scale(-1, 1) translate(-433.812121, -807.003626) "></path>
            <ellipse id="Oval-55-Copy" fill="#DBDDE4" transform="translate(570.908081, 146.051874) scale(-1, 1) translate(-570.908081, -146.051874) " cx="570.908081" cy="146.051874" rx="4.80808081" ry="4.80573326"></ellipse>
            <ellipse id="Oval-55-Copy-11" fill="#DBDDE4" transform="translate(795.008081, 345.775716) scale(-1, 1) translate(-795.008081, -345.775716) " cx="795.008081" cy="345.775716" rx="4.80808081" ry="4.80573326"></ellipse>
            <ellipse id="Oval-55-Copy-12" fill="#DBDDE4" transform="translate(4.808081, 419.547586) scale(-1, 1) translate(-4.808081, -419.547586) " cx="4.80808081" cy="419.547586" rx="4.80808081" ry="4.80573326"></ellipse>
            <ellipse id="Oval-55-Copy-4" fill="#DBDDE4" transform="translate(406.208081, 165.844327) scale(-1, 1) translate(-406.208081, -165.844327) " cx="406.208081" cy="165.844327" rx="4.80808081" ry="4.80573326"></ellipse>
            <ellipse id="Oval-55-Copy-9" fill="#DBDDE4" transform="translate(478.208081, 934.151359) scale(-1, 1) translate(-478.208081, -934.151359) " cx="478.208081" cy="934.151359" rx="4.80808081" ry="4.80573326"></ellipse>
            <ellipse id="Oval-55-Copy-7" fill="#DBDDE4" transform="translate(804.908081, 746.123057) scale(-1, 1) translate(-804.908081, -746.123057) " cx="804.908081" cy="746.123057" rx="4.80808081" ry="4.80573326"></ellipse>
            <ellipse id="Oval-55-Copy-6" fill="#DBDDE4" transform="translate(98.408081, 624.669370) scale(-1, 1) translate(-98.408081, -624.669370) " cx="98.4080808" cy="624.66937" rx="4.80808081" ry="4.80573326"></ellipse>
            <ellipse id="Oval-55-Copy-2" stroke="#DBDDE4" stroke-width="3.6" transform="translate(705.600000, 155.639881) scale(-1, 1) translate(-705.600000, -155.639881) " cx="705.6" cy="155.639881" rx="7.2" ry="7.19648459"></ellipse>
            <ellipse id="Oval-55-Copy-3" stroke="#DBDDE4" stroke-width="3.6" transform="translate(154.800000, 274.394598) scale(-1, 1) translate(-154.800000, -274.394598) " cx="154.8" cy="274.394598" rx="7.2" ry="7.19648459"></ellipse>
            <ellipse id="Oval-55-Copy-8" stroke="#DBDDE4" stroke-width="3.6" transform="translate(11.700000, 760.209349) scale(-1, 1) translate(-11.700000, -760.209349) " cx="11.7" cy="760.209349" rx="7.2" ry="7.19648459"></ellipse>
            <ellipse id="Oval-55-Copy-5" stroke="#DBDDE4" stroke-width="3.6" transform="translate(477.000000, 4.497803) scale(-1, 1) translate(-477.000000, -4.497803) " cx="477" cy="4.49780287" rx="4.5" ry="4.49780287"></ellipse>
            <ellipse id="Oval-55-Copy-10" stroke="#DBDDE4" stroke-width="3.6" transform="translate(603.900000, 755.711353) scale(-1, 1) translate(-603.900000, -755.711353) " cx="603.9" cy="755.711353" rx="4.5" ry="4.49780287"></ellipse>
            <polygon id="Triangle-8" stroke="#DBDDE4" stroke-width="3.6" stroke-linejoin="round" points="62.1 177.232419 71.1 193.726129 53.1 193.726129"></polygon>
            <polygon id="Triangle-8-Copy-3" stroke="#DBDDE4" stroke-width="3.6" stroke-linejoin="round" points="221.4 756.611492 230.4 773.105203 212.4 773.105203"></polygon>
            <polygon id="Triangle-8-Copy" stroke="#DBDDE4" stroke-width="3.6" stroke-linejoin="round" points="685.8 324.776158 694.8 341.269868 676.8 341.269868"></polygon>
            <polygon id="Triangle-8-Copy-4" stroke="#DBDDE4" stroke-width="3.6" stroke-linejoin="round" points="163.8 398.548027 172.8 415.041738 154.8 415.041738"></polygon>
            <polygon id="Triangle-8-Copy-2" stroke="#DBDDE4" stroke-width="3.6" stroke-linejoin="round" points="694.8 882.563465 703.8 899.057176 685.8 899.057176"></polygon>
        </g>
    </g>
</svg>